<?xml version="1.0" encoding="UTF-8" standalone="no"?>
<!-- Created with Inkscape (http://www.inkscape.org/) -->

<svg
   xmlns:dc="http://purl.org/dc/elements/1.1/"
   xmlns:cc="http://creativecommons.org/ns#"
   xmlns:rdf="http://www.w3.org/1999/02/22-rdf-syntax-ns#"
   xmlns:svg="http://www.w3.org/2000/svg"
   xmlns="http://www.w3.org/2000/svg"
   xmlns:sodipodi="http://sodipodi.sourceforge.net/DTD/sodipodi-0.dtd"
   xmlns:inkscape="http://www.inkscape.org/namespaces/inkscape"
   width="34.446129"
   height="26.575369"
   id="svg2"
   version="1.1"
   inkscape:version="0.48.4 r9939"
   sodipodi:docname="cloe_1.svg">
  <defs
     id="defs4" />
  <sodipodi:namedview
     id="base"
     pagecolor="#ffffff"
     bordercolor="#666666"
     borderopacity="1.0"
     inkscape:pageopacity="0.0"
     inkscape:pageshadow="2"
     inkscape:zoom="20.938161"
     inkscape:cx="14.228431"
     inkscape:cy="12.591846"
     inkscape:document-units="cm"
     inkscape:current-layer="layer1"
     showgrid="false"
     inkscape:window-width="1855"
     inkscape:window-height="1056"
     inkscape:window-x="65"
     inkscape:window-y="24"
     inkscape:window-maximized="1"
     units="cm"
     fit-margin-top="0"
     fit-margin-left="0"
     fit-margin-right="0"
     fit-margin-bottom="0"
     inkscape:snap-bbox="true"
     inkscape:bbox-nodes="true" />
  <metadata
     id="metadata7">
    <rdf:RDF>
      <cc:Work
         rdf:about="">
        <dc:format>image/svg+xml</dc:format>
        <dc:type
           rdf:resource="http://purl.org/dc/dcmitype/StillImage" />
        <dc:title />
      </cc:Work>
    </rdf:RDF>
  </metadata>
  <g
     inkscape:label="Layer 1"
     inkscape:groupmode="layer"
     id="layer1"
     transform="translate(-0.22691809,-1017.8898)">
    <g
       id="g3343"
       transform="matrix(0.11739877,0,0,0.11739877,-31.107924,964.31825)"
       inkscape:export-xdpi="8.2285709"
       inkscape:export-ydpi="8.2285709">
      <path
         sodipodi:nodetypes="zsssscssszzszssz"
         inkscape:connector-curvature="0"
         id="path4962"
         d="m 331.26873,472.61475 c -41.96067,17.06212 -69.39211,61.52864 -57.86606,132.84742 8.71201,53.90653 61.9571,68.2021 86.18783,-7.33516 21.6632,-67.5332 1.00187,-125.96476 -19.15285,-26.48796 -20.08722,99.14366 43.96011,94.25641 56.64353,56.64353 11.81772,-35.04563 44.01081,-22.0054 44.01081,-22.0054 0,0 -33.0081,-11.00272 -39.93573,17.93032 -6.28857,26.26404 14.23804,28.85889 25.64823,28.85889 11.41022,0 23.24405,-8.29165 23.25268,-23.9688 0.003,-7.70518 -1.17634,-20.73518 -8.96518,-22.82041 -7.78884,-2.08523 -11.70914,8.25752 -7.33513,13.04023 4.374,4.78271 36.65207,7.01391 62.35639,5.13304 31.60904,-2.31296 7.68484,-27.72618 -12.64049,-20.61832 -20.32534,7.10787 -8.31667,49.2837 16.92605,49.2837 40.75073,-3e-5 85.01046,-22.60617 31.15984,-98.18459 C 447.89179,437.50619 373.2294,455.55261 331.26873,472.61475 z"
         style="fill:none;stroke:#005691;stroke-width:7.70092821;stroke-linecap:butt;stroke-linejoin:miter;stroke-miterlimit:4;stroke-opacity:1;stroke-dasharray:none" />
      <path
         sodipodi:nodetypes="cszzzc"
         style="fill:none;stroke:#008ecf;stroke-width:4.62055683;stroke-linecap:round;stroke-linejoin:round;stroke-miterlimit:4;stroke-opacity:1;stroke-dasharray:none"
         d="m 419.08659,556.96878 c -8.74094,-2.10746 -19.06196,-1.03097 -22.61667,-26.08048 -2.42656,-17.09961 -1.22477,-36.67469 9.98393,-41.56577 11.2087,-4.89107 35.74073,5.93372 52.77223,17.93032 17.03146,11.99663 34.74218,32.6102 31.98931,44.14641 -2.75286,11.5362 -27.42097,5.41316 -27.42097,5.41316"
         id="path4970"
         inkscape:connector-curvature="0" />
      <path
         sodipodi:nodetypes="cscc"
         style="fill:none;stroke:#008ecf;stroke-width:4.62055683;stroke-linecap:round;stroke-linejoin:round;stroke-miterlimit:4;stroke-opacity:1;stroke-dasharray:none"
         d="m 379.96587,495.43516 c 2.44505,-11.41022 -28.75969,-8.90375 -42.78828,-2.03757 -14.21332,6.95659 -24.85796,11.41022 -37.08318,37.49067 -11.39149,27.86467 13.7467,23.36351 31.43856,24.05222"
         id="path4972"
         inkscape:connector-curvature="0" />
      <path
         style="fill:none;stroke:#008ecf;stroke-width:4.62055683;stroke-linecap:round;stroke-linejoin:round;stroke-miterlimit:4;stroke-opacity:1;stroke-dasharray:none"
         d="m 308.65207,667.19953 c 12.73336,16.50404 30.25018,13.93964 37.17781,7.012 6.92763,-6.92763 7.2405,-9.45704 7.2405,-9.45704"
         id="path4974"
         inkscape:connector-curvature="0"
         sodipodi:nodetypes="csc" />
      <path
         style="fill:none;stroke:#008ecf;stroke-width:4.62055683;stroke-linecap:round;stroke-linejoin:round;stroke-miterlimit:4;stroke-opacity:1;stroke-dasharray:none"
         d="m 447.79787,666.34805 c 11.90862,14.52818 20.428,15.62044 31.05578,12.77276 10.6278,-2.84771 15.17794,-17.35623 15.17794,-17.35623"
         id="path4976"
         inkscape:connector-curvature="0"
         sodipodi:nodetypes="csc" />
    </g>
  </g>
</svg>
