<svg version="1.1" xmlns="http://www.w3.org/2000/svg" viewBox="0 0 955.1666666666667 547.6428571428571" width="955.1666666666667" height="547.6428571428571">
  <!-- svg-source:excalidraw -->

  <defs>
    <style>
      @font-face {
        font-family: "Virgil";
        src: url("https://excalidraw.com/Virgil.woff2");
      }
      @font-face {
        font-family: "Cascadia";
        src: url("https://excalidraw.com/Cascadia.woff2");
      }
    </style>
  </defs>
  <rect x="0" y="0" width="955.1666666666667" height="547.6428571428571" fill="#ffffff"></rect><g stroke-linecap="round" transform="translate(275.66666666666663 10) rotate(0 197.99999999999994 223.99999999999997)"><path d="M0 0 C0 0, 0 0, 0 0 M0 0 C0 0, 0 0, 0 0 M0.15 6.45 C2.29 4.71, 4.29 1.73, 5.36 0.53 M-0.64 6.67 C0.73 4.84, 2.24 4, 5.19 0.69 M-0.59 12.46 C5.04 6.11, 7.22 4.16, 9.66 1.01 M-0.21 12 C1.93 8.91, 4.44 7.7, 11.12 0.34 M0.24 19.21 C4.25 11.27, 11.86 5.7, 15.15 -1.06 M0.14 18.69 C5.51 11.1, 12 3.98, 15.65 -0.26 M0.3 24.14 C8.7 16.63, 15.43 6.84, 19.56 -1.41 M-0.63 23.87 C8.73 14.49, 16.55 5.28, 20.97 0.06 M0.8 30.36 C10.54 19.76, 16.26 8.87, 24.76 -1.49 M0.38 30.77 C6.53 22.69, 12.28 14.37, 26.25 -0.69 M0.85 37.61 C9.84 25.16, 23.31 11.29, 30.08 -0.82 M-0.22 36.08 C10.83 24.26, 20.28 13.28, 30.9 -0.49 M1.66 43.32 C13.76 28.2, 25.08 16, 35.11 1.94 M0.18 43.33 C10.3 31.71, 20.48 19.29, 36.79 0.95 M0.89 49.55 C15.05 32.69, 33.02 13.71, 43.32 1.7 M-0.44 49.34 C12.06 34.59, 23 21.05, 41.86 -0.65 M-0.46 56.4 C15.28 38.2, 30.86 16.14, 49.07 1.64 M0.2 54.1 C15.9 36.21, 31.5 17.62, 48.21 0 M1.03 60.74 C15.88 43.17, 31.53 26.27, 53.19 1.82 M0.81 60.94 C14.58 44, 29.56 26.68, 53.7 -1.09 M-1.93 65.62 C21.72 45.22, 40.42 19.38, 58.05 1.99 M-0.57 66.38 C19.08 47.09, 35.88 24.93, 57.99 1.03 M-0.96 71.21 C17.44 53.58, 31.13 36.55, 63.11 -1.84 M0.82 72.64 C24.54 43.85, 49.62 15.92, 64.22 -0.69 M0.33 79.73 C24.21 51.93, 53.46 18.53, 67.98 1.36 M0.81 78.95 C24.92 50.42, 48.96 22.62, 69.05 0.92 M-0.77 86.91 C15.99 65.06, 33.8 46.97, 76.01 -1.71 M0.31 84.5 C27.51 54.33, 56.59 21.81, 74.24 0.39 M-0.99 90.68 C31.38 58.33, 59.42 23.85, 81.33 2.05 M0.3 91.6 C31.29 55.92, 62.57 19.61, 78.8 -0.22 M-2.2 98.57 C19.84 70.68, 43.16 45.35, 84.39 0.78 M-0.13 98.58 C18.93 74.58, 38.05 52.53, 84.53 -0.2 M0.96 104.67 C31.38 64.95, 64.97 28.04, 91.09 0.37 M0.5 103.17 C20.73 80.05, 39.29 57.67, 90.15 0.01 M-0.58 108.58 C38.23 64.69, 76.35 23.81, 96.27 1.14 M-0.48 108.95 C27.21 78.67, 53.8 45.28, 94.87 -0.06 M0.57 116.83 C29.86 81.5, 60.66 47.27, 98.8 0.57 M0.99 115.23 C21.26 90.89, 43.22 64.68, 100.5 -0.74 M-0.65 121.58 C42.81 74.67, 82.42 26.77, 105.18 -2.11 M-0.18 121.21 C34.02 83.44, 64.96 47.04, 107.02 -1.04 M1.11 130.05 C45.03 75.47, 86.84 26.32, 112.52 0.87 M0.68 127.89 C28.15 96.55, 54.3 66.28, 110.7 -0.54 M0.01 135.43 C43.63 83.13, 91.43 29.63, 115.54 -0.78 M-0.57 134.47 C43.47 84.6, 84.93 35.64, 117.04 0.55 M-0.67 141.89 C26.37 112.29, 50.97 82.78, 120.85 -0.51 M-0.56 139.76 C41.78 94.65, 80.95 48.01, 122.12 -0.22 M0.39 147.94 C30.83 112.17, 61.15 76.41, 127.29 2.06 M-0.46 145.09 C49.29 91.39, 95.26 36.64, 126.99 -0.1 M-0.38 151.3 C48.59 98.41, 97.62 41.27, 131.06 0.5 M-0.77 151.57 C51.09 94.88, 102.09 35.76, 131.7 -0.28 M1.13 159.57 C53.16 97.7, 109.68 35.66, 137.85 -1.22 M0.09 158.52 C49.43 102.16, 97.54 45.1, 137.87 1.11 M-1.42 164.87 C58.41 98.21, 113.88 32.48, 142.43 0.21 M-0.59 163.78 C42.28 117.47, 83.17 69.71, 142.56 -0.1 M-1.62 169.14 C54.75 107.3, 108.32 44.54, 147.19 -0.71 M-0.3 171.01 C56.02 105.89, 114.09 38.72, 147.59 -0.2 M1.47 177.04 C49.6 120.3, 97.87 63.63, 153.38 0.54 M-0.43 176.75 C32.58 138.69, 64.49 102.45, 153.56 -0.54 M-1.04 182.14 C54.04 123.76, 103.27 65.06, 158.05 -0.75 M0.09 183.54 C37.86 137.09, 77.6 91.85, 158.48 -0.44 M-1.24 187.86 C45.73 138.31, 90.59 83.2, 162.92 -0.16 M-0.55 188.85 C44.77 136.74, 91.7 82.9, 164.13 0.3 M0.23 196.41 C52.72 137.38, 104.04 77.54, 170.87 0.56 M0.48 195.66 C60.03 126.4, 121.15 56.35, 169.36 0.1 M1 200.69 C52.39 142.83, 103.74 87.41, 175.31 -1.75 M-0.89 201.05 C57.37 137.89, 112.33 73.16, 174.91 -0.45 M1.82 208.43 C60.99 137.52, 122.77 67.18, 179.46 -0.58 M-0.24 207.17 C45.18 155.73, 89.51 105.39, 179.95 0.18 M-0.03 212.15 C53.98 152.4, 108.27 92.33, 185.54 -1.07 M0.63 213.81 C58.09 144.74, 118.41 77.04, 185.31 0.23 M0.16 218.91 C69.09 139.57, 137.1 62.5, 191.57 0.75 M-0.31 219.62 C53.87 156.28, 108.8 92.51, 190 0.07 M-0.93 226.67 C56.65 162.19, 110.02 99.31, 196.98 0.15 M0.46 225.2 C66.86 148.15, 133.44 69.75, 195.93 -0.69 M-1.23 230.65 C61.46 162.49, 123.43 88.85, 202.03 0.84 M0.42 232.37 C73.67 146.14, 149.16 60.71, 201.46 0.56 M0.92 237.45 C41.67 190.2, 84.11 139.23, 207.28 0.41 M0.49 236.97 C48.32 180.33, 98.01 123.26, 207.62 -0.72 M-0.73 242.48 C46.53 192.4, 93.92 138.58, 212.99 1.33 M0.61 243.62 C46.79 187.82, 93.61 133.53, 211.8 0.74 M-0.06 249.6 C55.54 185.53, 113.17 117.84, 218.86 -0.27 M0.33 249.82 C69.4 168.62, 140.54 86.58, 218.02 -0.22 M-0.03 256.78 C70.51 175.73, 140.61 92.5, 223.32 -1.07 M0.66 255.4 C64.49 182.63, 128.45 108.22, 222.22 0.38 M0.81 263.35 C89.37 159.07, 180.19 54.51, 228.88 0.78 M-0.47 262.73 C68.5 182.34, 138.07 103.17, 228.06 -0.02 M-0.28 267.8 C81.89 175.14, 161.07 82.89, 233.05 0.47 M-0.04 267.66 C56.66 202.4, 111.99 138.89, 233.7 0.41 M-0.85 275.27 C93.01 163.9, 187.61 53.45, 238.4 0.23 M-0.28 274.18 C83.13 179.45, 165.51 85.59, 238.8 0.11 M0.95 280.06 C53.71 220.76, 108.06 159.34, 244.36 0.01 M-0.52 281.29 C68.26 204, 135.33 127.24, 244 -0.37 M1.19 287.2 C52.29 226.24, 102.33 167.01, 248.11 0.38 M-0.22 286.32 C99.02 172.4, 198.49 57.16, 248.5 0.19 M0.77 292.83 C94.37 186.24, 187.71 76.72, 255.29 -0.99 M-0.17 293.26 C57.91 227.22, 115.18 162.85, 254.76 0.41 M-0.83 297.79 C54.12 232.66, 111.6 168.61, 260.56 -0.63 M-0.06 298.53 C78.79 208.63, 155.23 120.45, 259.38 0.1 M0.97 304.15 C57.45 236.54, 116.14 170.14, 266.18 -0.78 M0.58 304.34 C61.38 233.78, 124.34 161.6, 265.64 -0.44 M-1.04 311.64 C97.34 200.02, 192.67 88.39, 269.92 -0.57 M0.26 311.48 C64.23 235.39, 129.12 161.41, 269.73 -0.18 M-0.42 316.01 C84.26 220.92, 167.56 125.61, 275.98 -0.57 M0.06 316.31 C82.04 224.76, 163.16 130.89, 275.3 -0.35 M-0.32 323.57 C59.39 254.62, 119.73 183.54, 281.09 -0.77 M-0.51 323.44 C85.25 224, 172.05 125.06, 280.99 0.5 M0.34 329.02 C94.44 220.91, 191.14 109.96, 285.65 -0.9 M0.69 328.72 C87.19 230.11, 174.22 130.49, 286.18 0.13 M0.58 335.76 C97.39 225.36, 191.91 115.73, 290.4 -0.36 M0.35 335.39 C103.85 216.48, 207.42 97.1, 291.58 -0.25 M0.11 342.49 C97.81 229.62, 196.69 114.98, 296.71 -0.75 M0.16 341.61 C118.02 204.58, 236.66 68.63, 297.39 -0.51 M0.47 347.05 C82.83 249.71, 167.63 154.4, 301.69 0.42 M-0.09 347.38 C98.71 235.26, 196.39 121.96, 301.89 0.46 M-0.65 354.6 C98.81 239.3, 197.95 126.06, 308.33 -0.7 M0.04 353.9 C70.37 271.58, 141.98 188.92, 307.7 -0.44 M-0.05 358.69 C123.35 217.85, 245.6 75.99, 312.95 -0.44 M0.71 358.93 C100.9 246.41, 200.93 132.06, 312.44 0.16 M0.37 365.9 C68.78 285.65, 138.21 206.56, 318.78 0.05 M0.11 365.53 C95.1 255.61, 190.05 146.88, 317.88 0.03 M-0.51 372.01 C83.2 275.92, 165.34 181.41, 323.64 -0.32 M-0.08 371.97 C105.55 252.59, 210.74 130.87, 323.41 0.36 M0.1 377.02 C108.75 251.2, 219.27 124.41, 328.13 -0.67 M0.47 377.59 C68.44 299.27, 135.71 222.2, 328.93 -0.69 M-0.48 384.75 C129.42 235.69, 259.32 84.25, 333.54 -0.36 M-0.13 383.86 C103.36 264.99, 205.89 145.89, 333.58 0.41 M0.9 389.97 C98.84 275.57, 197.01 161.66, 340.08 -0.45 M0.67 389.9 C134.45 237.35, 267.67 84.5, 339.35 -0.12 M0.84 396.69 C129.57 247.5, 260.48 99.31, 344.96 -0.72 M-0.02 395.85 C104.92 273.12, 210.92 150.82, 344.8 -0.16 M0.53 401.96 C104.69 281.25, 208.58 163.08, 349.47 0.97 M0.19 402.4 C80.14 311.58, 158.47 221.47, 349.84 0.38 M-0.1 408.79 C120.01 270.15, 240.34 131, 355.59 0.01 M-0.07 407.93 C122.34 269.52, 242.08 130.99, 355.05 0.24 M0.58 414.32 C95.84 306.12, 191.82 195.92, 360.11 -0.42 M-0.14 414.86 C105.26 292.25, 211.88 170.01, 359.88 0.33 M-0.47 420.75 C90.77 317.1, 180.1 212.25, 365.76 -0.78 M-0.47 420.75 C107.88 297.67, 216.55 172.51, 366.14 0.13 M0.06 426.66 C112.25 297.08, 224.44 167.7, 370.48 0.4 M-0.05 427.04 C119.32 290.33, 238.81 152.12, 370.55 0.2 M-0.48 433.6 C83.75 335.74, 168.18 238.45, 376 0.7 M0.17 432.99 C92.98 325.57, 186.54 217.74, 376.07 0.15 M0.46 439.41 C86.21 343.01, 170.5 244.08, 381.92 0.93 M-0.02 438.44 C96.06 330, 191.49 219.47, 381.2 0.41 M-0.1 445.41 C95.98 338.13, 191.66 229.32, 386.27 -0.6 M-0.35 445.51 C130.76 295.11, 262.6 143.7, 387.41 0.22 M2.39 449.07 C91.82 345.18, 181.6 243.15, 392.4 0.61 M1.38 449.55 C139.8 289.41, 278.07 129.55, 392.36 0.11 M6.13 449.55 C94.71 350.82, 180.61 251.4, 397.68 0.64 M6.61 449.58 C123.68 317.57, 239.43 184.31, 396.69 0.72 M11.64 449.39 C99.02 351.3, 184.6 251.42, 396.17 6.88 M12.32 449.03 C139.55 302.82, 266.8 156.51, 397.05 6.72 M16.72 449.54 C138.48 309.48, 260.85 168, 397.4 12.32 M17.26 449.32 C137.07 313.3, 256.5 175.63, 397.31 12.78 M22.74 449.73 C140.76 312.5, 259.92 175.41, 396.12 19.28 M22.92 449.26 C97.59 361.53, 173.51 274.6, 396.71 18.88 M28.66 449.19 C123.88 337.89, 221.12 224.58, 396.02 26 M27.71 449.89 C163.74 293.27, 300.76 135.71, 396.4 25.28 M33.23 448.87 C145.1 320, 257.93 191.47, 397.45 31.54 M33.47 449.37 C114.84 356.02, 196.11 262.26, 396.83 31.36 M38.68 448.96 C113.82 362.78, 189.3 275.93, 397.24 36.7 M38.8 449.42 C151.39 317.66, 264.66 186.7, 397.06 37.86 M44.86 449.56 C184.17 289.09, 322.18 130.24, 397.36 43.07 M44.05 449.38 C173.88 298.19, 304.89 147.38, 397.13 42.92 M49.75 449.73 C144.96 341, 239.55 231.89, 396.62 49.67 M49.37 449.53 C182.36 294.94, 316 141.04, 396.56 49.74 M54.8 449.77 C150.2 339.34, 245.13 229.76, 396.2 55.22 M54.94 449.05 C139.84 350.03, 225 251.6, 396.66 56.18 M59.04 448.73 C132.51 366.34, 202.71 284.41, 397.78 62.21 M59.84 449.37 C154.06 344.01, 247.12 236.83, 396.67 61.88 M66.02 449.84 C151.35 352.78, 235.45 255.17, 396.13 67.47 M65.43 449 C196.61 300.13, 325.87 151.17, 396.81 67.8 M69.91 450.02 C179.88 323.27, 289.89 197.21, 396.57 73.18 M70.23 449.19 C158.4 348.26, 248.21 245.54, 396.93 73.37 M75.26 448.47 C181.08 328.87, 286.29 209.71, 396.3 79.53 M75.75 448.78 C190.2 318.16, 303.07 188.27, 397.04 79.81 M81.62 449.17 C144.11 374.2, 208.21 300.87, 397.22 86.2 M81.39 449.12 C186.27 327.2, 292.73 205.32, 396.83 86.55 M86.85 448.39 C173.41 350.87, 259.05 252.16, 396.38 92.45 M86.84 448.86 C153.31 370.26, 221.31 292.53, 397.01 92.24 M91.41 448.56 C190.2 337.53, 287.6 225.34, 396.31 97.77 M92.1 449.72 C212.85 308.6, 334.48 168.67, 396.31 98.81 M96.35 450.01 C156.97 379.95, 219.23 308.21, 396.7 103.29 M96.58 449.32 C187.21 345.15, 276.87 241.65, 397.21 104.09 M102.31 448.74 C172.73 369.25, 243.39 288.11, 396.25 110.99 M102.74 449.61 C183.1 356.4, 263.26 263.32, 396.61 110.61 M107.57 450.36 C164.51 383.65, 222.43 316.24, 396.71 117.56 M107.23 449.88 C173.58 373.83, 240.65 296.36, 396.15 117.24 M113.82 448.8 C189.57 363.31, 265.19 274.96, 397.07 122.6 M113.32 449.52 C212.83 335.99, 312.91 221.47, 397.25 122.27 M116.94 450.45 C190.11 366.97, 261.22 286.97, 396.62 128.6 M117.44 449.34 C195.55 359.86, 274.62 268.96, 397.2 129.38 M123.91 449.23 C221.35 338.55, 318.04 228.35, 397.95 133.94 M123.79 449.16 C203.39 358.48, 282.85 266.18, 397.36 134.29 M128.92 449.5 C222.98 340.83, 316.3 231.55, 396.33 140.23 M128.3 449.82 C191.85 376.18, 256.58 302.72, 397.26 140.67 M134.43 448.89 C238.9 330.25, 342.75 210.94, 397.55 147.46 M134.7 449.74 C221.95 349.45, 310.04 247.54, 396.63 147.67 M139.94 448.89 C237.27 335.71, 335.76 221.07, 397.43 153.27 M139.08 450.02 C223.11 354.85, 306.5 258.48, 396.85 152.6 M143.77 448.17 C230.63 351.65, 318.8 252.47, 397.85 160.06 M144.28 449.01 C197.43 389.76, 250.04 330.4, 396.48 158.93 M149.68 449.04 C205.99 383.54, 263.97 317.47, 396.69 164.41 M149.81 449.72 C217.48 372.39, 284.83 295.48, 397.16 164.99 M154.67 448.17 C224.54 366.62, 294.95 286.77, 396.88 170.58 M156.03 449.72 C250.8 340.06, 345.93 230.08, 396.71 170.99 M160.6 450.41 C225.8 375.88, 293.09 299.18, 395.63 177.41 M160.81 449.5 C223.32 379.39, 285.37 309.16, 396.44 178.23 M166.22 449.51 C255.21 345.74, 345.18 241.44, 397.29 183.2 M166.31 448.52 C228.53 375.2, 292.65 302.8, 397.52 184.02 M172.07 449.57 C241.7 372.13, 311.04 292.55, 397.86 189.71 M170.83 448.88 C258.11 348.5, 345.56 249.36, 396.67 189.57 M176.99 448.17 C249.11 365.56, 322.08 282.16, 397.18 194.76 M176.86 448.71 C263.14 350.21, 349.81 250.97, 396.74 195 M180.89 450.7 C266.39 351.95, 351.07 253.15, 398.18 202.82 M181.45 449.55 C261.01 358.13, 339.79 267.91, 396.59 202.25 M186.38 449.93 C237.87 389.77, 289.24 329.37, 395.43 209.29 M186.96 448.39 C265.31 359.59, 343.51 271.01, 396.46 208.36 M193.75 448.66 C238.11 394.64, 283.44 343.14, 396.67 212.62 M192.77 449.38 C245.54 389.12, 298.53 329.67, 397.63 214.03 M199.2 447.67 C246.12 393.02, 292.14 338.59, 396.14 220.3 M197.88 448.83 C237.71 401.23, 279.85 354.36, 397.17 220.51 M203.98 449.35 C275.27 367.46, 348.72 283.08, 397.56 225.44 M202.25 449.8 C267.74 376.21, 332.95 301.97, 396.98 226.55 M209.41 448.26 C253.41 395.49, 301.02 343.7, 397.72 233.36 M207.47 449.02 C281.28 365.86, 355.46 280.8, 396.84 233.01 M215 448.79 C252.62 406.8, 292.13 362.54, 395.49 237.79 M214.26 449.59 C284.7 366.89, 356.6 284.02, 396.11 238.47 M218.03 448.56 C277.57 377.69, 340.52 309.3, 396.38 244.61 M219.15 449.16 C283.31 376.08, 346.72 303.55, 397.42 244.66 M224.84 448.74 C263.38 403.83, 299.06 362.68, 397.11 251.99 M224.67 449.94 C271.55 394.95, 318.17 340.83, 397.19 250.45 M228.53 449.9 C274.53 396.03, 322.13 342.11, 396.3 257.65 M229.87 450.18 C272.39 401.61, 314.68 353.05, 397.49 255.9 M233.32 449.54 C277.91 401.6, 319.69 352.75, 397.64 264.1 M234.9 449.16 C288.52 387.6, 342.33 326.25, 396.39 263.07 M238.57 450.36 C292.78 388.38, 346.51 328.85, 395.37 270.69 M239.34 449.54 C300.01 381.34, 359.52 312.34, 396.86 269.07 M244.11 448.17 C295.19 395.09, 343.11 337.42, 397.05 274.7 M245.28 449.78 C296.76 389.47, 348.48 329.65, 396.89 274.22 M250.26 450.31 C287.23 408.63, 321.09 369.76, 395.41 280.97 M250.71 449.34 C295.8 396.81, 343.05 343.25, 396.89 281.23 M256.57 449.9 C303.45 390.49, 354.19 336.23, 398.42 285.31 M255.75 449.65 C287.56 414.41, 316.66 380.01, 397.92 287.44 M261.97 451.08 C299.19 405.82, 337.58 362.76, 396.84 294.96 M261.29 449.09 C291.15 412.54, 322.85 375.38, 397.46 292.62 M266.82 449.94 C296.82 413.56, 327.28 378.92, 394.94 301.22 M266.66 449.31 C304.15 406.7, 342.21 362.89, 396.04 300.1 M273.44 449.52 C319.92 397.18, 367.43 342.26, 395.72 306.31 M271.71 449.89 C315.73 396.96, 359.93 345.14, 396.82 304.73 M276.48 448.02 C302.9 420.33, 330.1 388.4, 396.1 311.43 M277.99 449.58 C304.24 418.51, 332.37 384.81, 396.15 311.08 M283.39 450.63 C308.33 421.49, 333.21 391.66, 396.06 318.93 M281.65 449.8 C317.93 409.36, 351.3 367.89, 397.31 316.8 M288.2 448.43 C318.86 412.49, 350.87 375.78, 395.66 325.26 M288.05 448.72 C323.75 408.87, 360.33 366.67, 397.61 323.72 M292.53 451.05 C325.01 414.53, 360.54 375.1, 395.96 328.33 M292.87 450.45 C330.68 405.58, 367.52 363.03, 396.38 330.76 M299.13 449.35 C317.18 425.9, 337.87 399.75, 395.38 336.5 M298.69 449.17 C337.5 405.12, 376.29 360.53, 397.31 335.29 M304.99 448.16 C338.39 410.73, 368.43 372.98, 396.01 343.5 M304.09 450.31 C323.05 427.59, 343.99 404, 395.86 341.63 M310.89 448.91 C328 425.71, 349.79 403.45, 398.55 349.87 M310.23 448.66 C331.84 421.92, 356.57 393.63, 398.14 348.84 M314.45 450.34 C336 426.39, 355.87 401.61, 397.36 353.67 M313.98 449.6 C346.16 415.24, 376.51 378.82, 397.08 354.97 M319.7 447.2 C351.13 415.94, 379.17 380.73, 395.35 359.86 M320.47 449.17 C343.99 420.48, 370.02 391.02, 397.3 360.91 M326.12 450.93 C345.55 423.96, 369.5 399.61, 398.35 367.29 M324.23 449.3 C352.55 418.65, 380.38 386.22, 396.53 366.83 M329.6 449.06 C349.08 428.31, 369.21 406.48, 395.44 373.63 M329.06 450.69 C353.92 422.83, 375.74 395.03, 395.95 373.57 M334.72 450.22 C359.84 421.35, 383.03 392.16, 395.86 378.78 M336.49 450.19 C350.41 433.53, 364.6 417, 398.17 377.55 M341.15 451.02 C356.09 432.38, 367.86 415.05, 398.06 385.59 M341.09 449.25 C356.9 432.95, 371.13 414.81, 396.27 383.91 M346.51 449.5 C355.49 436.51, 367.28 424.54, 398.63 391.27 M345.42 449.78 C359.39 432.5, 375.41 416.25, 395.8 391.47 M349.48 447.84 C368.4 431.4, 384.3 411.45, 396.63 396.35 M350.15 450.37 C362.23 436.23, 374.61 423.67, 397.08 396.04 M357.3 449.01 C368.41 435.34, 380.21 422.88, 395.92 403.61 M357.64 449.36 C365.96 439.72, 373.88 429.21, 396.66 402.93 M360.9 451.5 C370.37 441, 378.02 429.4, 396.09 407.51 M362.01 449.1 C373.6 435.24, 386.48 422.03, 398.18 408.8 M366.41 449.97 C374.47 443.34, 379.04 432.7, 395.53 416.88 M366.77 448.99 C374.49 442.4, 380.89 435.55, 396.51 415.83 M374.26 449.95 C379.88 442.67, 384.82 432.89, 398.29 420.37 M372.88 449.74 C379.08 442.16, 385.26 435.92, 396.69 421.61 M378.7 448.54 C381.08 445.12, 386.39 441.43, 396.47 425.36 M378.4 448.47 C381.2 445.38, 386.21 439.89, 397.27 427.55 M382.92 449.1 C388.87 443.93, 393.42 436.15, 398.54 434.95 M382.5 448.89 C385.11 446.8, 389.05 442.77, 396.71 434.33 M389.8 449.6 C390.41 446.19, 392.95 444.21, 397.17 440.08 M388.93 448.71 C390.33 447.34, 393.08 444.36, 396.6 439.74 M393.43 449.85 C393.93 448.36, 395.22 448.04, 396.63 445.43 M393.5 449.73 C394.56 448.57, 395.56 447.57, 396.78 445.53" stroke="#ced4da" stroke-width="0.5" fill="none"></path><path d="M1.05 -0.22 C143.15 2.19, 285.33 2.18, 397.09 -0.84 M-0.12 0.17 C109.07 -0.59, 217.77 -0.17, 395.84 -0.46 M396.23 -0.11 C393.82 148.81, 393.67 297.6, 396.12 448.16 M396.22 -0.07 C394.26 101.96, 395.05 203.95, 396.14 447.88 M395.65 447.11 C285.1 447.41, 174.12 447.01, 0.64 447.14 M395.43 447.59 C288.95 448.15, 181.11 448.03, 0.29 448.09 M-0.43 447.81 C-1.39 339.65, -2.32 232.41, -0.52 0.57 M-0.48 448.18 C-1.65 282.19, -1.35 115.61, 0.21 -0.27" stroke="#000000" stroke-width="1" fill="none"></path></g><g stroke-linecap="round" transform="translate(10 60) rotate(0 61 196.50000000000003)"><path d="M0.02 1.12 L120.5 -0.58 L123.36 393.15 L-1.99 391.57" stroke="none" stroke-width="0" fill="#15aabf"></path><path d="M-0.05 -0.59 C33.06 -1.16, 70.72 0.19, 120.51 1.19 M-0.69 -0.43 C44.76 -0.06, 88.5 1.63, 122.08 0.29 M121 -0.58 C122.77 102.03, 122.6 202.4, 121.77 392.48 M122.35 0.51 C119.6 110.31, 119.78 219.78, 122.52 392.94 M121.5 393.65 C75.07 391.68, 27.54 392.69, 0.28 392.83 M122.31 392.38 C73.93 392.27, 27.16 391.19, 0.4 392.01 M-0.83 392.27 C-0.65 244.95, -0.44 94.98, -0.31 1.03 M-0.12 393.09 C-0.93 293.14, -1.12 193.37, 0.21 -0.57" stroke="#000000" stroke-width="1" fill="none"></path></g><g transform="translate(28 244.5) rotate(0 44.5 13)"><text x="0" y="19" font-family="Virgil, Segoe UI Emoji" font-size="20px" fill="#000000" text-anchor="start" style="white-space: pre;" direction="ltr">simulator</text></g><g stroke-linecap="round" transform="translate(823.1666666666667 61.166666666666686) rotate(0 61 196.5)"><path d="M-0.72 -0.64 L122.85 -0.04 L120.16 391.27 L-1.79 391.68" stroke="none" stroke-width="0" fill="#15aabf"></path><path d="M0.45 0.24 C47.52 1.13, 95.4 0.52, 122.61 -1.13 M0.85 -0.42 C30.98 -0.8, 62.49 -0.81, 121.51 0.54 M122.13 -0.03 C122.03 146.94, 122.86 294.53, 122.56 393.95 M121.76 0.3 C123.67 102.15, 122.73 204.05, 122.12 393.21 M123.81 392.04 C74.79 392.84, 25.39 391.25, 0.48 393.1 M122.87 392.82 C77.28 394.05, 30.52 394.33, -0.29 393 M0.23 393.57 C0.38 291.78, -0.21 192.45, 0.79 -0.5 M-0.22 393.55 C-0.72 271.87, -0.92 150.71, -0.14 -0.48" stroke="#000000" stroke-width="1" fill="none"></path></g><g transform="translate(841.1666666666667 245.66666666666669) rotate(0 46 13)"><text x="0" y="19" font-family="Virgil, Segoe UI Emoji" font-size="20px" fill="#000000" text-anchor="start" style="white-space: pre;" direction="ltr">controller</text></g><g stroke-linecap="round" transform="translate(220.5 201.83333333333331) rotate(0 47.5 53.5)"><path d="M0.88 -0.97 L96.5 -0.45 L93.96 107.45 L0.33 105.32" stroke="none" stroke-width="0" fill="#ced4da"></path><path d="M1.39 -1.24 C21.5 1.44, 43.68 1.54, 93.64 -1.53 M0.21 0.64 C35.87 -0.79, 71.81 -0.18, 94.71 -0.26 M96.62 0.17 C95.78 39.45, 95.97 79.03, 96.71 107.21 M95.5 -0.04 C96.87 32.31, 95.89 65, 94.74 107.34 M93.96 106.76 C59.64 105.78, 28.61 109.05, -0.97 106.45 M94.73 106 C66.6 106.16, 39.63 107.38, -0.73 106.19 M-0.7 106.97 C-2.01 74.68, 0.01 45.08, -1.53 0.65 M0.29 107.35 C1.55 78.15, 0.68 49.61, 0.1 0.19" stroke="#000000" stroke-width="1" fill="none"></path></g><g transform="translate(222.5 228.33333333333331) rotate(0 44.5 26)"><text x="44.5" y="19" font-family="Virgil, Segoe UI Emoji" font-size="20px" fill="#000000" text-anchor="middle" style="white-space: pre;" direction="ltr">simulator</text><text x="44.5" y="45" font-family="Virgil, Segoe UI Emoji" font-size="20px" fill="#000000" text-anchor="middle" style="white-space: pre;" direction="ltr">plugin</text></g><g stroke-linecap="round" transform="translate(628.5 201.83333333333331) rotate(0 47.5 53.5)"><path d="M1.45 -0.25 L95.33 0.91 L94.27 105.15 L-0.04 108.79" stroke="none" stroke-width="0" fill="#ced4da"></path><path d="M0.14 0.07 C20.43 -0.89, 44.88 2.35, 94.99 -0.34 M-0.56 -0.5 C34.14 1.3, 69.25 0.56, 94.95 0.96 M94.76 0.58 C96.32 41.25, 96.57 83.84, 94.75 105.8 M95.54 -0.98 C94.92 27.75, 93.88 56.9, 94.34 106.68 M95.34 107.23 C62.99 108.82, 26.32 108.34, -1.27 105.98 M94.99 107.41 C66.34 107.59, 35.73 108.3, -0.72 107.53 M-0.54 107.71 C0.22 74.46, -0.87 38.29, -0.83 0.25 M0.42 106.77 C-1.69 75.49, -1.54 44.17, 0.97 0.3" stroke="#000000" stroke-width="1" fill="none"></path></g><g transform="translate(629 228.33333333333331) rotate(0 46 26)"><text x="46" y="19" font-family="Virgil, Segoe UI Emoji" font-size="20px" fill="#000000" text-anchor="middle" style="white-space: pre;" direction="ltr">controller</text><text x="46" y="45" font-family="Virgil, Segoe UI Emoji" font-size="20px" fill="#000000" text-anchor="middle" style="white-space: pre;" direction="ltr">plugin</text></g><g stroke-linecap="round" transform="translate(365.88095238095264 80.80952380952374) rotate(0 109.58333333333354 165.4166666666667)"><path d="M-0.62 0.57 L219.66 -0.17 L218.53 329.67 L0.26 332.52" stroke="none" stroke-width="0" fill="#fff"></path><path d="M0.41 0.4 C72.35 0.57, 146.43 0.23, 220.49 0.6 M0.47 -0.84 C77.3 -0.51, 154.24 -0.31, 219.97 -0.7 M219.43 -1.07 C218.57 75.64, 218.41 152.23, 220.42 331.81 M218.79 -0.52 C220.91 88.26, 221.07 175.18, 218.9 330.47 M219.74 329.39 C175.47 332.32, 130.49 331.15, -1.11 331.44 M219.82 330.16 C143.12 332.2, 66.71 332.14, 0.11 330.82 M-0.61 332.15 C2.31 240.96, 0 151.3, 0.73 -0.95 M0.21 331.41 C1.64 203.79, 1.04 77.02, 0.42 0.59" stroke="#000000" stroke-width="1" fill="none"></path></g><g transform="translate(442.5476190476194 91.30952380952374) rotate(0 31 13)"><text x="0" y="19" font-family="Virgil, Segoe UI Emoji" font-size="20px" fill="#000000" text-anchor="start" style="white-space: pre;" direction="ltr">Vehicle</text></g><g stroke-linecap="round" transform="translate(442.5476190476195 124.14285714285725) rotate(0 33.333333333333314 30.8333333333333)"><path d="M11.56 7.4 C11.56 7.4, 11.56 7.4, 11.56 7.4 M11.56 7.4 C11.56 7.4, 11.56 7.4, 11.56 7.4 M0.8 25.87 C4.99 21.05, 9.18 16.23, 19.17 4.74 M0.8 25.87 C6.55 19.25, 12.3 12.64, 19.17 4.74 M1.85 30.76 C8.44 23.18, 15.04 15.59, 26.78 2.08 M1.85 30.76 C9.82 21.59, 17.8 12.42, 26.78 2.08 M2.9 35.65 C9.93 27.56, 16.96 19.47, 33.74 0.18 M2.9 35.65 C14.67 22.11, 26.44 8.57, 33.74 0.18 M3.95 40.54 C16.12 26.54, 28.29 12.53, 38.07 1.29 M3.95 40.54 C13.05 30.07, 22.15 19.61, 38.07 1.29 M4.35 46.18 C15.49 33.36, 26.63 20.55, 41.74 3.16 M4.35 46.18 C15.7 33.12, 27.06 20.05, 41.74 3.16 M7.37 48.8 C20.62 33.55, 33.88 18.3, 46.07 4.28 M7.37 48.8 C22.78 31.07, 38.2 13.33, 46.07 4.28 M10.38 51.43 C24.53 35.16, 38.68 18.88, 49.75 6.15 M10.38 51.43 C24.11 35.64, 37.83 19.86, 49.75 6.15 M13.4 54.05 C22.76 43.29, 32.11 32.54, 54.08 7.26 M13.4 54.05 C23.98 41.88, 34.56 29.71, 54.08 7.26 M17.08 55.92 C32.38 38.32, 47.68 20.72, 57.1 9.88 M17.08 55.92 C27.58 43.84, 38.08 31.76, 57.1 9.88 M20.1 58.55 C28.98 48.32, 37.87 38.1, 59.46 13.26 M20.1 58.55 C32.84 43.88, 45.59 29.22, 59.46 13.26 M23.12 61.17 C34.15 48.47, 45.19 35.78, 61.82 16.64 M23.12 61.17 C37.35 44.8, 51.58 28.43, 61.82 16.64 M28.76 60.78 C37.09 51.19, 45.42 41.61, 64.19 20.02 M28.76 60.78 C38.95 49.05, 49.14 37.33, 64.19 20.02 M34.4 60.38 C41.95 51.7, 49.5 43.02, 66.55 23.4 M34.4 60.38 C42.88 50.63, 51.35 40.89, 66.55 23.4 M39.39 60.74 C49.83 48.73, 60.27 36.72, 68.26 27.53 M39.39 60.74 C50.26 48.23, 61.14 35.72, 68.26 27.53 M45.69 59.59 C53.19 50.96, 60.69 42.33, 67.34 34.69 M45.69 59.59 C52.74 51.48, 59.8 43.36, 67.34 34.69" stroke="#868e96" stroke-width="0.5" fill="none"></path><path d="M33.33 0 C40.09 -0.39, 49.22 2.94, 54.68 7.15 C60.15 11.37, 64.85 18.82, 66.12 25.3 C67.4 31.77, 65.85 40.28, 62.35 46.01 C58.85 51.74, 51.77 57.35, 45.11 59.68 C38.45 62, 29.13 62.12, 22.41 59.96 C15.68 57.8, 8.44 52.37, 4.77 46.73 C1.1 41.09, -0.7 32.63, 0.39 26.12 C1.48 19.62, 5.96 12.05, 11.3 7.7 C16.64 3.35, 28.76 1.29, 32.43 0.01 C36.1 -1.27, 33.18 -0.1, 33.33 0 C33.48 0.1, 33.33 0.1, 33.33 0.62 M33.33 0 C40.09 -0.39, 49.22 2.94, 54.68 7.15 C60.15 11.37, 64.85 18.82, 66.12 25.3 C67.4 31.77, 65.85 40.28, 62.35 46.01 C58.85 51.74, 51.77 57.35, 45.11 59.68 C38.45 62, 29.13 62.12, 22.41 59.96 C15.68 57.8, 8.44 52.37, 4.77 46.73 C1.1 41.09, -0.7 32.63, 0.39 26.12 C1.48 19.62, 5.96 12.05, 11.3 7.7 C16.64 3.35, 28.76 1.29, 32.43 0.01 C36.1 -1.27, 33.18 -0.1, 33.33 0 C33.48 0.1, 33.33 0.1, 33.33 0.62" stroke="#000000" stroke-width="1" fill="none"></path></g><g transform="translate(451.7142857142861 132.3095238095239) rotate(0 24.5 21)"><text x="24.5" y="15" font-family="Virgil, Segoe UI Emoji" font-size="16px" fill="#000000" text-anchor="middle" style="white-space: pre;" direction="ltr">ego</text><text x="24.5" y="36" font-family="Virgil, Segoe UI Emoji" font-size="16px" fill="#000000" text-anchor="middle" style="white-space: pre;" direction="ltr">sensor</text></g><g stroke-linecap="round" transform="translate(443.38095238095286 198.3095238095239) rotate(0 33.333333333333314 30.833333333333314)"><path d="M11.56 7.4 C11.56 7.4, 11.56 7.4, 11.56 7.4 M11.56 7.4 C11.56 7.4, 11.56 7.4, 11.56 7.4 M0.8 25.87 C7.05 18.69, 13.29 11.5, 19.17 4.74 M0.8 25.87 C6.58 19.22, 12.36 12.58, 19.17 4.74 M1.85 30.76 C8.56 23.04, 15.27 15.33, 26.78 2.08 M1.85 30.76 C10.57 20.73, 19.28 10.71, 26.78 2.08 M2.9 35.65 C12.84 24.21, 22.79 12.77, 33.74 0.18 M2.9 35.65 C14.78 21.99, 26.65 8.33, 33.74 0.18 M3.95 40.54 C13.71 29.31, 23.47 18.09, 38.07 1.29 M3.95 40.54 C13.23 29.87, 22.5 19.2, 38.07 1.29 M4.35 46.18 C16.06 32.7, 27.77 19.23, 41.74 3.16 M4.35 46.18 C19.24 29.04, 34.14 11.9, 41.74 3.16 M7.37 48.8 C20.54 33.65, 33.71 18.49, 46.07 4.28 M7.37 48.8 C16.07 38.79, 24.77 28.78, 46.07 4.28 M10.38 51.43 C18.34 42.27, 26.3 33.12, 49.75 6.15 M10.38 51.43 C22.88 37.05, 35.38 22.68, 49.75 6.15 M13.4 54.05 C23.48 42.47, 33.55 30.88, 54.08 7.26 M13.4 54.05 C24.92 40.8, 36.44 27.55, 54.08 7.26 M17.08 55.92 C27.3 44.16, 37.53 32.4, 57.1 9.88 M17.08 55.92 C25.23 46.54, 33.38 37.17, 57.1 9.88 M20.1 58.55 C29.94 47.23, 39.78 35.91, 59.46 13.26 M20.1 58.55 C34.66 41.79, 49.23 25.03, 59.46 13.26 M23.12 61.17 C31.48 51.54, 39.85 41.92, 61.82 16.64 M23.12 61.17 C35.38 47.06, 47.65 32.94, 61.82 16.64 M28.76 60.78 C39.96 47.9, 51.15 35.01, 64.19 20.02 M28.76 60.78 C41.41 46.22, 54.06 31.67, 64.19 20.02 M34.4 60.38 C40.95 52.85, 47.5 45.32, 66.55 23.4 M34.4 60.38 C41.33 52.41, 48.26 44.44, 66.55 23.4 M39.39 60.74 C46.35 52.73, 53.31 44.73, 68.26 27.53 M39.39 60.74 C49.9 48.65, 60.41 36.56, 68.26 27.53 M45.69 59.59 C50.32 54.26, 54.95 48.93, 67.34 34.69 M45.69 59.59 C51.23 53.21, 56.78 46.84, 67.34 34.69" stroke="#868e96" stroke-width="0.5" fill="none"></path><path d="M33.33 0 C40.09 -0.39, 49.22 2.94, 54.68 7.15 C60.15 11.37, 64.85 18.82, 66.12 25.3 C67.4 31.77, 65.85 40.28, 62.35 46.01 C58.85 51.74, 51.77 57.35, 45.11 59.68 C38.45 62, 29.13 62.12, 22.41 59.96 C15.68 57.8, 8.44 52.37, 4.77 46.73 C1.1 41.09, -0.7 32.63, 0.39 26.12 C1.48 19.62, 5.96 12.05, 11.3 7.7 C16.64 3.35, 28.76 1.29, 32.43 0.01 C36.1 -1.27, 33.18 -0.1, 33.33 0 C33.48 0.1, 33.33 0.1, 33.33 0.62 M33.33 0 C40.09 -0.39, 49.22 2.94, 54.68 7.15 C60.15 11.37, 64.85 18.82, 66.12 25.3 C67.4 31.77, 65.85 40.28, 62.35 46.01 C58.85 51.74, 51.77 57.35, 45.11 59.68 C38.45 62, 29.13 62.12, 22.41 59.96 C15.68 57.8, 8.44 52.37, 4.77 46.73 C1.1 41.09, -0.7 32.63, 0.39 26.12 C1.48 19.62, 5.96 12.05, 11.3 7.7 C16.64 3.35, 28.76 1.29, 32.43 0.01 C36.1 -1.27, 33.18 -0.1, 33.33 0 C33.48 0.1, 33.33 0.1, 33.33 0.62" stroke="#000000" stroke-width="1" fill="none"></path></g><g transform="translate(452.5476190476195 206.47619047619054) rotate(0 24.5 21)"><text x="24.5" y="15" font-family="Virgil, Segoe UI Emoji" font-size="16px" fill="#000000" text-anchor="middle" style="white-space: pre;" direction="ltr">object</text><text x="24.5" y="36" font-family="Virgil, Segoe UI Emoji" font-size="16px" fill="#000000" text-anchor="middle" style="white-space: pre;" direction="ltr">sensor</text></g><g stroke-linecap="round" transform="translate(444.21428571428635 271.6428571428573) rotate(0 33.333333333333314 30.833333333333314)"><path d="M11.56 7.4 C11.56 7.4, 11.56 7.4, 11.56 7.4 M11.56 7.4 C11.56 7.4, 11.56 7.4, 11.56 7.4 M0.8 25.87 C4.92 21.13, 9.03 16.4, 19.17 4.74 M0.8 25.87 C7.44 18.24, 14.07 10.6, 19.17 4.74 M1.85 30.76 C8.33 23.31, 14.8 15.86, 26.78 2.08 M1.85 30.76 C8.24 23.41, 14.62 16.07, 26.78 2.08 M2.9 35.65 C14.38 22.44, 25.87 9.23, 33.74 0.18 M2.9 35.65 C12.6 24.49, 22.29 13.34, 33.74 0.18 M3.95 40.54 C14.37 28.55, 24.79 16.57, 38.07 1.29 M3.95 40.54 C15.1 27.71, 26.25 14.88, 38.07 1.29 M4.35 46.18 C12.78 36.48, 21.22 26.77, 41.74 3.16 M4.35 46.18 C14.26 34.78, 24.17 23.37, 41.74 3.16 M7.37 48.8 C20.48 33.72, 33.6 18.63, 46.07 4.28 M7.37 48.8 C15.75 39.16, 24.13 29.52, 46.07 4.28 M10.38 51.43 C18.5 42.1, 26.61 32.76, 49.75 6.15 M10.38 51.43 C18.98 41.54, 27.57 31.65, 49.75 6.15 M13.4 54.05 C27.98 37.28, 42.57 20.5, 54.08 7.26 M13.4 54.05 C29.35 35.71, 45.3 17.36, 54.08 7.26 M17.08 55.92 C25.61 46.11, 34.14 36.29, 57.1 9.88 M17.08 55.92 C32.2 38.53, 47.32 21.13, 57.1 9.88 M20.1 58.55 C31.48 45.45, 42.87 32.35, 59.46 13.26 M20.1 58.55 C30.68 46.37, 41.26 34.2, 59.46 13.26 M23.12 61.17 C35.6 46.8, 48.09 32.44, 61.82 16.64 M23.12 61.17 C32.62 50.24, 42.12 39.3, 61.82 16.64 M28.76 60.78 C38.77 49.26, 48.78 37.75, 64.19 20.02 M28.76 60.78 C39.76 48.12, 50.75 35.47, 64.19 20.02 M34.4 60.38 C43.61 49.78, 52.83 39.18, 66.55 23.4 M34.4 60.38 C44.75 48.48, 55.1 36.57, 66.55 23.4 M39.39 60.74 C45.64 53.55, 51.89 46.36, 68.26 27.53 M39.39 60.74 C48.89 49.81, 58.39 38.88, 68.26 27.53 M45.69 59.59 C50.75 53.77, 55.82 47.94, 67.34 34.69 M45.69 59.59 C50.15 54.46, 54.61 49.33, 67.34 34.69" stroke="#868e96" stroke-width="0.5" fill="none"></path><path d="M33.33 0 C40.09 -0.39, 49.22 2.94, 54.68 7.15 C60.15 11.37, 64.85 18.82, 66.12 25.3 C67.4 31.77, 65.85 40.28, 62.35 46.01 C58.85 51.74, 51.77 57.35, 45.11 59.68 C38.45 62, 29.13 62.12, 22.41 59.96 C15.68 57.8, 8.44 52.37, 4.77 46.73 C1.1 41.09, -0.7 32.63, 0.39 26.12 C1.48 19.62, 5.96 12.05, 11.3 7.7 C16.64 3.35, 28.76 1.29, 32.43 0.01 C36.1 -1.27, 33.18 -0.1, 33.33 0 C33.48 0.1, 33.33 0.1, 33.33 0.62 M33.33 0 C40.09 -0.39, 49.22 2.94, 54.68 7.15 C60.15 11.37, 64.85 18.82, 66.12 25.3 C67.4 31.77, 65.85 40.28, 62.35 46.01 C58.85 51.74, 51.77 57.35, 45.11 59.68 C38.45 62, 29.13 62.12, 22.41 59.96 C15.68 57.8, 8.44 52.37, 4.77 46.73 C1.1 41.09, -0.7 32.63, 0.39 26.12 C1.48 19.62, 5.96 12.05, 11.3 7.7 C16.64 3.35, 28.76 1.29, 32.43 0.01 C36.1 -1.27, 33.18 -0.1, 33.33 0 C33.48 0.1, 33.33 0.1, 33.33 0.62" stroke="#000000" stroke-width="1" fill="none"></path></g><g transform="translate(453.380952380953 279.8095238095239) rotate(0 24.5 21)"><text x="24.5" y="15" font-family="Virgil, Segoe UI Emoji" font-size="16px" fill="#000000" text-anchor="middle" style="white-space: pre;" direction="ltr">lane</text><text x="24.5" y="36" font-family="Virgil, Segoe UI Emoji" font-size="16px" fill="#000000" text-anchor="middle" style="white-space: pre;" direction="ltr">sensor</text></g><g stroke-linecap="round" transform="translate(445.04761904761983 343.309523809524) rotate(0 33.333333333333314 30.833333333333314)"><path d="M11.56 7.4 C11.56 7.4, 11.56 7.4, 11.56 7.4 M11.56 7.4 C11.56 7.4, 11.56 7.4, 11.56 7.4 M0.8 25.87 C6.53 19.28, 12.26 12.69, 19.17 4.74 M0.8 25.87 C5.62 20.32, 10.44 14.78, 19.17 4.74 M1.85 30.76 C10.07 21.3, 18.29 11.85, 26.78 2.08 M1.85 30.76 C9.05 22.48, 16.24 14.2, 26.78 2.08 M2.9 35.65 C14.32 22.52, 25.73 9.38, 33.74 0.18 M2.9 35.65 C10.57 26.83, 18.24 18.01, 33.74 0.18 M3.95 40.54 C13.69 29.33, 23.43 18.13, 38.07 1.29 M3.95 40.54 C16.62 25.96, 29.29 11.39, 38.07 1.29 M4.35 46.18 C18.82 29.53, 33.29 12.89, 41.74 3.16 M4.35 46.18 C19.18 29.11, 34.02 12.05, 41.74 3.16 M7.37 48.8 C18.18 36.36, 29 23.92, 46.07 4.28 M7.37 48.8 C22.5 31.39, 37.64 13.97, 46.07 4.28 M10.38 51.43 C25.98 33.49, 41.57 15.55, 49.75 6.15 M10.38 51.43 C20.76 39.5, 31.13 27.56, 49.75 6.15 M13.4 54.05 C22.85 43.18, 32.3 32.31, 54.08 7.26 M13.4 54.05 C28.88 36.24, 44.36 18.44, 54.08 7.26 M17.08 55.92 C28.29 43.02, 39.51 30.12, 57.1 9.88 M17.08 55.92 C28.39 42.91, 39.7 29.9, 57.1 9.88 M20.1 58.55 C30.46 46.62, 40.83 34.7, 59.46 13.26 M20.1 58.55 C31.87 45, 43.64 31.46, 59.46 13.26 M23.12 61.17 C33.58 49.13, 44.04 37.1, 61.82 16.64 M23.12 61.17 C33.34 49.41, 43.56 37.65, 61.82 16.64 M28.76 60.78 C42.58 44.88, 56.4 28.98, 64.19 20.02 M28.76 60.78 C40.54 47.23, 52.31 33.68, 64.19 20.02 M34.4 60.38 C42.3 51.3, 50.2 42.21, 66.55 23.4 M34.4 60.38 C43.87 49.48, 53.35 38.59, 66.55 23.4 M39.39 60.74 C45.99 53.15, 52.59 45.55, 68.26 27.53 M39.39 60.74 C50.74 47.69, 62.09 34.63, 68.26 27.53 M45.69 59.59 C50.76 53.76, 55.82 47.93, 67.34 34.69 M45.69 59.59 C50.83 53.68, 55.97 47.77, 67.34 34.69" stroke="#868e96" stroke-width="0.5" fill="none"></path><path d="M33.33 0 C40.09 -0.39, 49.22 2.94, 54.68 7.15 C60.15 11.37, 64.85 18.82, 66.12 25.3 C67.4 31.77, 65.85 40.28, 62.35 46.01 C58.85 51.74, 51.77 57.35, 45.11 59.68 C38.45 62, 29.13 62.12, 22.41 59.96 C15.68 57.8, 8.44 52.37, 4.77 46.73 C1.1 41.09, -0.7 32.63, 0.39 26.12 C1.48 19.62, 5.96 12.05, 11.3 7.7 C16.64 3.35, 28.76 1.29, 32.43 0.01 C36.1 -1.27, 33.18 -0.1, 33.33 0 C33.48 0.1, 33.33 0.1, 33.33 0.62 M33.33 0 C40.09 -0.39, 49.22 2.94, 54.68 7.15 C60.15 11.37, 64.85 18.82, 66.12 25.3 C67.4 31.77, 65.85 40.28, 62.35 46.01 C58.85 51.74, 51.77 57.35, 45.11 59.68 C38.45 62, 29.13 62.12, 22.41 59.96 C15.68 57.8, 8.44 52.37, 4.77 46.73 C1.1 41.09, -0.7 32.63, 0.39 26.12 C1.48 19.62, 5.96 12.05, 11.3 7.7 C16.64 3.35, 28.76 1.29, 32.43 0.01 C36.1 -1.27, 33.18 -0.1, 33.33 0 C33.48 0.1, 33.33 0.1, 33.33 0.62" stroke="#000000" stroke-width="1" fill="none"></path></g><g transform="translate(446.21428571428646 361.97619047619065) rotate(0 32.5 10.5)"><text x="32.5" y="15" font-family="Virgil, Segoe UI Emoji" font-size="16px" fill="#000000" text-anchor="middle" style="white-space: pre;" direction="ltr">actuate</text></g><g stroke-linecap="round"><g transform="translate(435.0476190476195 373.3095238095238) rotate(0 -51.666666666666686 -32.733750000000015)"><path d="M0 0 C-12.92 0, -63.89 10.28, -77.5 0 C-91.11 -10.28, -77.36 -50, -81.67 -61.67 C-85.97 -73.33, -99.72 -68.61, -103.33 -70 M0 0 C-12.92 0, -63.89 10.28, -77.5 0 C-91.11 -10.28, -77.36 -50, -81.67 -61.67 C-85.97 -73.33, -99.72 -68.61, -103.33 -70" stroke="#000000" stroke-width="1" fill="none"></path></g><g transform="translate(435.0476190476195 373.3095238095238) rotate(0 -51.666666666666686 -32.733750000000015)"><path d="M-92.28 -73.55 C-96.47 -72.21, -100.66 -70.86, -103.33 -70 M-92.28 -73.55 C-96.68 -72.14, -101.09 -70.72, -103.33 -70" stroke="#000000" stroke-width="1" fill="none"></path></g><g transform="translate(435.0476190476195 373.3095238095238) rotate(0 -51.666666666666686 -32.733750000000015)"><path d="M-92.58 -65.62 C-96.66 -67.28, -100.73 -68.94, -103.33 -70 M-92.58 -65.62 C-96.87 -67.36, -101.15 -69.11, -103.33 -70" stroke="#000000" stroke-width="1" fill="none"></path></g></g><g stroke-linecap="round"><g transform="translate(520.8809523809527 303.3095238095238) rotate(0 48.75 -11.666666666666657)"><path d="M0 0 C4.44 0.14, 21.94 4.86, 26.67 0.83 C31.39 -3.19, 20.14 -20.14, 28.33 -24.17 C36.53 -28.19, 64.31 -23.47, 75.83 -23.33 C87.36 -23.19, 93.89 -23.33, 97.5 -23.33 M0 0 C4.44 0.14, 21.94 4.86, 26.67 0.83 C31.39 -3.19, 20.14 -20.14, 28.33 -24.17 C36.53 -28.19, 64.31 -23.47, 75.83 -23.33 C87.36 -23.19, 93.89 -23.33, 97.5 -23.33" stroke="#000000" stroke-width="1" fill="none"></path></g><g transform="translate(520.8809523809527 303.3095238095238) rotate(0 48.75 -11.666666666666657)"><path d="M87.34 -19.56 C91.33 -21.04, 95.32 -22.52, 97.5 -23.33 M87.34 -19.56 C91.25 -21.01, 95.15 -22.46, 97.5 -23.33" stroke="#000000" stroke-width="1" fill="none"></path></g><g transform="translate(520.8809523809527 303.3095238095238) rotate(0 48.75 -11.666666666666657)"><path d="M87.3 -26.97 C91.3 -25.54, 95.31 -24.12, 97.5 -23.33 M87.3 -26.97 C91.22 -25.57, 95.14 -24.18, 97.5 -23.33" stroke="#000000" stroke-width="1" fill="none"></path></g></g><g stroke-linecap="round"><g transform="translate(519.2142857142862 229.97619047619048) rotate(0 50 17.103333333333325)"><path d="M0 0 C4.44 0.28, 22.36 -3.75, 26.67 1.67 C30.97 7.08, 16.94 27.08, 25.83 32.5 C34.72 37.92, 67.64 34.03, 80 34.17 C92.36 34.31, 96.67 33.47, 100 33.33 M0 0 C4.44 0.28, 22.36 -3.75, 26.67 1.67 C30.97 7.08, 16.94 27.08, 25.83 32.5 C34.72 37.92, 67.64 34.03, 80 34.17 C92.36 34.31, 96.67 33.47, 100 33.33" stroke="#000000" stroke-width="1" fill="none"></path></g><g transform="translate(519.2142857142862 229.97619047619048) rotate(0 50 17.103333333333325)"><path d="M90.89 37.47 C93.07 36.48, 95.24 35.49, 100 33.33 M90.89 37.47 C93.47 36.3, 96.06 35.12, 100 33.33" stroke="#000000" stroke-width="1" fill="none"></path></g><g transform="translate(519.2142857142862 229.97619047619048) rotate(0 50 17.103333333333325)"><path d="M90.36 30.65 C92.66 31.29, 94.97 31.93, 100 33.33 M90.36 30.65 C93.09 31.41, 95.83 32.17, 100 33.33" stroke="#000000" stroke-width="1" fill="none"></path></g></g><g stroke-linecap="round"><g transform="translate(518.3809523809527 151.6428571428571) rotate(0 50 48.21270833333337)"><path d="M0 0 C6.81 0.14, 33.19 -15.14, 40.83 0.83 C48.47 16.81, 38.75 80, 45.83 95.83 C52.92 111.67, 74.31 95.69, 83.33 95.83 C92.36 95.97, 97.22 96.53, 100 96.67 M0 0 C6.81 0.14, 33.19 -15.14, 40.83 0.83 C48.47 16.81, 38.75 80, 45.83 95.83 C52.92 111.67, 74.31 95.69, 83.33 95.83 C92.36 95.97, 97.22 96.53, 100 96.67" stroke="#000000" stroke-width="1" fill="none"></path></g><g transform="translate(518.3809523809527 151.6428571428571) rotate(0 50 48.21270833333337)"><path d="M91.98 98.97 C93.71 98.48, 95.45 97.98, 100 96.67 M91.98 98.97 C94.5 98.25, 97.03 97.52, 100 96.67" stroke="#000000" stroke-width="1" fill="none"></path></g><g transform="translate(518.3809523809527 151.6428571428571) rotate(0 50 48.21270833333337)"><path d="M92.37 93.28 C94.02 94.01, 95.67 94.74, 100 96.67 M92.37 93.28 C94.77 94.35, 97.17 95.41, 100 96.67" stroke="#000000" stroke-width="1" fill="none"></path></g></g><g stroke-linecap="round"><g transform="translate(620.0476190476195 299.9761904761904) rotate(0 -48.75 40.97999999999996)"><path d="M0 0 C-8.06 0, -39.44 -13.75, -48.33 0 C-57.22 13.75, -48.33 69.17, -53.33 82.5 C-58.33 95.83, -70.97 80.97, -78.33 80 C-85.69 79.03, -94.31 77.22, -97.5 76.67 M0 0 C-8.06 0, -39.44 -13.75, -48.33 0 C-57.22 13.75, -48.33 69.17, -53.33 82.5 C-58.33 95.83, -70.97 80.97, -78.33 80 C-85.69 79.03, -94.31 77.22, -97.5 76.67" stroke="#000000" stroke-width="1" fill="none"></path></g><g transform="translate(620.0476190476195 299.9761904761904) rotate(0 -48.75 40.97999999999996)"><path d="M-87.9 75.09 C-90 75.43, -92.09 75.78, -97.5 76.67 M-87.9 75.09 C-90.07 75.44, -92.23 75.8, -97.5 76.67" stroke="#000000" stroke-width="1" fill="none"></path></g><g transform="translate(620.0476190476195 299.9761904761904) rotate(0 -48.75 40.97999999999996)"><path d="M-89.13 81.62 C-90.96 80.54, -92.78 79.46, -97.5 76.67 M-89.13 81.62 C-91.02 80.51, -92.91 79.39, -97.5 76.67" stroke="#000000" stroke-width="1" fill="none"></path></g></g><g stroke-linecap="round"><g transform="translate(331.7142857142861 275.8095238095238) rotate(0 51.25 16.006249999999994)"><path d="M0 0 C9.17 0, 45.14 -5.28, 55 0 C64.86 5.28, 53.47 26.25, 59.17 31.67 C64.86 37.08, 81.94 32.64, 89.17 32.5 C96.39 32.36, 100.28 31.11, 102.5 30.83 M0 0 C9.17 0, 45.14 -5.28, 55 0 C64.86 5.28, 53.47 26.25, 59.17 31.67 C64.86 37.08, 81.94 32.64, 89.17 32.5 C96.39 32.36, 100.28 31.11, 102.5 30.83" stroke="#000000" stroke-width="1" fill="none"></path></g><g transform="translate(331.7142857142861 275.8095238095238) rotate(0 51.25 16.006249999999994)"><path d="M96.7 34.23 C98.04 33.44, 99.38 32.66, 102.5 30.83 M96.7 34.23 C97.98 33.48, 99.26 32.73, 102.5 30.83" stroke="#000000" stroke-width="1" fill="none"></path></g><g transform="translate(331.7142857142861 275.8095238095238) rotate(0 51.25 16.006249999999994)"><path d="M95.88 29.71 C97.41 29.97, 98.94 30.23, 102.5 30.83 M95.88 29.71 C97.34 29.96, 98.8 30.21, 102.5 30.83" stroke="#000000" stroke-width="1" fill="none"></path></g></g><g stroke-linecap="round"><g transform="translate(333.38095238095275 242.47619047619048) rotate(0 50 -7.903541666666683)"><path d="M0 0 C9.58 0.14, 47.5 3.61, 57.5 0.83 C67.5 -1.94, 54.86 -13.89, 60 -16.67 C65.14 -19.44, 81.67 -15.83, 88.33 -15.83 C95 -15.83, 98.06 -16.53, 100 -16.67 M0 0 C9.58 0.14, 47.5 3.61, 57.5 0.83 C67.5 -1.94, 54.86 -13.89, 60 -16.67 C65.14 -19.44, 81.67 -15.83, 88.33 -15.83 C95 -15.83, 98.06 -16.53, 100 -16.67" stroke="#000000" stroke-width="1" fill="none"></path></g><g transform="translate(333.38095238095275 242.47619047619048) rotate(0 50 -7.903541666666683)"><path d="M94.77 -14.06 C96.17 -14.76, 97.58 -15.46, 100 -16.67 M94.77 -14.06 C96.46 -14.9, 98.15 -15.74, 100 -16.67" stroke="#000000" stroke-width="1" fill="none"></path></g><g transform="translate(333.38095238095275 242.47619047619048) rotate(0 50 -7.903541666666683)"><path d="M94.31 -18.03 C95.84 -17.66, 97.37 -17.3, 100 -16.67 M94.31 -18.03 C96.15 -17.59, 97.99 -17.15, 100 -16.67" stroke="#000000" stroke-width="1" fill="none"></path></g></g><g stroke-linecap="round"><g transform="translate(331.7142857142861 211.6428571428571) rotate(0 50.833333333333314 -29.558125000000018)"><path d="M0 0 C10.14 -0.42, 50.42 7.08, 60.83 -2.5 C71.25 -12.08, 57.08 -48.33, 62.5 -57.5 C67.92 -66.67, 86.81 -57.36, 93.33 -57.5 C99.86 -57.64, 100.28 -58.19, 101.67 -58.33 M0 0 C10.14 -0.42, 50.42 7.08, 60.83 -2.5 C71.25 -12.08, 57.08 -48.33, 62.5 -57.5 C67.92 -66.67, 86.81 -57.36, 93.33 -57.5 C99.86 -57.64, 100.28 -58.19, 101.67 -58.33" stroke="#000000" stroke-width="1" fill="none"></path></g><g transform="translate(331.7142857142861 211.6428571428571) rotate(0 50.833333333333314 -29.558125000000018)"><path d="M98.05 -56.22 C98.79 -56.65, 99.52 -57.08, 101.67 -58.33 M98.05 -56.22 C98.97 -56.76, 99.89 -57.29, 101.67 -58.33" stroke="#000000" stroke-width="1" fill="none"></path></g><g transform="translate(331.7142857142861 211.6428571428571) rotate(0 50.833333333333314 -29.558125000000018)"><path d="M97.54 -59.04 C98.38 -58.89, 99.21 -58.75, 101.67 -58.33 M97.54 -59.04 C98.59 -58.86, 99.64 -58.68, 101.67 -58.33" stroke="#000000" stroke-width="1" fill="none"></path></g></g><g stroke-linecap="round"><g transform="translate(145.0476190476195 221.27747349374) rotate(0 30.833333333333314 -0.4423855082157502)"><path d="M0 0 C8.19 0.06, 38.89 0.58, 49.17 0.37 C59.44 0.15, 59.58 -1.02, 61.67 -1.3 M0 0 C8.19 0.06, 38.89 0.58, 49.17 0.37 C59.44 0.15, 59.58 -1.02, 61.67 -1.3" stroke="#000000" stroke-width="1" fill="none"></path></g><g transform="translate(145.0476190476195 221.27747349374) rotate(0 30.833333333333314 -0.4423855082157502)"><path d="M56.49 2.29 C58.4 0.97, 60.3 -0.36, 61.67 -1.3 M56.49 2.29 C57.6 1.52, 58.72 0.74, 61.67 -1.3" stroke="#000000" stroke-width="1" fill="none"></path></g><g transform="translate(145.0476190476195 221.27747349374) rotate(0 30.833333333333314 -0.4423855082157502)"><path d="M55.39 -1.88 C57.7 -1.67, 60.02 -1.45, 61.67 -1.3 M55.39 -1.88 C56.74 -1.75, 58.1 -1.63, 61.67 -1.3" stroke="#000000" stroke-width="1" fill="none"></path></g></g><g stroke-linecap="round"><g transform="translate(740.0476190476195 217.47619047619048) rotate(0 30.83333333333337 -0.8332049805108284)"><path d="M0 0 C8.19 0, 38.89 0.3, 49.17 0 C59.44 -0.3, 59.58 -1.5, 61.67 -1.8 M0 0 C8.19 0, 38.89 0.3, 49.17 0 C59.44 -0.3, 59.58 -1.5, 61.67 -1.8" stroke="#000000" stroke-width="1" fill="none"></path></g><g transform="translate(740.0476190476195 217.47619047619048) rotate(0 30.83333333333337 -0.8332049805108284)"><path d="M56.52 1.87 C58.23 0.65, 59.93 -0.56, 61.67 -1.8 M56.52 1.87 C58.19 0.68, 59.85 -0.5, 61.67 -1.8" stroke="#000000" stroke-width="1" fill="none"></path></g><g transform="translate(740.0476190476195 217.47619047619048) rotate(0 30.83333333333337 -0.8332049805108284)"><path d="M55.37 -2.3 C57.45 -2.13, 59.54 -1.97, 61.67 -1.8 M55.37 -2.3 C57.41 -2.14, 59.44 -1.97, 61.67 -1.8" stroke="#000000" stroke-width="1" fill="none"></path></g></g><g stroke-linecap="round"><g transform="translate(207.5476190476195 302.4761904761904) rotate(0 -29.583333333333314 -0.8960149132201423)"><path d="M0 0 C-7.22 -0.14, -33.47 -0.53, -43.33 -0.83 C-53.19 -1.13, -56.53 -1.63, -59.17 -1.79 M0 0 C-7.22 -0.14, -33.47 -0.53, -43.33 -0.83 C-53.19 -1.13, -56.53 -1.63, -59.17 -1.79" stroke="#000000" stroke-width="1" fill="none"></path></g><g transform="translate(207.5476190476195 302.4761904761904) rotate(0 -29.583333333333314 -0.8960149132201423)"><path d="M-51.52 -3.89 C-53.61 -3.32, -55.71 -2.74, -59.17 -1.79 M-51.52 -3.89 C-54.43 -3.09, -57.35 -2.29, -59.17 -1.79" stroke="#000000" stroke-width="1" fill="none"></path></g><g transform="translate(207.5476190476195 302.4761904761904) rotate(0 -29.583333333333314 -0.8960149132201423)"><path d="M-51.96 1.52 C-53.93 0.61, -55.9 -0.3, -59.17 -1.79 M-51.96 1.52 C-54.71 0.26, -57.45 -1.01, -59.17 -1.79" stroke="#000000" stroke-width="1" fill="none"></path></g></g><g stroke-linecap="round"><g transform="translate(800.880952380953 297.99231436038275) rotate(0 -29.58333333333337 -0.6747286087627913)"><path d="M0 0 C-7.22 -0.09, -33.47 -0.29, -43.33 -0.52 C-53.19 -0.74, -56.53 -1.21, -59.17 -1.35 M0 0 C-7.22 -0.09, -33.47 -0.29, -43.33 -0.52 C-53.19 -0.74, -56.53 -1.21, -59.17 -1.35" stroke="#000000" stroke-width="1" fill="none"></path></g><g transform="translate(800.880952380953 297.99231436038275) rotate(0 -29.58333333333337 -0.6747286087627913)"><path d="M-51.54 -3.51 C-54.47 -2.68, -57.41 -1.85, -59.17 -1.35 M-51.54 -3.51 C-54.24 -2.75, -56.94 -1.98, -59.17 -1.35" stroke="#000000" stroke-width="1" fill="none"></path></g><g transform="translate(800.880952380953 297.99231436038275) rotate(0 -29.58333333333337 -0.6747286087627913)"><path d="M-51.93 1.9 C-54.72 0.65, -57.5 -0.6, -59.17 -1.35 M-51.93 1.9 C-54.49 0.75, -57.05 -0.4, -59.17 -1.35" stroke="#000000" stroke-width="1" fill="none"></path></g></g><g transform="translate(155.88095238095286 156.6428571428571) rotate(0 23 31.5)"><text x="0" y="15" font-family="Virgil, Segoe UI Emoji" font-size="16px" fill="#495057" text-anchor="start" style="white-space: pre;" direction="ltr">read</text><text x="0" y="36" font-family="Virgil, Segoe UI Emoji" font-size="16px" fill="#495057" text-anchor="start" style="white-space: pre;" direction="ltr">world</text><text x="0" y="57" font-family="Virgil, Segoe UI Emoji" font-size="16px" fill="#495057" text-anchor="start" style="white-space: pre;" direction="ltr">state</text></g><g transform="translate(745.0476190476197 150.8095238095238) rotate(0 32.5 31.5)"><text x="0" y="15" font-family="Virgil, Segoe UI Emoji" font-size="16px" fill="#495057" text-anchor="start" style="white-space: pre;" direction="ltr">transmit</text><text x="0" y="36" font-family="Virgil, Segoe UI Emoji" font-size="16px" fill="#495057" text-anchor="start" style="white-space: pre;" direction="ltr">vehicle</text><text x="0" y="57" font-family="Virgil, Segoe UI Emoji" font-size="16px" fill="#495057" text-anchor="start" style="white-space: pre;" direction="ltr">state</text></g><g transform="translate(740.880952380953 300.8095238095238) rotate(0 40.5 31.5)"><text x="0" y="15" font-family="Virgil, Segoe UI Emoji" font-size="16px" fill="#495057" text-anchor="start" style="white-space: pre;" direction="ltr">modify</text><text x="0" y="36" font-family="Virgil, Segoe UI Emoji" font-size="16px" fill="#495057" text-anchor="start" style="white-space: pre;" direction="ltr">vehicle</text><text x="0" y="57" font-family="Virgil, Segoe UI Emoji" font-size="16px" fill="#495057" text-anchor="start" style="white-space: pre;" direction="ltr">actuators</text></g><g transform="translate(162.5476190476195 304.9761904761904) rotate(0 40.5 31.5)"><text x="0" y="15" font-family="Virgil, Segoe UI Emoji" font-size="16px" fill="#495057" text-anchor="start" style="white-space: pre;" direction="ltr">write</text><text x="0" y="36" font-family="Virgil, Segoe UI Emoji" font-size="16px" fill="#495057" text-anchor="start" style="white-space: pre;" direction="ltr">vehicle</text><text x="0" y="57" font-family="Virgil, Segoe UI Emoji" font-size="16px" fill="#495057" text-anchor="start" style="white-space: pre;" direction="ltr">actuators</text></g><g stroke-opacity="0.5" fill-opacity="0.5" stroke-linecap="round" transform="translate(760.8809523809527 190.8095238095238) rotate(0 4.583333333333371 68.75)"><path d="M4.58 0 C5.36 -0.97, 6.34 4.1, 7.03 10.66 C7.72 17.21, 8.38 28.25, 8.73 39.33 C9.08 50.41, 9.23 64.96, 9.13 77.12 C9.03 89.29, 8.65 102.84, 8.13 112.32 C7.61 121.8, 6.8 130.15, 6.03 134.01 C5.25 137.86, 4.27 138.42, 3.48 135.46 C2.68 132.5, 1.83 125.09, 1.27 116.23 C0.7 107.37, 0.25 94.3, 0.09 82.28 C-0.07 70.26, 0.01 55.58, 0.3 44.13 C0.6 32.69, 1.19 20.94, 1.85 13.62 C2.5 6.3, 3.78 2.47, 4.24 0.2 C4.69 -2.07, 4.53 -0.2, 4.58 0 C4.64 0.2, 4.58 0.23, 4.58 1.38 M4.58 0 C5.36 -0.97, 6.34 4.1, 7.03 10.66 C7.72 17.21, 8.38 28.25, 8.73 39.33 C9.08 50.41, 9.23 64.96, 9.13 77.12 C9.03 89.29, 8.65 102.84, 8.13 112.32 C7.61 121.8, 6.8 130.15, 6.03 134.01 C5.25 137.86, 4.27 138.42, 3.48 135.46 C2.68 132.5, 1.83 125.09, 1.27 116.23 C0.7 107.37, 0.25 94.3, 0.09 82.28 C-0.07 70.26, 0.01 55.58, 0.3 44.13 C0.6 32.69, 1.19 20.94, 1.85 13.62 C2.5 6.3, 3.78 2.47, 4.24 0.2 C4.69 -2.07, 4.53 -0.2, 4.58 0 C4.64 0.2, 4.58 0.23, 4.58 1.38" stroke="#c92a2a" stroke-width="1" fill="none"></path></g><g stroke-opacity="0.5" fill-opacity="0.5" stroke-linecap="round" transform="translate(169.2142857142859 187.47619047619048) rotate(0 4.583333333333371 68.75)"><path d="M4.58 0 C5.36 -0.97, 6.34 4.1, 7.03 10.66 C7.72 17.21, 8.38 28.25, 8.73 39.33 C9.08 50.41, 9.23 64.96, 9.13 77.12 C9.03 89.29, 8.65 102.84, 8.13 112.32 C7.61 121.8, 6.8 130.15, 6.03 134.01 C5.25 137.86, 4.27 138.42, 3.48 135.46 C2.68 132.5, 1.83 125.09, 1.27 116.23 C0.7 107.37, 0.25 94.3, 0.09 82.28 C-0.07 70.26, 0.01 55.58, 0.3 44.13 C0.6 32.69, 1.19 20.94, 1.85 13.62 C2.5 6.3, 3.78 2.47, 4.24 0.2 C4.69 -2.07, 4.53 -0.2, 4.58 0 C4.64 0.2, 4.58 0.23, 4.58 1.38 M4.58 0 C5.36 -0.97, 6.34 4.1, 7.03 10.66 C7.72 17.21, 8.38 28.25, 8.73 39.33 C9.08 50.41, 9.23 64.96, 9.13 77.12 C9.03 89.29, 8.65 102.84, 8.13 112.32 C7.61 121.8, 6.8 130.15, 6.03 134.01 C5.25 137.86, 4.27 138.42, 3.48 135.46 C2.68 132.5, 1.83 125.09, 1.27 116.23 C0.7 107.37, 0.25 94.3, 0.09 82.28 C-0.07 70.26, 0.01 55.58, 0.3 44.13 C0.6 32.69, 1.19 20.94, 1.85 13.62 C2.5 6.3, 3.78 2.47, 4.24 0.2 C4.69 -2.07, 4.53 -0.2, 4.58 0 C4.64 0.2, 4.58 0.23, 4.58 1.38" stroke="#c92a2a" stroke-width="1" fill="none"></path></g><g stroke-linecap="round"><g stroke-opacity="0.5" fill-opacity="0.5" transform="translate(174.21428571428623 324.9761904761904) rotate(0 295 90.83333333333337)"><path d="M0 0 C0.43 47, 0.86 94, 1.67 181.67 M0 0 C0.61 66.66, 1.22 133.33, 1.67 181.67 M1.67 181.67 C221.07 181.67, 440.48 181.67, 590 181.67 M1.67 181.67 C211.36 181.67, 421.06 181.67, 590 181.67 M590 181.67 C590 121.23, 590 60.8, 590 4.17 M590 181.67 C590 144.61, 590 107.55, 590 4.17" stroke="#c92a2a" stroke-width="1" fill="none"></path></g></g><g stroke-opacity="0.5" fill-opacity="0.5" transform="translate(325.0476190476195 516.6428571428571) rotate(0 153 10.5)"><text x="0" y="15" font-family="Virgil, Segoe UI Emoji" font-size="16px" fill="#c92a2a" text-anchor="start" style="white-space: pre;" direction="ltr">shared-memory / network communication</text></g><g stroke-linecap="round" transform="translate(263.38095238095286 17.47619047619048) rotate(0 208.33333333333343 22.08333333333333)"><path d="M0 0 L416.67 0 L416.67 44.17 L0 44.17" stroke="none" stroke-width="0" fill="#228be6"></path><path d="M0 0 C121.98 0, 243.97 0, 416.67 0 M0 0 C157.09 0, 314.18 0, 416.67 0 M416.67 0 C416.67 9.53, 416.67 19.05, 416.67 44.17 M416.67 0 C416.67 12.52, 416.67 25.05, 416.67 44.17 M416.67 44.17 C250.92 44.17, 85.17 44.17, 0 44.17 M416.67 44.17 C254.76 44.17, 92.85 44.17, 0 44.17 M0 44.17 C0 29.78, 0 15.39, 0 0 M0 44.17 C0 27.59, 0 11.01, 0 0" stroke="#000000" stroke-width="1" fill="none"></path></g><g transform="translate(413.5 25.499999999999943) rotate(0 50 13)"><text x="0" y="19" font-family="Virgil, Segoe UI Emoji" font-size="20px" fill="#000000" text-anchor="start" style="white-space: pre;" direction="ltr">cloe-engine</text></g></svg>
