<svg version="1.1" xmlns="http://www.w3.org/2000/svg" viewBox="0 0 843.3333333333335 467.99999999999994" width="843.3333333333335" height="467.99999999999994">
  <!-- svg-source:excalidraw -->

  <defs>
    <style>
      @font-face {
        font-family: "Virgil";
        src: url("https://excalidraw.com/Virgil.woff2");
      }
      @font-face {
        font-family: "Cascadia";
        src: url("https://excalidraw.com/Cascadia.woff2");
      }
    </style>
  </defs>
  <rect x="0" y="0" width="843.3333333333335" height="467.99999999999994" fill="#ffffff"></rect><g stroke-linecap="round" transform="translate(107.28571428571365 10) rotate(0 304.24999999999983 223.99999999999997)"><path d="M0 0 C0 0, 0 0, 0 0 M0 0 C0 0, 0 0, 0 0 M0.15 6.45 C2.29 4.71, 4.29 1.73, 5.36 0.53 M-0.64 6.67 C0.73 4.84, 2.24 4, 5.19 0.69 M-0.59 12.46 C5.04 6.11, 7.22 4.16, 9.66 1.01 M-0.21 12 C1.93 8.91, 4.44 7.7, 11.12 0.34 M0.24 19.21 C4.25 11.27, 11.86 5.7, 15.15 -1.06 M0.14 18.69 C5.51 11.1, 12 3.98, 15.65 -0.26 M0.3 24.14 C8.7 16.63, 15.43 6.84, 19.56 -1.41 M-0.63 23.87 C8.73 14.49, 16.55 5.28, 20.97 0.06 M0.8 30.36 C10.54 19.76, 16.26 8.87, 24.76 -1.49 M0.38 30.77 C6.53 22.69, 12.28 14.37, 26.25 -0.69 M0.85 37.61 C9.84 25.16, 23.31 11.29, 30.08 -0.82 M-0.22 36.08 C10.83 24.26, 20.28 13.28, 30.9 -0.49 M1.66 43.32 C13.76 28.2, 25.08 16, 35.11 1.94 M0.18 43.33 C10.3 31.71, 20.48 19.29, 36.79 0.95 M0.89 49.55 C15.05 32.69, 33.02 13.71, 43.32 1.7 M-0.44 49.34 C12.06 34.59, 23 21.05, 41.86 -0.65 M-0.46 56.4 C15.28 38.2, 30.86 16.14, 49.07 1.64 M0.2 54.1 C15.9 36.21, 31.5 17.62, 48.21 0 M1.03 60.74 C15.88 43.17, 31.53 26.27, 53.19 1.82 M0.81 60.94 C14.58 44, 29.56 26.68, 53.7 -1.09 M-1.93 65.62 C21.72 45.22, 40.42 19.38, 58.05 1.99 M-0.57 66.38 C19.08 47.09, 35.88 24.93, 57.99 1.03 M-0.96 71.21 C17.44 53.58, 31.13 36.55, 63.11 -1.84 M0.82 72.64 C24.54 43.85, 49.62 15.92, 64.22 -0.69 M0.33 79.73 C24.21 51.93, 53.46 18.53, 67.98 1.36 M0.81 78.95 C24.92 50.42, 48.96 22.62, 69.05 0.92 M-0.77 86.91 C15.99 65.06, 33.8 46.97, 76.01 -1.71 M0.31 84.5 C27.51 54.33, 56.59 21.81, 74.24 0.39 M-0.99 90.68 C31.38 58.33, 59.42 23.85, 81.33 2.05 M0.3 91.6 C31.29 55.92, 62.57 19.61, 78.8 -0.22 M-2.2 98.57 C19.84 70.68, 43.16 45.35, 84.39 0.78 M-0.13 98.58 C18.93 74.58, 38.05 52.53, 84.53 -0.2 M0.96 104.67 C31.38 64.95, 64.97 28.04, 91.09 0.37 M0.5 103.17 C20.73 80.05, 39.29 57.67, 90.15 0.01 M-0.58 108.58 C38.23 64.69, 76.35 23.81, 96.27 1.14 M-0.48 108.95 C27.21 78.67, 53.8 45.28, 94.87 -0.06 M0.57 116.83 C29.86 81.5, 60.66 47.27, 98.8 0.57 M0.99 115.23 C21.26 90.89, 43.22 64.68, 100.5 -0.74 M-0.65 121.58 C42.81 74.67, 82.42 26.77, 105.18 -2.11 M-0.18 121.21 C34.02 83.44, 64.96 47.04, 107.02 -1.04 M1.11 130.05 C45.03 75.47, 86.84 26.32, 112.52 0.87 M0.68 127.89 C28.15 96.55, 54.3 66.28, 110.7 -0.54 M0.01 135.43 C43.63 83.13, 91.43 29.63, 115.54 -0.78 M-0.57 134.47 C43.47 84.6, 84.93 35.64, 117.04 0.55 M-0.67 141.89 C26.37 112.29, 50.97 82.78, 120.85 -0.51 M-0.56 139.76 C41.78 94.65, 80.95 48.01, 122.12 -0.22 M0.39 147.94 C30.83 112.17, 61.15 76.41, 127.29 2.06 M-0.46 145.09 C49.29 91.39, 95.26 36.64, 126.99 -0.1 M-0.38 151.3 C48.59 98.41, 97.62 41.27, 131.06 0.5 M-0.77 151.57 C51.09 94.88, 102.09 35.76, 131.7 -0.28 M1.13 159.57 C53.16 97.7, 109.68 35.66, 137.85 -1.22 M0.09 158.52 C49.43 102.16, 97.54 45.1, 137.87 1.11 M-1.42 164.87 C58.41 98.21, 113.88 32.48, 142.43 0.21 M-0.59 163.78 C42.28 117.47, 83.17 69.71, 142.56 -0.1 M-1.62 169.14 C54.75 107.3, 108.32 44.54, 147.19 -0.71 M-0.3 171.01 C56.02 105.89, 114.09 38.72, 147.59 -0.2 M1.47 177.04 C49.6 120.3, 97.87 63.63, 153.38 0.54 M-0.43 176.75 C32.58 138.69, 64.49 102.45, 153.56 -0.54 M-1.04 182.14 C54.04 123.76, 103.27 65.06, 158.05 -0.75 M0.09 183.54 C37.86 137.09, 77.6 91.85, 158.48 -0.44 M-1.24 187.86 C45.73 138.31, 90.59 83.2, 162.92 -0.16 M-0.55 188.85 C44.77 136.74, 91.7 82.9, 164.13 0.3 M0.23 196.41 C52.72 137.38, 104.04 77.54, 170.87 0.56 M0.48 195.66 C60.03 126.4, 121.15 56.35, 169.36 0.1 M1 200.69 C52.39 142.83, 103.74 87.41, 175.31 -1.75 M-0.89 201.05 C57.37 137.89, 112.33 73.16, 174.91 -0.45 M1.82 208.43 C60.99 137.52, 122.77 67.18, 179.46 -0.58 M-0.24 207.17 C45.18 155.73, 89.51 105.39, 179.95 0.18 M-0.03 212.15 C53.98 152.4, 108.27 92.33, 185.54 -1.07 M0.63 213.81 C58.09 144.74, 118.41 77.04, 185.31 0.23 M0.16 218.91 C69.09 139.57, 137.1 62.5, 191.57 0.75 M-0.31 219.62 C53.87 156.28, 108.8 92.51, 190 0.07 M-0.93 226.67 C56.65 162.19, 110.02 99.31, 196.98 0.15 M0.46 225.2 C66.86 148.15, 133.44 69.75, 195.93 -0.69 M-1.23 230.65 C61.46 162.49, 123.43 88.85, 202.03 0.84 M0.42 232.37 C73.67 146.14, 149.16 60.71, 201.46 0.56 M0.92 237.45 C41.67 190.2, 84.11 139.23, 207.28 0.41 M0.49 236.97 C48.32 180.33, 98.01 123.26, 207.62 -0.72 M-0.73 242.48 C46.53 192.4, 93.92 138.58, 212.99 1.33 M0.61 243.62 C46.79 187.82, 93.61 133.53, 211.8 0.74 M-0.06 249.6 C55.54 185.53, 113.17 117.84, 218.86 -0.27 M0.33 249.82 C69.4 168.62, 140.54 86.58, 218.02 -0.22 M-0.03 256.78 C70.51 175.73, 140.61 92.5, 223.32 -1.07 M0.66 255.4 C64.49 182.63, 128.45 108.22, 222.22 0.38 M0.81 263.35 C89.37 159.07, 180.19 54.51, 228.88 0.78 M-0.47 262.73 C68.5 182.34, 138.07 103.17, 228.06 -0.02 M-0.28 267.8 C81.89 175.14, 161.07 82.89, 233.05 0.47 M-0.04 267.66 C56.66 202.4, 111.99 138.89, 233.7 0.41 M-0.85 275.27 C93.01 163.9, 187.61 53.45, 238.4 0.23 M-0.28 274.18 C83.13 179.45, 165.51 85.59, 238.8 0.11 M0.95 280.06 C53.71 220.76, 108.06 159.34, 244.36 0.01 M-0.52 281.29 C68.26 204, 135.33 127.24, 244 -0.37 M1.19 287.2 C52.29 226.24, 102.33 167.01, 248.11 0.38 M-0.22 286.32 C99.02 172.4, 198.49 57.16, 248.5 0.19 M0.77 292.83 C94.37 186.24, 187.71 76.72, 255.29 -0.99 M-0.17 293.26 C57.91 227.22, 115.18 162.85, 254.76 0.41 M-0.83 297.79 C54.12 232.66, 111.6 168.61, 260.56 -0.63 M-0.06 298.53 C78.79 208.63, 155.23 120.45, 259.38 0.1 M0.97 304.15 C57.45 236.54, 116.14 170.14, 266.18 -0.78 M0.58 304.34 C61.38 233.78, 124.34 161.6, 265.64 -0.44 M-1.04 311.64 C97.34 200.02, 192.67 88.39, 269.92 -0.57 M0.26 311.48 C64.23 235.39, 129.12 161.41, 269.73 -0.18 M-0.42 316.01 C84.26 220.92, 167.56 125.61, 275.98 -0.57 M0.06 316.31 C82.04 224.76, 163.16 130.89, 275.3 -0.35 M-0.32 323.57 C59.39 254.62, 119.73 183.54, 281.09 -0.77 M-0.51 323.44 C85.25 224, 172.05 125.06, 280.99 0.5 M0.34 329.02 C94.44 220.91, 191.14 109.96, 285.65 -0.9 M0.69 328.72 C87.19 230.11, 174.22 130.49, 286.18 0.13 M0.58 335.76 C97.39 225.36, 191.91 115.73, 290.4 -0.36 M0.35 335.39 C103.85 216.48, 207.42 97.1, 291.58 -0.25 M0.11 342.49 C97.81 229.62, 196.69 114.98, 296.71 -0.75 M0.16 341.61 C118.02 204.58, 236.66 68.63, 297.39 -0.51 M0.47 347.05 C82.83 249.71, 167.63 154.4, 301.69 0.42 M-0.09 347.38 C98.71 235.26, 196.39 121.96, 301.89 0.46 M-0.65 354.6 C98.81 239.3, 197.95 126.06, 308.33 -0.7 M0.04 353.9 C70.37 271.58, 141.98 188.92, 307.7 -0.44 M-0.05 358.69 C123.35 217.85, 245.6 75.99, 312.95 -0.44 M0.71 358.93 C100.9 246.41, 200.93 132.06, 312.44 0.16 M0.37 365.9 C68.78 285.65, 138.21 206.56, 318.78 0.05 M0.11 365.53 C95.1 255.61, 190.05 146.88, 317.88 0.03 M-0.51 372.01 C83.2 275.92, 165.34 181.41, 323.64 -0.32 M-0.08 371.97 C105.55 252.59, 210.74 130.87, 323.41 0.36 M0.1 377.02 C108.75 251.2, 219.27 124.41, 328.13 -0.67 M0.47 377.59 C68.44 299.27, 135.71 222.2, 328.93 -0.69 M-0.48 384.75 C129.42 235.69, 259.32 84.25, 333.54 -0.36 M-0.13 383.86 C103.36 264.99, 205.89 145.89, 333.58 0.41 M0.9 389.97 C98.84 275.57, 197.01 161.66, 340.08 -0.45 M0.67 389.9 C134.45 237.35, 267.67 84.5, 339.35 -0.12 M0.84 396.69 C129.57 247.5, 260.48 99.31, 344.96 -0.72 M-0.02 395.85 C104.92 273.12, 210.92 150.82, 344.8 -0.16 M0.53 401.96 C104.69 281.25, 208.58 163.08, 349.47 0.97 M0.19 402.4 C80.14 311.58, 158.47 221.47, 349.84 0.38 M-0.1 408.79 C120.01 270.15, 240.34 131, 355.59 0.01 M-0.07 407.93 C122.34 269.52, 242.08 130.99, 355.05 0.24 M0.58 414.32 C95.84 306.12, 191.82 195.92, 360.11 -0.42 M-0.14 414.86 C105.26 292.25, 211.88 170.01, 359.88 0.33 M-0.47 420.75 C90.77 317.1, 180.1 212.25, 365.76 -0.78 M-0.47 420.75 C107.88 297.67, 216.55 172.51, 366.14 0.13 M0.06 426.66 C112.25 297.08, 224.44 167.7, 370.48 0.4 M-0.05 427.04 C119.32 290.33, 238.81 152.12, 370.55 0.2 M-0.48 433.6 C83.75 335.74, 168.18 238.45, 376 0.7 M0.17 432.99 C92.98 325.57, 186.54 217.74, 376.07 0.15 M0.46 439.41 C86.21 343.01, 170.5 244.08, 381.92 0.93 M-0.02 438.44 C96.06 330, 191.49 219.47, 381.2 0.41 M-0.1 445.41 C95.98 338.13, 191.66 229.32, 386.27 -0.6 M-0.35 445.51 C130.76 295.11, 262.6 143.7, 387.41 0.22 M2.39 449.07 C91.82 345.18, 181.6 243.15, 392.4 0.61 M1.38 449.55 C139.8 289.41, 278.07 129.55, 392.36 0.11 M6.13 449.55 C94.86 350.65, 180.9 251.07, 398.33 -0.12 M6.61 449.58 C123.88 317.35, 239.82 183.87, 397.35 -0.03 M11.64 449.39 C100.34 349.8, 187.25 248.38, 402.07 0.09 M12.32 449.03 C141.5 300.57, 270.71 152.02, 402.96 -0.08 M16.72 449.54 C142.03 305.36, 268 159.73, 408.55 -0.51 M17.26 449.32 C140.59 309.3, 263.52 167.6, 408.46 -0.05 M22.74 449.73 C145.93 306.49, 270.3 163.41, 412.52 0.41 M22.92 449.26 C100.85 357.69, 180.1 266.94, 413.11 0.01 M28.66 449.19 C129.72 331.11, 232.85 211.01, 418.32 0.34 M27.71 449.89 C171.95 283.82, 317.25 116.74, 418.71 -0.38 M33.23 448.87 C153.41 310.46, 274.5 172.43, 424.35 0.6 M33.47 449.37 C120.84 349.1, 208.14 248.4, 423.73 0.41 M38.68 448.96 C120.78 354.82, 203.15 260.04, 430.04 -1.03 M38.8 449.42 C161.7 305.55, 285.4 162.6, 429.86 0.12 M44.86 449.56 C198.95 272.2, 351.71 96.37, 434.75 0.05 M44.05 449.38 C187.61 282.21, 332.53 115.41, 434.53 -0.1 M49.75 449.73 C156.85 327.4, 263.21 204.74, 439.92 -0.14 M49.37 449.53 C198.9 275.7, 349.19 102.66, 439.86 -0.07 M54.8 449.77 C163.78 323.85, 272.23 198.7, 444.75 -0.63 M54.94 449.05 C151.88 336.01, 249.2 223.59, 445.2 0.33 M59.04 448.73 C144.03 353.15, 225.56 258.19, 451.58 0.32 M59.84 449.37 C169.1 327.13, 276.98 202.9, 450.47 0 M66.02 449.84 C166.55 335.55, 265.81 220.49, 455.17 -0.45 M65.43 449 C219.93 273.65, 372.31 98.08, 455.86 -0.12 M69.91 450.01 C201.39 298.42, 332.93 147.58, 460.86 -0.78 M70.23 449.19 C175.8 328.3, 283.17 205.37, 461.23 -0.59 M75.29 448.5 C203.84 302.97, 331.59 157.81, 465.87 -0.45 M75.76 448.79 C214.86 289.82, 352.27 131.69, 466.58 -0.18 M81.58 449.18 C159.16 356.67, 238.41 265.87, 471.96 0.18 M81.37 449.14 C211.33 298.22, 342.89 147.41, 471.61 0.5 M86.84 448.45 C195.79 325.39, 303.59 201.2, 476.48 0.33 M86.82 448.88 C170.73 350.05, 256.19 252.19, 477.05 0.14 M91.44 448.66 C217.64 306.27, 342.33 162.7, 481.65 -0.25 M92.04 449.67 C246.8 269.31, 402.52 90.17, 481.65 0.65 M96.4 449.97 C175.35 358.73, 256.09 265.73, 487.3 -0.75 M96.59 449.38 C214.41 313.86, 331.21 179.19, 487.74 -0.07 M102.31 448.84 C195.7 342.73, 289.43 235.04, 492.15 0.71 M102.67 449.56 C209.32 326.22, 315.9 202.91, 492.44 0.4 M107.52 450.23 C185.02 359.92, 263.51 269.01, 498.38 0.44 M107.24 449.85 C197.05 346.65, 287.87 241.92, 497.93 0.19 M113.63 448.91 C217.92 330.68, 322.07 209.82, 503.33 0.31 M113.23 449.47 C250.18 293.38, 387.28 136.14, 503.48 0.06 M117.17 450.26 C218.62 334.31, 318.35 220.96, 508.84 -0.38 M117.56 449.42 C227.18 323.5, 338 196.05, 509.27 0.21 M123.82 449.24 C262.38 291.14, 400.14 133.43, 514.52 -0.24 M123.73 449.19 C237.37 319.4, 350.66 188.41, 514.08 0.02 M128.82 449.53 C266.03 291.1, 403.21 131.9, 519.16 -0.7 M128.37 449.77 C221.35 342.37, 315.59 234.69, 519.84 -0.38 M134.36 448.99 C289.55 272.16, 443.77 94.86, 525.2 0.26 M134.55 449.59 C264.89 299.87, 396.07 148.57, 524.56 0.41 M139.71 449.11 C288.27 276.83, 438.11 103.53, 530.48 -0.02 M139.11 449.89 C266.13 305.31, 392.45 159.69, 530.08 -0.49 M144.11 448.5 C278.36 296.95, 413.25 143.28, 535.92 0.6 M144.45 449.07 C226.31 356.98, 307.4 264.46, 535 -0.16 M149.72 449.21 C239.58 345.44, 330.48 241.29, 540.52 -0.66 M149.81 449.67 C256.78 327.52, 363.35 205.31, 540.83 -0.28 M154.95 448.52 C268.21 316.55, 382.1 186.28, 545.81 -0.44 M155.82 449.52 C309.68 272.46, 463.97 94.62, 545.7 -0.17 M160.54 450.09 C269.12 326.35, 378.78 200.65, 550.83 -0.55 M160.67 449.51 C263.77 333.12, 366.07 216.16, 551.34 -0.03 M166.17 449.36 C317.34 274.41, 469.18 99.25, 556.61 -0.09 M166.22 448.75 C272.42 324.8, 380.09 201.77, 556.75 0.42 M171.68 449.54 C292.28 313.63, 412.04 175.98, 562.75 -0.42 M170.92 449.12 C321.9 275.53, 472.6 103.06, 562.03 -0.5 M176.88 448.54 C304.67 301.86, 432.54 155.09, 567.09 -0.4 M176.8 448.87 C329.74 273.95, 482.59 98.4, 566.83 -0.26 M181.23 450.18 C335.98 271.46, 490.35 93.08, 573.46 0.18 M181.56 449.51 C325.55 283.92, 468.69 119.5, 572.54 -0.15 M186.8 449.55 C282.09 338.29, 377.88 227.35, 577.02 0.57 M187.12 448.68 C332.34 282.96, 476.67 117.71, 577.61 0.04 M193.13 448.99 C279.79 346.78, 367.28 246.5, 582.49 -0.38 M192.58 449.4 C293.25 334.69, 393.57 220.14, 583.03 0.41 M198.65 448.28 C291.09 340.72, 383.17 233.98, 587.99 -0.05 M197.93 448.92 C277.59 355.58, 359.04 262.78, 588.55 0.06 M203.51 449.37 C348.17 283.26, 494.13 115.41, 593.54 0.03 M202.58 449.61 C333.01 301.8, 462.77 152.95, 593.22 0.63 M208.73 448.95 C302.65 339.57, 398.04 231.41, 599.4 0.46 M207.69 449.36 C359.64 275.88, 511.22 101.65, 598.93 0.27 M214.32 449.06 C296.75 355.98, 379.89 260.95, 603.35 -0.22 M213.94 449.47 C366.31 272.84, 520.03 95.93, 603.68 0.13 M218.3 449.12 C350.76 294.71, 485.66 141.59, 608.6 0.75 M218.87 449.43 C359.39 289.18, 498.82 129, 609.13 0.78 M224.53 449.02 C309.08 350.65, 392.19 255, 609.5 6.88 M224.45 449.63 C329.86 327.85, 435.21 206.41, 609.54 6.11 M228.87 449.79 C333.78 326.96, 440.36 204.77, 608.64 13.28 M229.53 449.93 C326.25 339.91, 422.28 229.49, 609.23 12.42 M234.11 449.41 C333.96 337.17, 432.11 223.89, 609.17 19.7 M234.88 449.22 C358.07 307.21, 481.25 165.77, 608.56 19.19 M239.23 449.98 C364.05 307.43, 488.19 165.71, 608.59 25.42 M239.6 449.59 C380.64 288.68, 520.64 127.37, 609.3 24.65 M244.84 448.74 C361.83 317.05, 477.47 182.81, 608.95 31.04 M245.39 449.5 C368.6 306.55, 492.05 164.38, 608.87 30.81 M250.37 449.94 C337.93 350.37, 423.42 252.06, 608.7 36.62 M250.58 449.48 C363.52 318.63, 478.2 187.08, 609.39 36.74 M256.32 449.53 C378.76 305.5, 503.66 163.7, 609.64 42.43 M255.95 449.41 C332.82 361.97, 408.32 274.7, 609.42 43.4 M261.49 450.25 C358.23 339.3, 454.87 228.62, 608.78 50.3 M261.19 449.36 C340.54 355.6, 421.5 262.15, 609.06 49.25 M266.77 449.48 C347.1 357.34, 426.97 265.62, 608.52 55.81 M266.71 449.23 C366.88 334.74, 467.38 219.12, 608.96 55.36 M272.42 449.53 C398.93 305, 525.62 159.16, 608.42 61.99 M271.72 449.68 C391.15 309.67, 511.45 170.89, 608.86 61.35 M277.01 448.69 C352.04 364.49, 427.18 277.79, 609.07 67.12 M277.62 449.32 C354.2 360.51, 432.38 270.03, 609.09 66.98 M282.78 449.96 C353.22 369.9, 422.73 289.46, 608.63 74.26 M282.07 449.62 C382.12 334.64, 481.41 219.17, 609.13 73.4 M288.09 448.83 C381.89 340.38, 476.87 231.17, 608.29 80.66 M288.02 448.95 C393.73 327.82, 500.01 205.51, 609.11 80.01 M292.79 450.15 C393.08 337.06, 493.71 221.92, 608.92 84.88 M292.94 449.89 C408.48 316.1, 524.43 182.64, 609.09 85.93 M298.85 449.2 C361.99 374.43, 426.32 299.38, 608.21 92.38 M298.66 449.12 C422 309.23, 544.3 168.56, 609.07 91.84 M304.25 448.85 C413.39 323.21, 520.83 198.16, 608.99 98.3 M303.83 449.83 C368.63 375.6, 433.72 300.96, 608.92 97.45 M310.03 448.98 C375.64 372.07, 442.44 296.54, 609.73 105.06 M309.72 448.86 C388.79 355.85, 469.79 262.75, 609.54 104.58 M314.35 449.86 C390.4 362.76, 466.44 274.36, 609.04 110.23 M314.12 449.49 C426.06 323.46, 536.56 195.6, 608.9 110.85 M319.8 448.11 C433.02 319.95, 545.46 189.13, 608.57 115.76 M320.18 449.09 C412.5 341.09, 506.31 233.41, 609.54 116.28 M325.51 450.16 C410.72 350.45, 497.18 252.63, 609.62 123.06 M324.55 449.33 C433.22 325.02, 542.42 199.18, 608.69 122.82 M329.72 449.38 C409.07 358.71, 489.33 267.08, 608.64 128.68 M329.45 450.23 C427.54 336.65, 524.58 223.61, 608.91 128.65 M335.08 449.81 C443.2 325.03, 550.38 200.37, 608.37 134.83 M336.04 449.79 C399.24 377.77, 462.29 305.12, 609.62 134.16 M340.86 450.43 C410.05 370.98, 476.94 291.94, 609.45 141.46 M340.82 449.45 C414.82 365.73, 487.87 280.71, 608.47 140.53 M346.35 449.41 C399.96 385.68, 456.02 322.09, 610.33 146.71 M345.73 449.57 C420.42 363.25, 496.97 276.41, 608.73 146.82 M350.17 448.61 C442.94 345.69, 534.36 239.57, 608.71 152.78 M350.56 450.07 C414.42 376.8, 478.08 304.53, 608.98 152.6 M357.09 449.12 C426.04 369.57, 494.15 291.87, 608.84 158.93 M357.29 449.32 C409.37 388.58, 461.04 328.3, 609.27 158.53 M361.24 450.76 C420.92 382.37, 480.12 312.57, 608.43 164.27 M361.91 449.3 C444.77 354.66, 527.87 260.02, 609.69 165.06 M366.79 449.69 C422.42 386.48, 476.25 321.23, 607.97 172.49 M367.01 449.08 C419.26 391.45, 469.78 333.65, 608.58 171.85 M373.57 449.82 C434.77 377.39, 496.54 303.75, 610.25 176.32 M372.7 449.69 C431.26 381.93, 489.15 315.88, 609.24 177.1 M378.46 448.77 C425.89 395.21, 474.99 340.29, 608.58 182.28 M378.27 448.73 C423.76 395.66, 470.75 341.78, 609.1 183.69 M382.95 449.25 C469.48 352.77, 554.08 253.77, 610.51 190 M382.67 449.12 C427.94 397.33, 474.7 343.87, 609.3 189.59 M389.94 449.65 C447.54 379.26, 507.57 311.27, 609.82 195.56 M388.97 448.66 C446.36 384.93, 504.16 318.64, 609.18 195.17 M393.06 450.42 C440.72 393.1, 490.23 339.37, 608.01 201.11 M393.23 450.11 C449.67 384.35, 507.41 318.35, 608.42 201.39 M399.72 449.83 C466.81 369.79, 534.61 291.42, 610.38 207.33 M399.43 449.14 C469.86 366.52, 542.03 284.47, 608.66 208.28 M404.3 450.57 C454.56 389.97, 505.59 327.73, 608.88 214.5 M404.23 450.07 C449.78 400.42, 493.64 348.59, 609.12 213.62 M408.66 450.01 C454.99 398.13, 498.86 343.82, 609.16 220.46 M409.3 449.61 C484.63 363.85, 558.72 278.47, 609.19 218.98 M414.56 449.44 C457.52 401.41, 498.59 354.82, 610.27 225.67 M414.35 449.91 C464.6 391.32, 513.44 334.74, 609.16 225.46 M421.93 450.23 C475.21 387.04, 530.53 325.61, 609.16 231.46 M421.18 449.2 C491.1 369.71, 560.37 289.09, 608.61 232.63 M426.42 448.28 C471.64 398.64, 518.42 345.29, 609.27 238.51 M424.78 449.32 C484.37 380.8, 543.82 312.22, 609.03 238.76 M432.62 448.16 C495.57 373.61, 559.21 298.25, 610.08 243.3 M431.01 449.12 C489.47 382.47, 545.26 317.25, 608.43 244.62 M436.89 448.46 C471.39 406.76, 504.19 368.9, 610.13 250.32 M435.66 448.99 C501.59 371.89, 567.32 297.14, 609.24 250.69 M439.81 450.79 C499.8 377.93, 561.53 308.73, 608.21 256.98 M441.56 449.67 C485.42 397.04, 531.9 343.86, 609.44 257.19 M447.93 449.93 C498.38 391.05, 548.15 332.99, 610.08 262.84 M446.72 449.9 C497.18 390.11, 547.75 332.21, 608.92 262.66 M450.85 451.14 C504.7 388.91, 554.31 330.74, 610.52 269.42 M452.18 449.49 C496.4 399.11, 539.52 349.34, 608.65 268.12 M458.81 449.16 C506.4 393.47, 552.36 340.21, 609.33 274.82 M458.07 449.16 C492.61 410.2, 528.2 369.29, 609.09 275.43 M462.93 449.74 C516.59 389.35, 571.45 329.21, 609.91 282.24 M461.71 449.29 C499.2 409.16, 534.37 367.13, 609.15 280.27 M467.45 450.88 C517.35 389.61, 569.33 331.18, 609.09 288.14 M467.62 448.97 C523.11 387.37, 578.25 324.76, 609.65 287.73 M473.15 450.79 C517.66 399.29, 562.98 348.61, 608.79 294.47 M472.22 449.69 C510.14 407.96, 545.12 367.67, 608.85 293.43 M479.25 449.61 C514.05 410.99, 549.6 368.18, 609.2 299.61 M478.91 449.37 C508.09 414.59, 539.62 379.77, 609.42 298.87 M483.29 450.83 C520.69 404.41, 560.47 363.28, 610.75 304.34 M484.27 449.33 C521.55 406.74, 559.66 362.79, 608.82 305.22 M487.39 448.26 C524.6 409.37, 559.98 369.69, 609.07 309.93 M489.79 448.69 C532.01 397.12, 576.55 345.98, 609.8 310.67 M495.1 450.28 C535.56 402.62, 573.01 353.95, 610.09 316.43 M493.47 449.38 C529.3 408.29, 566.43 366.15, 608.59 316.66 M501.01 450.61 C536.86 404.64, 572.26 364.21, 608.91 324.18 M500.25 448.39 C523.58 422.75, 546.94 393.67, 609.82 323.8 M503.81 449.08 C542.41 404.96, 581.91 363.36, 608.17 328.78 M505.14 448.85 C537.03 412.31, 570.33 374.35, 609.88 330.3 M511.85 450.22 C547.6 409.29, 585.18 366.17, 610.4 334.02 M509.81 448.23 C542.4 411.11, 574.23 373.72, 609.35 335.35 M516.2 448.02 C552.54 409.08, 584.81 368.78, 610.9 343.29 M515.68 449.5 C541.2 418.79, 568.6 387.19, 608.88 342.01 M520.2 448.59 C539.49 426.58, 555.73 409.38, 610.82 348.31 M520.49 449.25 C544.1 422.72, 569.03 395.18, 608.32 348.42 M524.56 450.84 C549.65 422.68, 576.07 395.41, 610.06 352.54 M525.45 448.89 C552.78 419.33, 579.74 388.37, 608.63 354.64 M532.87 449.19 C554.06 426.66, 572.4 401.82, 607.61 360.14 M531.78 448.75 C557.58 419.7, 582.14 390.62, 608.28 360.12 M536.72 450.25 C562.46 420.47, 584.55 393.4, 607.92 366.87 M535.83 449.31 C556.21 426.84, 575.53 403.97, 608.61 366.06 M541.2 447.48 C560.36 428.01, 581.31 403.53, 607.77 373.57 M541.66 449.28 C559.72 429.66, 577.84 408.21, 608.76 371.34 M546.03 449.93 C561.79 436.1, 575.34 420.46, 607.34 376.81 M548.16 448.82 C563.82 430.49, 578.91 411.56, 609.81 378.66 M555.06 448.87 C576.57 422.64, 594.36 398.31, 609.14 386.37 M553.61 449.67 C569.71 428.51, 586.26 410.78, 609.63 384.48 M557.38 450.53 C577.16 427.25, 594.86 407.93, 608.34 392.13 M558.78 450.28 C578.83 425.51, 597.85 403.66, 608.36 391.35 M564.2 451.5 C579.53 428.29, 598.99 409.55, 609.09 397.04 M562.91 448.77 C578.42 433.1, 592.7 414.66, 608.71 397.44 M569.2 447.67 C577.91 437.23, 587.27 427.43, 609.47 400.54 M568.01 450.27 C578.15 437.52, 586.85 428.13, 609.9 403.3 M574.87 449.21 C584.09 438.25, 596.58 422.27, 610.53 407.28 M574.3 449.42 C586.55 434.49, 599.13 420.22, 608.82 409.16 M579.43 449.94 C588.26 439.08, 596.63 427.78, 609.19 414.51 M579.13 450.17 C590.57 437.96, 601.67 424.26, 607.87 415.7 M583.88 450.08 C592.56 440.24, 601.51 430.09, 610.58 421.04 M585.06 450.02 C589.71 444.14, 595.17 438.16, 609.44 421.58 M591.56 448.89 C593.9 442.07, 599.13 436.28, 610.41 426.19 M589.45 449.11 C597.49 440.86, 604.27 432.47, 609.18 427.75 M595.23 451.4 C597.25 446.05, 600.91 441.13, 609.87 431.2 M594.59 450.44 C597.48 446.45, 601.33 440.98, 609.02 433.41 M600.61 449.11 C602.14 447.17, 604.94 444.54, 610.12 438.47 M601.01 449.06 C603.36 446.07, 606.42 441.89, 609.2 439.9 M605.56 449.8 C606.08 448.85, 607.11 448.48, 609.13 445.96 M605.39 449.65 C606.65 448.59, 607.2 447.61, 609 445.83" stroke="#ced4da" stroke-width="0.5" fill="none"></path><path d="M0.74 -0.15 C219.61 1.96, 438.53 1.96, 609.26 -0.59 M-0.08 0.12 C167.46 -0.67, 334.66 -0.37, 608.39 -0.32 M608.73 -0.11 C606.32 148.81, 606.17 297.6, 608.62 448.16 M608.72 -0.07 C606.76 101.96, 607.55 203.95, 608.64 447.88 M608.26 447.38 C438.53 447.22, 268.5 446.94, 0.45 447.4 M608.1 447.71 C443.76 448.17, 278.47 448.08, 0.2 448.06 M-0.43 447.81 C-1.39 339.65, -2.32 232.41, -0.52 0.57 M-0.48 448.18 C-1.65 282.19, -1.35 115.61, 0.21 -0.27" stroke="#000000" stroke-width="1" fill="none"></path></g><g stroke-linecap="round" transform="translate(199.99999999999977 83.30952380952368) rotate(0 229.5833333333336 165.41666666666674)"><path d="M-0.62 0.57 L459.66 -0.17 L458.53 329.67 L0.26 332.52" stroke="none" stroke-width="0" fill="#fff"></path><path d="M0.22 0.22 C153.8 0.23, 308.53 0.05, 459.88 0.32 M0.25 -0.45 C161.92 -0.65, 323.64 -0.54, 459.6 -0.38 M459.43 -1.07 C458.57 75.64, 458.41 152.23, 460.42 331.81 M458.79 -0.52 C460.91 88.26, 461.07 175.18, 458.9 330.47 M459.47 330.05 C365.99 332.28, 272.13 331.65, -0.6 331.16 M459.52 330.47 C299.39 331.94, 139.42 331.91, 0.06 330.83 M-0.61 332.15 C2.31 240.96, 0 151.3, 0.73 -0.95 M0.21 331.41 C1.64 203.79, 1.04 77.02, 0.42 0.59" stroke="#000000" stroke-width="1" fill="none"></path></g><g transform="translate(271.6666666666665 92.14285714285705) rotate(0 31 13)"><text x="0" y="19" font-family="Virgil, Segoe UI Emoji" font-size="20px" fill="#000000" text-anchor="start" style="white-space: pre;" direction="ltr">Vehicle</text></g><g stroke-linecap="round" transform="translate(271.66666666666663 124.97619047619057) rotate(0 33.333333333333314 30.8333333333333)"><path d="M11.56 7.4 C11.56 7.4, 11.56 7.4, 11.56 7.4 M11.56 7.4 C11.56 7.4, 11.56 7.4, 11.56 7.4 M0.8 25.87 C4.99 21.05, 9.18 16.23, 19.17 4.74 M0.8 25.87 C6.55 19.25, 12.3 12.64, 19.17 4.74 M1.85 30.76 C8.44 23.18, 15.04 15.59, 26.78 2.08 M1.85 30.76 C9.82 21.59, 17.8 12.42, 26.78 2.08 M2.9 35.65 C9.93 27.56, 16.96 19.47, 33.74 0.18 M2.9 35.65 C14.67 22.11, 26.44 8.57, 33.74 0.18 M3.95 40.54 C16.12 26.54, 28.29 12.53, 38.07 1.29 M3.95 40.54 C13.05 30.07, 22.15 19.61, 38.07 1.29 M4.35 46.18 C15.49 33.36, 26.63 20.55, 41.74 3.16 M4.35 46.18 C15.7 33.12, 27.06 20.05, 41.74 3.16 M7.37 48.8 C20.62 33.55, 33.88 18.3, 46.07 4.28 M7.37 48.8 C22.78 31.07, 38.2 13.33, 46.07 4.28 M10.38 51.43 C24.53 35.16, 38.68 18.88, 49.75 6.15 M10.38 51.43 C24.11 35.64, 37.83 19.86, 49.75 6.15 M13.4 54.05 C22.76 43.29, 32.11 32.54, 54.08 7.26 M13.4 54.05 C23.98 41.88, 34.56 29.71, 54.08 7.26 M17.08 55.92 C32.38 38.32, 47.68 20.72, 57.1 9.88 M17.08 55.92 C27.58 43.84, 38.08 31.76, 57.1 9.88 M20.1 58.55 C28.98 48.32, 37.87 38.1, 59.46 13.26 M20.1 58.55 C32.84 43.88, 45.59 29.22, 59.46 13.26 M23.12 61.17 C34.15 48.47, 45.19 35.78, 61.82 16.64 M23.12 61.17 C37.35 44.8, 51.58 28.43, 61.82 16.64 M28.76 60.78 C37.09 51.19, 45.42 41.61, 64.19 20.02 M28.76 60.78 C38.95 49.05, 49.14 37.33, 64.19 20.02 M34.4 60.38 C41.95 51.7, 49.5 43.02, 66.55 23.4 M34.4 60.38 C42.88 50.63, 51.35 40.89, 66.55 23.4 M39.39 60.74 C49.83 48.73, 60.27 36.72, 68.26 27.53 M39.39 60.74 C50.26 48.23, 61.14 35.72, 68.26 27.53 M45.69 59.59 C53.19 50.96, 60.69 42.33, 67.34 34.69 M45.69 59.59 C52.74 51.48, 59.8 43.36, 67.34 34.69" stroke="#868e96" stroke-width="0.5" fill="none"></path><path d="M33.33 0 C40.09 -0.39, 49.22 2.94, 54.68 7.15 C60.15 11.37, 64.85 18.82, 66.12 25.3 C67.4 31.77, 65.85 40.28, 62.35 46.01 C58.85 51.74, 51.77 57.35, 45.11 59.68 C38.45 62, 29.13 62.12, 22.41 59.96 C15.68 57.8, 8.44 52.37, 4.77 46.73 C1.1 41.09, -0.7 32.63, 0.39 26.12 C1.48 19.62, 5.96 12.05, 11.3 7.7 C16.64 3.35, 28.76 1.29, 32.43 0.01 C36.1 -1.27, 33.18 -0.1, 33.33 0 C33.48 0.1, 33.33 0.1, 33.33 0.62 M33.33 0 C40.09 -0.39, 49.22 2.94, 54.68 7.15 C60.15 11.37, 64.85 18.82, 66.12 25.3 C67.4 31.77, 65.85 40.28, 62.35 46.01 C58.85 51.74, 51.77 57.35, 45.11 59.68 C38.45 62, 29.13 62.12, 22.41 59.96 C15.68 57.8, 8.44 52.37, 4.77 46.73 C1.1 41.09, -0.7 32.63, 0.39 26.12 C1.48 19.62, 5.96 12.05, 11.3 7.7 C16.64 3.35, 28.76 1.29, 32.43 0.01 C36.1 -1.27, 33.18 -0.1, 33.33 0 C33.48 0.1, 33.33 0.1, 33.33 0.62" stroke="#000000" stroke-width="1" fill="none"></path></g><g transform="translate(280.83333333333326 133.14285714285722) rotate(0 24.5 21)"><text x="24.5" y="15" font-family="Virgil, Segoe UI Emoji" font-size="16px" fill="#000000" text-anchor="middle" style="white-space: pre;" direction="ltr">ego</text><text x="24.5" y="36" font-family="Virgil, Segoe UI Emoji" font-size="16px" fill="#000000" text-anchor="middle" style="white-space: pre;" direction="ltr">sensor</text></g><g stroke-linecap="round" transform="translate(272.5 199.14285714285722) rotate(0 33.333333333333314 30.833333333333286)"><path d="M11.56 7.4 C11.56 7.4, 11.56 7.4, 11.56 7.4 M11.56 7.4 C11.56 7.4, 11.56 7.4, 11.56 7.4 M0.8 25.87 C7.05 18.69, 13.29 11.5, 19.17 4.74 M0.8 25.87 C6.58 19.22, 12.36 12.58, 19.17 4.74 M1.85 30.76 C8.56 23.04, 15.27 15.33, 26.78 2.08 M1.85 30.76 C10.57 20.73, 19.28 10.71, 26.78 2.08 M2.9 35.65 C12.84 24.21, 22.79 12.77, 33.74 0.18 M2.9 35.65 C14.78 21.99, 26.65 8.33, 33.74 0.18 M3.95 40.54 C13.71 29.31, 23.47 18.09, 38.07 1.29 M3.95 40.54 C13.23 29.87, 22.5 19.2, 38.07 1.29 M4.35 46.18 C16.06 32.7, 27.77 19.23, 41.74 3.16 M4.35 46.18 C19.24 29.04, 34.14 11.9, 41.74 3.16 M7.37 48.8 C20.54 33.65, 33.71 18.49, 46.07 4.28 M7.37 48.8 C16.07 38.79, 24.77 28.78, 46.07 4.28 M10.38 51.43 C18.34 42.27, 26.3 33.12, 49.75 6.15 M10.38 51.43 C22.88 37.05, 35.38 22.68, 49.75 6.15 M13.4 54.05 C23.48 42.47, 33.55 30.88, 54.08 7.26 M13.4 54.05 C24.92 40.8, 36.44 27.55, 54.08 7.26 M17.08 55.92 C27.3 44.16, 37.53 32.4, 57.1 9.88 M17.08 55.92 C25.23 46.54, 33.38 37.17, 57.1 9.88 M20.1 58.55 C29.94 47.23, 39.78 35.91, 59.46 13.26 M20.1 58.55 C34.66 41.79, 49.23 25.03, 59.46 13.26 M23.12 61.17 C31.48 51.54, 39.85 41.92, 61.82 16.64 M23.12 61.17 C35.38 47.06, 47.65 32.94, 61.82 16.64 M28.76 60.78 C39.96 47.9, 51.15 35.01, 64.19 20.02 M28.76 60.78 C41.41 46.22, 54.06 31.67, 64.19 20.02 M34.4 60.38 C40.95 52.85, 47.5 45.32, 66.55 23.4 M34.4 60.38 C41.33 52.41, 48.26 44.44, 66.55 23.4 M39.39 60.74 C46.35 52.73, 53.31 44.73, 68.26 27.53 M39.39 60.74 C49.9 48.65, 60.41 36.56, 68.26 27.53 M45.69 59.59 C50.32 54.26, 54.95 48.93, 67.34 34.69 M45.69 59.59 C51.23 53.21, 56.78 46.84, 67.34 34.69" stroke="#868e96" stroke-width="0.5" fill="none"></path><path d="M33.33 0 C40.09 -0.39, 49.22 2.94, 54.68 7.15 C60.15 11.37, 64.85 18.82, 66.12 25.3 C67.4 31.77, 65.85 40.28, 62.35 46.01 C58.85 51.74, 51.77 57.35, 45.11 59.68 C38.45 62, 29.13 62.12, 22.41 59.96 C15.68 57.8, 8.44 52.37, 4.77 46.73 C1.1 41.09, -0.7 32.63, 0.39 26.12 C1.48 19.62, 5.96 12.05, 11.3 7.7 C16.64 3.35, 28.76 1.29, 32.43 0.01 C36.1 -1.27, 33.18 -0.1, 33.33 0 C33.48 0.1, 33.33 0.1, 33.33 0.62 M33.33 0 C40.09 -0.39, 49.22 2.94, 54.68 7.15 C60.15 11.37, 64.85 18.82, 66.12 25.3 C67.4 31.77, 65.85 40.28, 62.35 46.01 C58.85 51.74, 51.77 57.35, 45.11 59.68 C38.45 62, 29.13 62.12, 22.41 59.96 C15.68 57.8, 8.44 52.37, 4.77 46.73 C1.1 41.09, -0.7 32.63, 0.39 26.12 C1.48 19.62, 5.96 12.05, 11.3 7.7 C16.64 3.35, 28.76 1.29, 32.43 0.01 C36.1 -1.27, 33.18 -0.1, 33.33 0 C33.48 0.1, 33.33 0.1, 33.33 0.62" stroke="#000000" stroke-width="1" fill="none"></path></g><g transform="translate(281.66666666666663 207.30952380952385) rotate(0 24.5 21)"><text x="24.5" y="15" font-family="Virgil, Segoe UI Emoji" font-size="16px" fill="#000000" text-anchor="middle" style="white-space: pre;" direction="ltr">object</text><text x="24.5" y="36" font-family="Virgil, Segoe UI Emoji" font-size="16px" fill="#000000" text-anchor="middle" style="white-space: pre;" direction="ltr">sensor</text></g><g stroke-linecap="round" transform="translate(440.8333333333335 231.64285714285728) rotate(0 33.333333333333314 30.833333333333314)"><path d="M33.33 0 C40.09 -0.39, 49.22 2.94, 54.68 7.15 C60.15 11.37, 64.85 18.82, 66.12 25.3 C67.4 31.77, 65.85 40.28, 62.35 46.01 C58.85 51.74, 51.77 57.35, 45.11 59.68 C38.45 62, 29.13 62.12, 22.41 59.96 C15.68 57.8, 8.44 52.37, 4.77 46.73 C1.1 41.09, -0.7 32.63, 0.39 26.12 C1.48 19.62, 5.96 12.05, 11.3 7.7 C16.64 3.35, 28.76 1.29, 32.43 0.01 C36.1 -1.27, 33.18 -0.1, 33.33 0 C33.48 0.1, 33.33 0.1, 33.33 0.62 M33.33 0 C40.09 -0.39, 49.22 2.94, 54.68 7.15 C60.15 11.37, 64.85 18.82, 66.12 25.3 C67.4 31.77, 65.85 40.28, 62.35 46.01 C58.85 51.74, 51.77 57.35, 45.11 59.68 C38.45 62, 29.13 62.12, 22.41 59.96 C15.68 57.8, 8.44 52.37, 4.77 46.73 C1.1 41.09, -0.7 32.63, 0.39 26.12 C1.48 19.62, 5.96 12.05, 11.3 7.7 C16.64 3.35, 28.76 1.29, 32.43 0.01 C36.1 -1.27, 33.18 -0.1, 33.33 0 C33.48 0.1, 33.33 0.1, 33.33 0.62" stroke="none" stroke-width="0" fill="#868e96"></path><path d="M33.33 0 C40.09 -0.39, 49.22 2.94, 54.68 7.15 C60.15 11.37, 64.85 18.82, 66.12 25.3 C67.4 31.77, 65.85 40.28, 62.35 46.01 C58.85 51.74, 51.77 57.35, 45.11 59.68 C38.45 62, 29.13 62.12, 22.41 59.96 C15.68 57.8, 8.44 52.37, 4.77 46.73 C1.1 41.09, -0.7 32.63, 0.39 26.12 C1.48 19.62, 5.96 12.05, 11.3 7.7 C16.64 3.35, 28.76 1.29, 32.43 0.01 C36.1 -1.27, 33.18 -0.1, 33.33 0 C33.48 0.1, 33.33 0.1, 33.33 0.62 M33.33 0 C40.09 -0.39, 49.22 2.94, 54.68 7.15 C60.15 11.37, 64.85 18.82, 66.12 25.3 C67.4 31.77, 65.85 40.28, 62.35 46.01 C58.85 51.74, 51.77 57.35, 45.11 59.68 C38.45 62, 29.13 62.12, 22.41 59.96 C15.68 57.8, 8.44 52.37, 4.77 46.73 C1.1 41.09, -0.7 32.63, 0.39 26.12 C1.48 19.62, 5.96 12.05, 11.3 7.7 C16.64 3.35, 28.76 1.29, 32.43 0.01 C36.1 -1.27, 33.18 -0.1, 33.33 0 C33.48 0.1, 33.33 0.1, 33.33 0.62" stroke="#000000" stroke-width="1" fill="none"></path></g><g transform="translate(450.0000000000001 239.8095238095239) rotate(0 24.5 21)"><text x="24.5" y="15" font-family="Virgil, Segoe UI Emoji" font-size="16px" fill="#000000" text-anchor="middle" style="white-space: pre;" direction="ltr">super</text><text x="24.5" y="36" font-family="Virgil, Segoe UI Emoji" font-size="16px" fill="#000000" text-anchor="middle" style="white-space: pre;" direction="ltr">sensor</text></g><g stroke-linecap="round" transform="translate(558.3333333333333 113.30952380952402) rotate(0 33.33333333333326 30.833333333333314)"><path d="M33.33 0 C40.09 -0.39, 49.22 2.94, 54.68 7.15 C60.15 11.37, 64.85 18.82, 66.12 25.3 C67.4 31.77, 65.85 40.28, 62.35 46.01 C58.85 51.74, 51.77 57.35, 45.11 59.68 C38.45 62, 29.13 62.12, 22.41 59.96 C15.68 57.8, 8.44 52.37, 4.77 46.73 C1.1 41.09, -0.7 32.63, 0.39 26.12 C1.48 19.62, 5.96 12.05, 11.3 7.7 C16.64 3.35, 28.76 1.29, 32.43 0.01 C36.1 -1.27, 33.18 -0.1, 33.33 0 C33.48 0.1, 33.33 0.1, 33.33 0.62 M33.33 0 C40.09 -0.39, 49.22 2.94, 54.68 7.15 C60.15 11.37, 64.85 18.82, 66.12 25.3 C67.4 31.77, 65.85 40.28, 62.35 46.01 C58.85 51.74, 51.77 57.35, 45.11 59.68 C38.45 62, 29.13 62.12, 22.41 59.96 C15.68 57.8, 8.44 52.37, 4.77 46.73 C1.1 41.09, -0.7 32.63, 0.39 26.12 C1.48 19.62, 5.96 12.05, 11.3 7.7 C16.64 3.35, 28.76 1.29, 32.43 0.01 C36.1 -1.27, 33.18 -0.1, 33.33 0 C33.48 0.1, 33.33 0.1, 33.33 0.62" stroke="none" stroke-width="0" fill="#868e96"></path><path d="M33.33 0 C40.09 -0.39, 49.22 2.94, 54.68 7.15 C60.15 11.37, 64.85 18.82, 66.12 25.3 C67.4 31.77, 65.85 40.28, 62.35 46.01 C58.85 51.74, 51.77 57.35, 45.11 59.68 C38.45 62, 29.13 62.12, 22.41 59.96 C15.68 57.8, 8.44 52.37, 4.77 46.73 C1.1 41.09, -0.7 32.63, 0.39 26.12 C1.48 19.62, 5.96 12.05, 11.3 7.7 C16.64 3.35, 28.76 1.29, 32.43 0.01 C36.1 -1.27, 33.18 -0.1, 33.33 0 C33.48 0.1, 33.33 0.1, 33.33 0.62 M33.33 0 C40.09 -0.39, 49.22 2.94, 54.68 7.15 C60.15 11.37, 64.85 18.82, 66.12 25.3 C67.4 31.77, 65.85 40.28, 62.35 46.01 C58.85 51.74, 51.77 57.35, 45.11 59.68 C38.45 62, 29.13 62.12, 22.41 59.96 C15.68 57.8, 8.44 52.37, 4.77 46.73 C1.1 41.09, -0.7 32.63, 0.39 26.12 C1.48 19.62, 5.96 12.05, 11.3 7.7 C16.64 3.35, 28.76 1.29, 32.43 0.01 C36.1 -1.27, 33.18 -0.1, 33.33 0 C33.48 0.1, 33.33 0.1, 33.33 0.62" stroke="#000000" stroke-width="1" fill="none"></path></g><g transform="translate(567.5 121.47619047619065) rotate(0 24.5 21)"><text x="24.5" y="15" font-family="Virgil, Segoe UI Emoji" font-size="16px" fill="#000000" text-anchor="middle" style="white-space: pre;" direction="ltr">ego</text><text x="24.5" y="36" font-family="Virgil, Segoe UI Emoji" font-size="16px" fill="#000000" text-anchor="middle" style="white-space: pre;" direction="ltr">sensor</text></g><g stroke-linecap="round" transform="translate(558.3333333333333 189.9761904761907) rotate(0 33.33333333333326 30.833333333333286)"><path d="M33.33 0 C40.09 -0.39, 49.22 2.94, 54.68 7.15 C60.15 11.37, 64.85 18.82, 66.12 25.3 C67.4 31.77, 65.85 40.28, 62.35 46.01 C58.85 51.74, 51.77 57.35, 45.11 59.68 C38.45 62, 29.13 62.12, 22.41 59.96 C15.68 57.8, 8.44 52.37, 4.77 46.73 C1.1 41.09, -0.7 32.63, 0.39 26.12 C1.48 19.62, 5.96 12.05, 11.3 7.7 C16.64 3.35, 28.76 1.29, 32.43 0.01 C36.1 -1.27, 33.18 -0.1, 33.33 0 C33.48 0.1, 33.33 0.1, 33.33 0.62 M33.33 0 C40.09 -0.39, 49.22 2.94, 54.68 7.15 C60.15 11.37, 64.85 18.82, 66.12 25.3 C67.4 31.77, 65.85 40.28, 62.35 46.01 C58.85 51.74, 51.77 57.35, 45.11 59.68 C38.45 62, 29.13 62.12, 22.41 59.96 C15.68 57.8, 8.44 52.37, 4.77 46.73 C1.1 41.09, -0.7 32.63, 0.39 26.12 C1.48 19.62, 5.96 12.05, 11.3 7.7 C16.64 3.35, 28.76 1.29, 32.43 0.01 C36.1 -1.27, 33.18 -0.1, 33.33 0 C33.48 0.1, 33.33 0.1, 33.33 0.62" stroke="none" stroke-width="0" fill="#868e96"></path><path d="M33.33 0 C40.09 -0.39, 49.22 2.94, 54.68 7.15 C60.15 11.37, 64.85 18.82, 66.12 25.3 C67.4 31.77, 65.85 40.28, 62.35 46.01 C58.85 51.74, 51.77 57.35, 45.11 59.68 C38.45 62, 29.13 62.12, 22.41 59.96 C15.68 57.8, 8.44 52.37, 4.77 46.73 C1.1 41.09, -0.7 32.63, 0.39 26.12 C1.48 19.62, 5.96 12.05, 11.3 7.7 C16.64 3.35, 28.76 1.29, 32.43 0.01 C36.1 -1.27, 33.18 -0.1, 33.33 0 C33.48 0.1, 33.33 0.1, 33.33 0.62 M33.33 0 C40.09 -0.39, 49.22 2.94, 54.68 7.15 C60.15 11.37, 64.85 18.82, 66.12 25.3 C67.4 31.77, 65.85 40.28, 62.35 46.01 C58.85 51.74, 51.77 57.35, 45.11 59.68 C38.45 62, 29.13 62.12, 22.41 59.96 C15.68 57.8, 8.44 52.37, 4.77 46.73 C1.1 41.09, -0.7 32.63, 0.39 26.12 C1.48 19.62, 5.96 12.05, 11.3 7.7 C16.64 3.35, 28.76 1.29, 32.43 0.01 C36.1 -1.27, 33.18 -0.1, 33.33 0 C33.48 0.1, 33.33 0.1, 33.33 0.62" stroke="#000000" stroke-width="1" fill="none"></path></g><g transform="translate(567.5 198.14285714285734) rotate(0 24.5 21)"><text x="24.5" y="15" font-family="Virgil, Segoe UI Emoji" font-size="16px" fill="#000000" text-anchor="middle" style="white-space: pre;" direction="ltr">object</text><text x="24.5" y="36" font-family="Virgil, Segoe UI Emoji" font-size="16px" fill="#000000" text-anchor="middle" style="white-space: pre;" direction="ltr">sensor</text></g><g stroke-linecap="round" transform="translate(559.9999999999998 264.97619047619077) rotate(0 33.33333333333326 30.833333333333314)"><path d="M33.33 0 C40.09 -0.39, 49.22 2.94, 54.68 7.15 C60.15 11.37, 64.85 18.82, 66.12 25.3 C67.4 31.77, 65.85 40.28, 62.35 46.01 C58.85 51.74, 51.77 57.35, 45.11 59.68 C38.45 62, 29.13 62.12, 22.41 59.96 C15.68 57.8, 8.44 52.37, 4.77 46.73 C1.1 41.09, -0.7 32.63, 0.39 26.12 C1.48 19.62, 5.96 12.05, 11.3 7.7 C16.64 3.35, 28.76 1.29, 32.43 0.01 C36.1 -1.27, 33.18 -0.1, 33.33 0 C33.48 0.1, 33.33 0.1, 33.33 0.62 M33.33 0 C40.09 -0.39, 49.22 2.94, 54.68 7.15 C60.15 11.37, 64.85 18.82, 66.12 25.3 C67.4 31.77, 65.85 40.28, 62.35 46.01 C58.85 51.74, 51.77 57.35, 45.11 59.68 C38.45 62, 29.13 62.12, 22.41 59.96 C15.68 57.8, 8.44 52.37, 4.77 46.73 C1.1 41.09, -0.7 32.63, 0.39 26.12 C1.48 19.62, 5.96 12.05, 11.3 7.7 C16.64 3.35, 28.76 1.29, 32.43 0.01 C36.1 -1.27, 33.18 -0.1, 33.33 0 C33.48 0.1, 33.33 0.1, 33.33 0.62" stroke="none" stroke-width="0" fill="#868e96"></path><path d="M33.33 0 C40.09 -0.39, 49.22 2.94, 54.68 7.15 C60.15 11.37, 64.85 18.82, 66.12 25.3 C67.4 31.77, 65.85 40.28, 62.35 46.01 C58.85 51.74, 51.77 57.35, 45.11 59.68 C38.45 62, 29.13 62.12, 22.41 59.96 C15.68 57.8, 8.44 52.37, 4.77 46.73 C1.1 41.09, -0.7 32.63, 0.39 26.12 C1.48 19.62, 5.96 12.05, 11.3 7.7 C16.64 3.35, 28.76 1.29, 32.43 0.01 C36.1 -1.27, 33.18 -0.1, 33.33 0 C33.48 0.1, 33.33 0.1, 33.33 0.62 M33.33 0 C40.09 -0.39, 49.22 2.94, 54.68 7.15 C60.15 11.37, 64.85 18.82, 66.12 25.3 C67.4 31.77, 65.85 40.28, 62.35 46.01 C58.85 51.74, 51.77 57.35, 45.11 59.68 C38.45 62, 29.13 62.12, 22.41 59.96 C15.68 57.8, 8.44 52.37, 4.77 46.73 C1.1 41.09, -0.7 32.63, 0.39 26.12 C1.48 19.62, 5.96 12.05, 11.3 7.7 C16.64 3.35, 28.76 1.29, 32.43 0.01 C36.1 -1.27, 33.18 -0.1, 33.33 0 C33.48 0.1, 33.33 0.1, 33.33 0.62" stroke="#000000" stroke-width="1" fill="none"></path></g><g transform="translate(569.1666666666665 273.1428571428574) rotate(0 24.5 21)"><text x="24.5" y="15" font-family="Virgil, Segoe UI Emoji" font-size="16px" fill="#000000" text-anchor="middle" style="white-space: pre;" direction="ltr">lane</text><text x="24.5" y="36" font-family="Virgil, Segoe UI Emoji" font-size="16px" fill="#000000" text-anchor="middle" style="white-space: pre;" direction="ltr">sensor</text></g><g stroke-linecap="round" transform="translate(273.3333333333335 272.4761904761906) rotate(0 33.333333333333314 30.833333333333286)"><path d="M11.56 7.4 C11.56 7.4, 11.56 7.4, 11.56 7.4 M11.56 7.4 C11.56 7.4, 11.56 7.4, 11.56 7.4 M0.8 25.87 C4.92 21.13, 9.03 16.4, 19.17 4.74 M0.8 25.87 C7.44 18.24, 14.07 10.6, 19.17 4.74 M1.85 30.76 C8.33 23.31, 14.8 15.86, 26.78 2.08 M1.85 30.76 C8.24 23.41, 14.62 16.07, 26.78 2.08 M2.9 35.65 C14.38 22.44, 25.87 9.23, 33.74 0.18 M2.9 35.65 C12.6 24.49, 22.29 13.34, 33.74 0.18 M3.95 40.54 C14.37 28.55, 24.79 16.57, 38.07 1.29 M3.95 40.54 C15.1 27.71, 26.25 14.88, 38.07 1.29 M4.35 46.18 C12.78 36.48, 21.22 26.77, 41.74 3.16 M4.35 46.18 C14.26 34.78, 24.17 23.37, 41.74 3.16 M7.37 48.8 C20.48 33.72, 33.6 18.63, 46.07 4.28 M7.37 48.8 C15.75 39.16, 24.13 29.52, 46.07 4.28 M10.38 51.43 C18.5 42.1, 26.61 32.76, 49.75 6.15 M10.38 51.43 C18.98 41.54, 27.57 31.65, 49.75 6.15 M13.4 54.05 C27.98 37.28, 42.57 20.5, 54.08 7.26 M13.4 54.05 C29.35 35.71, 45.3 17.36, 54.08 7.26 M17.08 55.92 C25.61 46.11, 34.14 36.29, 57.1 9.88 M17.08 55.92 C32.2 38.53, 47.32 21.13, 57.1 9.88 M20.1 58.55 C31.48 45.45, 42.87 32.35, 59.46 13.26 M20.1 58.55 C30.68 46.37, 41.26 34.2, 59.46 13.26 M23.12 61.17 C35.6 46.8, 48.09 32.44, 61.82 16.64 M23.12 61.17 C32.62 50.24, 42.12 39.3, 61.82 16.64 M28.76 60.78 C38.77 49.26, 48.78 37.75, 64.19 20.02 M28.76 60.78 C39.76 48.12, 50.75 35.47, 64.19 20.02 M34.4 60.38 C43.61 49.78, 52.83 39.18, 66.55 23.4 M34.4 60.38 C44.75 48.48, 55.1 36.57, 66.55 23.4 M39.39 60.74 C45.64 53.55, 51.89 46.36, 68.26 27.53 M39.39 60.74 C48.89 49.81, 58.39 38.88, 68.26 27.53 M45.69 59.59 C50.75 53.77, 55.82 47.94, 67.34 34.69 M45.69 59.59 C50.15 54.46, 54.61 49.33, 67.34 34.69" stroke="#868e96" stroke-width="0.5" fill="none"></path><path d="M33.33 0 C40.09 -0.39, 49.22 2.94, 54.68 7.15 C60.15 11.37, 64.85 18.82, 66.12 25.3 C67.4 31.77, 65.85 40.28, 62.35 46.01 C58.85 51.74, 51.77 57.35, 45.11 59.68 C38.45 62, 29.13 62.12, 22.41 59.96 C15.68 57.8, 8.44 52.37, 4.77 46.73 C1.1 41.09, -0.7 32.63, 0.39 26.12 C1.48 19.62, 5.96 12.05, 11.3 7.7 C16.64 3.35, 28.76 1.29, 32.43 0.01 C36.1 -1.27, 33.18 -0.1, 33.33 0 C33.48 0.1, 33.33 0.1, 33.33 0.62 M33.33 0 C40.09 -0.39, 49.22 2.94, 54.68 7.15 C60.15 11.37, 64.85 18.82, 66.12 25.3 C67.4 31.77, 65.85 40.28, 62.35 46.01 C58.85 51.74, 51.77 57.35, 45.11 59.68 C38.45 62, 29.13 62.12, 22.41 59.96 C15.68 57.8, 8.44 52.37, 4.77 46.73 C1.1 41.09, -0.7 32.63, 0.39 26.12 C1.48 19.62, 5.96 12.05, 11.3 7.7 C16.64 3.35, 28.76 1.29, 32.43 0.01 C36.1 -1.27, 33.18 -0.1, 33.33 0 C33.48 0.1, 33.33 0.1, 33.33 0.62" stroke="#000000" stroke-width="1" fill="none"></path></g><g transform="translate(282.5000000000001 280.6428571428572) rotate(0 24.5 21)"><text x="24.5" y="15" font-family="Virgil, Segoe UI Emoji" font-size="16px" fill="#000000" text-anchor="middle" style="white-space: pre;" direction="ltr">lane</text><text x="24.5" y="36" font-family="Virgil, Segoe UI Emoji" font-size="16px" fill="#000000" text-anchor="middle" style="white-space: pre;" direction="ltr">sensor</text></g><g stroke-linecap="round" transform="translate(274.16666666666697 344.14285714285734) rotate(0 33.333333333333314 30.833333333333286)"><path d="M11.56 7.4 C11.56 7.4, 11.56 7.4, 11.56 7.4 M11.56 7.4 C11.56 7.4, 11.56 7.4, 11.56 7.4 M0.8 25.87 C6.53 19.28, 12.26 12.69, 19.17 4.74 M0.8 25.87 C5.62 20.32, 10.44 14.78, 19.17 4.74 M1.85 30.76 C10.07 21.3, 18.29 11.85, 26.78 2.08 M1.85 30.76 C9.05 22.48, 16.24 14.2, 26.78 2.08 M2.9 35.65 C14.32 22.52, 25.73 9.38, 33.74 0.18 M2.9 35.65 C10.57 26.83, 18.24 18.01, 33.74 0.18 M3.95 40.54 C13.69 29.33, 23.43 18.13, 38.07 1.29 M3.95 40.54 C16.62 25.96, 29.29 11.39, 38.07 1.29 M4.35 46.18 C18.82 29.53, 33.29 12.89, 41.74 3.16 M4.35 46.18 C19.18 29.11, 34.02 12.05, 41.74 3.16 M7.37 48.8 C18.18 36.36, 29 23.92, 46.07 4.28 M7.37 48.8 C22.5 31.39, 37.64 13.97, 46.07 4.28 M10.38 51.43 C25.98 33.49, 41.57 15.55, 49.75 6.15 M10.38 51.43 C20.76 39.5, 31.13 27.56, 49.75 6.15 M13.4 54.05 C22.85 43.18, 32.3 32.31, 54.08 7.26 M13.4 54.05 C28.88 36.24, 44.36 18.44, 54.08 7.26 M17.08 55.92 C28.29 43.02, 39.51 30.12, 57.1 9.88 M17.08 55.92 C28.39 42.91, 39.7 29.9, 57.1 9.88 M20.1 58.55 C30.46 46.62, 40.83 34.7, 59.46 13.26 M20.1 58.55 C31.87 45, 43.64 31.46, 59.46 13.26 M23.12 61.17 C33.58 49.13, 44.04 37.1, 61.82 16.64 M23.12 61.17 C33.34 49.41, 43.56 37.65, 61.82 16.64 M28.76 60.78 C42.58 44.88, 56.4 28.98, 64.19 20.02 M28.76 60.78 C40.54 47.23, 52.31 33.68, 64.19 20.02 M34.4 60.38 C42.3 51.3, 50.2 42.21, 66.55 23.4 M34.4 60.38 C43.87 49.48, 53.35 38.59, 66.55 23.4 M39.39 60.74 C45.99 53.15, 52.59 45.55, 68.26 27.53 M39.39 60.74 C50.74 47.69, 62.09 34.63, 68.26 27.53 M45.69 59.59 C50.76 53.76, 55.82 47.93, 67.34 34.69 M45.69 59.59 C50.83 53.68, 55.97 47.77, 67.34 34.69" stroke="#868e96" stroke-width="0.5" fill="none"></path><path d="M33.33 0 C40.09 -0.39, 49.22 2.94, 54.68 7.15 C60.15 11.37, 64.85 18.82, 66.12 25.3 C67.4 31.77, 65.85 40.28, 62.35 46.01 C58.85 51.74, 51.77 57.35, 45.11 59.68 C38.45 62, 29.13 62.12, 22.41 59.96 C15.68 57.8, 8.44 52.37, 4.77 46.73 C1.1 41.09, -0.7 32.63, 0.39 26.12 C1.48 19.62, 5.96 12.05, 11.3 7.7 C16.64 3.35, 28.76 1.29, 32.43 0.01 C36.1 -1.27, 33.18 -0.1, 33.33 0 C33.48 0.1, 33.33 0.1, 33.33 0.62 M33.33 0 C40.09 -0.39, 49.22 2.94, 54.68 7.15 C60.15 11.37, 64.85 18.82, 66.12 25.3 C67.4 31.77, 65.85 40.28, 62.35 46.01 C58.85 51.74, 51.77 57.35, 45.11 59.68 C38.45 62, 29.13 62.12, 22.41 59.96 C15.68 57.8, 8.44 52.37, 4.77 46.73 C1.1 41.09, -0.7 32.63, 0.39 26.12 C1.48 19.62, 5.96 12.05, 11.3 7.7 C16.64 3.35, 28.76 1.29, 32.43 0.01 C36.1 -1.27, 33.18 -0.1, 33.33 0 C33.48 0.1, 33.33 0.1, 33.33 0.62" stroke="#000000" stroke-width="1" fill="none"></path></g><g transform="translate(275.3333333333336 362.80952380952397) rotate(0 32.5 10.5)"><text x="32.5" y="15" font-family="Virgil, Segoe UI Emoji" font-size="16px" fill="#000000" text-anchor="middle" style="white-space: pre;" direction="ltr">actuate</text></g><g stroke-linecap="round"><g transform="translate(264.16666666666663 374.1428571428571) rotate(0 -51.666666666666686 -32.733750000000015)"><path d="M0 0 C-12.92 0, -63.89 10.28, -77.5 0 C-91.11 -10.28, -77.36 -50, -81.67 -61.67 C-85.97 -73.33, -99.72 -68.61, -103.33 -70 M0 0 C-12.92 0, -63.89 10.28, -77.5 0 C-91.11 -10.28, -77.36 -50, -81.67 -61.67 C-85.97 -73.33, -99.72 -68.61, -103.33 -70" stroke="#000000" stroke-width="1" fill="none"></path></g><g transform="translate(264.16666666666663 374.1428571428571) rotate(0 -51.666666666666686 -32.733750000000015)"><path d="M-92.28 -73.55 C-96.47 -72.21, -100.66 -70.86, -103.33 -70 M-92.28 -73.55 C-96.68 -72.14, -101.09 -70.72, -103.33 -70" stroke="#000000" stroke-width="1" fill="none"></path></g><g transform="translate(264.16666666666663 374.1428571428571) rotate(0 -51.666666666666686 -32.733750000000015)"><path d="M-92.58 -65.62 C-96.66 -67.28, -100.73 -68.94, -103.33 -70 M-92.58 -65.62 C-96.87 -67.36, -101.15 -69.11, -103.33 -70" stroke="#000000" stroke-width="1" fill="none"></path></g></g><g stroke-linecap="round"><g transform="translate(349.9999999999999 304.1428571428571) rotate(0 45.59297459436192 -11.662512734555378)"><path d="M0 0 C4.44 0.14, 21.94 4.86, 26.67 0.83 C31.39 -3.19, 20.14 -20.14, 28.33 -24.17 C36.53 -28.19, 65.36 -23.43, 75.83 -23.33 C86.31 -23.24, 88.63 -23.55, 91.19 -23.6 M0 0 C4.44 0.14, 21.94 4.86, 26.67 0.83 C31.39 -3.19, 20.14 -20.14, 28.33 -24.17 C36.53 -28.19, 65.36 -23.43, 75.83 -23.33 C86.31 -23.24, 88.63 -23.55, 91.19 -23.6" stroke="#000000" stroke-width="1" fill="none"></path></g><g transform="translate(349.9999999999999 304.1428571428571) rotate(0 45.59297459436192 -11.662512734555378)"><path d="M84.08 -20.7 C86.87 -21.84, 89.66 -22.97, 91.19 -23.6 M84.08 -20.7 C86.81 -21.81, 89.54 -22.93, 91.19 -23.6" stroke="#000000" stroke-width="1" fill="none"></path></g><g transform="translate(349.9999999999999 304.1428571428571) rotate(0 45.59297459436192 -11.662512734555378)"><path d="M83.88 -25.95 C86.75 -25.02, 89.61 -24.1, 91.19 -23.6 M83.88 -25.95 C86.69 -25.04, 89.49 -24.14, 91.19 -23.6" stroke="#000000" stroke-width="1" fill="none"></path></g></g><g stroke-linecap="round"><g transform="translate(348.33333333333337 230.8095238095238) rotate(0 44.166666666666686 17.103333333333325)"><path d="M0 0 C3.93 0.28, 19.75 -3.75, 23.56 1.67 C27.36 7.08, 14.97 27.08, 22.82 32.5 C30.67 37.92, 59.75 34.03, 70.67 34.17 C81.59 34.31, 85.39 33.47, 88.33 33.33 M0 0 C3.93 0.28, 19.75 -3.75, 23.56 1.67 C27.36 7.08, 14.97 27.08, 22.82 32.5 C30.67 37.92, 59.75 34.03, 70.67 34.17 C81.59 34.31, 85.39 33.47, 88.33 33.33" stroke="#000000" stroke-width="1" fill="none"></path></g><g transform="translate(348.33333333333337 230.8095238095238) rotate(0 44.166666666666686 17.103333333333325)"><path d="M80.32 37.07 C82.23 36.18, 84.15 35.29, 88.33 33.33 M80.32 37.07 C82.59 36.01, 84.87 34.95, 88.33 33.33" stroke="#000000" stroke-width="1" fill="none"></path></g><g transform="translate(348.33333333333337 230.8095238095238) rotate(0 44.166666666666686 17.103333333333325)"><path d="M79.79 31.05 C81.83 31.59, 83.87 32.14, 88.33 33.33 M79.79 31.05 C82.21 31.69, 84.64 32.34, 88.33 33.33" stroke="#000000" stroke-width="1" fill="none"></path></g></g><g stroke-linecap="round"><g transform="translate(347.4999999999999 152.47619047619042) rotate(0 46.57606764760834 48.219859206293094)"><path d="M0 0 C6.81 0.14, 33.19 -15.14, 40.83 0.83 C48.47 16.81, 38.75 80, 45.83 95.83 C52.92 111.67, 75.45 95.77, 83.33 95.83 C91.22 95.9, 91.52 96.15, 93.15 96.21 M0 0 C6.81 0.14, 33.19 -15.14, 40.83 0.83 C48.47 16.81, 38.75 80, 45.83 95.83 C52.92 111.67, 75.45 95.77, 83.33 95.83 C91.22 95.9, 91.52 96.15, 93.15 96.21" stroke="#000000" stroke-width="1" fill="none"></path></g><g transform="translate(347.4999999999999 152.47619047619042) rotate(0 46.57606764760834 48.219859206293094)"><path d="M88.43 97.56 C89.45 97.27, 90.47 96.97, 93.15 96.21 M88.43 97.56 C89.91 97.13, 91.4 96.71, 93.15 96.21" stroke="#000000" stroke-width="1" fill="none"></path></g><g transform="translate(347.4999999999999 152.47619047619042) rotate(0 46.57606764760834 48.219859206293094)"><path d="M88.67 94.2 C89.64 94.64, 90.61 95.07, 93.15 96.21 M88.67 94.2 C90.08 94.84, 91.49 95.47, 93.15 96.21" stroke="#000000" stroke-width="1" fill="none"></path></g></g><g stroke-linecap="round"><g transform="translate(160.83333333333326 276.6428571428571) rotate(0 51.25 16.006249999999994)"><path d="M0 0 C9.17 0, 45.14 -5.28, 55 0 C64.86 5.28, 53.47 26.25, 59.17 31.67 C64.86 37.08, 81.94 32.64, 89.17 32.5 C96.39 32.36, 100.28 31.11, 102.5 30.83 M0 0 C9.17 0, 45.14 -5.28, 55 0 C64.86 5.28, 53.47 26.25, 59.17 31.67 C64.86 37.08, 81.94 32.64, 89.17 32.5 C96.39 32.36, 100.28 31.11, 102.5 30.83" stroke="#000000" stroke-width="1" fill="none"></path></g><g transform="translate(160.83333333333326 276.6428571428571) rotate(0 51.25 16.006249999999994)"><path d="M96.7 34.23 C98.04 33.44, 99.38 32.66, 102.5 30.83 M96.7 34.23 C97.98 33.48, 99.26 32.73, 102.5 30.83" stroke="#000000" stroke-width="1" fill="none"></path></g><g transform="translate(160.83333333333326 276.6428571428571) rotate(0 51.25 16.006249999999994)"><path d="M95.88 29.71 C97.41 29.97, 98.94 30.23, 102.5 30.83 M95.88 29.71 C97.34 29.96, 98.8 30.21, 102.5 30.83" stroke="#000000" stroke-width="1" fill="none"></path></g></g><g stroke-linecap="round"><g transform="translate(162.4999999999999 243.3095238095238) rotate(0 50 -7.903541666666683)"><path d="M0 0 C9.58 0.14, 47.5 3.61, 57.5 0.83 C67.5 -1.94, 54.86 -13.89, 60 -16.67 C65.14 -19.44, 81.67 -15.83, 88.33 -15.83 C95 -15.83, 98.06 -16.53, 100 -16.67 M0 0 C9.58 0.14, 47.5 3.61, 57.5 0.83 C67.5 -1.94, 54.86 -13.89, 60 -16.67 C65.14 -19.44, 81.67 -15.83, 88.33 -15.83 C95 -15.83, 98.06 -16.53, 100 -16.67" stroke="#000000" stroke-width="1" fill="none"></path></g><g transform="translate(162.4999999999999 243.3095238095238) rotate(0 50 -7.903541666666683)"><path d="M94.77 -14.06 C96.17 -14.76, 97.58 -15.46, 100 -16.67 M94.77 -14.06 C96.46 -14.9, 98.15 -15.74, 100 -16.67" stroke="#000000" stroke-width="1" fill="none"></path></g><g transform="translate(162.4999999999999 243.3095238095238) rotate(0 50 -7.903541666666683)"><path d="M94.31 -18.03 C95.84 -17.66, 97.37 -17.3, 100 -16.67 M94.31 -18.03 C96.15 -17.59, 97.99 -17.15, 100 -16.67" stroke="#000000" stroke-width="1" fill="none"></path></g></g><g stroke-linecap="round"><g transform="translate(160.83333333333326 212.47619047619042) rotate(0 50.833333333333314 -29.558125000000018)"><path d="M0 0 C10.14 -0.42, 50.42 7.08, 60.83 -2.5 C71.25 -12.08, 57.08 -48.33, 62.5 -57.5 C67.92 -66.67, 86.81 -57.36, 93.33 -57.5 C99.86 -57.64, 100.28 -58.19, 101.67 -58.33 M0 0 C10.14 -0.42, 50.42 7.08, 60.83 -2.5 C71.25 -12.08, 57.08 -48.33, 62.5 -57.5 C67.92 -66.67, 86.81 -57.36, 93.33 -57.5 C99.86 -57.64, 100.28 -58.19, 101.67 -58.33" stroke="#000000" stroke-width="1" fill="none"></path></g><g transform="translate(160.83333333333326 212.47619047619042) rotate(0 50.833333333333314 -29.558125000000018)"><path d="M98.05 -56.22 C98.79 -56.65, 99.52 -57.08, 101.67 -58.33 M98.05 -56.22 C98.97 -56.76, 99.89 -57.29, 101.67 -58.33" stroke="#000000" stroke-width="1" fill="none"></path></g><g transform="translate(160.83333333333326 212.47619047619042) rotate(0 50.833333333333314 -29.558125000000018)"><path d="M97.54 -59.04 C98.38 -58.89, 99.21 -58.75, 101.67 -58.33 M97.54 -59.04 C98.59 -58.86, 99.64 -58.68, 101.67 -58.33" stroke="#000000" stroke-width="1" fill="none"></path></g></g><g stroke-linecap="round" transform="translate(100.00000000000011 17.47619047619048) rotate(0 312.49999999999994 22.08333333333333)"><path d="M0 0 L625 0 L625 44.17 L0 44.17" stroke="none" stroke-width="0" fill="#228be6"></path><path d="M0 0 C182.98 0, 365.95 0, 625 0 M0 0 C235.63 0, 471.26 0, 625 0 M625 0 C625 9.53, 625 19.05, 625 44.17 M625 0 C625 12.52, 625 25.05, 625 44.17 M625 44.17 C376.38 44.17, 127.76 44.17, 0 44.17 M625 44.17 C382.13 44.17, 139.27 44.17, 0 44.17 M0 44.17 C0 29.78, 0 15.39, 0 0 M0 44.17 C0 27.59, 0 11.01, 0 0" stroke="#000000" stroke-width="1" fill="none"></path></g><g transform="translate(351.78571428571377 25.499999999999943) rotate(0 50 13)"><text x="0" y="19" font-family="Virgil, Segoe UI Emoji" font-size="20px" fill="#000000" text-anchor="start" style="white-space: pre;" direction="ltr">cloe-engine</text></g><g stroke-linecap="round"><g transform="translate(509.1666666666665 240.8095238095238) rotate(0 19.166666666666742 -49.58333333333333)"><path d="M0 0 C4.03 -0.97, 20.28 9.72, 24.17 -5.83 C28.06 -21.39, 20.97 -77.78, 23.33 -93.33 C25.69 -108.89, 35.83 -98.19, 38.33 -99.17 M0 0 C4.03 -0.97, 20.28 9.72, 24.17 -5.83 C28.06 -21.39, 20.97 -77.78, 23.33 -93.33 C25.69 -108.89, 35.83 -98.19, 38.33 -99.17" stroke="#000000" stroke-width="1" fill="none"></path></g><g transform="translate(509.1666666666665 240.8095238095238) rotate(0 19.166666666666742 -49.58333333333333)"><path d="M30.29 -98.86 C32.86 -98.96, 35.42 -99.06, 38.33 -99.17 M30.29 -98.86 C33.07 -98.96, 35.84 -99.07, 38.33 -99.17" stroke="#000000" stroke-width="1" fill="none"></path></g><g transform="translate(509.1666666666665 240.8095238095238) rotate(0 19.166666666666742 -49.58333333333333)"><path d="M31.98 -104.1 C34 -102.53, 36.03 -100.95, 38.33 -99.17 M31.98 -104.1 C34.17 -102.4, 36.36 -100.69, 38.33 -99.17" stroke="#000000" stroke-width="1" fill="none"></path></g></g><g stroke-linecap="round"><g transform="translate(516.6666666666665 256.6428571428571) rotate(0 17.916666666666742 -21.034999999999997)"><path d="M0 0 C2.64 0, 11.53 7.08, 15.83 0 C20.14 -7.08, 22.5 -35.69, 25.83 -42.5 C29.17 -49.31, 34.17 -41.11, 35.83 -40.83 M0 0 C2.64 0, 11.53 7.08, 15.83 0 C20.14 -7.08, 22.5 -35.69, 25.83 -42.5 C29.17 -49.31, 34.17 -41.11, 35.83 -40.83" stroke="#000000" stroke-width="1" fill="none"></path></g><g transform="translate(516.6666666666665 256.6428571428571) rotate(0 17.916666666666742 -21.034999999999997)"><path d="M31.01 -42.4 C32.51 -41.91, 34.01 -41.42, 35.83 -40.83 M31.01 -42.4 C32.08 -42.05, 33.15 -41.71, 35.83 -40.83" stroke="#000000" stroke-width="1" fill="none"></path></g><g transform="translate(516.6666666666665 256.6428571428571) rotate(0 17.916666666666742 -21.034999999999997)"><path d="M33.15 -45.13 C33.98 -43.79, 34.82 -42.46, 35.83 -40.83 M33.15 -45.13 C33.74 -44.18, 34.34 -43.23, 35.83 -40.83" stroke="#000000" stroke-width="1" fill="none"></path></g></g><g stroke-linecap="round"><g transform="translate(517.5 270.8095238095238) rotate(0 17.083333333333258 15.174374999999998)"><path d="M0 0 C2.5 0.14, 12.5 -4.17, 15 0.83 C17.5 5.83, 11.81 25.28, 15 30 C18.19 34.72, 30.97 29.31, 34.17 29.17 M0 0 C2.5 0.14, 12.5 -4.17, 15 0.83 C17.5 5.83, 11.81 25.28, 15 30 C18.19 34.72, 30.97 29.31, 34.17 29.17" stroke="#000000" stroke-width="1" fill="none"></path></g><g transform="translate(517.5 270.8095238095238) rotate(0 17.083333333333258 15.174374999999998)"><path d="M26.11 34.38 C28.34 32.94, 30.57 31.5, 34.17 29.17 M26.11 34.38 C28.59 32.78, 31.06 31.18, 34.17 29.17" stroke="#000000" stroke-width="1" fill="none"></path></g><g transform="translate(517.5 270.8095238095238) rotate(0 17.083333333333258 15.174374999999998)"><path d="M24.65 27.98 C27.28 28.31, 29.91 28.64, 34.17 29.17 M24.65 27.98 C27.57 28.35, 30.5 28.71, 34.17 29.17" stroke="#000000" stroke-width="1" fill="none"></path></g></g><g stroke-linecap="round" transform="translate(700.8333333333335 189.97619047619054) rotate(0 66.25 62.5)"><path d="M0 0 L132.5 0 L132.5 125 L0 125" stroke="none" stroke-width="0" fill="#ced4da"></path><path d="M0 0 C42.57 0, 85.15 0, 132.5 0 M0 0 C44 0, 88 0, 132.5 0 M132.5 0 C132.5 26.08, 132.5 52.16, 132.5 125 M132.5 0 C132.5 32.79, 132.5 65.58, 132.5 125 M132.5 125 C97.53 125, 62.56 125, 0 125 M132.5 125 C102.45 125, 72.4 125, 0 125 M0 125 C0 96.29, 0 67.58, 0 0 M0 125 C0 92.63, 0 60.25, 0 0" stroke="#000000" stroke-width="1" fill="none"></path></g><g transform="translate(732.25 231.47619047619054) rotate(0 36.5 21)"><text x="36.5" y="15" font-family="Virgil, Segoe UI Emoji" font-size="16px" fill="#000000" text-anchor="middle" style="white-space: pre;" direction="ltr">controller</text><text x="36.5" y="36" font-family="Virgil, Segoe UI Emoji" font-size="16px" fill="#000000" text-anchor="middle" style="white-space: pre;" direction="ltr">plugin</text></g><g stroke-linecap="round" transform="translate(10 187.47619047619054) rotate(0 66.25 62.5)"><path d="M0 0 L132.5 0 L132.5 125 L0 125" stroke="none" stroke-width="0" fill="#ced4da"></path><path d="M0 0 C40.57 0, 81.13 0, 132.5 0 M0 0 C26.53 0, 53.05 0, 132.5 0 M132.5 0 C132.5 33.73, 132.5 67.47, 132.5 125 M132.5 0 C132.5 42.56, 132.5 85.13, 132.5 125 M132.5 125 C83.05 125, 33.6 125, 0 125 M132.5 125 C99.19 125, 65.88 125, 0 125 M0 125 C0 85.39, 0 45.78, 0 0 M0 125 C0 97.21, 0 69.41, 0 0" stroke="#000000" stroke-width="1" fill="none"></path></g><g transform="translate(42.416666666666515 228.97619047619054) rotate(0 35.5 21)"><text x="35.5" y="15" font-family="Virgil, Segoe UI Emoji" font-size="16px" fill="#000000" text-anchor="middle" style="white-space: pre;" direction="ltr">simulator</text><text x="35.5" y="36" font-family="Virgil, Segoe UI Emoji" font-size="16px" fill="#000000" text-anchor="middle" style="white-space: pre;" direction="ltr">plugin</text></g><g stroke-linecap="round"><g transform="translate(627.5 138.3095238095238) rotate(0 31.25 42.128125000000026)"><path d="M0 0 C7.5 0, 37.64 -13.75, 45 0 C52.36 13.75, 41.25 67.92, 44.17 82.5 C47.08 97.08, 59.44 86.67, 62.5 87.5 M0 0 C7.5 0, 37.64 -13.75, 45 0 C52.36 13.75, 41.25 67.92, 44.17 82.5 C47.08 97.08, 59.44 86.67, 62.5 87.5" stroke="#000000" stroke-width="1" fill="none"></path></g><g transform="translate(627.5 138.3095238095238) rotate(0 31.25 42.128125000000026)"><path d="M54.75 93 C57.57 91.01, 60.38 89.01, 62.5 87.5 M54.75 93 C56.81 91.54, 58.86 90.09, 62.5 87.5" stroke="#000000" stroke-width="1" fill="none"></path></g><g transform="translate(627.5 138.3095238095238) rotate(0 31.25 42.128125000000026)"><path d="M53.03 86.74 C56.47 87.01, 59.9 87.29, 62.5 87.5 M53.03 86.74 C55.54 86.94, 58.05 87.14, 62.5 87.5" stroke="#000000" stroke-width="1" fill="none"></path></g></g><g stroke-linecap="round"><g transform="translate(634.1666666666665 219.97619047619048) rotate(0 27.916666666666742 13.266458333333333)"><path d="M0 0 C2.22 -0.28, 10.83 -6.25, 13.33 -1.67 C15.83 2.92, 10.42 22.5, 15 27.5 C19.58 32.5, 34.03 28.19, 40.83 28.33 C47.64 28.47, 53.33 28.33, 55.83 28.33 M0 0 C2.22 -0.28, 10.83 -6.25, 13.33 -1.67 C15.83 2.92, 10.42 22.5, 15 27.5 C19.58 32.5, 34.03 28.19, 40.83 28.33 C47.64 28.47, 53.33 28.33, 55.83 28.33" stroke="#000000" stroke-width="1" fill="none"></path></g><g transform="translate(634.1666666666665 219.97619047619048) rotate(0 27.916666666666742 13.266458333333333)"><path d="M48.81 30.96 C50.36 30.38, 51.91 29.8, 55.83 28.33 M48.81 30.96 C50.65 30.27, 52.49 29.58, 55.83 28.33" stroke="#000000" stroke-width="1" fill="none"></path></g><g transform="translate(634.1666666666665 219.97619047619048) rotate(0 27.916666666666742 13.266458333333333)"><path d="M48.76 25.83 C50.32 26.38, 51.88 26.93, 55.83 28.33 M48.76 25.83 C50.61 26.48, 52.47 27.14, 55.83 28.33" stroke="#000000" stroke-width="1" fill="none"></path></g></g><g stroke-linecap="round"><g transform="translate(635.8333333333333 294.9761904761905) rotate(0 26.66666666666663 -12.916666666666686)"><path d="M0 0 C6.53 -0.14, 32.5 3.33, 39.17 -0.83 C45.83 -5, 37.64 -20.83, 40 -25 C42.36 -29.17, 51.11 -25.69, 53.33 -25.83 M0 0 C6.53 -0.14, 32.5 3.33, 39.17 -0.83 C45.83 -5, 37.64 -20.83, 40 -25 C42.36 -29.17, 51.11 -25.69, 53.33 -25.83" stroke="#000000" stroke-width="1" fill="none"></path></g><g transform="translate(635.8333333333333 294.9761904761905) rotate(0 26.66666666666663 -12.916666666666686)"><path d="M46.77 -24.57 C48.39 -24.88, 50.01 -25.19, 53.33 -25.83 M46.77 -24.57 C48.93 -24.98, 51.08 -25.4, 53.33 -25.83" stroke="#000000" stroke-width="1" fill="none"></path></g><g transform="translate(635.8333333333333 294.9761904761905) rotate(0 26.66666666666663 -12.916666666666686)"><path d="M47.5 -29.08 C48.93 -28.28, 50.37 -27.48, 53.33 -25.83 M47.5 -29.08 C49.41 -28.02, 51.32 -26.95, 53.33 -25.83" stroke="#000000" stroke-width="1" fill="none"></path></g></g><g stroke-linecap="round"><g transform="translate(690.8333333333333 307.4761904761905) rotate(0 -170.41666666666669 37.339999999999975)"><path d="M0 0 C-7.22 0.56, -35 -8.47, -43.33 3.33 C-51.67 15.14, -29.31 58.89, -50 70.83 C-70.69 82.78, -127.78 75, -167.5 75 C-207.22 75, -263.06 71.81, -288.33 70.83 C-313.61 69.86, -310.42 69.44, -319.17 69.17 C-327.92 68.89, -337.22 69.17, -340.83 69.17 M0 0 C-7.22 0.56, -35 -8.47, -43.33 3.33 C-51.67 15.14, -29.31 58.89, -50 70.83 C-70.69 82.78, -127.78 75, -167.5 75 C-207.22 75, -263.06 71.81, -288.33 70.83 C-313.61 69.86, -310.42 69.44, -319.17 69.17 C-327.92 68.89, -337.22 69.17, -340.83 69.17" stroke="#000000" stroke-width="1" fill="none"></path></g><g transform="translate(690.8333333333333 307.4761904761905) rotate(0 -170.41666666666669 37.339999999999975)"><path d="M-330.7 65.35 C-333.43 66.38, -336.16 67.41, -340.83 69.17 M-330.7 65.35 C-332.84 66.15, -334.98 66.96, -340.83 69.17" stroke="#000000" stroke-width="1" fill="none"></path></g><g transform="translate(690.8333333333333 307.4761904761905) rotate(0 -170.41666666666669 37.339999999999975)"><path d="M-330.61 72.76 C-333.37 71.79, -336.12 70.82, -340.83 69.17 M-330.61 72.76 C-332.77 72, -334.93 71.24, -340.83 69.17" stroke="#000000" stroke-width="1" fill="none"></path></g></g></svg>
