<svg version="1.1" xmlns="http://www.w3.org/2000/svg" viewBox="0 0 972 345" width="972" height="345">
  <!-- svg-source:excalidraw -->

  <defs>
    <style>
      @font-face {
        font-family: "Virgil";
        src: url("https://excalidraw.com/Virgil.woff2");
      }
      @font-face {
        font-family: "Cascadia";
        src: url("https://excalidraw.com/Cascadia.woff2");
      }
    </style>
  </defs>
  <g stroke-linecap="round" transform="translate(22 19) rotate(0 76 24)"><path d="M0 0 C0 0, 0 0, 0 0 M0 0 C0 0, 0 0, 0 0 M-0.05 5.75 C2.08 4.91, 2.97 2.44, 4.85 -0.38 M-0.4 6.71 C1.54 4.16, 3.67 1.67, 5.24 0.1 M0.68 11.16 C1.71 7.58, 4.69 5.64, 10.04 -0.11 M-0.07 12.06 C2.71 9.26, 5.54 5.92, 10.34 -0.31 M-1.48 20.17 C4.89 11.71, 11.53 2.36, 17.58 -1.35 M-0.96 19.37 C6.31 11.32, 12.68 4.71, 14.75 0.35 M0.61 25.13 C5.16 16.32, 11.03 9.01, 21.24 -1.71 M-0.43 23.14 C5.78 17.7, 11.17 11.59, 20.93 -0.27 M-0.36 32.2 C8.58 21.37, 15.21 10.86, 27.33 -1.67 M0.12 30.05 C9.73 19.49, 19.65 6.65, 25.86 -0.02 M0.58 35.54 C9.42 25.13, 19.2 15.56, 31.01 -0.3 M-0.3 37.36 C9.79 26.96, 18.5 16.86, 32.77 -0.98 M1.58 42.75 C7.87 33.77, 17.01 22.92, 37.61 2.16 M-0.66 42.5 C8.68 32.96, 19.2 21.86, 37.48 -0.25 M-0.82 47.74 C15.35 29.86, 29.7 14.77, 42.45 1.64 M0.45 47.96 C16.24 30.69, 31.14 12.22, 43.35 -0.59 M5.59 46.58 C18.53 34.42, 30.56 23.22, 48.23 -0.34 M5.11 48.97 C22.18 30.01, 38.94 9.2, 47.67 0.85 M9.48 48.71 C22.18 34.48, 37.06 18.38, 52.9 0.64 M11.98 48.7 C25.78 31.38, 39.74 14.86, 52.67 -0.16 M17.76 47.47 C27.36 36.35, 37.97 23.75, 59.04 1.32 M17.09 48.76 C31.1 30.54, 45.83 14.43, 57.91 0.46 M22.25 47.49 C28.14 36.46, 39.7 28.45, 65.74 0.12 M21.59 48.48 C32.66 34.81, 43.86 21.77, 63.23 0.3 M24.98 50.13 C40.33 33.01, 57.26 14.02, 69.96 -1.46 M26.14 48.28 C42.48 31.09, 56.65 13.98, 69.19 -0.15 M34.15 46.75 C46.49 31.62, 60.78 18.58, 74.42 -1.52 M31.87 48.92 C41.56 38.19, 49.79 27.44, 73.98 -0.22 M37.44 48.19 C53.44 32.72, 66.11 15.78, 80.96 -0.33 M36.83 48.89 C51.58 33.67, 63.61 18.61, 79.93 0.27 M41.91 46.07 C54.4 38.25, 61.69 27.25, 86.45 1.01 M42.89 47.66 C60.95 30.03, 77.2 10.85, 84.35 0.31 M47.4 50.21 C59.31 34.96, 75.44 19.18, 88.1 1.98 M48.21 49.02 C58.66 34.49, 71.29 21.26, 90.05 1.04 M54.34 49.99 C67.24 36.28, 75.61 19.62, 95.41 -0.02 M54.18 48.38 C66.02 33.1, 77.98 18.73, 96.22 -1.01 M57.2 47.71 C69.39 36.18, 82.73 23.9, 99.48 -0.29 M57.81 48.11 C74.07 30.45, 89.64 11.63, 100.92 -0.52 M63.63 48.73 C78.14 35.18, 88.45 18.91, 104.94 -1.43 M64.08 49.55 C79.92 29.6, 95.37 11.49, 105.96 -0.11 M71.21 47.11 C77.89 39.3, 88 28.68, 111.27 0.01 M69.6 48.62 C79.08 36.82, 89.67 24.76, 111.39 0.97 M76.01 47.21 C84.91 38.33, 93.97 26.91, 116.08 -0.33 M74.37 49.39 C87.56 34.58, 98.9 19.02, 115.74 0.91 M79.89 49.81 C91.32 32.89, 103.74 20.8, 123.7 -1.02 M80.04 48.08 C90.11 36.9, 98.12 26.76, 121.77 0.89 M83.81 49.52 C99.98 32.36, 110.51 19.68, 125.9 -1.17 M84.35 48.44 C99.89 33.06, 111.97 17.36, 126.16 0.69 M91.76 48.11 C105.58 32.18, 119.21 16.41, 133.06 1.65 M90.06 49.01 C105.98 31.21, 120.61 14.31, 131.84 0.69 M96.07 47.93 C110.93 29.98, 125.54 13, 135.58 0.82 M95.41 48.49 C109.17 31.41, 124.63 15.19, 138.35 1.2 M101.38 49.26 C117.71 29.17, 132.96 11.37, 143.72 -2 M101.05 48.99 C118.69 29.78, 134.49 10.91, 142.86 -0.19 M105.9 47.68 C115.01 35.71, 124.36 25.97, 149 0.56 M106.44 49.39 C115.2 37.49, 123.84 29.25, 148.54 0.65 M113.39 47.46 C120.07 37.03, 130.11 29.08, 151.42 -0.32 M110.86 48.61 C126.5 29.97, 142.85 12.1, 152.89 0.5 M118.47 46.93 C131.16 33.17, 141.09 17.91, 154.21 6.74 M117.78 48.99 C130.99 31.68, 145.74 15.38, 153.53 7.1 M122.51 47.84 C135.19 37.4, 143.96 23.14, 151.48 13.12 M121.83 47.51 C131.95 38.74, 139.79 27.15, 152.94 12.86 M127 48.77 C132.54 39.74, 138.49 36.77, 152.53 18.66 M127.23 49.19 C132.86 41.87, 138.58 36.79, 153.79 19.31 M133.47 46.46 C138.05 41.67, 143.52 38.92, 153.62 24.52 M132.75 48.35 C140.87 41.04, 147.82 31.85, 151.84 25.86 M136.8 49.23 C139.91 45.84, 144.71 41.03, 154.63 30.79 M138.1 47.93 C142.53 43.15, 147.01 37.35, 153.58 31.33 M144.7 46.84 C147.06 45.25, 148.35 42.75, 152.09 37.93 M143.14 48.6 C146.8 44.8, 149.54 40.03, 152.29 37.56 M148.88 48.73 C151.17 46.61, 151.62 44.51, 153.07 42.68 M148.84 48.69 C150.33 46.03, 152.47 44.22, 153.19 43.28" stroke="#ced4da" stroke-width="0.5" fill="none"></path><path d="M-1.16 0.79 C59.39 2.59, 119.67 2.12, 153.9 -1.19 M-0.17 0.45 C42.05 1.31, 83.2 2.05, 152.2 0.69 M151.4 0.75 C150.72 20.44, 150.41 40.37, 150.84 46.76 M152.48 0.15 C152.19 19.58, 153.15 37.68, 152.57 48.54 M150.26 46.27 C113.54 46.11, 75.52 48.39, -1.67 48.35 M152.53 47.17 C108.17 47.54, 65.42 46.61, -0.72 48.44 M1.38 48.72 C-0.29 34.42, 0.51 24.19, -1.52 1.87 M-0.64 48.93 C-0.42 34.58, -0.24 22.37, 0.98 0.55" stroke="#000000" stroke-width="1" fill="none"></path></g><g stroke-linecap="round" transform="translate(20 190) rotate(0 76 24)"><path d="M0 0 C0 0, 0 0, 0 0 M0 0 C0 0, 0 0, 0 0 M0.09 7.04 C0.95 4.84, 2.88 3.17, 4.61 0.72 M-0.53 6.77 C1.69 4.2, 3.06 1.93, 5.07 0.27 M1.45 12.4 C3.21 6.55, 5.88 5.08, 10.77 1.53 M-0.62 11.88 C3.8 7.83, 6.5 3.72, 10.52 -0.47 M0.84 16.64 C6.96 10.71, 12.76 6.34, 15.78 1.52 M-0.79 17.8 C3.05 15.01, 6.21 10.27, 15.22 0.75 M-1.4 25.81 C4.54 18.12, 10.57 12.11, 23.15 -0.06 M-0.27 23.53 C6.3 18.6, 10.3 12.44, 20.42 -0.49 M-0.5 30.51 C7.54 22.7, 16.71 11.65, 27.15 1.86 M-0.54 29.9 C7.7 22.82, 14.96 13.07, 27.07 0.82 M-0.32 35.74 C8.2 27.04, 21.3 13.28, 32.71 1.31 M-0.86 36.71 C10.73 24.56, 23.66 10.74, 32.66 -0.79 M0.28 41.88 C15.12 25.64, 28.01 13.63, 37.53 -1.67 M0.91 42.69 C15.36 24.72, 29.24 8.85, 37.25 0.28 M1.61 48.82 C19.25 31.13, 35.58 8.91, 40.8 -0.4 M0.27 48.66 C14.13 32.75, 26.36 16.99, 42 0.41 M5.02 47.05 C14.65 36.77, 25.8 27.6, 49.24 -0.95 M5.97 47.66 C16.79 34.49, 29.37 20.6, 47.29 0.48 M10.5 48.1 C21.34 37.63, 33.11 22.93, 53.74 -1.54 M11.56 48.55 C21.94 36.39, 31.04 23.83, 53.23 -0.51 M15.24 50.4 C28.91 32.24, 45.07 17.53, 59.51 0.17 M15.82 48.79 C29.33 33.69, 41.63 19.67, 57.77 0.29 M20.99 49.82 C37.32 30.55, 55.3 11.45, 62.72 -0.41 M22.11 48.18 C33.62 36.03, 44.53 22.01, 63.2 -0.75 M28.18 48.42 C43.23 31.01, 54.92 14.66, 68.56 1.94 M26.41 48.57 C37.46 37.32, 47.22 24.05, 68.28 0 M32.53 46.96 C49.65 30.97, 64.16 9.38, 75.92 -1.25 M31.9 47.49 C41.51 38.3, 51.26 25.69, 74.77 -0.98 M39.23 49.62 C51.22 33.58, 65.53 17.3, 79.5 0.63 M36.99 47.92 C54.09 30.34, 69.39 11.51, 79.47 -0.59 M43.51 48.55 C57.69 29.35, 73.98 9.85, 86.42 -2.23 M43.93 47.89 C56.41 31.64, 69.78 17.11, 84.82 0.54 M48.76 48.57 C65.04 30.04, 79.99 10.37, 90.39 0.62 M48.83 48.24 C56.95 39.49, 65.61 28.94, 90.98 -0.23 M55.22 47.72 C65.26 32.91, 77.21 18.33, 96.27 0.52 M54.24 48.25 C68.17 33.19, 79.58 18.07, 96.31 0.07 M58.05 49.92 C72.54 31.17, 86.6 15.82, 102.25 -1.68 M59.22 47.39 C69.29 34.93, 79.84 23.13, 101.51 -0.21 M63.28 50.37 C74.06 36.45, 86.89 19.77, 104.44 0.97 M63.24 49.68 C75.8 34.46, 87.11 20.78, 106.17 0.29 M69.3 48.37 C81.64 35.51, 96.45 18.71, 111.01 -1.79 M69.52 47.69 C82.26 33.4, 97.3 16.79, 110.8 -0.34 M76.19 48.24 C88.27 32.46, 99.55 17.21, 118.17 -0.12 M74.35 48.47 C87.17 35.22, 97.68 22.14, 116.75 1.14 M81.7 48.68 C92.2 32.82, 106.53 18.01, 123.55 0.84 M79.07 47.95 C90.51 36.9, 101.7 24.65, 121.58 -0.95 M83.4 47.38 C100.22 30.43, 115.1 15.25, 127.63 1.82 M84.05 48.67 C96.25 34.75, 108.62 20.85, 126.38 0.76 M91.32 49.66 C102.39 33.61, 118.05 16.1, 133.69 -1.2 M91.28 47.43 C104.93 32.04, 118.72 15.43, 131.66 -0.92 M94 49.13 C108.89 35.73, 121.52 17.07, 137.94 -0.33 M96.48 49.03 C105.61 36.74, 113.83 26.42, 137.46 0.01 M99.21 48.22 C116.8 33.76, 128.97 13.79, 142.17 0.78 M101.58 47.87 C112.71 33.82, 126.14 20.02, 143.86 0.35 M107.99 46.92 C120.67 30.19, 136.85 10.3, 147.84 -0.36 M106.85 47.76 C115.17 38.38, 123.97 27.57, 149.07 -0.54 M111.33 47.3 C125 35.8, 135.97 21.39, 152.04 0.25 M111.43 47.48 C125.12 34.27, 137.39 19.91, 153.36 -0.34 M116.29 50.22 C129.1 32.44, 141.7 18.82, 151.06 8.78 M117.39 48.56 C126.27 37.69, 134.45 29, 152.43 6.96 M122.6 47.91 C129.99 38.13, 137.33 28.65, 152.74 12.58 M122.31 48.92 C129.55 40.09, 134.66 33.11, 153.85 13.13 M128.8 48.59 C134.54 39.46, 144.91 28.46, 153.52 19.92 M127.34 48.58 C134.76 38.91, 142.69 30.41, 153.99 18.52 M132.87 49.13 C141.47 40.97, 146.81 33.29, 151.01 24.06 M133.76 47.33 C137.26 42.33, 143.81 35.05, 152.45 25.19 M138.33 47.64 C144.47 43.41, 148.87 34.97, 153.35 32.15 M139.01 48.45 C143.57 43.85, 146.78 37.37, 153.52 30.84 M143.15 48.09 C145.48 46.53, 147.29 41.5, 152.74 37.92 M143.43 48.26 C145.22 46.38, 147.9 43.05, 153.25 37 M148.67 48.64 C149.79 46.89, 151.87 44.44, 153.2 43.42 M149.05 48.38 C149.94 46.68, 152.06 45.05, 153.62 42.88" stroke="#ced4da" stroke-width="0.5" fill="none"></path><path d="M-1.16 0.84 C39.56 0.94, 80.02 1.89, 150.81 -0.88 M-0.38 -0.04 C44.55 1.67, 88.52 1.33, 152.67 0.88 M150.13 1.44 C151.97 9.17, 153.06 19.44, 152.89 48.73 M151.27 -0.8 C151.73 18.17, 152.4 38.55, 152.02 48.61 M151.18 46.65 C113.6 48.56, 74.18 48.48, -0.37 47.93 M152.43 47.91 C92.66 47.71, 33.96 47.36, -0.68 48.83 M0.54 48.07 C-1.81 37.03, -0.7 25.4, 1.13 0.72 M0.32 47.59 C-0.02 34.93, 0.33 21.96, -0.84 0.16" stroke="#000000" stroke-width="1" fill="none"></path></g><g stroke-linecap="round" transform="translate(22 103) rotate(0 76 24)"><path d="M0 0 C0 0, 0 0, 0 0 M0 0 C0 0, 0 0, 0 0 M-0.33 5.93 C1.46 4.3, 2.82 2.55, 5.69 -0.12 M-0.49 6.25 C1.07 5.05, 2.74 3.46, 5.16 0.63 M1.29 10.54 C5.46 7.59, 7.57 3.78, 9.89 0.67 M-0.28 11.46 C2.91 8.02, 6.46 4.48, 11.13 -0.02 M0.05 17.62 C4.29 11.41, 11.75 3.43, 15.97 -0.04 M-0.5 18.87 C4.29 12.76, 9.33 7.84, 15.55 -0.36 M-1.01 24.62 C8.48 12.96, 17.7 4.83, 23.12 1.06 M0.27 24.4 C6.98 16.2, 14.45 8.43, 21.34 -0.91 M0.94 28.65 C6.43 21.51, 14.89 12.04, 26.83 -0.47 M0.8 30.8 C8.24 22.26, 15.5 13.03, 26.27 0.45 M-1.83 37.76 C9.46 26.71, 16.51 18.26, 32.82 -1.05 M-0.37 36.2 C11.57 24.2, 21.6 10.2, 31.48 0.11 M1.28 44.16 C10.67 30.55, 18.58 17.87, 38.14 0.43 M0.73 41.57 C14.48 26.18, 28.9 8.59, 36.11 0.12 M0.62 49.13 C8.79 37.75, 19.51 26.19, 43.13 0.03 M-0.17 47.5 C15.37 30.39, 31.54 12.74, 42.19 -0.53 M7.38 46.85 C21.75 30.57, 35.12 14.44, 48.74 2.12 M4.68 47.99 C17.89 35.27, 31.09 19.81, 47.08 -0.62 M10.5 47.63 C21.99 35.26, 34.01 24.08, 52.44 0.73 M11.01 47.58 C26.58 30.25, 43.72 11.96, 52.45 0.65 M14.39 48.42 C29.77 29.79, 47.26 15.71, 57.57 1 M15.28 47.89 C31.23 29.83, 47.82 13.16, 58.66 0.96 M21.61 48.24 C30.56 38.73, 39.16 27.27, 65.21 0.45 M22.43 48.87 C30.06 38.97, 37.57 28.5, 63.72 0.16 M26.24 49.53 C39.66 35.98, 53.62 21.13, 67.59 -1.56 M26.33 48.19 C39.25 34.99, 50.39 20.16, 67.77 -0.37 M33.71 47.56 C46.2 30.38, 62.19 14.74, 75.93 1.49 M32.67 48.51 C41.77 35.84, 52.51 24.88, 73.93 -0.46 M38.21 47.75 C51.35 32.65, 66.47 18.48, 77.85 0.7 M37.4 48.82 C47.83 37.73, 57.27 25.32, 78.83 0.2 M42.57 47.11 C56.01 34.32, 64.52 24.08, 85.2 1.1 M43.74 47.7 C55.92 34.13, 68.15 19.4, 85.47 -0.64 M47.62 47.58 C62.32 32.31, 75.05 18.73, 91.46 -0.98 M48.51 48.7 C60.48 35.09, 73.49 20.87, 89.71 -0.49 M52.07 49.39 C63.72 37.71, 73.37 22.69, 95.64 -0.52 M53.15 47.62 C70.38 29.33, 87.31 9.8, 95.19 -0.79 M57.86 48.46 C69.08 35.4, 83.78 19.74, 99.59 1.56 M58.12 47.83 C68.95 35.96, 80.87 24.22, 99.76 0.4 M65.45 50.54 C74.32 37.37, 84.49 26.52, 107.95 -0.25 M63.21 48.29 C76.63 33.27, 91.37 16.4, 106.42 -0.28 M70.38 48.77 C79.09 36.23, 87.8 25.74, 109.47 1.4 M69.21 49.19 C77.53 38.27, 85.47 28.2, 111.79 -0.2 M76.01 49.4 C90.08 30.93, 106.76 11.07, 116.25 0.74 M73.68 49.46 C88.33 33.27, 102.93 17.56, 116.32 1.32 M80.69 49.82 C90.97 34.7, 101.58 21.53, 120.4 0.58 M79.2 48.84 C94.47 32.99, 108.65 14.68, 122.08 0.62 M83.14 48.02 C100.48 31.96, 111.87 15.5, 126.67 1.93 M85.81 49.2 C93.15 38.4, 102.23 28.02, 126.45 1.19 M90.36 47.87 C103.78 33.21, 115.4 20.58, 131.72 -1.92 M89.97 47.83 C106.96 30.6, 120.87 12.06, 132.39 -0.19 M94.96 48.61 C110.83 30.54, 127.93 14.91, 137.44 0.03 M94.97 48.82 C103.62 37.89, 113.47 29.27, 136.9 -0.19 M103.04 50.11 C111.79 35.98, 122.91 21.09, 142.87 1.81 M101.89 48.28 C112.65 35.99, 124.75 21.48, 143.94 0.39 M107.62 50.34 C122.28 28.98, 138.22 11.49, 149.52 1.9 M106.01 47.71 C120.47 32.02, 135.95 16.04, 148.88 -0.06 M112.43 46.67 C118.94 39.33, 127.08 30.11, 152.65 1.36 M111.79 47.31 C127.38 29.83, 142.59 12.51, 152.76 0.11 M117.35 49.3 C130.47 32.62, 142.45 20.54, 152 8.17 M117.25 49.26 C124.63 39.03, 134.12 28.88, 152.14 6.15 M122.28 46.6 C129.53 41.14, 137.55 33.26, 151.44 13.08 M122.96 49.08 C131.38 39.07, 138.82 28.01, 153.82 12.6 M128.46 46.52 C134.25 41.97, 143.15 32.07, 151.28 18.07 M126.46 48.9 C135.92 37.93, 144.11 29.2, 152.15 19.75 M134.42 49.92 C137.99 38.72, 146.94 30.93, 152.03 25.14 M133.18 48.79 C137.76 42.41, 143.77 36.38, 151.93 26.38 M137.3 47.98 C140.48 45.18, 146.57 39.81, 155.09 30 M138.89 48.08 C141.6 44.23, 147.41 39.07, 154.11 31.31 M144.43 47.72 C146.72 46.14, 146.07 44.29, 151.84 36.23 M144.38 48.48 C147.35 44.51, 150.48 40.12, 153.32 37.19 M148.55 48.49 C149.98 46.68, 151.19 44.83, 153.06 42.96 M148.9 48.39 C150.37 47.07, 151.27 45.07, 153.22 43.35" stroke="#ced4da" stroke-width="0.5" fill="none"></path><path d="M1.68 -1.19 C41.75 -1.75, 84.39 0.72, 152.13 -0.69 M0.54 -0.2 C42.6 -0.13, 85.73 -1.09, 152.44 -0.95 M150.7 1.55 C152.37 16.3, 150.09 33.3, 150.68 48.07 M151.53 -0.8 C151.72 12.66, 152.02 25.26, 152.46 47.41 M152.32 48.71 C110.57 51.11, 70.74 49.79, -0.62 46.14 M151.23 48.99 C90.68 50.41, 31.05 49.72, 0.15 48.83 M-1.03 46.28 C0.34 38.79, -1.51 26.76, -1.9 -0.83 M0.96 47.12 C-0.31 32.7, 0.81 18.84, 0.48 -0.42" stroke="#000000" stroke-width="1" fill="none"></path></g><g stroke-linecap="round" transform="translate(20 274) rotate(0 76 24)"><path d="M0 0 C0 0, 0 0, 0 0 M0 0 C0 0, 0 0, 0 0 M0.38 5.99 C1.3 4.84, 2.72 3.04, 5.35 0.81 M0.12 6.51 C1.57 3.89, 3.34 2.2, 4.9 0.47 M0.5 11.56 C0.71 8.28, 5.3 7.22, 12.2 0.23 M-0.03 12.35 C2.63 8.51, 5.23 5.39, 10.19 0.37 M-1.93 20.11 C4.1 13.87, 11.68 5.63, 16.81 -1.29 M-0.77 18.26 C6.03 11.64, 10.86 5.27, 16.04 0.02 M1.99 22.77 C7.67 15.39, 15.06 10.29, 21.27 -1.35 M-0.29 24.94 C4.85 19.1, 8.74 13.35, 20.83 -0.05 M0.03 30.24 C10.49 21.05, 17.68 10.42, 27.81 -0.16 M-0.58 30.95 C9.11 21.43, 16.12 12.16, 26.78 0.44 M-1.4 34.92 C8.79 29.63, 13.88 21.16, 33.3 1.18 M-0.42 36.51 C13.65 23.3, 26.01 8.6, 31.2 0.49 M-0.5 44.35 C9.78 30.96, 24.29 17.05, 34.95 2.15 M0.31 43.16 C9.32 30.36, 20.48 18.83, 36.9 1.21 M1.19 50.16 C14.09 36.45, 22.46 19.79, 42.26 0.15 M1.03 48.55 C12.87 33.27, 24.83 18.9, 43.07 -0.84 M4.04 47.88 C16.24 36.35, 29.58 24.07, 46.33 -0.12 M4.66 48.28 C20.92 30.62, 36.49 11.81, 47.77 -0.35 M11.14 48.15 C25.44 34.83, 35.55 18.8, 51.79 -1.26 M11.58 48.97 C27.18 29.31, 42.38 11.48, 52.81 0.06 M18.06 47.29 C24.74 39.47, 34.85 28.86, 58.12 0.18 M16.45 48.8 C25.93 36.99, 36.52 24.93, 58.24 1.14 M23.52 46.63 C32.42 37.75, 41.47 26.33, 63.58 -0.91 M21.88 48.81 C35.07 34, 46.41 18.44, 63.24 0.32 M26.74 49.98 C38.17 33.07, 50.59 20.97, 70.55 -0.85 M26.89 48.25 C36.96 37.08, 44.97 26.94, 68.62 1.06 M31.32 48.93 C47.49 31.78, 58.02 19.1, 73.41 -1.75 M31.86 47.86 C47.39 32.48, 59.48 16.78, 73.67 0.11 M38.61 48.28 C52.43 32.35, 66.06 16.58, 79.91 1.82 M36.91 49.18 C52.83 31.39, 67.46 14.48, 78.69 0.86 M43.58 47.35 C58.44 29.4, 73.05 12.42, 83.08 0.24 M42.92 47.91 C56.67 30.82, 72.14 14.61, 85.86 0.62 M48.23 49.43 C64.56 29.35, 79.81 11.55, 90.57 -1.83 M47.9 49.16 C65.54 29.95, 81.34 11.08, 89.71 -0.02 M53.41 47.1 C62.52 35.12, 71.87 25.39, 96.51 -0.02 M53.95 48.8 C62.7 36.91, 71.34 28.67, 96.05 0.07 M60.24 47.63 C67.07 37.04, 77.25 28.92, 98.93 -0.9 M57.71 48.78 C73.59 29.85, 90.2 11.68, 100.4 -0.08 M65.32 47.1 C80.29 30.74, 92.5 12.85, 107.62 -0.63 M64.62 49.16 C80.5 28.86, 97.88 9.54, 106.94 -0.28 M69.36 48.01 C85.96 33.1, 98.62 14.36, 109.48 0.46 M68.68 47.68 C82.08 35.19, 93.13 19.91, 110.94 0.2 M73.85 48.94 C82.95 35.46, 92.63 28.2, 115.78 -0.03 M74.08 49.37 C82.97 38.13, 92.08 29.15, 117.04 0.62 M80.32 46.63 C89.96 35.61, 100.68 26.83, 122.77 -0.96 M79.6 48.52 C95.69 32.28, 110.57 13.97, 120.99 0.37 M83.65 49.4 C93.08 38.84, 104.29 26.66, 128.38 0.02 M84.95 48.1 C97.7 34, 110.49 18.64, 127.33 0.56 M91.98 46.49 C103.57 34.53, 113.73 21.4, 131.4 0.55 M89.75 48.99 C104.89 31.79, 118.86 13.4, 131.68 0.02 M96.07 49.46 C113.83 30.74, 126.33 11.86, 136.9 -1.03 M95.97 49.33 C111.39 28.42, 128.82 10.2, 137.24 0.67 M101.2 49.53 C114.02 35.26, 121.35 22.14, 144.05 -0.35 M100.85 47.82 C114.58 33.1, 128.49 16.86, 143.61 0.77 M104.52 47.02 C120.29 30.63, 132.94 15.86, 147.53 -1.56 M105.36 49.04 C120.66 32.01, 134.52 15.59, 147.35 0.31 M110.94 48.64 C124.89 34.53, 135.89 21.91, 152.77 0.71 M111.12 48.76 C123.3 35.99, 134.39 23.23, 152.18 1.01 M118.49 48.93 C128.04 34.09, 141.78 16.09, 154.65 5.8 M116.83 49.26 C125.44 37.53, 136.3 25.69, 152.82 6.69 M122.22 47.62 C132.49 34.54, 143.05 23.19, 153.19 10.81 M123.22 48.61 C128.69 39.35, 136.04 32.67, 153.74 12.99 M127.53 46.98 C134.59 41.27, 139.8 33.98, 153.87 19.04 M127.51 48.03 C132.94 41.1, 139.53 34.98, 152.47 19.76 M134.1 49.23 C140.12 40.67, 146.58 33.02, 151.35 24.86 M132.31 47.17 C140.94 39.59, 147.33 30.28, 152.48 25.85 M137.23 49.89 C144.51 42.69, 147.59 35.66, 154.19 31.31 M138.05 49.45 C144.65 41.16, 149.35 35.32, 152.88 30.69 M143.72 47.44 C147.3 44.13, 147.42 42.39, 153.3 36.29 M143.9 47.54 C146.22 46.04, 147.1 43.95, 152.39 37.73 M148.9 48.04 C150.64 46.61, 151.68 44.35, 153.56 43.45 M148.64 48.15 C150.51 46.62, 152.46 44.65, 153.02 43.1" stroke="#ced4da" stroke-width="0.5" fill="none"></path><path d="M0.84 -1.34 C42.57 -0.89, 85.27 -0.31, 151.12 -0.2 M-0.04 0.48 C43.56 0.95, 86 1.25, 152.88 -0.88 M153.44 0.22 C151.33 13.14, 151.42 24.54, 152.73 49.9 M151.2 -0.02 C150.96 12.55, 152.38 23.82, 152.61 47.5 M150.65 47.58 C100.2 45.5, 47.89 47.01, -0.07 49.78 M151.91 47.8 C97.09 48.9, 41.55 47.98, 0.83 47.55 M0.07 46.06 C1.57 34.09, 2.16 22.98, 0.72 -0.56 M-0.41 48.44 C-0.01 29.74, 0.08 9.05, 0.16 0.62" stroke="#000000" stroke-width="1" fill="none"></path></g><g stroke-linecap="round" transform="translate(12 32) rotate(0 76 24)"><path d="M0 0 C0 0, 0 0, 0 0 M0 0 C0 0, 0 0, 0 0 M-0.54 7.12 C1.72 4.61, 2.86 2.93, 4.55 0.52 M-0.6 6.79 C0.9 5.12, 2.29 3.47, 5 0.45 M0.17 12.02 C2.52 6.95, 6.93 5.35, 9.43 -0.62 M-0.52 11.67 C3.11 8.86, 3.92 6.34, 10.96 -0.39 M-0.54 18.82 C4.55 13.01, 10.55 7.6, 15.68 0.96 M-1.11 19.32 C2.92 13.6, 6.8 10.12, 15.05 0.82 M-0.35 23.58 C4.83 17.74, 10.4 12.3, 22.08 -1.84 M0.17 23.9 C7.98 14.42, 16.67 5.9, 22.04 0.3 M-1.75 29.41 C10.28 17.99, 19.3 9.69, 25.23 1.61 M0.96 29.96 C6 22, 12.38 15.06, 25.46 0.94 M-1.26 37.75 C11.57 22.45, 21.71 9.43, 32.32 -1.98 M0.63 37.51 C9.64 25.58, 20.14 13.2, 32.17 0.14 M-0.77 41.97 C9.92 30.36, 22.05 15.49, 38.14 -0.57 M-0.14 43.49 C14.33 26.11, 28.35 9.63, 36.87 1.05 M1.78 48.25 C14.82 31.39, 25.13 18.91, 41 0.52 M0.94 48.61 C15.33 32.63, 29.18 16.98, 43.05 -0.11 M5.55 47.41 C16.54 35.03, 32.4 18.55, 48.07 0.07 M6.09 49.1 C20.18 30.93, 35.77 15.16, 47.39 -0.74 M11.71 46.16 C23.08 37.36, 33.25 22.61, 51.31 -1.73 M11.33 47.88 C26.96 29.23, 41.41 13.03, 52.75 -0.56 M17.16 49.61 C25.68 38.9, 33.16 28.83, 56.77 2.14 M15.34 49.05 C29.28 31.62, 43.22 16.14, 58.57 -0.28 M21.18 48.66 C35.04 33.37, 46.1 20.85, 64.52 -1.14 M21.15 47.17 C35.69 30.08, 51.17 14, 63.82 -0.3 M26.81 49.42 C37.33 35.69, 48.84 23.52, 70.01 1.18 M26.55 48.65 C37.52 34.8, 48.2 23.04, 69.44 0.61 M32.73 46.53 C39.92 36.66, 50.2 23.66, 75.94 0.77 M33.07 49.01 C42.75 34.06, 54.85 21.18, 75.28 0.61 M38.59 48.6 C51.63 31.86, 65.95 16.54, 77.66 1.64 M38.36 48.23 C53.48 31.67, 68.6 13.6, 78.52 0.13 M44.96 47.5 C54.7 34.88, 68.25 21.58, 86.98 1.45 M43.2 48.01 C53.14 36.18, 64.19 25.2, 84.62 -0.85 M46.63 47.83 C57.98 37.99, 63.62 28.19, 89.63 0.95 M47.87 49.14 C63.65 30.92, 78.34 12.06, 89.77 0.53 M52.54 48.21 C65.18 35.04, 74.94 23.55, 97.08 1.28 M53.14 48.78 C62.88 37.92, 72.65 27.61, 95.79 -0.68 M59.13 46.74 C68.35 35.85, 80.93 23.83, 99.92 1.44 M58.67 47.77 C71.94 33.16, 84.49 18.93, 100.63 0.08 M65.56 47.03 C78.03 31.06, 94.78 13.6, 107.75 -0.42 M63.3 48.71 C80.23 30.84, 95.71 13, 107.22 0.16 M70.36 47.9 C79.21 37, 92.04 24.18, 110.56 -1.59 M68.8 47.51 C81.34 33.17, 94.52 18.92, 112 -0.92 M76.11 48.98 C84.27 36.7, 94.54 25.31, 117.91 -0.66 M73.53 48.97 C83.74 36.44, 94.08 24.85, 117.13 0.5 M80.64 48.81 C90.36 40.28, 98.58 28.18, 123.65 0.07 M80.78 48.82 C95.53 29.27, 111.54 11.97, 122.26 -0.14 M86.4 50.28 C99.07 34.31, 111.63 18.1, 126.52 0.25 M85.17 49.04 C93.29 39.82, 102.02 28.72, 126.21 -0.08 M92.35 49.92 C107.08 31.73, 120.24 15.15, 133.38 -0.42 M89.6 49.17 C102.42 34.48, 115.43 20.03, 133.27 0.8 M95.34 47.34 C108.63 35.58, 120.38 18.45, 136.61 -0.8 M95.69 47.65 C104.08 38.17, 114.48 27.61, 137.63 -0.68 M101.95 46.59 C112.4 32.15, 129.03 16.77, 141.96 -0.95 M100.72 49.07 C113.81 35.2, 124.06 21.15, 142.33 0.29 M105.92 49.52 C116.27 36, 128.82 22.46, 149.94 -0.75 M106.03 49.57 C116.9 35.39, 129.32 23.75, 147.68 -0.15 M111.96 49.15 C123.06 34.39, 135.47 20.54, 155.04 2.25 M112.04 48.06 C123.52 34.72, 135.69 19.82, 153.56 1.51 M117.18 47.09 C127.41 40.73, 133.67 29.26, 152.45 5.2 M116.6 47.61 C127.38 36.89, 136.73 25.71, 153.23 6.5 M122.94 46.85 C135.33 36.32, 145.89 19.55, 153.79 11.73 M121.98 48.7 C133.33 34.11, 144.5 22.17, 154.04 13.48 M128.22 47.27 C137.64 36.3, 145.27 27.64, 151.32 20.47 M127.28 48.59 C134.34 39.35, 141.43 31.59, 152.82 18.99 M133.53 47.87 C138.88 42.88, 144.88 34.46, 153.81 25.83 M133.38 48.59 C138.42 43.16, 142.19 37.4, 152.68 26.14 M138.22 50.23 C141.44 43.15, 145.53 41.63, 155.11 31.66 M137.4 49.4 C141.68 45.84, 144.73 42.02, 152.76 30.28 M144.22 47.57 C147.68 42.98, 150.22 41.56, 154.29 37.07 M143.62 48.28 C145.03 46.06, 147.44 43.26, 152.24 38.2 M149.3 48.65 C150.11 47.92, 150.04 45.62, 153.48 42.6 M148.38 48.6 C149.95 47.3, 150.84 45.83, 153.26 43.34" stroke="#ced4da" stroke-width="0.5" fill="none"></path><path d="M1.07 -1.09 C57.45 -2.33, 115.8 -2.6, 150.89 -0.78 M0.18 -0.18 C31.14 0.65, 64.56 0.44, 151.05 0.49 M152.88 -0.72 C151.71 11.58, 153.17 21.68, 151.7 47.09 M152.94 -0.36 C151.64 16.27, 151.72 32.1, 151.23 47.24 M153.09 47.31 C113.63 49.15, 80.32 50.78, -0.48 48.11 M152.9 48.92 C100.45 46.99, 47.76 47.7, 0.99 48.89 M-0.36 48.16 C1.88 31.23, 0.72 15.22, 1.93 0.84 M-0.92 48.61 C0.71 33.09, -0.17 19.36, -0.13 -0.17" stroke="#000000" stroke-width="1" fill="none"></path></g><g stroke-linecap="round" transform="translate(10 203) rotate(0 76 24)"><path d="M0 0 C0 0, 0 0, 0 0 M0 0 C0 0, 0 0, 0 0 M-0.67 6.62 C0.81 5.39, 1.65 4.05, 5.44 0.82 M-0.15 6.35 C0.91 4.44, 2.89 2.77, 5.1 -0.03 M-0.35 10.57 C2.54 8.71, 7.67 4.96, 10.9 -0.43 M0.44 11.72 C3.71 7.11, 7.68 2.95, 11.03 0.41 M1.54 17.07 C6.53 13.67, 9.54 8.74, 14 1.44 M-0.31 18.87 C3.14 14.05, 6.82 10.65, 15.31 0.61 M-1.05 24.82 C7.79 15.64, 18.87 4.91, 19.98 -1.93 M1.13 24.12 C4.85 18.54, 8.64 13.31, 21.28 0.41 M-0.23 31.72 C8.1 21.72, 14.98 15.94, 25.79 0.68 M0.48 31.16 C8.09 21.34, 15.93 13.98, 26.4 -0.47 M-2.22 38.41 C7.58 28.65, 14.19 22.8, 33.17 1.8 M-0.62 37.75 C7.65 29.59, 14.41 20.51, 32.48 -0.02 M1.96 40.78 C12.32 31.76, 22.15 16.11, 38.77 -0.12 M0.77 41.64 C13.2 27.01, 26.93 11.7, 37.83 -0.01 M2.53 50.11 C13.47 33.65, 21.49 21.38, 42.81 -0.16 M0.92 47.75 C10.8 34.63, 21.58 23.84, 41.82 -0.42 M4.88 48.13 C21.8 32.76, 37.96 12.47, 47.17 1.74 M5.27 48.26 C19.36 32.75, 32.31 17.82, 46.94 0.33 M11.19 49.54 C27.2 30.16, 40.47 13.92, 52.06 1.4 M12 48.25 C23.17 32.92, 36.19 18.69, 53.38 -0.98 M14.95 47.75 C29.35 34.91, 40.93 21.41, 58.13 -0.98 M16.46 48.46 C31.8 31, 46.87 12.88, 59.09 -0.65 M20.33 49.54 C33.63 35.68, 44.37 20.57, 63.07 -0.21 M22.51 49.01 C36.7 31, 50.16 14.04, 64.31 -0.41 M28.31 47.72 C34.04 37.85, 44.63 29.08, 67.77 -1.46 M26.58 49.17 C36.36 36.02, 47.16 24.46, 69.68 0.3 M33.3 49.7 C42.26 34.69, 55.7 22.21, 72.9 0.35 M32.22 48.92 C43.11 35.54, 53.64 23.85, 74.76 0.02 M37.27 50.15 C53.41 31.01, 69.77 11.06, 81.1 1.2 M38.17 48.77 C48.22 36.41, 59.14 23.24, 80.14 0.94 M42.38 47.64 C57.72 29, 74.05 11.76, 85.55 0.52 M42.94 47.33 C54.45 34.5, 66.89 20.75, 85.94 0.56 M49.09 49.21 C63.72 29.67, 80.66 11.58, 88.11 1.93 M48.82 49.11 C58.58 36.92, 68.73 24.98, 89.92 -0.55 M52.79 47.06 C66.4 30.21, 82.29 16.24, 95.96 -2.23 M54.5 48.08 C61.96 37.08, 73.11 26.34, 96.05 -1.12 M57.95 47.13 C66.83 37.58, 78.16 25.87, 99.71 1.77 M59.1 47.5 C75.13 29.49, 91.96 10.87, 100.53 0.52 M62.05 50.49 C75.1 33.3, 86.63 21.21, 106.02 1.65 M64.11 48.23 C73.72 36.32, 84.29 25.28, 106.37 0.14 M68.99 50.2 C82.28 35.15, 91.74 20.37, 111.73 -0.22 M68.67 48.73 C80.26 36.23, 89.08 24.79, 111.47 -0.71 M74.55 48.23 C88.48 29.49, 108.69 10.35, 115.87 -1.49 M74.98 49.01 C89.26 31.65, 105.81 13.78, 116.52 -0.27 M78.28 48.78 C94.18 31.59, 112.37 13.13, 120.97 1.09 M80.17 49.04 C93.07 35.43, 103.84 20.09, 122.31 -0.64 M85.67 46.94 C100.55 32.46, 113.74 18.48, 126.58 0.52 M84.38 48.44 C97.71 33.9, 109.74 20.38, 127.13 0.22 M88.8 49.29 C104.48 31.25, 119 15.2, 133.15 0.91 M91.3 48.16 C105.33 31.22, 118.22 14.48, 132.63 0.83 M96.4 50.56 C108.7 32.59, 120.79 19.72, 136.19 2.16 M96.27 48.21 C109.01 32.01, 124.5 14.22, 137.9 -0.06 M102.51 50.21 C115.79 29.51, 130.15 15.16, 142.92 0.51 M100.8 47.28 C110.47 37.72, 118.65 29.27, 144.04 0.22 M104.62 49.1 C119.58 30.47, 136.22 12.85, 146.33 1.23 M106.65 48.49 C119.37 33.13, 132.76 18.2, 148.2 -0.07 M112.28 50.08 C121.63 37.86, 132.44 23.12, 153.23 -0.04 M112.41 49.05 C128.13 31.23, 143.85 11.1, 153.53 1.33 M117.2 46.64 C130.41 32.14, 140.45 20.81, 151.66 6.37 M117.53 47.93 C131.15 32.71, 144.68 15.59, 152.55 7.47 M121.93 47.52 C129.64 37.62, 139.09 28.29, 151.42 11.21 M122.92 47.6 C132.75 35.01, 145.15 22.96, 153.6 12.2 M125.92 49.32 C136.37 37.98, 145.27 29.17, 152.99 18 M126.97 47.65 C134.48 39.64, 142.79 31.41, 153.71 19.02 M134.2 49.18 C136.81 44.57, 140.33 36.27, 152.15 27.15 M132.15 48.52 C140.07 39.64, 146.28 32.26, 153.14 26.21 M139.49 49.34 C143.92 40.92, 148.53 37.73, 153.36 32.81 M139.05 49.21 C141.66 43.22, 146.75 38.44, 152.73 30.75 M143.07 49.28 C145.64 43.43, 149.77 41.38, 151.67 36.3 M143.18 48.64 C146.84 44.2, 149.91 40.88, 153.12 38.05 M148.31 48.62 C150.01 46.59, 150.9 46.05, 153.59 43.75 M148.41 48.51 C150.57 46.79, 152.29 44.35, 153.24 43.29" stroke="#ced4da" stroke-width="0.5" fill="none"></path><path d="M-1.34 0.82 C42.58 1.13, 87.52 -1.52, 151.8 -0.37 M0.48 0.78 C37.1 0.5, 74.14 0.94, 151.12 -0.54 M152.22 -1.01 C152.87 16.95, 152.44 36.5, 153.9 46.96 M151.98 -0.79 C152.3 12.52, 151.67 24.4, 151.5 48.44 M151.58 48.43 C103.2 47.32, 57.78 46.91, 1.78 49.26 M151.8 48.28 C112.37 47.8, 71.56 48.69, -0.45 47.72 M-1.94 49.26 C-0.96 38.52, 1 26.05, -0.56 1.94 M0.44 47.99 C0.64 33.68, -0.99 19.35, 0.62 0.04" stroke="#000000" stroke-width="1" fill="none"></path></g><g stroke-linecap="round" transform="translate(12 116) rotate(0 76 24)"><path d="M0 0 C0 0, 0 0, 0 0 M0 0 C0 0, 0 0, 0 0 M-0.73 6.73 C0.63 5.1, 1.87 3.86, 4.51 0.01 M-0.41 6.38 C1.46 4.99, 2.94 3.1, 5.26 0.71 M-1.36 13.19 C2.6 8.59, 5.71 6.1, 11.34 0.55 M-0.45 11.4 C4.33 6.7, 9.01 3.06, 10.65 0.45 M-0.95 17.09 C3.3 14.33, 5.78 9.73, 15.25 0.26 M0.31 18.35 C5.68 11.73, 12.25 4.33, 14.94 1.15 M0.8 24.16 C3.74 19.33, 10.2 13.77, 22.39 0.66 M0.58 23.67 C6.19 17.5, 12.25 11.02, 20.42 0.09 M-1.82 28.8 C10.08 17.9, 19.66 9.07, 25.49 0.04 M0.32 31.3 C9.38 20.51, 17.78 9.72, 26.4 -0.19 M0.63 38.49 C8.63 26.54, 19.2 15.74, 30.94 0.8 M-0.93 37.82 C11.27 23.6, 21.51 10.12, 32.1 -0.33 M1.78 42.97 C11.98 26.63, 23.06 15.89, 37.05 2.21 M-0.81 42.32 C12.26 28.52, 23.12 14.78, 36.74 -0.29 M1.5 46.36 C16.65 29.84, 31.65 14.9, 42.68 1.05 M-0.13 47.52 C9.3 38.29, 18.22 26.94, 42.13 0.28 M3.85 50.25 C15.38 35.86, 27.07 23.35, 49.4 0.23 M4.98 47.97 C16.73 37.52, 25.68 25.66, 46.67 -0.2 M10.66 48.16 C23.36 34.94, 37.28 18.42, 54.06 1.39 M10.62 47.55 C23.19 35.47, 34.81 20.7, 53.97 0.36 M16.08 47.35 C27.79 35.17, 44 17.84, 58.95 1.6 M15.55 48.33 C30.62 32.14, 47.13 14.19, 58.91 -0.5 M21.94 47.45 C38.65 29.05, 53.43 14.87, 64.44 -2.13 M22.57 48.27 C39.1 27.88, 55.05 9.62, 64.15 -0.19 M27.86 49.11 C45.5 31.42, 61.83 9.2, 67.05 -0.11 M26.52 48.95 C40.37 33.04, 52.6 17.28, 68.25 0.7 M31.92 46.58 C41.55 36.31, 52.7 27.13, 76.14 -1.42 M32.88 47.2 C43.7 34.03, 56.27 20.14, 74.19 0.02 M36.74 48.4 C47.58 37.92, 59.36 23.22, 79.98 -1.24 M37.81 48.84 C48.18 36.68, 57.29 24.12, 79.48 -0.22 M42.14 49.93 C55.81 31.78, 71.97 17.06, 86.42 -0.29 M42.72 48.33 C56.23 33.23, 68.54 19.2, 84.67 -0.18 M47.24 50.11 C63.57 30.84, 81.55 11.74, 88.97 -0.11 M48.36 48.47 C59.87 36.33, 70.77 22.3, 89.45 -0.45 M55.08 47.95 C70.13 30.55, 81.82 14.19, 95.46 1.47 M53.32 48.1 C64.37 36.85, 74.13 23.58, 95.19 -0.46 M58.78 47.25 C75.89 31.27, 90.41 9.67, 102.16 -0.95 M58.14 47.78 C67.75 38.59, 77.51 25.98, 101.01 -0.69 M65.48 49.91 C77.69 33.61, 92.22 17.08, 106.4 0.17 M63.24 48.21 C80.59 30.35, 96.14 11.22, 106.37 -1.05 M69.75 48.84 C83.93 29.64, 100.23 10.14, 112.67 -1.94 M70.18 48.18 C82.66 31.94, 96.03 17.4, 111.07 0.83 M75.01 48.86 C91.29 30.33, 106.24 10.66, 116.64 0.91 M75.07 48.53 C83.2 39.78, 91.85 29.24, 117.22 0.06 M81.47 48.01 C91.51 33.2, 103.45 18.63, 122.52 0.82 M80.49 48.54 C94.42 33.48, 105.83 18.36, 122.55 0.36 M84.29 50.22 C98.79 31.46, 112.84 16.11, 128.5 -1.39 M85.47 47.68 C95.54 35.22, 106.09 23.42, 127.76 0.08 M90.19 49.91 C100.77 36.2, 113.42 19.74, 130.68 1.26 M90.15 49.22 C102.53 34.21, 113.65 20.74, 132.42 0.58 M95.55 48.66 C107.89 35.8, 122.7 19, 137.26 -1.5 M95.76 47.98 C108.5 33.69, 123.55 17.08, 137.04 -0.04 M103.09 47.78 C115.17 32, 126.45 16.75, 145.07 -0.58 M101.26 48.01 C114.07 34.75, 124.59 21.68, 143.65 0.68 M107.94 48.97 C118.45 33.11, 132.78 18.3, 149.8 1.13 M105.32 48.24 C116.76 37.19, 127.95 24.94, 147.83 -0.65 M110.31 46.91 C126.89 30.22, 141.55 15.3, 153.88 2.11 M110.95 48.21 C122.97 34.5, 135.15 20.81, 152.63 1.05 M117.57 49.95 C126.73 36.1, 140.48 20.79, 154.03 5.89 M117.53 47.72 C129.26 34.59, 141.1 20.23, 152.01 6.17 M120.91 48.66 C132.48 39.21, 141.67 24.5, 153.69 12.04 M123.38 48.56 C130.03 39.32, 135.66 31.99, 153.21 12.37 M125.45 48.51 C137.46 40.48, 144.12 26.84, 152.02 19.94 M127.83 48.16 C134.3 39.37, 143.03 30.98, 153.7 19.5 M134.89 46.45 C139.05 39.77, 146.63 29.78, 152.43 24.84 M133.76 47.3 C137.55 43.29, 141.7 37.82, 153.67 24.66 M137.58 47.59 C143.17 45.16, 146.18 39.92, 152.05 30.73 M137.68 47.77 C143.29 43.94, 147.6 38.76, 153.36 30.14 M143.35 49.25 C147.01 43.13, 150.41 39.84, 151.61 38.74 M144.12 48.09 C146.44 45.04, 148.33 43.37, 152.57 37.46 M148.75 48.35 C149.71 46.82, 150.64 45.4, 153.1 43.12 M148.65 48.71 C149.85 47.13, 150.36 46.16, 153.49 43.31" stroke="#ced4da" stroke-width="0.5" fill="none"></path><path d="M-1.19 0.52 C41.21 0.66, 86.52 -1.15, 151.31 -0.35 M-0.2 -0.34 C32.35 -0.96, 62.95 -0.38, 151.05 0.62 M153.55 0.69 C150.72 9.66, 150.33 21.19, 152.07 47.26 M151.2 -0.26 C151.73 14.21, 151.7 28.79, 151.41 47.64 M152.71 46.64 C113.39 47.14, 71.74 47.62, -1.86 49.96 M152.99 47.17 C120.09 46.88, 86.55 46.99, 0.83 47.14 M-1.72 48.35 C1.06 32, -0.72 17.09, -0.83 -0.02 M-0.88 47.3 C-0.72 37.95, -0.22 27.55, -0.42 -0.33" stroke="#000000" stroke-width="1" fill="none"></path></g><g stroke-linecap="round" transform="translate(10 287) rotate(0 76 24)"><path d="M0 0 C0 0, 0 0, 0 0 M0 0 C0 0, 0 0, 0 0 M-0.03 6.34 C1.87 3.97, 3.67 2.72, 5.45 0.27 M-0.31 6.01 C0.74 5.06, 2.03 3.69, 4.59 0.59 M-1.34 10.8 C5.13 7.6, 9.69 3.11, 10.23 0.91 M-0.19 11.73 C1.7 9.41, 4.03 7.45, 11.08 0 M-1.5 20.39 C6.13 12.16, 12.19 4.07, 16.73 -1.09 M0.3 17.97 C3.34 13.83, 7.78 9.68, 15.9 1.26 M1 23.15 C5.84 20.88, 9.15 12.48, 19.4 -1.74 M0.3 23.99 C5.15 17.11, 10.32 12.02, 21.74 -0.4 M1.24 31.5 C6.51 23.12, 16 13.45, 26.64 -0.02 M0.68 30.94 C5.92 23.77, 13.58 15.7, 25.48 -0.59 M1.28 37.89 C8.92 27.04, 20.44 16.53, 33.8 -1.85 M0.62 37.73 C8.04 28.89, 14.54 19.84, 31.98 -0.19 M-1.6 44.04 C12.98 29.86, 20.92 18.12, 36.5 1.54 M-0.74 42.53 C13.88 26.7, 27.82 11.33, 36.61 -0.01 M2.47 49.89 C14.05 28.93, 29.84 13.84, 42.49 -1.03 M0.11 47.59 C10.8 34.25, 23.85 20.83, 42.24 0.51 M5.13 49.39 C18.93 37.12, 27.78 21.78, 49.02 0.71 M5.26 48.97 C19.96 31.72, 35.21 14.68, 47.62 0.62 M12.57 49.72 C20.82 35.83, 32.2 21.28, 54.72 -0.19 M11.29 47.76 C24.66 31.45, 39.15 15.19, 52.35 -0.41 M15.41 49.88 C26.53 37.83, 37.04 24.16, 56.97 1.55 M16.12 48.52 C27.65 35.09, 38.53 23.51, 57.3 -0.02 M23.24 48.02 C33.72 34.79, 43 22.6, 63.77 0.72 M22.71 48.6 C35.36 31.19, 49.07 16.27, 63.57 -1.02 M26.05 46.85 C42.28 30.06, 59.62 11.41, 67.15 -0.92 M27.49 47.52 C37.29 35.34, 48.68 24.02, 68.92 -0.25 M34.06 47.02 C44.45 34.63, 57.34 16.85, 75.01 -1.33 M33.28 48.18 C42.19 36.55, 52.74 24.59, 74.68 0.65 M39.14 48.51 C55.2 29.65, 70.49 12.36, 80.47 -0.77 M37.76 48.3 C48.61 35.7, 58.61 23.91, 80.22 0.66 M42.66 47.94 C54.66 33.96, 68.07 17.5, 85.84 -0.45 M42.36 47.61 C59.89 29.14, 76.48 11.54, 85.88 0.59 M48.87 48.02 C62.09 32.29, 76.77 13.78, 91.88 -1.12 M48.76 49.24 C64.05 30.72, 79.59 11.38, 89.4 0.46 M52.75 46.89 C68.06 30.57, 86.25 12.04, 93.75 -1.77 M53.78 47 C68.65 31.11, 83.79 13.68, 94.86 -1.2 M57.45 47.49 C69.34 37.11, 79.13 21.59, 102.38 1.84 M57.82 48.73 C73.6 31.86, 88.71 13.71, 101.13 -0.05 M65.43 47.69 C74.42 33.39, 88.56 21.17, 108.29 -1.52 M63.17 48.29 C74.06 35.7, 85.88 23.21, 106.79 -0.64 M71.19 49.94 C81.8 33.6, 92.69 19.83, 111.05 -1.13 M69.71 49.19 C82.48 32.55, 96.26 17.7, 110.56 0.94 M73.85 46.84 C90.66 31.44, 107.07 10.06, 114.41 1.78 M74.62 48.15 C88.03 34.05, 100.91 19, 115.63 1.09 M80.43 47.34 C97.49 31.51, 113.3 10.18, 123.03 -0.34 M80.69 49.09 C89.79 37.51, 97.14 27.89, 121.3 0.28 M83.22 50.04 C94.14 38.37, 105.54 26.49, 127.08 0.28 M84.71 48.56 C93.45 38.06, 103.2 28.53, 126.79 0.61 M91.6 48.61 C103.52 33.43, 117.45 16.57, 133.52 0.83 M90.47 48.92 C105.84 29.06, 121.36 12.04, 133.43 -0.14 M97.5 49.16 C102.94 38.08, 113.5 25.56, 139.39 1.33 M95.15 47.78 C112.4 29.23, 128.08 10.66, 137.17 0.82 M103.19 47.59 C107.88 37.23, 118.92 28.28, 143.78 -2.05 M100.25 49.2 C114.73 32.66, 130.29 16.45, 143.49 0.58 M106.71 47.01 C122.24 29.71, 138.73 9.35, 149.12 0.46 M106.1 49.1 C121.18 31.52, 136.64 12.89, 147.82 -0.11 M113.72 47.06 C125.35 33.87, 134.43 21.95, 152.48 2.29 M112.69 48.48 C123.89 35.73, 132.76 23.5, 153.85 1.15 M114.91 49.35 C124.85 35.25, 138.01 24.47, 152.23 8.95 M116.2 48.83 C130.34 32.94, 142.59 18.2, 153.33 6.82 M121.82 46.76 C131.31 36.76, 141.37 24.53, 151.82 13.84 M121.9 47.35 C130.81 38.42, 140.29 28.01, 152.81 13.1 M128.26 48.87 C136.42 38.36, 147.12 26.99, 151.95 18.68 M126.58 48.33 C134.27 41.03, 141.74 32.2, 152.97 18.35 M134.15 47.33 C140.39 39.69, 142.94 34.29, 154.44 26.41 M133.49 48.42 C139.73 39.67, 147.44 32.04, 153.5 25.88 M138.94 49.2 C141.17 43.12, 148.62 37.69, 154.86 30.73 M138.8 47.98 C143.65 41.85, 149.68 34.23, 152.79 31.47 M144.92 46.88 C145 45.21, 148.89 41.4, 151.69 37.73 M144.28 48.26 C145.55 45.76, 147.95 42.88, 153.44 37.16 M148.88 48.6 C149.53 46.8, 151.67 45.62, 153.88 43.58 M148.78 48.7 C150.8 46.69, 152.1 44.2, 153.43 42.92" stroke="#ced4da" stroke-width="0.5" fill="none"></path><path d="M0.82 -1.77 C38.55 -0.17, 72.69 0.82, 151.63 -1.17 M0.78 0.37 C40.26 -0.05, 80.51 -1.61, 151.46 0.73 M150.99 1.32 C151.42 10.8, 153.08 21.72, 150.96 46.96 M151.21 0.65 C152.24 10.91, 152.22 21.28, 152.44 48.09 M152.43 46.12 C112.99 47.31, 73.2 49.46, 1.26 47.25 M152.28 48.24 C99.74 47.01, 48.43 47.24, -0.28 47.36 M1.26 47.17 C1.84 33.44, 0.71 16.07, 1.94 0 M-0.01 48.8 C0.28 31.24, 0.36 16.77, 0.04 0.47" stroke="#000000" stroke-width="1" fill="none"></path></g><g stroke-linecap="round" transform="translate(532 16) rotate(0 114.5 24.5)"><path d="M-1.09 -1.05 L227.87 -0.41 L230.72 49.25 L-1.8 49.71" stroke="none" stroke-width="0" fill="#15aabf"></path><path d="M1.43 0.21 C67.92 -1.79, 137.25 -1.4, 229.39 -1.37 M-0.51 -0.31 C63.81 -1.79, 127.01 -1.87, 229 -0.5 M229.61 -0.06 C228.89 18.9, 228.1 36.29, 230.9 47.32 M228.27 0.73 C228.76 14.4, 228.27 27.26, 228.65 49 M230.22 50.56 C150.51 48.62, 69.3 48.25, 0.9 48.65 M229.65 48.69 C178.14 48.95, 128.56 49.72, -0.43 48.31 M-0.4 50.42 C-1.7 35.96, -0.79 24.55, 1.82 0.3 M0.44 49.82 C-0.54 35.75, 0.73 23.06, -0.75 0.3" stroke="#000000" stroke-width="1" fill="none"></path></g><g transform="translate(565.5 26.5) rotate(0 79 13)"><text x="79" y="19" font-family="Virgil, Segoe UI Emoji" font-size="20px" fill="#000000" text-anchor="middle" style="white-space: pre;" direction="ltr">cloe-launch exec</text></g><g stroke-linecap="round" transform="translate(269 114) rotate(0 65 48)"><path d="M0 0 C0 0, 0 0, 0 0 M0 0 C0 0, 0 0, 0 0 M-1.01 6.96 C1.88 3.86, 4.45 1.91, 4.56 0.97 M-0.52 6.69 C1.87 4.37, 3.01 2.29, 4.8 0.63 M1.02 11.78 C2.71 6.95, 8.48 4.09, 11.93 1.11 M-0.36 12.28 C2.44 8.27, 6.14 4.88, 11.19 -0.23 M0.05 18.37 C3.29 12.43, 9.25 5.88, 15.45 -0.46 M-0.25 18.71 C4.07 14.63, 6.71 9.96, 15.8 -0.12 M1.23 24.96 C9.35 13.77, 16.88 6.6, 22.61 -1.57 M1.15 23.99 C4.15 19.21, 9.79 14.82, 21.53 -0.99 M1.86 31.5 C10.38 21.82, 18.37 10.51, 24.59 1.36 M-0.36 30.99 C6.78 21.56, 16.11 13.72, 25.93 -0.58 M0.34 34.92 C8.4 27, 14.86 16.57, 33.87 -1.85 M0.06 37.55 C12.31 22.17, 22.46 9.66, 31.11 -0.47 M1.1 42.71 C12.04 29.25, 22.05 18.73, 37.93 -1.4 M-0.21 42.13 C14.59 25.55, 29.42 10.43, 36.32 1.22 M-0.8 50.57 C9.62 35.5, 21.99 26.65, 43.13 1.77 M0.58 49.43 C13.75 33.89, 27.87 16.39, 42.93 -0.89 M-0.39 56.48 C10.8 43.57, 20.92 31, 48.09 1.44 M0.71 54.35 C12.37 40.82, 24.01 26.83, 46.81 -0.11 M-1.45 62.12 C14.25 46.34, 29.94 27.03, 51.56 -0.56 M-0.47 61.39 C19.38 39.02, 36.91 17.56, 53.33 -0.38 M-1.32 66.97 C18.25 45.69, 36.46 22, 57.79 -0.97 M-0.3 66.64 C23.15 40.85, 46.95 14.26, 57.75 1.05 M1.82 73.94 C15.52 56.1, 25.81 42.93, 64.41 -1.73 M0.88 73.41 C17.61 52.63, 35.32 33.78, 64.15 -1.06 M1.58 79.02 C22.69 54.75, 44.1 31.71, 67.79 -0.58 M-0.48 79.76 C22.85 53.07, 45.95 27.28, 67.91 -0.63 M-1.45 85.35 C20.63 61.59, 41.32 38.05, 74.95 -1.72 M1.05 84.54 C26.9 55.13, 52.42 25.14, 74.64 -0.98 M1.71 92.67 C24.4 64.61, 43.52 39.23, 80.9 1.61 M0.41 90.76 C32.08 55.54, 62.33 19.62, 78.59 0.54 M0.96 97.85 C25.07 70.61, 49.36 42.54, 84.55 0.45 M1.58 96.1 C18.35 76.04, 36.42 57.65, 85.58 -0.19 M7.08 97.34 C25.59 74.03, 44.28 54.1, 90.03 -0.45 M6.67 97.2 C30.58 67.25, 55.47 39.29, 89.5 -0.71 M11.86 98.05 C36.83 70.74, 62.33 40.24, 94.62 -1.31 M11.03 96.61 C37.57 65.46, 65.02 34.97, 95.18 -0.7 M18.54 95.71 C47.34 61.75, 76.02 29.14, 102.11 -1.89 M16.82 96.95 C48.33 62.57, 77.91 27.27, 100.85 -0.63 M20.47 98.17 C52.79 59.41, 86.29 19.59, 106.65 -0.16 M20.71 96.29 C47.81 67.93, 73.82 37.01, 107.12 -0.49 M25.74 95.15 C52.75 67.4, 78.56 36.82, 110.16 1.12 M27.58 95.68 C54.46 64.96, 82.42 31.78, 111.33 -0.43 M33.86 95.76 C51.6 79.48, 69.21 56.64, 117.52 0.45 M32.25 96.78 C56.2 70.33, 79.25 43.33, 115.91 1.26 M38.97 94.7 C56.59 74.04, 77.59 53.35, 121.26 -0.69 M37.75 95.83 C66.55 63.87, 93.22 31.19, 122.06 -0.28 M43.2 97.58 C67.34 69.07, 89.49 43.48, 126.16 -0.27 M43.76 97.04 C61.04 75.89, 81.04 52.78, 127.49 1.11 M48.58 98.33 C68.35 73.01, 91.13 49.11, 131.23 -0.1 M49.56 95.85 C75.21 65.47, 99.65 37.06, 131.35 2.16 M54.37 96.57 C79.87 67.88, 106.73 37.66, 131.67 6.87 M54.46 96.29 C75.19 69.97, 98.56 44.3, 131.39 6.73 M60.99 94.95 C75.84 79.69, 90.78 63.88, 131.4 12.56 M58.74 96.24 C87.31 62.63, 116.32 30.49, 131.41 13.83 M63.34 96.6 C78.12 80.81, 92.46 64.44, 132.44 19.73 M64.07 96.79 C81.35 76.15, 99.61 53.84, 131.83 19.51 M70.69 98.41 C88.25 72.53, 109.5 50.79, 132.21 26.3 M70.48 95.51 C90.94 73.53, 109.59 51.12, 131.96 25.09 M76.1 96.49 C92.26 75.83, 109.3 56.39, 132.17 31.05 M74.76 97.82 C91.31 78.78, 107.76 59.63, 131.75 32.83 M80.22 95.49 C97.89 79.97, 112.44 62.06, 133 35.62 M81.43 96.22 C94.54 79.79, 107.45 64.41, 132.04 37.88 M84.73 98 C105.03 76.01, 121.65 55.23, 132.05 42.04 M85.17 97.7 C102.56 78.09, 118.1 59.58, 131 43.67 M92.18 97.91 C103.12 84.05, 115.41 66.3, 130.49 50.72 M91.73 96.96 C104.67 80.42, 118.81 65.42, 130.45 49.93 M95.37 97.81 C105.38 84.89, 118.16 70.76, 130.01 54.13 M96.41 95.79 C104.61 87.57, 111.49 78.84, 131.54 56.26 M101.25 98.34 C110.12 86.4, 121.94 73.33, 129.45 62.46 M100.96 96.34 C111.66 84.18, 121.78 74.09, 130.48 61.73 M108.23 95.56 C117.52 87.24, 125.84 76.9, 132.03 69.66 M106.06 96.47 C114.7 87.51, 120.56 80.91, 130.82 68.87 M114.15 94.36 C120.72 88.3, 125.81 81.93, 130.73 74.91 M112.2 97.01 C118.94 89.15, 126.21 80.47, 131.89 75.07 M117.56 97.8 C120.68 93.66, 127.88 86.8, 131.49 80.66 M118.17 97.14 C121.61 92.17, 126.22 86.84, 131.08 80.57 M122.14 96.44 C125.07 91.99, 128.25 88.86, 130.47 86.38 M123.63 95.87 C124.31 94.66, 127.05 92.24, 131.55 86.2 M127.9 97.01 C128.61 95.33, 129.88 94.61, 131.39 93.13 M127.79 96.56 C128.94 95.57, 130.04 94.13, 131.44 92.71" stroke="#fab005" stroke-width="0.5" fill="none"></path><path d="M1.85 -1.21 C42.94 0.95, 84.28 2.69, 131.71 0.09 M-0.63 0.38 C52.11 0, 102.23 -0.33, 129.45 -0.76 M128.08 -1.46 C131.51 32.21, 132.03 63.57, 128.03 96.33 M129.19 -0.89 C130.05 35.68, 130 69.18, 129.57 95.88 M131.72 97.79 C81.76 93.46, 32.17 93.68, 0.75 95.1 M130.47 95.9 C79.71 96.66, 29 96.72, -0.51 95.59 M1.99 94.82 C-1.46 78.08, 0.27 55.32, -0.85 -0.31 M0.49 95.7 C-0.61 68.49, -0.76 41.87, 0.81 -0.05" stroke="#000000" stroke-width="1" fill="none"></path></g><g transform="translate(292.5 119.5) rotate(0 41.5 39)"><text x="41.5" y="19" font-family="Virgil, Segoe UI Emoji" font-size="20px" fill="#000000" text-anchor="middle" style="white-space: pre;" direction="ltr">conanfile</text><text x="41.5" y="45" font-family="Virgil, Segoe UI Emoji" font-size="20px" fill="#000000" text-anchor="middle" style="white-space: pre;" direction="ltr">/</text><text x="41.5" y="71" font-family="Virgil, Segoe UI Emoji" font-size="20px" fill="#000000" text-anchor="middle" style="white-space: pre;" direction="ltr">profile</text></g><g stroke-linecap="round"><g transform="translate(197 43) rotate(0 27.5 27.5)"><path d="M0 0 C9.17 9.17, 45.83 45.83, 55 55 M0 0 C9.17 9.17, 45.83 45.83, 55 55" stroke="#000000" stroke-width="1" fill="none"></path></g><g transform="translate(197 43) rotate(0 27.5 27.5)"><path d="M27.81 42.32 C36.36 46.31, 44.9 50.29, 55 55 M27.81 42.32 C38.68 47.39, 49.55 52.46, 55 55" stroke="#000000" stroke-width="1" fill="none"></path></g><g transform="translate(197 43) rotate(0 27.5 27.5)"><path d="M42.32 27.81 C46.31 36.36, 50.29 44.9, 55 55 M42.32 27.81 C47.39 38.68, 52.46 49.55, 55 55" stroke="#000000" stroke-width="1" fill="none"></path></g></g><g stroke-linecap="round"><g transform="translate(198 121) rotate(0 28 5)"><path d="M0 0 C9.33 1.67, 46.67 8.33, 56 10 M0 0 C9.33 1.67, 46.67 8.33, 56 10" stroke="#000000" stroke-width="1" fill="none"></path></g><g transform="translate(198 121) rotate(0 28 5)"><path d="M27.98 14.88 C37.02 13.3, 46.06 11.73, 56 10 M27.98 14.88 C35.88 13.5, 43.78 12.13, 56 10" stroke="#000000" stroke-width="1" fill="none"></path></g><g transform="translate(198 121) rotate(0 28 5)"><path d="M31.4 -4.28 C39.34 0.33, 47.28 4.94, 56 10 M31.4 -4.28 C38.34 -0.25, 45.27 3.78, 56 10" stroke="#000000" stroke-width="1" fill="none"></path></g></g><g stroke-linecap="round"><g transform="translate(195 204.1489276508422) rotate(0 30.5 -11.132722631670902)"><path d="M0 0 C10.17 -3.71, 50.83 -18.55, 61 -22.27 M0 0 C10.17 -3.71, 50.83 -18.55, 61 -22.27" stroke="#000000" stroke-width="1" fill="none"></path></g><g transform="translate(195 204.1489276508422) rotate(0 30.5 -11.132722631670902)"><path d="M38.04 -2.96 C46.12 -9.76, 54.21 -16.56, 61 -22.27 M38.04 -2.96 C46.85 -10.37, 55.66 -17.78, 61 -22.27" stroke="#000000" stroke-width="1" fill="none"></path></g><g transform="translate(195 204.1489276508422) rotate(0 30.5 -11.132722631670902)"><path d="M31 -22.24 C41.57 -22.25, 52.13 -22.26, 61 -22.27 M31 -22.24 C42.51 -22.25, 54.03 -22.26, 61 -22.27" stroke="#000000" stroke-width="1" fill="none"></path></g></g><g stroke-linecap="round"><g transform="translate(193 284) rotate(0 30 -30.5)"><path d="M0 0 C10 -10.17, 50 -50.83, 60 -61 M0 0 C10 -10.17, 50 -50.83, 60 -61" stroke="#000000" stroke-width="1" fill="none"></path></g><g transform="translate(193 284) rotate(0 30 -30.5)"><path d="M47.55 -33.71 C52.42 -44.39, 57.29 -55.07, 60 -61 M47.55 -33.71 C51.9 -43.24, 56.25 -52.77, 60 -61" stroke="#000000" stroke-width="1" fill="none"></path></g><g transform="translate(193 284) rotate(0 30 -30.5)"><path d="M32.92 -48.1 C43.51 -53.15, 54.11 -58.19, 60 -61 M32.92 -48.1 C42.38 -52.6, 51.84 -57.11, 60 -61" stroke="#000000" stroke-width="1" fill="none"></path></g></g><g stroke-linecap="round"><g transform="translate(414 123.27283735622632) rotate(0 51.527725878121316 -39.641574510847676)"><path d="M0 0 C17.18 -13.21, 85.88 -66.07, 103.06 -79.28 M0 0 C17.18 -13.21, 85.88 -66.07, 103.06 -79.28" stroke="#000000" stroke-width="1" fill="none"></path></g><g transform="translate(414 123.27283735622632) rotate(0 51.527725878121316 -39.641574510847676)"><path d="M86.97 -53.96 C92.57 -62.78, 98.18 -71.61, 103.06 -79.28 M86.97 -53.96 C90.61 -59.7, 94.25 -65.43, 103.06 -79.28" stroke="#000000" stroke-width="1" fill="none"></path></g><g transform="translate(414 123.27283735622632) rotate(0 51.527725878121316 -39.641574510847676)"><path d="M74.46 -70.23 C84.42 -73.38, 94.38 -76.54, 103.06 -79.28 M74.46 -70.23 C80.93 -72.28, 87.41 -74.33, 103.06 -79.28" stroke="#000000" stroke-width="1" fill="none"></path></g></g><g transform="translate(429 77.5) rotate(337.0942303415828 23 13)"><text x="0" y="19" font-family="Virgil, Segoe UI Emoji" font-size="20px" fill="#495057" text-anchor="start" style="white-space: pre;" direction="ltr">input</text></g><g stroke-linecap="round" transform="translate(35 10) rotate(0 76 24)"><path d="M-1.46 -1.74 L150.27 -1.11 L151.22 46.21 L1.5 46.33" stroke="none" stroke-width="0" fill="#ced4da"></path><path d="M-1.09 1.09 C53.68 0.01, 106.27 -1.2, 152.72 -0.63 M0.04 -0.08 C59.73 0.31, 121.8 0.28, 151.02 -0.92 M153.78 -1.65 C149.78 12.26, 152.89 21.95, 153.09 46.39 M151.13 -0.38 C150.99 10.01, 151.12 19.84, 152.93 47.74 M151.63 49.88 C113.7 50, 77.02 47.41, -0.53 46.05 M152.49 48.06 C118.95 49.49, 85.94 49.38, 1 47.9 M-1.24 49.25 C-1.4 39.26, -1.02 25.3, 1.95 1.2 M-0.1 48.5 C0.64 29.71, 0.34 12.91, -0.54 -0.66" stroke="#000000" stroke-width="1" fill="none"></path></g><g transform="translate(61 21) rotate(0 50 13)"><text x="50" y="19" font-family="Virgil, Segoe UI Emoji" font-size="20px" fill="#495057" text-anchor="middle" style="white-space: pre;" direction="ltr">cloe-engine</text></g><g stroke-linecap="round" transform="translate(35 94) rotate(0 76 24)"><path d="M-0.85 -0.67 L151.59 0.38 L151.12 48.82 L-0.37 49.72" stroke="none" stroke-width="0" fill="#ced4da"></path><path d="M0.16 1.68 C38.15 0.8, 77.06 2.21, 152.84 0.13 M0.61 0.54 C40.18 1.07, 81.55 1.27, 151.83 0.44 M151.28 -1.3 C153.85 10.51, 151.2 18.04, 150.51 46.68 M151.37 -0.47 C151.02 14.31, 151.85 29.18, 152 48.46 M153.82 48.32 C116.09 46.12, 80.5 46.37, 0.41 47.38 M152.97 47.23 C121.53 45.9, 90.02 46.76, 0.24 48.15 M-0.03 46.97 C-1.31 29.98, 1.46 9.76, -0.73 -1.9 M-0.46 48.96 C-0.88 34.88, -0.93 23.58, -0.44 0.48" stroke="#000000" stroke-width="1" fill="none"></path></g><g transform="translate(54 105) rotate(0 57 13)"><text x="57" y="19" font-family="Virgil, Segoe UI Emoji" font-size="20px" fill="#495057" text-anchor="middle" style="white-space: pre;" direction="ltr">cloe-runtime</text></g><g stroke-linecap="round" transform="translate(32 181) rotate(0 76 24)"><path d="M-1.67 0.32 L153.25 0.08 L152.94 46.17 L-1.68 48.58" stroke="none" stroke-width="0" fill="#ced4da"></path><path d="M-0.51 -0.16 C34.85 1.31, 70.68 1.29, 150.23 1.77 M-0.19 -0.58 C36.17 0.11, 73.58 0.93, 152.37 0.44 M150.93 1.45 C150.55 19.07, 152.65 34.25, 153.32 47.07 M151.48 -0.52 C151.45 15.72, 152.16 32.26, 152.65 48.63 M152.87 48.17 C105.27 45.89, 59.75 47.67, -1.88 48.35 M152.63 47.62 C109.62 49.27, 66.18 49.63, 0.24 47.93 M-0.55 46.72 C0.14 36.95, -2.34 27.01, -0.83 1.86 M0.97 48 C0.14 30.49, 0.27 13.79, 0.8 0.08" stroke="#000000" stroke-width="1" fill="none"></path></g><g transform="translate(90 192) rotate(0 18 13)"><text x="18" y="19" font-family="Virgil, Segoe UI Emoji" font-size="20px" fill="#495057" text-anchor="middle" style="white-space: pre;" direction="ltr">. . .</text></g><g stroke-linecap="round" transform="translate(33 265) rotate(0 76 24)"><path d="M0.32 1.25 L152.08 0.94 L150.17 46.32 L0.58 46.48" stroke="none" stroke-width="0" fill="#ced4da"></path><path d="M-0.16 -1.16 C40.49 -0.96, 80.13 -1.39, 153.77 -1.19 M-0.58 -0.38 C38.86 0.76, 78.59 0.65, 152.44 0.67 M153.45 -1.87 C153.02 18.84, 150.56 38.56, 151.07 48.89 M151.48 -0.73 C151.65 16.15, 151.67 32.98, 152.63 48.02 M152.17 47.18 C95.83 48.24, 42.8 46.79, 0.35 47.63 M151.62 48.43 C106.82 48.76, 62.1 49.2, -0.07 47.32 M-1.28 48.54 C0.29 27.7, 1.48 10.45, 1.86 1.13 M0 48.32 C-0.27 32.31, 0.13 16.52, 0.08 -0.84" stroke="#000000" stroke-width="1" fill="none"></path></g><g transform="translate(41 276) rotate(0 68 13)"><text x="68" y="19" font-family="Virgil, Segoe UI Emoji" font-size="20px" fill="#495057" text-anchor="middle" style="white-space: pre;" direction="ltr">cloe-plugin-xyz</text></g><g stroke-linecap="round"><g stroke-opacity="0.5" fill-opacity="0.5" transform="translate(412.45631225891543 218.65607650096536) rotate(0 54.271843870542284 26.01024755225859)"><path d="M0 0 C18.09 8.67, 90.45 43.35, 108.54 52.02 M0 0 C18.09 8.67, 90.45 43.35, 108.54 52.02" stroke="#000000" stroke-width="1" fill="none"></path></g><g stroke-opacity="0.5" fill-opacity="0.5" transform="translate(412.45631225891543 218.65607650096536) rotate(0 54.271843870542284 26.01024755225859)"><path d="M78.69 49.09 C87.28 49.93, 95.87 50.78, 108.54 52.02 M78.69 49.09 C90.57 50.26, 102.46 51.42, 108.54 52.02" stroke="#000000" stroke-width="1" fill="none"></path></g><g stroke-opacity="0.5" fill-opacity="0.5" transform="translate(412.45631225891543 218.65607650096536) rotate(0 54.271843870542284 26.01024755225859)"><path d="M87.56 30.58 C93.6 36.75, 99.63 42.92, 108.54 52.02 M87.56 30.58 C95.91 39.12, 104.27 47.65, 108.54 52.02" stroke="#000000" stroke-width="1" fill="none"></path></g></g><g stroke-linecap="round"><g transform="translate(414 165.59140991476988) rotate(0 53 -1.1622349594693446)"><path d="M0 0 C17.67 -0.39, 88.33 -1.94, 106 -2.32 M0 0 C17.67 -0.39, 88.33 -1.94, 106 -2.32" stroke="#000000" stroke-width="1" fill="none"></path></g><g transform="translate(414 165.59140991476988) rotate(0 53 -1.1622349594693446)"><path d="M78.04 8.55 C87.71 4.79, 97.39 1.03, 106 -2.32 M78.04 8.55 C85.25 5.75, 92.46 2.94, 106 -2.32" stroke="#000000" stroke-width="1" fill="none"></path></g><g transform="translate(414 165.59140991476988) rotate(0 53 -1.1622349594693446)"><path d="M77.59 -11.96 C87.42 -8.63, 97.25 -5.29, 106 -2.32 M77.59 -11.96 C84.91 -9.48, 92.24 -6.99, 106 -2.32" stroke="#000000" stroke-width="1" fill="none"></path></g></g><g stroke-linecap="round" transform="translate(532 143) rotate(0 114.5 24.5)"><path d="M-0.67 -1.7 L229.93 -0.51 L228.8 50.41 L1.69 50.47" stroke="none" stroke-width="0" fill="#15aabf"></path><path d="M-1.27 1.68 C66.85 -1.36, 131.38 0.66, 227.41 0.14 M0.4 -0.77 C47.81 -0.14, 94.49 0.67, 228.79 0.17 M227.74 -1.44 C229.13 11.78, 227.56 22.28, 230.58 47.49 M229.68 0.11 C230.16 17.44, 230.05 36.62, 229.95 49.4 M227.41 48.63 C158.86 46.6, 89.81 47.12, -0.45 50.35 M229.05 49.35 C150.89 49.94, 72.58 50.34, 0.16 49.5 M1.23 49.35 C-0.2 39.55, 0.39 27.16, 1.36 -0.27 M0.43 48.98 C0.84 34.48, 0.3 19.2, -0.05 0.63" stroke="#000000" stroke-width="1" fill="none"></path></g><g transform="translate(566 153.5) rotate(0 78.5 13)"><text x="78.5" y="19" font-family="Virgil, Segoe UI Emoji" font-size="20px" fill="#000000" text-anchor="middle" style="white-space: pre;" direction="ltr">cloe-launch shell</text></g><g stroke-opacity="0.4" fill-opacity="0.4" stroke-linecap="round" transform="translate(533 251) rotate(0 73.5 24.5)"><path d="M0.33 -0.56 L146.58 1.67 L145.41 48.65 L1.95 49.32" stroke="none" stroke-width="0" fill="#15aabf"></path><path d="M-1.66 -0.63 C38.47 0.66, 76.08 -0.42, 148.08 0.13 M0.15 0.21 C38.3 -1.26, 78.32 0.27, 147.19 0.38 M145.36 0.13 C147.03 14.78, 148.41 32.65, 146.56 50.34 M146.74 0.48 C147.29 16.03, 146.6 31.45, 147.67 49.61 M145.86 47.37 C116.15 49.03, 87.48 50.54, 1.12 50.44 M147.84 48.92 C103.72 48.56, 62.33 47.5, 0.94 49.11 M0.26 47.93 C-0.6 29.85, -1.15 12.47, 0.96 -1.58 M-0.08 49.18 C1.06 36.5, 0.73 26.3, -0.78 -0.68" stroke="#000000" stroke-width="1" fill="none"></path></g><g stroke-opacity="0.4" fill-opacity="0.4" transform="translate(545 262.5) rotate(0 61.5 13)"><text x="61.5" y="19" font-family="Virgil, Segoe UI Emoji" font-size="20px" fill="#000000" text-anchor="middle" style="white-space: pre;" direction="ltr">conan install</text></g><g stroke-opacity="0.4" fill-opacity="0.4" stroke-linecap="round" transform="translate(791 251) rotate(0 73.5 24.5)"><path d="M0.49 1.87 L146.88 -1.91 L147.62 47.8 L0.46 50.51" stroke="none" stroke-width="0" fill="#15aabf"></path><path d="M-0.61 1.84 C49.1 -1.86, 98.76 0.16, 148.58 -1.77 M0.28 0.69 C46.9 -0.06, 94.78 1.21, 147.93 -0.05 M146.87 -0.31 C145.88 14.13, 145.01 28.8, 147.89 47.43 M147.02 -0.87 C146.81 15.99, 146.18 32.85, 146.32 48.84 M147.4 49.98 C102.96 47.96, 55.69 47.46, 0.13 47.12 M146.52 49.47 C92.32 49.31, 36.7 48.62, 0.28 49.76 M-1.42 48.79 C-0.01 37.99, 0.09 28.34, -1.94 0.18 M-0.44 48.36 C-0.24 29.74, -0.5 11.67, 0.15 -0.69" stroke="#000000" stroke-width="1" fill="none"></path></g><g stroke-opacity="0.4" fill-opacity="0.4" transform="translate(798 262.5) rotate(0 66.5 13)"><text x="66.5" y="19" font-family="Virgil, Segoe UI Emoji" font-size="20px" fill="#000000" text-anchor="middle" style="white-space: pre;" direction="ltr">source runenv</text></g><g stroke-linecap="round"><g stroke-opacity="0.4" fill-opacity="0.4" transform="translate(689 275) rotate(0 45 0.5)"><path d="M0 0 C15 0.17, 75 0.83, 90 1 M0 0 C15 0.17, 75 0.83, 90 1" stroke="#000000" stroke-width="1" fill="none"></path></g><g stroke-opacity="0.4" fill-opacity="0.4" transform="translate(689 275) rotate(0 45 0.5)"><path d="M61.7 10.95 C69.11 8.34, 76.51 5.74, 90 1 M61.7 10.95 C72.51 7.15, 83.33 3.34, 90 1" stroke="#000000" stroke-width="1" fill="none"></path></g><g stroke-opacity="0.4" fill-opacity="0.4" transform="translate(689 275) rotate(0 45 0.5)"><path d="M61.92 -9.57 C69.27 -6.81, 76.62 -4.04, 90 1 M61.92 -9.57 C72.65 -5.53, 83.38 -1.49, 90 1" stroke="#000000" stroke-width="1" fill="none"></path></g></g><g stroke-linecap="round" transform="translate(480 130) rotate(0 241 94)"><path d="M0 0 C125.39 0, 250.77 0, 482 0 M482 0 C482 68.75, 482 137.5, 482 188 M482 188 C355.15 188, 228.3 188, 0 188 M0 188 C0 132.24, 0 76.47, 0 0" stroke="#000000" stroke-width="1.5" fill="none" stroke-dasharray="8 9"></path></g></svg>
