<svg version="1.1" xmlns="http://www.w3.org/2000/svg" viewBox="0 0 1136 387" width="1136" height="387">
  <!-- svg-source:excalidraw -->

  <defs>
    <style>
      @font-face {
        font-family: "Virgil";
        src: url("https://excalidraw.com/Virgil.woff2");
      }
      @font-face {
        font-family: "Cascadia";
        src: url("https://excalidraw.com/Cascadia.woff2");
      }
    </style>
  </defs>
  <g stroke-linecap="round" transform="translate(156 17) rotate(0 90.5 26)"><path d="M0 0 C0 0, 0 0, 0 0 M0 0 C0 0, 0 0, 0 0 M0.09 5.78 C0.59 5.4, 2.69 2.87, 4.24 -0.01 M-0.32 6.14 C1.6 4.45, 3.29 2.63, 5.23 0.51 M0.25 12.02 C2.21 10.3, 4.77 5.96, 9.71 -1.38 M-0.61 12.16 C3.52 8.79, 5.77 5.34, 10.97 -0.1 M-0.17 17.53 C3.57 12.56, 9.49 7.53, 16.81 1.18 M-1.08 17.45 C5.19 12.19, 11.01 6.86, 14.94 -0.26 M-0.18 23.21 C3.44 19.38, 10.93 12.31, 20.69 -1.78 M0.42 23.87 C5.16 17.53, 11.18 10.65, 20.56 -0.39 M1.22 32.42 C11.3 19.98, 19.45 8.4, 26.06 -0.86 M0.8 30.29 C6.35 23.76, 10.8 17.98, 26.66 -0.23 M1.45 36.36 C9.75 22.89, 22.59 10.14, 29.92 0.83 M-0.12 36.48 C9.14 25.96, 16.99 16.44, 32.39 0.12 M1.87 41.9 C14.33 29.58, 25.78 15.43, 35.48 0.9 M0.01 42.09 C9.05 31.3, 18.77 21.99, 36.88 -0.06 M1.22 49.39 C11.81 36.47, 23.99 20.52, 42.93 1.26 M-1.06 48.68 C16.09 30.69, 30.88 12.43, 42.22 0.6 M2.99 51.47 C9.45 41.89, 21.08 32.12, 47.53 1.67 M1.45 53.6 C17.04 35.3, 31.12 18.13, 47.04 -0.73 M5.6 54.62 C24.2 35.38, 38.61 15.07, 54.36 -0.69 M6.91 53.77 C20.36 35.4, 35.71 18.3, 53.53 -0.36 M13.21 51.77 C24.55 37.07, 38.86 21.3, 56.5 -1.66 M12.42 53.42 C26.58 35.94, 40.26 20.51, 58.93 -0.31 M16.4 51.83 C35.06 34.26, 51.58 14.56, 65.68 1.45 M16.87 53.76 C31.81 35.53, 47.97 18.58, 64.64 0.3 M22.94 51.7 C31.14 42.87, 43.44 30.67, 70.53 -0.54 M21.99 52.22 C33.53 40.85, 43.5 29.57, 69.66 1.08 M27.94 53.94 C37.53 37.9, 49.59 24.86, 75.2 -1.19 M27.93 54.13 C38.1 41.76, 48.92 29.93, 73.69 -0.99 M32.6 54.25 C50.39 32.83, 69.52 11.02, 77.6 -0.79 M34.25 53.5 C50.69 33.52, 67.41 14.06, 78.65 0.22 M38.33 55.05 C52.36 37.26, 68.61 21.82, 84.06 1.14 M37.46 52.72 C51.34 37.16, 66.56 20.61, 85.67 0.65 M45.49 53.06 C53.45 41.12, 65.2 30.44, 91.54 -0.56 M44.09 53.22 C61.33 34.83, 76.29 17.32, 90.66 -0.18 M47.53 52.86 C63.87 36.6, 81.12 17.29, 94.29 -1.12 M48.16 53.3 C62.9 38.73, 76.03 22.46, 95.36 -0.48 M53.72 54.44 C69.29 35.67, 82.56 19.37, 102.03 -0.32 M54.27 52.73 C64.2 42.15, 73.72 30.34, 100.8 -0.47 M59.33 54.77 C75.15 36.27, 87.84 20.41, 106.7 1.11 M59.06 52.57 C74.58 35.69, 90.65 17.05, 106.4 0.34 M63.62 52.11 C73.39 41.36, 87.78 29.69, 112.58 -0.93 M65.68 54.56 C82.13 32.9, 100.85 12.32, 111.47 0.89 M71.36 51.82 C81.44 41.93, 94.38 28.41, 114.35 2.35 M70.52 53.14 C83.95 37.7, 96.49 23.59, 115.59 0 M76.29 54.18 C92.4 34.24, 109.69 14.56, 122.55 -1.55 M75.05 54.41 C90.2 38.4, 103.77 22.34, 121.42 0.37 M81.12 52.7 C93 40.56, 102.01 31.18, 127.06 1.46 M81.21 52.56 C96.43 34.84, 111.77 16.63, 126.52 -0.45 M85.75 53.68 C105.46 31.62, 123.54 11.74, 133.13 -1.71 M85.93 52.66 C101.32 35.22, 116.13 18.41, 132.73 0.38 M91.94 53.76 C107.79 33.94, 124.02 16.63, 137.56 0.27 M91.15 52.29 C103.46 39.81, 114.18 27.44, 136.66 -0.26 M95.5 51.53 C109.52 35.71, 126.73 21.27, 141.39 0.72 M96.38 54.35 C112.24 36.71, 126.77 17.85, 143.79 0.24 M102.98 53.02 C115.03 35.51, 130.96 21.19, 150.07 -1.51 M102.69 52.7 C116.44 36.85, 130.3 19.8, 148.95 0.97 M107.86 55.32 C122.69 34.93, 141.61 15.93, 154.2 -0.47 M107.27 52.95 C119.96 40.66, 130.94 27.28, 154.35 -0.81 M111.25 52.13 C125.82 38.81, 142.41 22.89, 157.65 0.47 M113.48 52.11 C128.14 36.61, 142.26 19.23, 158.15 1.07 M118.04 53.3 C129.3 39.21, 144.05 22.05, 166.3 -1.83 M117.32 53.36 C132.82 36.28, 145.99 20.3, 164.45 -0.61 M121.63 54.42 C136.27 35.99, 150.02 20.8, 168.2 1.26 M123.52 53.73 C136.71 38.09, 149.91 21.94, 169.86 0.29 M128.07 52.36 C143.09 37.67, 156.43 20.96, 174.27 -0.27 M128.05 52.87 C139.62 40.14, 149.9 26.88, 175.49 -1.07 M132.8 54.86 C150.01 32.98, 165.74 14.44, 178.47 0.52 M134.15 52.72 C147.47 36.83, 161.98 22.33, 179.52 0.29 M140.81 52.06 C153.79 37.12, 169.08 21.72, 184.56 3.25 M138.84 54.24 C151.42 39.38, 164.48 24.99, 183.22 1.08 M143.32 54.09 C154.8 39.71, 166.7 28.08, 184.85 8.89 M145 53.15 C154.77 42.72, 162.52 32.53, 184.15 7.48 M149.99 54.61 C159.38 38.65, 173.64 26.59, 184.88 12.69 M149.87 52.62 C161.77 40.25, 173.46 26.41, 184.1 14.32 M153.58 52.4 C160.37 44.74, 166.34 39.65, 183.7 20.85 M155.07 53 C163.57 45.33, 171.2 35.02, 183.77 20.85 M162.16 54.88 C168.02 41.14, 178.12 32.05, 185.2 25.05 M161.16 52.57 C164.86 48.76, 170.02 41.63, 183.4 27.44 M167.8 51.73 C170.79 47.9, 172.68 42.85, 185.58 34.26 M165.66 53.2 C172.54 45.84, 177.98 38.95, 184.58 32.54 M170.75 54.34 C175.61 50.31, 176.89 44.57, 182.83 40.47 M171.54 53.12 C173.31 49.8, 175.94 47.65, 183.13 38.71 M176.34 53.31 C179.17 50.18, 181.61 46.95, 183.18 43.94 M177.07 52.7 C179.09 49.78, 181.12 46.81, 183.57 44.22" stroke="#868e96" stroke-width="0.5" fill="none"></path><path d="M0.69 0.04 C44.05 -1.1, 92.05 0.46, 179.03 -1.19 M-0.46 0.54 C68.49 1.9, 137.82 0.74, 180.65 -0.27 M180.31 -0.35 C180.13 17.41, 182.1 40.53, 182.5 52.17 M181.16 0.21 C180.52 19.56, 179.83 40.97, 181.47 52.57 M180.84 53.73 C118.7 51.16, 57.16 54.23, 0.82 53.09 M181.01 52.39 C123.44 53.49, 63.53 52.45, 0.2 51.07 M-0.2 52.33 C0.13 32.59, 0.52 9.52, 1.88 -0.4 M0.25 52.41 C-1 35.77, 0.61 19.47, 0.48 0.17" stroke="#000000" stroke-width="1" fill="none"></path></g><g transform="translate(196.5 30) rotate(0 50 13)"><text x="50" y="19" font-family="Virgil, Segoe UI Emoji" font-size="20px" fill="#000000" text-anchor="middle" style="white-space: pre;" direction="ltr">cloe-engine</text></g><g stroke-linecap="round" transform="translate(363 135) rotate(0 90.5 26)"><path d="M0 0 C0 0, 0 0, 0 0 M0 0 C0 0, 0 0, 0 0 M-0.95 6.16 C1.93 5.11, 3.25 2.34, 4.49 0.47 M-0.39 6.63 C1.03 4.57, 2.87 3.51, 5.34 0.4 M-0.79 10.58 C2.43 9.18, 8.25 3.92, 11.68 -0.45 M-0.28 12.38 C3.23 8.58, 6.31 5.43, 10.3 -0.6 M0.8 17.95 C6.82 10.77, 11.31 5.1, 17.16 -1.59 M0.1 18.85 C3.68 13.15, 9.5 8.03, 16.33 1.02 M0.91 23.2 C5.89 15.62, 13.17 8.01, 19.9 -1.21 M-0.05 24.02 C5.15 16.86, 11.75 11.62, 20.86 0.73 M1.4 31.8 C6.2 24.78, 10.86 15.3, 27.37 0.48 M0.74 29.6 C7.71 21.45, 15.15 13.24, 25.42 0.13 M1.19 37.36 C8.19 26.79, 19.29 14.94, 32.32 -0.71 M-1.21 37.43 C7.97 28.28, 14.87 19.82, 32.51 0.45 M-0.38 42.99 C11.45 30.77, 19.55 21.49, 35.37 -1.48 M-0.04 42.62 C10.08 30.7, 19.54 20.33, 36.02 0.25 M-1.97 48.98 C9.74 39.78, 18.74 28.68, 43.79 -1.7 M-0.62 49.59 C15.32 32.06, 28.42 14.62, 43.15 0.15 M3.25 53.48 C15.03 35.14, 31.47 18.09, 45.84 -0.93 M2.09 52.07 C16.8 35.68, 32.61 16.57, 46.93 0.66 M5.87 51.93 C24.72 30.94, 41.79 9.2, 53.56 -0.98 M7.49 52.91 C19.36 38.52, 32.46 23.41, 52.16 -1.08 M11.26 51.56 C21.91 41.53, 33.1 31.06, 57.1 1.51 M11.46 53.9 C24.99 39.35, 36.28 25.21, 57.88 0.48 M16.29 54.73 C31.43 37.19, 50.5 18.59, 63.52 0.5 M17.3 53.48 C29.03 39.52, 42.06 25.72, 63.35 0.14 M24.26 52.95 C38.98 35.36, 52.25 15.33, 67.12 0.04 M23.77 52.03 C38.41 34.16, 56.01 15.79, 68.52 -0.35 M27.19 54.25 C44.59 30.97, 64.56 11.59, 76.22 -0.36 M27.57 53.7 C41.33 37.64, 54.58 20.75, 73.97 0.56 M32.66 52.67 C47.35 35.54, 62.53 17.69, 79.53 1.74 M33.3 53.12 C46.78 38.17, 59.34 23.61, 79.41 -0.06 M38.09 51.68 C51.32 39.9, 59.56 27.32, 84.89 1.15 M37.94 53.27 C48.68 40.57, 60.48 28.17, 85.66 -0.77 M45.56 53.59 C60.28 36.11, 71.25 19.04, 89.64 0.5 M44.79 52.17 C59.46 35.04, 74.43 16.94, 89.06 -0.05 M48.15 55.04 C69.53 31.07, 88.08 12.26, 95.39 -0.37 M49.96 52.73 C64.98 34.43, 82.06 15.04, 95.5 0.53 M56.71 52.4 C70.94 36, 88.32 14.6, 102.37 -0.91 M54.36 53.5 C72.27 33.52, 89.55 14.01, 100.86 0.1 M58.19 53.21 C75.81 35.07, 91.13 18.06, 108.23 1.5 M60.11 52.45 C75.23 34.07, 93.12 14.37, 106.99 -0.81 M65.83 54.4 C77.76 36.36, 93.96 18.81, 110.34 -0.92 M63.92 54.51 C76.54 42.09, 85.99 29.69, 112.17 -0.36 M68.69 53.92 C88.19 33.07, 105.13 11.13, 115.95 -0.23 M70.79 53.61 C78.64 43.49, 88.55 32.17, 116.41 0.01 M75.3 52.48 C92.76 34.37, 106.37 15.13, 123.8 -1.08 M74.78 53.69 C91.53 36.7, 106.21 16.79, 121.23 -0.34 M81.79 53.71 C97.16 32.7, 113.41 16.96, 127.7 1.04 M81.31 53.24 C94.41 39.43, 106.57 24.43, 126.39 -0.17 M84.18 53.63 C101.03 35.43, 118.29 15.86, 132.67 -0.11 M86.67 54.1 C101.09 36.76, 114.12 22.68, 132.23 0.08 M91.26 52.01 C107.24 31.1, 126.8 11.54, 139.31 0.02 M90.93 53.19 C108.27 33.8, 123.37 15.25, 137.07 1.12 M96.83 53.91 C114.41 31.61, 132.89 10.93, 144.52 0.11 M97.43 53.36 C111.19 37.93, 125.46 20.85, 142.26 0.62 M100.56 53.05 C114.22 39.4, 126.79 23.17, 149.92 -1.49 M101.79 53.12 C117.38 37.03, 131.12 20.06, 147.61 -0.09 M108.28 53.26 C120.16 40.85, 129.41 29.65, 154.58 0.56 M107.31 53.45 C123.48 34.97, 137.73 17.71, 154.35 -0.15 M112.8 51.93 C129.75 36.83, 142.03 17.9, 159.35 0.14 M112 53.55 C122.88 41.6, 132.85 30.23, 158.63 -0.45 M118.21 53.44 C131.24 38.82, 143.42 24.33, 163.72 -0.97 M117.98 53.66 C132.49 36.43, 149.32 17.21, 164.45 0.18 M124.72 52.59 C140.39 33.88, 154.07 18.24, 170.06 0.41 M122.55 52.81 C142.21 32.07, 159.38 11.75, 169.16 -0.27 M128.95 52.06 C142.73 35.62, 159.91 17.92, 176.49 0.2 M127.54 53.61 C139.74 40.21, 151 27.72, 174.42 -1.19 M132.74 53.81 C153.51 31.38, 171.36 9.23, 181.16 0.63 M134.37 52.05 C150.94 34.07, 166.63 14.34, 179.66 -0.55 M139.49 52.56 C150.15 39.86, 162.44 25.88, 185.11 3.82 M139.49 54.26 C157.42 32.53, 176.06 13.19, 183.08 1.08 M142.94 51.21 C158.18 38.29, 169.16 25.09, 183.21 10.28 M145.32 52.27 C156.88 39.68, 170.35 24.25, 183.78 8.36 M151.49 54.25 C158.65 42.67, 164.17 36.31, 184.88 13.78 M149.77 52.86 C158.94 41.24, 168.77 31.55, 184.59 14.39 M157.03 51.26 C162.08 45.01, 172.19 34.99, 182.58 19.86 M155.17 53.28 C162.69 45.65, 168.5 37.77, 183.75 20.6 M159.25 54.27 C168.64 45.02, 176.5 36.14, 183.18 26.22 M159.76 54.05 C164.47 47.56, 169.97 41.77, 182.44 27.42 M166.41 53.27 C172.96 46.48, 177.82 38.22, 183.63 32.44 M166.62 52.73 C169.94 48.5, 173.87 44.85, 183.57 33.39 M171.69 53.58 C174.88 47.44, 180.39 42.37, 184.44 39.61 M171.2 52.76 C174.04 49.39, 176.58 47.98, 183.51 39.16 M177.46 52.06 C177.7 50.13, 181.89 48.9, 184 44.65 M176.45 52.98 C178.25 50.58, 179.9 48.99, 183.61 44.83" stroke="#15aabf" stroke-width="0.5" fill="none"></path><path d="M-0.4 0.31 C60.23 -2.77, 120.57 -0.88, 179.11 0.33 M0.17 -0.05 C66.37 -0.41, 132.94 -0.76, 181.29 -0.36 M181.53 0.9 C181.39 13.74, 178.91 30.15, 182.83 52.98 M181.16 -0.12 C181.09 18.5, 181.72 37.77, 180.16 52.87 M180.07 52.46 C129.67 49.77, 75.86 49.01, 0.99 51.97 M181.37 51.25 C118.16 53.41, 54.72 53.08, -0.15 52.63 M-1.68 51.18 C-1.47 38.22, -1.65 21.47, 1.43 -0.1 M-0.09 51.65 C-0.44 35.3, 0.21 19.02, -0.3 -0.58" stroke="#000000" stroke-width="1" fill="none"></path></g><g transform="translate(396.5 148) rotate(0 57 13)"><text x="57" y="19" font-family="Virgil, Segoe UI Emoji" font-size="20px" fill="#000000" text-anchor="middle" style="white-space: pre;" direction="ltr">cloe-runtime</text></g><g stroke-linecap="round" transform="translate(594 135) rotate(0 90.5 26)"><path d="M0 0 C0 0, 0 0, 0 0 M0 0 C0 0, 0 0, 0 0 M-0.85 6.5 C1.25 4.89, 2.62 1.99, 4.75 0.76 M-0.34 6.74 C1.28 4.77, 3.38 2.61, 5.31 0.08 M-0.61 11.84 C2.99 6.99, 6.25 3.47, 12.15 -0.04 M-0.57 12.58 C3.15 8.52, 6.42 5.13, 10.66 0.13 M1.55 16.57 C5.09 12.87, 11.58 4.54, 15.18 -0.28 M-0.97 19.14 C5.12 10.77, 11.63 4.95, 16.18 0.34 M1.7 23.82 C9.11 15.66, 15.24 5.05, 20.56 -1 M0.43 23.6 C5.03 19.69, 9.27 13.68, 21.19 0.54 M-0.77 31.16 C7.84 20.44, 12.59 12.75, 24.96 1.05 M-0.96 30.98 C6.75 21.02, 14.75 12.56, 26.54 -0.53 M0.95 37.3 C7.21 30.35, 11.53 22.16, 31.49 1.49 M-0.18 36.48 C6.76 27.96, 15.86 18.43, 32.16 0.85 M0.32 41.86 C14.9 24.98, 27.05 11.17, 36.27 1.97 M0.88 42.57 C12.79 27.26, 26.74 13.98, 36.54 1.14 M-1.05 47.22 C10.01 36.4, 22.05 22.56, 43.05 1.64 M0.34 48.97 C17.15 28.71, 32.66 9.68, 41.79 0.25 M1.96 53.25 C15.13 38.87, 26.47 26.03, 49.5 -1.21 M1.98 52.62 C12.09 40.55, 22.06 29.32, 47.16 -0.68 M8.12 54.96 C19.17 39.92, 30.61 25.94, 53.8 -1.67 M6.8 53.35 C21.81 36.64, 35.72 20.94, 54.09 -0.66 M12.71 51.02 C28.06 31.63, 46.15 14.7, 56.89 1.44 M12.17 53.71 C30.81 32.42, 48.27 12.85, 57.71 0.95 M16.19 53.35 C30.06 41.24, 41.8 25.05, 65.13 1.07 M17.84 52.6 C29.57 38.29, 43.33 24.43, 63.9 -0.9 M22.93 51.13 C34.88 39.77, 48.36 25.66, 68.51 -0.47 M23.05 52.48 C36.53 38.01, 48.57 22.41, 68.82 0.84 M27.43 52.41 C41.08 37.68, 55.92 21.57, 75.31 0.04 M28.08 53.15 C40.17 41.03, 50.45 27.2, 73.91 -0.04 M32.98 51.64 C49.09 32.43, 67.97 13.78, 78.3 0.31 M33.24 52.4 C50.04 32.63, 67.56 15.12, 79.46 0.76 M37.88 55.26 C51.7 39.02, 61.5 26.74, 85.42 0.08 M38.43 53.81 C56.09 32.53, 75.66 12.61, 85.62 -1.24 M46.08 53.25 C62.42 33.63, 79.88 12.34, 90 -1.29 M44.17 53.39 C56.13 39.09, 67.92 25.45, 89.92 0.4 M49.43 52.7 C61.21 43.21, 71.77 30.55, 97.41 -1.31 M49.12 53.35 C65.08 36.22, 80.64 17.49, 96.35 -0.23 M54.3 53.34 C69.66 33.39, 86.29 14.03, 99.24 -0.72 M55.12 52.77 C64.49 41.63, 74.21 29.86, 100.83 0.34 M59.82 53.17 C67.9 41.18, 79.15 27.89, 108.04 0.01 M60.72 53.4 C75.83 35.18, 91.16 17.05, 106.28 -0.33 M63.89 52.69 C77.2 39.17, 91.73 22.05, 111.46 -1.73 M65.54 53.05 C75.01 39.61, 87.04 27.86, 112.13 -0.88 M68.63 52.77 C87.54 36.03, 102.16 16.64, 114.3 1.6 M71.1 53.57 C85.57 34.83, 100.41 18.14, 116.73 1.33 M75.9 54.46 C84.33 42.52, 94.89 30.97, 119.96 1.54 M74.64 53.88 C93.21 32.96, 109.66 14.27, 122.1 0.17 M79.27 53.26 C93.23 40.44, 106.94 24.79, 125.95 1.42 M80.48 52.36 C91.12 40.36, 103.04 29.41, 127.83 -0.23 M84.27 54.74 C98.46 38.05, 115.11 20.13, 131.88 -1.35 M86.55 53.62 C103.84 32, 122.48 12.15, 132.35 0.88 M93.02 52.06 C101.41 43.67, 109.71 30.88, 135.67 0.34 M92.41 52.2 C104.01 39.11, 114.67 25.57, 137.56 -0.31 M96.45 53.54 C114.48 34.93, 130.19 15.8, 142.21 0.79 M95.83 53.29 C110.46 37.15, 125.32 20.31, 142.81 -0.49 M102.98 52.23 C115.11 37.6, 129.66 19.85, 147.59 1.12 M102.76 52.44 C112.67 41.89, 120.81 30.53, 147.42 -0.52 M106.71 53.49 C121.46 35.63, 135.99 20.03, 155.77 -1.2 M107.9 54.31 C121.01 36.92, 136.55 20.6, 154.74 0.29 M112.1 52.51 C131.33 34.28, 146.33 16.55, 158.73 -0.79 M112.72 52.35 C122.94 41.82, 131.29 31.6, 158.68 0.93 M118.17 53.91 C133.62 37.84, 148.69 17.97, 165.23 1.2 M117.99 53.55 C127.93 41.73, 135.83 32.39, 163.73 0.35 M123.18 53.28 C132.46 41.8, 144.91 29.77, 168.92 0.68 M123.82 52.12 C138.61 35.5, 153.03 18.48, 169.49 0.25 M128.81 52.75 C143.69 37.92, 160.16 21.44, 173.11 0.15 M128.18 54.28 C144.5 34.68, 158.43 17.2, 174.71 0.74 M132.86 54.57 C142.75 41.27, 155.62 30.81, 178.86 0.28 M134.92 53.89 C150.27 34.66, 167.13 14.75, 179.8 1.09 M137.43 52.64 C156.76 34.23, 173.11 12.97, 183.79 3.74 M138.35 53.22 C153.42 38.72, 166.66 22.21, 182.94 1.7 M145.62 54.08 C159.64 35.17, 174.09 18.01, 184.85 7.72 M145.21 52.68 C155.79 40.44, 166.26 28.07, 183.18 7.81 M149.7 54.84 C157.29 43.45, 165.51 32.11, 182.93 12.99 M149.24 53.49 C156.61 43.33, 166.21 35.2, 184.45 14.68 M155.8 53.17 C163.21 42.28, 173.28 30.13, 183.21 20.51 M155.19 53.45 C165.95 41.02, 176.62 30.3, 184.18 21.37 M160.11 53.28 C168.17 45.52, 176.5 33.79, 182.44 25.97 M159.39 53.63 C168.54 44.77, 175.48 36.2, 184 27.44 M165.56 54.84 C174.5 45.69, 179.56 37, 184.43 31.6 M165.71 52.09 C171.31 47.14, 175.78 41.51, 183.52 31.9 M170.05 52.59 C173.33 49.53, 180.2 44.71, 181.62 39.92 M170.22 52.65 C174.54 49.37, 177.59 45.82, 183.17 39.2 M175.7 53.35 C179.82 49.99, 182.47 46.93, 184.26 45.54 M176.81 52.61 C178.96 49.94, 181.39 47.57, 184.2 44.65" stroke="#15aabf" stroke-width="0.5" fill="none"></path><path d="M-0.55 -0.31 C44.61 0.01, 91.82 0, 181.6 1.21 M0.31 0.07 C60.94 -0.75, 122.53 -0.64, 180.62 -0.57 M182.64 -1.85 C181.09 12.66, 180.69 22.72, 180.09 52.86 M180.56 -0.02 C180.36 14.86, 180.24 30.89, 180.31 52.6 M182.15 50.09 C117 54.33, 56.7 55.48, 1.16 50.64 M180.97 51.78 C136.92 51.33, 94.32 52.52, 0 51.72 M1.62 52.31 C-0.27 39.61, 0.43 29.18, -0.46 -1.41 M-0.53 52.61 C0.66 38.93, -0.21 24.35, -0.27 -0.09" stroke="#000000" stroke-width="1" fill="none"></path></g><g transform="translate(630.5 148) rotate(0 54 13)"><text x="54" y="19" font-family="Virgil, Segoe UI Emoji" font-size="20px" fill="#000000" text-anchor="middle" style="white-space: pre;" direction="ltr">cloe-models</text></g><g stroke-linecap="round" transform="translate(368 229) rotate(0 90.5 26)"><path d="M0 0 C0 0, 0 0, 0 0 M0 0 C0 0, 0 0, 0 0 M-0.89 5.74 C1.47 4.37, 3.86 2.2, 5.57 0.55 M-0.04 6.48 C0.79 4.77, 1.99 3.41, 4.6 0.58 M1.1 13.04 C4.52 7.32, 7.03 4.97, 10.22 0.34 M0.42 11.44 C3.65 6.85, 7.98 2.73, 10.48 0.05 M-1.37 16.72 C5.31 10.64, 11.2 4.57, 13.77 0.39 M0.27 19.07 C4.26 12.71, 10.13 7.05, 15.12 1 M-1.29 25.34 C9.07 15.37, 17.27 7.11, 22.92 0.36 M0.65 23.25 C4.13 19.37, 8.86 14.74, 21.76 -1.05 M-1.28 29.33 C7.61 24.37, 13 16.25, 25.55 -1.19 M-0.76 30.68 C7.09 22.03, 15.11 14.68, 27.17 -0.21 M0.34 34.9 C7.2 24.4, 17.03 15.89, 30.94 -1.57 M0.53 36.36 C8.64 27.02, 17.27 17.03, 31.14 0.78 M1.43 42.01 C14.49 27.44, 27.13 8.85, 35.96 1.61 M0.69 42.39 C7.99 32.93, 15.78 23.49, 36.98 0.36 M1.61 48.07 C10.9 37.88, 22.52 23.95, 43.93 -0.17 M-0.71 48.09 C13.94 33.46, 27.61 17.21, 43.45 -1.09 M1.73 52.55 C10.57 43.12, 20.67 31.34, 46.87 1.13 M1.89 53.96 C11.58 41.79, 22.1 31.18, 47.25 0.58 M6.16 52.53 C21.4 38.9, 33.63 21.15, 52.34 -0.45 M6.6 53.48 C17.73 41.78, 27.16 29.67, 52.98 0 M13.78 53.05 C25.92 35.68, 40.55 22.02, 57.77 -1.44 M12.07 52.94 C31.08 31.89, 48.85 11.86, 57.62 0.15 M18.73 54.61 C26.46 41.66, 36.85 29.96, 65.24 0.47 M16.53 53.18 C35.73 33.09, 53.17 11.92, 64.46 -0.95 M21.36 51.04 C35.41 40.56, 48.53 25.27, 67.83 1.92 M23.81 52.84 C41.21 32.05, 59.66 10.76, 69.64 -0.39 M26.45 53 C42.15 39.9, 54.23 22.15, 76.38 -0.72 M27.77 54.2 C40.16 38.65, 53.98 21.87, 74.03 0.38 M34.09 53.36 C48.98 35.8, 64.14 17.8, 77.87 0.09 M34.32 53.91 C48.25 37.67, 62.14 20.5, 79.79 -0.67 M37.99 54.69 C47.21 42.38, 59.2 31.12, 86.16 0.52 M37.85 52.84 C49.39 39.48, 60.43 26.87, 84.25 0.64 M44.25 54.67 C61.26 33.73, 80.48 11.86, 88.37 0.8 M43.23 52.75 C58.6 34.88, 74.61 18.99, 90.47 0.49 M49.72 53.54 C59.49 40.62, 71.86 26.36, 95.64 -1.39 M48.24 54.22 C66.11 33.93, 84.05 12.75, 95.11 -0.18 M52.77 51.5 C69.74 35.89, 88.14 14.35, 101.46 0.59 M55.59 53.28 C69.24 36.9, 81.61 22.06, 100.99 0.12 M59.64 52.22 C74.89 34.78, 93.4 16.8, 104.52 -0.25 M59.32 53.3 C72.27 38.32, 84.05 24.53, 107 0.22 M66.57 52.95 C83.72 33.97, 102.21 11.56, 110.94 -1.11 M64.2 54.48 C74.64 43.04, 83.92 32, 110.6 0.07 M69.41 52.27 C87.16 38.06, 102.27 18.13, 116.51 0.79 M69.39 53.88 C85.87 35.77, 100.41 17.83, 117.11 0.24 M75.21 51.73 C90.95 36.38, 103.66 21.99, 120.24 -0.07 M75.27 54.44 C85.99 40.3, 97.86 26.42, 121.47 0 M82.37 52.06 C93.53 36.61, 108 20.87, 127.96 0.14 M81.68 53.55 C99.42 32.65, 116.66 12.04, 126.99 0.33 M84.94 54.62 C103.88 33.93, 120.75 12.45, 132.47 -1.19 M85.45 53.81 C103.81 32.15, 121.67 12.53, 131.67 0.43 M93.47 52.8 C101.96 39.04, 113.83 24.26, 137.88 0.32 M91.33 52.78 C106.08 36.52, 122.2 18.69, 137.66 0.54 M95.3 53.52 C108.94 40.15, 122.17 26.25, 144.39 -0.53 M97.48 53.81 C114.56 34.31, 132.07 12.5, 142.22 -0.31 M103.37 52.57 C116.99 36.09, 133.35 18.87, 148.62 -1.07 M102.42 53.81 C113.24 39.89, 124.33 28.61, 147.21 0.49 M108.52 52.16 C119.89 38.44, 135.19 20.55, 152.42 0.68 M106.52 54.01 C123.14 36.09, 138.24 17.78, 154.05 -1.07 M112.34 52.27 C125.22 36.81, 140.75 21.47, 159.17 -0.56 M112.94 53.76 C125.32 40.81, 135.09 26.6, 159.16 1.13 M119.45 52.13 C130.19 36.66, 145.49 22.45, 162.61 -1.92 M117.14 53.3 C137.57 31.99, 154.5 10.67, 165 -0.85 M122.33 53.65 C135.02 37.12, 146.76 26.65, 171.17 1.13 M123.81 53.54 C140.52 33.77, 157.42 15.58, 169.45 -0.26 M129.63 54.84 C141.74 38.88, 151.74 24.69, 176.71 -1.86 M128.35 52.88 C138.95 39.9, 150.94 27.47, 174.85 0.16 M134.95 53.29 C151.19 33.84, 167.43 12.65, 178.92 1.15 M133.85 52.92 C149.7 33.4, 165.45 15.55, 179.43 0.93 M137.23 51.56 C150.8 41.99, 161.22 30.72, 184.12 2.41 M138.55 53.31 C155.06 33.85, 171 16.3, 184.33 1.87 M145.46 52.64 C159.11 39.95, 171.06 25.74, 184.19 8.78 M144.82 53.47 C155.21 40.52, 164.41 29.47, 183.67 7.92 M151.08 53.4 C162.24 39.73, 174.65 27.67, 185.33 12.62 M150.61 53.44 C157.03 44.39, 164.41 36.17, 183.49 14.3 M156.76 51.98 C163.73 43.31, 169.57 35.24, 184.51 22.33 M154.41 53.61 C165.67 42.57, 174.06 31.15, 183.31 20.45 M160.69 53.3 C167.3 46.02, 174.09 37.78, 184.9 26.7 M160.78 53.5 C166.7 46.84, 172.49 40.82, 183.75 26.7 M165.43 52.43 C169.72 49.03, 176.1 43.05, 183.45 32.68 M165.22 53.56 C171.44 46.23, 178.57 39.97, 183.25 33.35 M170.24 52.13 C176.26 47.83, 180.17 42.29, 184.44 37.09 M171.71 53.95 C174.53 49.28, 177.59 44.87, 183.85 38.7 M176.12 53.47 C178.64 50.73, 179.01 47.93, 182.8 44.45 M176.17 52.61 C179.11 50, 181.75 47.41, 184.24 44.54" stroke="#ced4da" stroke-width="0.5" fill="none"></path><path d="M-0.87 -1.91 C58.35 0.86, 114.33 -0.16, 179.29 -0.6 M-0.21 -0.62 C65.78 -0.54, 131.06 -0.99, 180.68 0.59 M182.94 1.75 C180.92 13.97, 180.18 26.78, 179.85 50.17 M180.81 0.66 C181.08 11.54, 181.6 24.22, 180.48 52.42 M180.48 51.18 C116.94 54.56, 54.22 51.57, 0.93 51.51 M180.6 52.77 C114.01 52.01, 48.65 52.74, 0.23 52.41 M-0.62 53.42 C1.49 39.85, 1.74 25.59, 0.64 -0.88 M-0.43 51.32 C-0.33 38.26, 1.19 25.25, -0.31 -0.06" stroke="#000000" stroke-width="1" fill="none"></path></g><g transform="translate(434 242) rotate(0 24.5 13)"><text x="24.5" y="19" font-family="Virgil, Segoe UI Emoji" font-size="20px" fill="#000000" text-anchor="middle" style="white-space: pre;" direction="ltr">fable</text></g><g stroke-linecap="round" transform="translate(871 10) rotate(0 127.5 26)"><path d="M0 0 C0 0, 0 0, 0 0 M0 0 C0 0, 0 0, 0 0 M0.28 5.8 C1.33 4.19, 2.83 1.78, 4.21 0.25 M-0.45 6.75 C2.21 3.84, 4.3 1.94, 4.93 0.35 M1.53 11.17 C3.31 7.75, 8.26 2.47, 10.35 1.31 M0.92 11.85 C3.79 8.52, 7.87 3.27, 11.32 -0.42 M-0.88 19.67 C6.49 11.92, 12.6 5.63, 16.03 0.42 M-0.89 18.43 C5.32 12.35, 10.39 6.82, 16.58 1.25 M1.05 22.5 C5.83 15.5, 15.43 6.2, 22.65 -0.99 M0.83 24.48 C6.09 16.29, 13.47 8.34, 20.79 -0.54 M-1.57 32.31 C8.03 24.56, 11.84 17.12, 28.01 -0.46 M-0.82 30.84 C10.17 18.97, 19.88 6.56, 26.09 -0.01 M0.62 37.69 C4.91 31.37, 12.69 22.56, 32.15 -0.84 M-0.27 36.34 C11.49 23.79, 21.33 10.67, 32.83 -0.63 M-0.99 42.78 C13.51 30.22, 23.82 12.32, 35.5 -0.38 M0.54 42.79 C13.09 26.66, 26.21 13.04, 37.27 0.6 M0.54 49.06 C12.95 36.96, 24.03 22.19, 41.5 -1.16 M-1.02 48.97 C13.88 32.11, 29.1 14.76, 42.58 -0.17 M2.99 54.18 C17.45 35.82, 29.66 23.58, 46.86 0.48 M1.41 52.49 C18.15 31.87, 36.73 11.96, 48.39 0.08 M5.2 53.52 C23.71 33.31, 37.98 14.52, 52.21 1.46 M6.69 53.62 C24.12 32.37, 42.25 11.8, 53.82 -0.07 M13.88 52.75 C26.71 38.26, 40.76 20.77, 56.3 1.6 M11.37 52.99 C24.64 38.62, 37.3 23.16, 59.02 -0.7 M16.3 53.42 C32.53 37.86, 45.57 20.54, 62.67 -0.92 M17.73 53.28 C29.2 40.84, 39.36 28.87, 64.16 0.13 M23.02 52.96 C39.65 33.97, 52.71 17.21, 69.85 0.1 M22.81 52.41 C38.84 36.38, 52.43 18.34, 69.05 0.1 M26.08 54.31 C37.6 42.22, 47.44 31.09, 74.08 -1.61 M28.01 53.35 C41.01 39, 53.38 24.52, 74.05 -0.65 M33.72 53.42 C47.47 36.87, 65.35 16.58, 79.42 0.78 M34.08 52.73 C49.58 34.19, 64.32 17.28, 79.71 0.22 M36.55 52.86 C57.83 31.9, 74.14 11.99, 84.51 -1.23 M38.69 52.64 C53.33 35.38, 69.64 17.65, 85.75 -0.08 M42.2 53.36 C55.36 40.05, 66.41 28.26, 88.73 -1.91 M43.41 53.32 C63.13 31.46, 81.21 9.85, 90.58 0.31 M49.57 51.38 C66.18 34.39, 81.16 13.8, 94.87 -1.75 M49.28 52.88 C61.11 39, 73.79 24.51, 96.36 0.58 M55.47 54.67 C73.6 31.13, 93.62 12.3, 99.36 -1.87 M53.82 52 C69.33 36.35, 82.6 20.8, 100.53 0.97 M60.84 51.85 C74.01 37.89, 91.23 18.22, 106.91 -0.5 M60.59 53.7 C70.77 40.15, 80.03 29.49, 106.81 -0.49 M64.76 52.68 C77.02 36.62, 90.6 24.24, 112.74 0.65 M65.53 52.76 C77.23 39.53, 91.17 24.3, 110.78 -0.29 M69.92 53.91 C82.5 41.52, 91.59 28.68, 116.57 0.62 M69.79 53.7 C85.5 36.74, 100.34 19.76, 116.2 0.05 M74.09 55.08 C83.65 41.95, 94.78 30.23, 120.12 1.06 M75.53 53.75 C90.99 35.82, 105.86 17.38, 121.87 -0.06 M82.18 52.84 C91 41.9, 101.03 32.12, 126.58 2.08 M81.34 53.34 C97.71 32.56, 115.56 12.69, 127.41 0.71 M86.37 52.5 C96.68 40.62, 106.25 32.8, 132.62 0.45 M86.7 52.8 C98.33 37.35, 113.86 22.75, 132.67 0.03 M90.87 53.59 C102.4 39.12, 113.47 27.5, 136.59 1.29 M92.07 54.06 C102.51 41.02, 112.05 28.66, 138.21 0.68 M96.02 53.45 C114.74 31.5, 130.76 13.39, 143.19 -0.46 M97.38 53.41 C111.93 34.48, 128.52 17.74, 143.39 0.24 M103.05 52.76 C116.17 35.9, 131.3 17.4, 147.7 -0.43 M102.1 53.18 C118.73 34.01, 135.27 14.26, 148.84 -0.18 M106.26 55.12 C122.39 34.69, 135.26 18.71, 152.63 0.71 M107.74 52.5 C119.87 39.19, 133.46 24.97, 154.54 -0.22 M113.66 52.61 C127.12 35.59, 144.38 16.91, 159.9 0.86 M111.9 52.96 C126.5 38.43, 139.23 22.88, 158.35 0.42 M119.21 53.35 C129.35 37.21, 142.31 23.45, 163.57 -2.01 M118.79 53.41 C130.99 39.14, 142.5 24.88, 164 -0.25 M123.46 51.06 C135.42 40.89, 148.79 23.12, 169.99 1.78 M123.27 53.59 C141.64 33.09, 160.09 13.15, 169.65 0.17 M129.79 52.63 C139.55 43.64, 149.25 29.22, 174.5 -0.91 M129.36 52.92 C142.89 37.79, 158.34 20.72, 175.93 0.2 M133.06 51.67 C146.78 37.84, 163.52 17.78, 181.63 1.62 M134.32 52.16 C145.42 40.54, 157.85 26.63, 180.45 -0.8 M139.79 52.1 C156.18 35.85, 172.52 13.41, 185.75 -0.63 M139.12 54.2 C156.07 35.73, 171.4 16.43, 185.85 -0.91 M144.9 53.67 C158.13 34.47, 173.23 16.4, 191.32 0.29 M144.51 53.69 C161 34.88, 176.91 15.78, 190.32 1.06 M147.84 51.58 C162.3 39.63, 174.36 28.11, 197.49 -0.19 M149.55 53.86 C168.3 32.8, 184.84 13.43, 195.61 -0.7 M157.29 53.95 C171.72 34.46, 189.27 11.48, 202.39 0.4 M155.61 52.14 C172.78 34.11, 189.27 14.17, 201.62 -0.29 M159.39 53.52 C174.07 37.91, 185.89 24.9, 207.74 1.1 M160.96 52.94 C175.19 36.74, 188.48 20.66, 206.37 -0.37 M166.37 53.05 C182.22 32.93, 199.05 16.15, 211.05 1.17 M166.73 53.36 C177.5 40.56, 188.21 26.74, 212.57 0.55 M172.77 53.04 C184.82 37.9, 198.65 23.69, 218.34 1.55 M171.51 53.9 C185.88 35.94, 200.41 19.24, 217.62 -0.18 M176.12 53.16 C185.48 40.14, 195.37 30.59, 224.31 0.51 M177.31 52.15 C192.48 34.01, 207.09 17.66, 222.19 -0.61 M181.12 51.91 C195.69 37.88, 206.52 20.69, 229.02 -0.86 M182.16 53.6 C195.08 37.45, 209.85 21.24, 228.2 -0.5 M187.71 52.88 C200.86 38.6, 213.91 20.48, 234.06 0.97 M187.44 53.98 C200.73 37.91, 214.18 22.43, 233.37 -0.55 M190.46 52.57 C207.98 36.23, 222.48 20.35, 238.65 2.25 M191.72 52.33 C203.58 41.83, 213.32 28.67, 238.59 0.01 M196.12 54.22 C210.55 39.62, 219.99 27.23, 243.01 -0.23 M197.54 52.96 C213.55 34.01, 230.14 14.73, 243.77 0.41 M201.61 52.11 C217.84 36.65, 232.28 19.63, 249.93 0.67 M203.81 52.83 C222.05 32.68, 239.09 10.33, 248.6 0.33 M208.21 53.1 C221.49 38.33, 232.8 26.14, 254.73 -1.23 M207.35 53.4 C219.04 41.27, 231.04 26.29, 254.94 -0.67 M212.27 52.25 C223.53 39.11, 237.74 25.02, 257.49 2.37 M213.9 53.23 C228.29 37.59, 241.98 21, 258.4 2.88 M219.35 54.34 C226.31 43.29, 237.1 33.23, 256.39 6.8 M217.64 53.79 C230.74 40.35, 241.15 26.01, 257.98 8.02 M222.97 53.41 C235.08 41.07, 241.79 31.14, 257.83 15.48 M224.26 52.09 C235.68 41.55, 244.81 27.47, 257.57 14.56 M230.74 54.41 C234.58 46.45, 242.79 37.43, 258.54 21.26 M228.47 52.51 C238.38 44.75, 245.7 33.89, 256.38 21.62 M235.08 52.64 C240.77 44.27, 250.17 36.35, 258.41 28.46 M235.02 53.4 C242.03 45.63, 247.43 37.63, 257.1 25.81 M239.42 51.44 C245.14 48.61, 245.35 45.47, 255.86 32.71 M240.24 52.89 C244.81 47.46, 248.93 42.08, 257.71 32.2 M244.86 53.62 C250.29 48.35, 254.25 45.39, 256.08 39.2 M245.12 53.54 C248.26 48.45, 252.01 45.44, 258.75 38.79 M251.43 54.4 C252.06 49.99, 256 48.24, 258.18 45.8 M250.57 53.82 C252.47 51.17, 254.93 48.31, 257.92 45.18" stroke="#fab005" stroke-width="0.5" fill="none"></path><path d="M0.16 0.17 C67.81 1.92, 137.31 2.95, 254.31 0.56 M0.57 -0.01 C88.84 1.21, 176.33 0.53, 254.33 -0.05 M256.85 -1.9 C253.01 18.11, 256.06 36.54, 254.5 51 M254.68 0.45 C253.91 19.88, 254.76 41.09, 255.91 51.94 M254.58 52.57 C178.51 54.34, 101.04 52.98, -0.72 53.29 M254.67 51.89 C168.39 50.61, 82.28 50.59, 0.05 52.65 M-0.34 52.34 C0.24 37.52, -0.94 23.78, 0.03 -0.35 M-0.19 51.18 C0.9 39.49, -0.5 27.23, -0.07 0.71" stroke="#000000" stroke-width="1" fill="none"></path></g><g transform="translate(901.5 23) rotate(0 96 13)"><text x="96" y="19" font-family="Virgil, Segoe UI Emoji" font-size="20px" fill="#000000" text-anchor="middle" style="white-space: pre;" direction="ltr">cloe-plugin-minimator</text></g><g stroke-linecap="round" transform="translate(868 81) rotate(0 127.5 26)"><path d="M0 0 C0 0, 0 0, 0 0 M0 0 C0 0, 0 0, 0 0 M-0.48 6.62 C2.22 3.69, 3.99 1.6, 4.93 -0.42 M0.12 6.12 C1.81 4.46, 3.54 1.85, 5.32 0.43 M-1.36 10.68 C3.58 7.43, 8.28 4.16, 11.46 -0.8 M0.33 11.64 C3.28 7.39, 7.27 4.14, 11.28 0.7 M0.39 16.74 C4.88 12.09, 8.83 9.82, 15.75 -0.34 M-0.01 19.02 C3.52 14.14, 6.21 10.64, 15.4 0.13 M-0.62 25.49 C7.64 14.45, 18.72 3.34, 21.65 -1.94 M0.25 24.88 C5.77 17.49, 12.48 9.16, 20.64 -0.04 M1.87 30.33 C6.15 24.7, 13.14 16.78, 26.79 -0.68 M0.77 29.71 C8.79 19.59, 18.56 9.71, 26.49 -0.08 M1.51 37.61 C7.25 26.41, 17.02 17.74, 30.35 -0.68 M-0.64 37.39 C10.41 24.99, 21.92 10.71, 31.59 -0.85 M0.56 42 C8.21 32.63, 15.57 23.04, 37.56 2.21 M-0.28 43.19 C9.97 31.39, 18.17 21.97, 37.32 1.19 M1.45 48.14 C13.58 34.03, 29.33 15.72, 44.49 -0.2 M0.28 48.76 C10.22 37.39, 21.27 24.16, 42.83 -0.25 M0.33 53.36 C18.89 34.23, 36.77 14.76, 46.36 1.01 M1.74 53.18 C19.09 34.17, 35.21 13.1, 48.49 -0.48 M7.26 53.09 C23.52 33.02, 40.71 16.11, 54.4 -0.67 M6.61 53.73 C20.62 36.23, 36.22 18.42, 52.84 -0.1 M11.28 53.34 C25.47 37.24, 41.49 22.78, 60.1 -1.78 M12.24 52.71 C27.47 36.65, 40.49 18.14, 58.07 -0.17 M19.12 52.1 C37.57 31.29, 54.05 13.51, 64.09 -1.4 M16.83 54.17 C32.03 36.73, 45.69 20.85, 62.99 -0.46 M24.12 51.3 C39.68 32.65, 59.44 11.02, 68.39 0.22 M22.46 52.22 C40.38 33.43, 58.91 12.83, 68.5 -0.63 M26.55 54.2 C40.91 39.17, 51.18 24.57, 73.24 1.14 M28.54 53.79 C39.96 39.44, 52.7 24.99, 74.58 -0.53 M34.39 52.9 C46.21 39.59, 55.46 26.94, 77.45 -0.81 M32.79 52.44 C45.24 38.69, 55.44 27.22, 79.69 0.7 M39.67 53.71 C55.37 32.79, 71.81 14.53, 83.16 -0.67 M38.7 53.11 C52.71 37.57, 66.08 21.92, 85.84 0.3 M43.28 52.64 C61.8 32.37, 80.72 12.39, 88.18 -0.82 M44.5 51.92 C56.05 40.35, 67.45 26.47, 89.96 0.75 M47.26 52.81 C67.26 36.21, 82.18 15.54, 94.82 0.39 M48.66 52.96 C60.32 40.24, 72.48 26.44, 94.92 -0.52 M55.64 51.87 C64.76 37.9, 77.76 28, 102.15 -1.9 M54.81 52.05 C70.46 34.39, 87.33 15.39, 101.02 -0.27 M58.74 51.5 C75.58 36.38, 90.48 18.55, 106.87 0.37 M59.24 53.52 C77.19 32.15, 95.56 11.22, 106.89 0.26 M65.33 53.53 C80.25 34.97, 95.68 18.67, 111.57 1.66 M65.2 52.77 C81.45 33.4, 98.12 14.81, 111.04 0.2 M70.2 53.65 C82.83 42.08, 94.22 27.36, 116.93 -1.05 M69.65 53.28 C84.64 36.48, 99.11 20.93, 116.09 -0.49 M75.81 53.13 C85.26 41.1, 93.65 32.48, 121.29 1.46 M75.02 52.63 C88.26 37.57, 101.31 21.87, 121.6 0.05 M82.39 52.96 C92.15 39.13, 103.97 24.96, 126.26 -1.65 M80.53 54.06 C92.44 39.62, 104.02 28.24, 127.74 -0.37 M86.26 53.31 C97.63 42.68, 105.71 31.15, 130.86 0.9 M86.61 54.23 C96.17 41.38, 105.49 30.17, 132.69 -0.5 M90.7 54.97 C102.72 42.22, 114.58 29.17, 137.82 1.93 M90.94 54.01 C109.42 32.98, 126.77 14.95, 137.02 0.15 M96.16 54.79 C111.7 37.97, 124.53 20.62, 144.43 1.25 M96.86 54.27 C106.65 41.28, 116.94 30.01, 143.74 0.08 M103.18 55.08 C109.99 43.51, 121.18 29.91, 148.85 1.12 M101.37 52.63 C114.04 37.5, 128.18 23.5, 148.69 -0.37 M106.63 55.12 C123.04 34.48, 140.33 16.21, 152.86 -0.37 M107.58 53.27 C119.97 41.19, 131.79 26.91, 154.59 -0.32 M114.56 52.52 C126.31 38.18, 139.1 20.24, 160.27 2.21 M112.72 53.71 C126.41 35.75, 140.91 20.76, 159.43 -0.5 M118.47 54.72 C134.6 34.46, 151.66 14.7, 163.64 -1.01 M118.53 52.58 C130.22 39.68, 141.65 27.46, 164.5 -0.51 M124.19 52.37 C133.6 39.76, 145.45 26.09, 170.65 0.31 M123.32 52.4 C133.13 42.26, 142.52 31.05, 168.84 0.99 M130.12 54.83 C146.04 32.86, 163.43 14.94, 174.91 -1.89 M128.37 53.37 C138.66 41.89, 149.68 29.9, 175.17 -0.97 M134.1 51.55 C147.19 35.94, 160.36 22.6, 178.22 1.4 M133.92 52.15 C148.07 36.88, 162.85 21.3, 180.44 0.17 M139.69 51.55 C152.15 38.05, 167.32 18.67, 185.47 1.66 M139.67 53.64 C156.86 31.96, 176.39 11.15, 185.71 -0.83 M142.98 52.82 C153.81 41.41, 163.68 30.4, 190.87 0.29 M144.7 53.76 C157.59 37.21, 172.62 21.73, 190.68 0.92 M150.93 53.81 C162.29 40.03, 175.19 22.65, 196.8 -1.91 M149.96 53.24 C161 41.63, 171.95 29.7, 195.63 -0.91 M156.15 54.8 C169.64 36.09, 186.25 18.38, 200.13 -1.36 M156.24 52.36 C168.38 37.82, 180.73 23.4, 201.92 -0.02 M159.25 53.39 C175.34 34.6, 193.39 16.17, 207.01 -2.25 M160.65 52.81 C170.82 41.55, 180.38 31.73, 207.91 -0.71 M167.61 53.93 C180.02 33.77, 195.21 18.4, 211.2 -1.06 M166.56 52.39 C180.9 36.3, 195.84 18.16, 211.46 -0.1 M169.73 54.92 C180.79 40.25, 192.56 28.73, 216.87 -1.19 M170.1 52.85 C184.22 38.32, 196.31 24.65, 217.9 0.62 M178.02 54.51 C185.7 43.72, 197.5 31.36, 220.92 -1.46 M176.1 52.63 C189.5 37.95, 200.69 23.21, 222.5 0.05 M183.1 53.87 C197.85 32.55, 215.29 14.8, 227.81 1.27 M182.58 52.68 C198 34.12, 214.91 15.8, 228.41 -0.75 M188.01 55.44 C201.05 33.66, 218.91 16.65, 231.82 -0.38 M186.06 53.94 C204.34 32.41, 222.51 12.41, 233.18 -0.36 M193.74 54.55 C201.33 41.79, 209.35 33.38, 239.26 1.77 M191.3 53.43 C204.49 39.71, 217.78 25.14, 238.01 0.43 M198.86 53.19 C206.77 40.22, 216.12 28.39, 242.05 -0.78 M198.04 53.25 C208.14 40.74, 220.07 26.77, 243.55 0.71 M203.68 52.11 C213.45 39.53, 225.88 25.51, 249.28 0.47 M203.35 53.09 C214.22 41.46, 223.6 28.55, 248.63 0.48 M206.53 52.34 C220.39 39.09, 236.19 23.24, 255.43 -0.8 M207.08 53.07 C222.21 37.18, 236.56 20.76, 254.58 -0.88 M212.62 54.56 C226.89 37.47, 241.81 21.69, 258.64 1.96 M212.79 53.45 C226.06 36.54, 241.16 21.98, 256.73 2.55 M218.31 52.57 C229.48 41.03, 243.94 26.44, 256.22 8.6 M219.3 53.49 C230.24 38.74, 242.52 25.66, 257.97 7.87 M223.93 52.73 C232.2 42.77, 240.37 35.3, 256.84 13.17 M223.58 53.14 C235.88 38.63, 248.83 25.1, 258.22 13.69 M230.11 55.39 C234.74 46.85, 241.92 38.72, 256.85 21.19 M228.26 53.93 C236.35 45.2, 242.64 37.57, 256.81 21.69 M234.59 54.32 C240.56 43.73, 250.53 37.02, 259.12 27.53 M234.59 52.62 C243.83 43.73, 252.08 33.49, 258.54 25.89 M240.52 54.16 C244.89 49.77, 248.29 40.28, 258.68 32.11 M239.91 54.13 C244.54 47.65, 249.71 43.06, 257.43 32.67 M245.29 53.81 C248.43 49.94, 254.09 45.47, 256.89 38.13 M244.67 53.17 C248.66 50.18, 251.5 46.6, 258.01 38.31 M249.52 52.66 C252.37 50.56, 253.93 48.36, 258.66 44.13 M250 53.26 C252.08 51.36, 254.18 48.28, 257.74 44.87" stroke="#fab005" stroke-width="0.5" fill="none"></path><path d="M0.06 0.27 C84.05 1.4, 170.59 1.52, 256.01 1.4 M-0.74 0.03 C63.83 1.44, 128.1 1.26, 255.1 0.55 M253.84 -0.43 C255.75 14.79, 254.35 31.07, 253.51 50.58 M255.95 0.39 C254.48 13.68, 255.47 26.84, 255.8 52.17 M255.37 52.08 C170.99 51.32, 86.83 52.24, -1.6 53.41 M254.6 52.81 C174.09 53.09, 93.02 52.54, 0.35 51.98 M1.44 51.18 C-0.9 34.64, 1.9 19.6, 0.76 0.17 M0.5 52.83 C-0.26 39.96, -0.4 29.56, 0.63 0.84" stroke="#000000" stroke-width="1" fill="none"></path></g><g transform="translate(926 94) rotate(0 68.5 13)"><text x="68.5" y="19" font-family="Virgil, Segoe UI Emoji" font-size="20px" fill="#000000" text-anchor="middle" style="white-space: pre;" direction="ltr">cloe-plugin-vtd</text></g><g stroke-linecap="round" transform="translate(869 163) rotate(0 127.5 26)"><path d="M0 0 C0 0, 0 0, 0 0 M0 0 C0 0, 0 0, 0 0 M-0.91 6.02 C0.95 5.24, 3.58 3.47, 4.53 0.45 M-0.02 6.01 C1.68 4.55, 3.12 2.44, 4.73 0.69 M0.28 11.94 C1.66 9.65, 5.78 4.74, 12.12 -1.38 M-0.3 11.98 C4.01 7.67, 6.58 4.04, 10.64 -0.39 M-2 19.82 C3.52 12.12, 8.15 7.43, 14.39 1.38 M-0.11 19.14 C4.65 13.54, 9.1 7.46, 16.05 0.41 M-0.16 23.05 C7.45 16.97, 13.13 9.06, 20.46 -0.14 M-0.17 23.56 C5.43 18.08, 9.49 11.98, 21.68 -0.94 M-1.33 32.34 C8.93 18.45, 17.81 7.81, 24.67 0.64 M0.02 30.2 C7.47 21.07, 16.06 13.38, 25.71 0.42 M1.43 35.58 C10.32 25.36, 21.58 14.6, 32.72 1.11 M-0.53 37.76 C8.7 26.83, 18.29 16.42, 31.37 -1.06 M-1.3 43.65 C9.64 29.9, 20.99 18.89, 38.26 0.71 M0.38 42.7 C9.68 32.81, 16.96 23.15, 37.55 -0.7 M0.11 50.21 C12.24 31.07, 29.24 15.85, 43.53 -1.53 M0 48.21 C14.77 32.52, 29.36 15.34, 42.76 0.1 M-0.23 52.52 C10.19 40.62, 19.8 31.35, 47.6 0.59 M1.26 53.12 C14.47 40.13, 26.71 24.51, 47.68 0.59 M8.35 55.01 C23.41 30.75, 42.72 11.07, 55.01 -2 M7.35 52.7 C15.8 43.27, 25.97 30.38, 53.21 0.39 M14 51.85 C23.61 40.32, 32 27.79, 59.98 1.93 M11.85 53.32 C28.3 34.95, 43.51 16.83, 58.99 0.21 M16.93 54.52 C30.69 40.75, 40.54 24.93, 63.11 1.43 M17.76 53.23 C27.11 41.27, 37.11 30.68, 63.42 -0.42 M22.27 53.81 C38.15 35.31, 53.58 16.8, 67.52 -0.98 M23.6 52.7 C38.56 34.22, 53.69 15.64, 68.22 -0.47 M28.17 51.45 C43.91 34.53, 63.8 14.48, 75.62 0.15 M27.95 52.78 C42.3 36.13, 56.26 18.89, 74.43 0.36 M34.52 53.64 C46.04 39.81, 60.97 24.26, 81.19 0.84 M33.47 53.01 C48.77 36.61, 61.92 19.03, 78.95 0.32 M39.15 54.64 C49.89 40.97, 61.23 28.49, 86.18 1.19 M39.43 54.17 C49.65 41.33, 59.69 29.42, 84.58 -0.65 M42.5 54.28 C58.2 37, 72.46 18.55, 88.8 0.99 M43.76 51.94 C62.56 32.79, 80.66 10.71, 90.56 -0.21 M47.81 53.58 C62.93 37.34, 77.5 21.11, 96.28 1.25 M49.54 53.67 C63.13 38.39, 76.78 22.81, 96.57 0.1 M53.82 52.29 C67.52 37.1, 82.16 24.07, 101 -0.24 M55.08 52.08 C69.39 36.18, 83 21.18, 101.28 -0.43 M58.94 52.43 C76.12 33.93, 94.65 12.93, 105.24 0.68 M60.43 53.98 C69.99 42.12, 79.07 30.59, 106.4 0.05 M65.28 52.64 C79.1 39.33, 90.54 22.12, 109.3 -1.93 M64.74 52.72 C77.63 38.36, 91.27 23.38, 111.16 0.69 M70.16 51.98 C83.25 36.14, 97.08 22.47, 115.58 2.24 M70.09 53.19 C83.25 37.39, 97.08 20.71, 115.75 0.36 M75.5 51.72 C85.52 43.95, 96 30.17, 120.04 -0.49 M76.31 53.79 C92.05 34.52, 107.55 15.96, 121.08 0.63 M81.93 51.69 C92.1 38.31, 104.96 24.29, 125.63 2.09 M81.34 53.84 C93.67 39.81, 104.54 26.9, 127.62 -0.2 M86.94 51.82 C98.78 42.05, 107.06 27.77, 132.4 0.32 M86.76 53.41 C96.55 40.69, 106.84 30.75, 131.75 0.28 M91.57 51.69 C102.42 39.84, 114.37 28.07, 135.59 0.31 M90.83 53.89 C109.14 31.72, 126.95 12.56, 137.33 0.38 M94.6 52.13 C113.33 35.9, 129.38 16.48, 144.41 -0.59 M96.01 53.87 C113.76 34.05, 131.03 13.02, 142.7 -1.04 M103.24 54.75 C112.98 42.03, 123.14 30.33, 148.17 -0.13 M102.02 53.71 C117.33 34.09, 135.03 16.83, 148.21 1.22 M107.31 51.51 C124.75 34.63, 141.31 14.04, 154.96 0.32 M107.33 53.38 C117.66 40.93, 127.25 29.05, 153.29 -0.62 M113.94 52.29 C127.59 38.4, 141.24 19.86, 157.9 1.4 M112.22 53.09 C124.29 39.12, 137.69 25.22, 157.92 0.41 M117.73 54.46 C131.4 38.33, 145.46 22.31, 165.76 1.27 M118.3 53.07 C134.2 34.99, 149.65 15.08, 163.72 0.72 M123.5 54.41 C137.6 39.65, 150.33 20.95, 169.18 1.2 M123.55 52.25 C140.27 34.27, 156.05 15.49, 169.44 -0.06 M128.39 53.16 C145.01 37.39, 158.7 20.03, 175.36 1.12 M127.85 54 C138.64 40.88, 149.59 30.17, 176.01 -0.45 M132.61 51.85 C145.41 39.98, 155.4 26.88, 178.24 1.21 M133.99 52.84 C150.08 35.07, 165.69 17.45, 180.07 0.71 M137.63 53.41 C152.36 39.75, 163.84 26.15, 185.19 1.41 M139.22 54.15 C154.79 34.5, 170.69 16.01, 185 -1.13 M144.82 54.01 C157.47 40.67, 168 23.24, 191.17 -0.97 M144.3 52.91 C154.83 40.84, 163.7 29.1, 190.46 -0.44 M149.67 52.7 C164.03 35.5, 181.62 17.56, 197.47 0.3 M148.98 53.41 C161.22 40.83, 172.54 26.48, 195.38 -0.91 M156.48 50.93 C167.74 40.41, 179.9 26.15, 201.88 1.92 M155.1 51.96 C167.06 38.53, 179.23 23.79, 201.56 0.26 M160.54 54.16 C173.37 37.38, 185.16 23.23, 205.32 -1.36 M160.05 52.61 C174.65 36.82, 187.28 21.5, 206.64 -0.92 M166.82 51.34 C178.3 39.33, 190.71 27.85, 210.13 0.8 M165.84 53.88 C180.88 36.39, 193.45 18.85, 211.67 0.48 M172.14 52.58 C185.8 33.58, 203.11 16.63, 218.67 -2.09 M170.64 52.47 C186.14 35.19, 201.24 18.45, 218.11 -0.92 M175.9 52.6 C190.9 37.27, 205.62 18.9, 223.54 0.23 M175.78 52 C185.47 41.77, 194.07 30.99, 223.41 0.83 M182.21 52.41 C199.35 34.66, 214.32 15.02, 226.29 -1.72 M181.32 52.68 C189.9 42.45, 201.05 31.44, 227.97 -0.22 M185.97 55.49 C200.83 40.3, 212.83 23.64, 231.56 0.45 M186.37 52.83 C201.17 34.86, 216.55 17.34, 232.73 -0.18 M190.31 53.74 C199.49 42.34, 209.81 33.51, 237.15 1.29 M191.97 52.81 C203.7 39.45, 215.14 27.22, 237.53 0.06 M198.09 55.18 C210.57 36.34, 227.55 18.31, 243.48 -0.67 M196.85 54.03 C215.06 34.92, 231.17 15.41, 243.91 0.9 M203.88 54.34 C222.39 33.91, 239.67 10.21, 249.05 0.9 M202.81 53.38 C221.15 32.91, 238.68 12.3, 248.94 0.93 M206.2 51.77 C223.01 38.36, 233.92 22.12, 254.45 -1.58 M207.3 53.95 C219.99 40.65, 229.71 27.93, 254.56 -0.57 M212.18 51.62 C224.96 38.57, 239.22 22.66, 256.65 4.25 M213.39 52.8 C222.84 43.03, 232.47 30.32, 258.2 3.36 M217.74 53.23 C231.23 40.71, 244.36 23.61, 256.24 9.22 M218.32 53.61 C227.41 42.59, 235.61 32.99, 257.39 8.02 M224.31 52.65 C231.84 43.44, 240.89 34.21, 257.57 13.66 M223.57 52.44 C237.65 38.45, 249.82 24.62, 258.23 15.28 M230.98 54.23 C241.4 40.94, 251.68 28.03, 256.94 22.79 M229.32 54.44 C235.87 43.87, 244.51 35.75, 256.94 21.09 M235.23 52.16 C243.99 44.58, 249.84 34.65, 257.32 26.74 M234.55 53.56 C243.58 44.18, 250 34.59, 256.87 26.67 M241.06 54.07 C248.56 44.94, 254.03 36.69, 257.83 34.37 M239.53 53.29 C245.66 46.17, 254.14 37.41, 257.39 32.5 M243.82 54.46 C247.97 47.51, 254.04 43.03, 259.66 37.64 M245.84 52.39 C247.89 50.1, 250.09 46.16, 258.22 37.8 M250.15 54.11 C252.85 50.56, 254.39 47.59, 257.15 44.97 M250.75 53.42 C253.08 50.83, 254.74 48.86, 257.29 45.61" stroke="#fab005" stroke-width="0.5" fill="none"></path><path d="M-0.17 0.12 C101.26 -1.41, 200.97 -0.53, 255.47 -1.34 M-0.03 -0.7 C85.46 -0.35, 170.37 0.6, 255.14 0.35 M255.33 0.63 C255.01 16.98, 255.6 35.39, 255.03 51.97 M254.54 -0.85 C256.32 12.25, 255.75 25.65, 254.13 51.44 M254.11 50.41 C174.1 53.19, 96.45 55.07, -1.45 52.65 M254.82 52.69 C171.9 50.51, 87.9 49.43, 0.5 52.27 M0.73 51.92 C-1.31 35, 0.51 20.95, 1.91 -1.79 M0.45 51.6 C0.2 36.13, 0.07 19.33, 0.78 0.7" stroke="#000000" stroke-width="1" fill="none"></path></g><g transform="translate(919 176) rotate(0 76.5 13)"><text x="76.5" y="19" font-family="Virgil, Segoe UI Emoji" font-size="20px" fill="#000000" text-anchor="middle" style="white-space: pre;" direction="ltr">cloe-plugin-basic</text></g><g stroke-linecap="round" transform="translate(870 236) rotate(0 127.5 26)"><path d="M0 0 C0 0, 0 0, 0 0 M0 0 C0 0, 0 0, 0 0 M-0.72 7.11 C1.44 4.46, 2.11 3.44, 4.95 -0.25 M-0.07 6.24 C1.34 4.54, 2.93 3.1, 4.71 0.24 M0.14 12.37 C2.17 9.33, 4.51 6.01, 9.98 0.51 M0.32 11.71 C4.91 7.9, 8.03 2.43, 10.9 0.32 M-0.57 20.02 C5.21 10.66, 13.95 4.73, 15.82 2.29 M-0.35 18.84 C4.48 12.49, 9.87 7.57, 15.14 0.64 M-1.07 22.82 C6.48 17.54, 12.6 11.5, 21.65 -1.22 M0.49 24.24 C7.36 16.2, 15 7.24, 20.26 0.92 M0.81 31.17 C5.55 23.97, 10.49 17.9, 26.71 1.54 M-0.94 30.52 C7.47 21.21, 14.1 13.42, 25.53 -0.02 M-1.05 35.95 C9.91 24.83, 19.6 15.5, 33.67 1.86 M0.64 36.9 C5.86 30.19, 13.45 21.18, 30.93 -0.18 M-1.62 44.44 C8.17 33.26, 17.71 20.27, 38.73 0.57 M-0.56 42.15 C9.73 33.05, 17.18 22.32, 36.8 -0.54 M0.81 50.2 C9.46 34.34, 23.48 22.6, 42.22 -0.52 M-0.58 48.54 C11.62 33.9, 25.88 19.89, 42.84 -0.4 M-0.09 51.77 C12.78 42.1, 21.79 28.28, 46.89 -0.95 M1.93 53.77 C19.17 33.37, 36.08 14.3, 47.63 0.39 M7.55 54.33 C19.5 40.64, 31.63 24.42, 52.49 -2.12 M7.33 52.73 C18.16 40.29, 29.53 25.64, 53.69 0.12 M12.59 54.23 C28.77 34.22, 43.7 14.94, 58.06 -1.7 M12.05 53.25 C24.88 38.45, 38.31 22.95, 59.01 0.99 M17.55 52.55 C33.13 34.02, 50.2 15.85, 64.51 -2.05 M16.68 53.78 C28.33 39.96, 41.87 25.99, 64.03 -0.28 M21.39 51.15 C38.9 35.24, 57.91 14.18, 68.93 -0.7 M23.07 52.55 C38.16 34.65, 54.54 17.29, 69.26 -0.6 M29.68 54.25 C40.13 37.5, 52.17 24.62, 75.16 1.25 M27.81 53.42 C36.14 41.99, 46.56 31.79, 74.22 0.12 M33.3 51.97 C43.86 39.35, 58.68 24.74, 80.06 0.69 M33.3 52.47 C48.71 34.56, 63.56 17.03, 79.04 0.71 M38.62 53.93 C55.09 34.76, 70.35 16.09, 84.15 0 M39.29 53.8 C55.11 32.65, 73.34 11.96, 85.45 -0.53 M42.18 52.76 C59.44 37.28, 75.08 20.53, 89.82 0.74 M43.88 52.21 C54.63 40.94, 64.58 29.13, 90.34 -0.1 M48.89 53.75 C59.11 42.37, 67.71 30, 96.04 -0.93 M49.05 52.96 C65.63 32.84, 83.36 12.47, 94.75 -0.63 M54.7 54.29 C68.8 35.72, 83.07 19.14, 100.47 -0.59 M53.75 52.43 C65.1 42.38, 72.5 31.99, 101.45 0.89 M60.84 53.54 C70.68 43.02, 82.01 29.24, 106.24 -2.04 M59.34 53.88 C77.06 34.79, 91.8 15.41, 105.94 -0.21 M63.75 52.68 C78.77 40.24, 90.17 27.57, 112.07 0.3 M64.04 52.93 C82.96 33.91, 98.98 13.79, 112.01 -0.5 M68.67 52.77 C84.73 39.69, 96.24 23.89, 114.34 1.63 M69.72 53.47 C88.41 33.64, 103.76 14.29, 116.07 0.93 M77.01 54.51 C92.62 34.99, 106.93 19.87, 120.55 0.66 M75.69 52.69 C90.93 34.19, 106.67 17.15, 122 0.51 M82.44 52.58 C93.16 39.63, 103.09 27.59, 128.76 -0.6 M80.11 53.53 C94.26 38.91, 108.49 23.79, 126.94 1.12 M87.04 55.22 C98.49 38.15, 113.31 22.13, 131.66 1.42 M86.48 53.38 C105.15 31.78, 122.09 10.92, 132.7 0.58 M90.03 53.75 C103 41.27, 111.94 29.71, 136.76 -0.49 M91.72 53.81 C102.85 40.31, 115.12 26.57, 138.23 0.37 M95.91 54.19 C108.51 37.73, 121.54 23.68, 143.03 1.14 M96.68 53.32 C110.65 36.99, 126.04 20.23, 143.73 -0.68 M103.18 54.74 C120.73 33.65, 135.97 14, 149.14 0.11 M102.13 52.98 C112.48 41.32, 123.09 30.32, 149.1 0.38 M108.51 53.43 C116.22 41.41, 126.48 29.44, 154.1 -1.95 M107.38 53.25 C123.22 34.15, 140.8 15.69, 154.05 0.26 M111.46 53.64 C124.75 35.66, 141.54 20.34, 157.51 0.01 M112.22 53.62 C130.76 31.61, 147.99 11.95, 158.55 0.25 M118.61 51.65 C129.38 40.04, 140.38 27.43, 164.17 0.03 M117.51 53.36 C133 35.93, 146.57 20.59, 164.93 -0.17 M124.3 54.21 C141.52 32.85, 160.02 12.96, 168.34 0.68 M123.19 53.24 C133.78 41.98, 144.38 30.68, 170.37 -0.49 M126.79 54.15 C141.17 40.13, 150.14 29.28, 174.38 -1.38 M128.83 54.24 C138.62 41.45, 149.45 28.92, 174.97 0.41 M132.95 51.87 C147.17 36.11, 160.49 22.28, 180.95 0.22 M133.61 53.27 C143.45 43.15, 152.22 32.47, 180.23 1.12 M138.48 54.95 C152.05 38.49, 161.12 24.76, 185.71 -0.98 M138.91 53.9 C149.84 40.3, 162.13 27.29, 185.12 -0.71 M144.54 51.69 C159.88 37.57, 169.86 24.2, 189.49 -0.59 M144.33 52.05 C156.33 40.08, 167.75 26.11, 190.59 0.45 M149.98 54.69 C170.3 31.6, 189.04 12.6, 196.99 -1.91 M150.18 52.77 C160.17 41.62, 170.55 28.24, 195.63 -0.34 M156.01 54.39 C169.62 36.64, 181.28 21.64, 200.96 -0.31 M155.56 53.87 C172.11 32.65, 190.07 12.95, 201.76 0.29 M158.4 54.67 C174.18 37.47, 182.8 25.07, 206.89 -1.68 M160.86 52.73 C173.39 38.14, 185.71 23.38, 207.09 -0.32 M164.16 54.36 C180.05 38.58, 189.76 23.28, 213.21 1.13 M165.82 51.92 C183.41 32.93, 201.14 14.01, 212.86 -0.12 M171.72 54.86 C185.43 36.15, 198.62 18.87, 215.93 -2.12 M170.03 54.04 C183.2 38.28, 196.01 24.37, 217.43 -0.62 M175.63 53.64 C193.11 32.23, 210.63 13.45, 220.91 0.49 M176.97 53.31 C191.06 37.16, 206.07 19.54, 222.85 -0.16 M182.74 51.87 C195.25 35.65, 212.09 21.39, 228.47 0.6 M182.57 52.41 C193.44 39.14, 206.76 25.02, 228.88 -0.25 M188.24 52.68 C198.24 41.5, 207.48 30.97, 233.61 1.15 M186.54 52.84 C199.5 37.95, 210.91 24.87, 233.52 -0.76 M191.12 52.98 C205.14 36.51, 220.72 23.34, 238.05 -1.3 M192.22 53.97 C206.94 35.82, 220.88 19.01, 238.37 0.45 M195.64 53.31 C209.58 38.54, 221.76 23.73, 245.68 -0.81 M197.35 52.96 C207.61 40.5, 218.1 28.75, 244.48 0.56 M201.36 54.11 C214.92 41.44, 222.87 31.39, 248.03 -0.19 M202.51 52.26 C217.89 36.92, 231.44 19.75, 249.11 -0.23 M209.34 53.31 C226.42 32.7, 241.12 15.98, 254.33 1.29 M208.59 53.31 C223.19 35.64, 240.06 17.11, 254.17 0.71 M212.81 53.86 C224.31 41.66, 235.46 28.7, 255.68 3.74 M213.84 53.25 C225.63 40.45, 235.63 28.2, 257.71 2.49 M219.36 53.34 C229.82 41.05, 240.38 31.42, 258.4 7.15 M219.42 52.69 C229.76 41.82, 240.61 29.74, 257.64 8.32 M225.64 51.47 C231.54 42.31, 241.35 30.93, 258.16 16.48 M224.41 52.34 C231.16 44.18, 239.28 35.94, 257.16 14.81 M227.55 51.72 C238.02 45.92, 242.44 35.6, 258.1 19 M229.34 52.82 C237.17 45.19, 244.08 37.23, 257.28 20.37 M234.9 52.83 C239.8 47.35, 247.16 40.83, 257.6 26.32 M235.25 53.33 C243.14 41.6, 252.5 32.85, 256.89 27.5 M241.63 54.42 C244.57 46.6, 253 38.24, 255.75 34.25 M239.18 53.36 C243.72 48.43, 248.72 43.43, 256.6 33.74 M244.5 52.53 C247.6 49.86, 253.86 42.98, 259.32 37.11 M245.24 53.43 C248.01 50.02, 251.94 45.01, 258.09 38.12 M249.7 53.22 C253.73 50.92, 255.18 48.08, 258.55 46.12 M250.23 53.1 C253.25 50.21, 254.83 47.71, 257.11 45.46" stroke="#fab005" stroke-width="0.5" fill="none"></path><path d="M0.08 -0.43 C88.45 2.56, 175.35 1.94, 254.95 -0.11 M0.46 0.76 C51 -1.19, 103.88 -1.71, 255.1 0.67 M253.87 -1.87 C253.39 16.65, 254.08 34.89, 254.71 53.04 M255.05 0.25 C254.78 12.32, 254.81 25.78, 255.82 52.82 M255.34 52.42 C153.66 53.22, 53.52 53.33, 0.16 52.11 M254.89 52.09 C187.44 53.8, 118.9 52.98, 0.57 51.82 M-0.05 51.12 C0.93 36.35, -0.63 24.61, -1.77 0.38 M0.02 51.98 C0.79 40.32, 0.68 29.96, -0.36 -0.62" stroke="#000000" stroke-width="1" fill="none"></path></g><g transform="translate(978.5 249) rotate(0 18 13)"><text x="18" y="19" font-family="Virgil, Segoe UI Emoji" font-size="20px" fill="#000000" text-anchor="middle" style="white-space: pre;" direction="ltr">. . .</text></g><g stroke-linecap="round" transform="translate(163 228) rotate(0 90.5 26)"><path d="M0 0 C0 0, 0 0, 0 0 M0 0 C0 0, 0 0, 0 0 M-0.66 6.35 C1.77 4.42, 3.35 1.61, 4.26 -0.27 M-0.55 6.23 C0.98 5.09, 2.41 3.47, 5.25 0.25 M1.55 13.3 C5.05 6.6, 9.64 2.06, 11.11 0.59 M0.68 11.34 C3.65 9.5, 6.26 5.57, 10.91 -0.28 M0.08 17.34 C5.7 12.28, 12.21 5.53, 16.31 1.27 M-0.15 18.78 C6.41 10.19, 11.77 3.23, 15.56 0.83 M-1.64 22.42 C5.01 19.54, 10.23 11.92, 20.26 1.77 M0.72 23.21 C4.98 17.92, 11.19 12.63, 21.2 -0.07 M0.71 30.31 C10.73 17.89, 18.7 7.46, 27.84 1.03 M-0.13 29.71 C8.45 20.23, 16.63 11.8, 27.06 0.16 M0.09 37.05 C9.51 25.29, 19.9 15.71, 31.54 -1.37 M-1.07 37.81 C9.1 25.18, 18.97 14.28, 32.61 -0.69 M0.06 40.98 C13.25 27.73, 26.97 14.78, 35.88 0.4 M0.47 43.43 C8.99 31.03, 17.76 20.92, 37.09 0.59 M-1.62 48.46 C9.81 35.52, 19.24 22.64, 42.25 1.82 M0.76 49.89 C12.33 35.07, 26.65 18.92, 42.49 0.36 M0.5 52.47 C16.09 36.8, 29.42 18.59, 49.19 1.53 M1.34 52.92 C19.51 33.87, 34.88 15.67, 47.03 0.96 M7.8 54.14 C21 38.53, 35.4 21.97, 53.24 0.68 M6.56 53.45 C20.06 37.96, 34.23 23.69, 54.07 0.45 M10.63 51.18 C30.31 32.55, 47.53 13.35, 57.21 0.45 M12.61 52.44 C28.86 33.54, 45.38 13.39, 57.67 -0.56 M19.03 55.27 C28.86 41.25, 38.9 30.95, 63.03 1.4 M17.56 53.61 C31.87 36.72, 45.73 19.6, 63.48 -1.19 M23.66 52 C42.52 32.66, 58.93 12.15, 68.03 1.01 M22.3 53.7 C36.1 36.81, 49.33 22.48, 68.24 0.53 M28.09 54.34 C44.33 35.96, 55.09 19.15, 73.77 1.01 M28.1 53.33 C45.35 32.34, 64.97 12.36, 74.76 -0.55 M33.62 54.07 C43.88 42.91, 51.54 30.52, 78.38 0.92 M33.52 52.68 C49.1 35.57, 64.27 16.96, 79.37 0.05 M39.59 55.2 C46.07 42.78, 58.74 30.66, 85.3 1.39 M37.9 52.37 C52.34 36.37, 67.51 20.14, 84.9 0.24 M44.21 53.41 C54.41 38.27, 66.07 25.62, 91.66 1.72 M44.31 53.17 C61.56 32.76, 79.45 12.11, 90.13 0.15 M48.82 53.5 C63.02 38.77, 74.16 22.46, 97.08 -0.75 M49.06 52.83 C62.35 38.11, 74.63 24.51, 94.79 -0.12 M54.78 52.84 C65.81 40.3, 75.09 30.14, 99.94 -1.19 M54.63 53.81 C68.9 36.65, 83.58 21.01, 101 0.32 M59.7 54.78 C69.66 39.3, 81.89 27.33, 106.25 0.15 M59.15 54.12 C72.56 38.72, 83.93 25.34, 106.25 -1.11 M65.68 52.82 C78.15 38.13, 91.62 24.59, 109.92 -0.59 M64.71 53.81 C75.36 41.47, 85.83 29.02, 110.88 0.36 M70.82 52.37 C90.24 33.82, 105.89 11.13, 116.94 1.26 M70.13 53.99 C87.8 31.87, 107.14 11.69, 116.38 1.36 M74.89 54.37 C89.13 36.67, 104.39 21.68, 120.97 0.61 M74.67 52.94 C88.58 38.22, 102.06 23.21, 122.11 -0.59 M81.42 53.49 C96.47 35.91, 113.09 16.45, 124.91 2.31 M81.38 53.52 C91.1 41.48, 101.1 29.78, 127.14 0.96 M84.07 53.61 C99.28 36.87, 110.92 23.16, 131.11 -0.68 M85.57 53.07 C100.39 36.68, 114.6 21.25, 133.44 0.93 M93.4 53.19 C100.17 44.09, 111.65 30.35, 135.61 0.16 M90.73 54.1 C102.61 40.39, 114.66 25.52, 138.46 0.46 M95.21 52.76 C109.34 42.15, 117.77 28.11, 143.02 -1.68 M97.06 54.14 C108.06 38, 122.02 24.14, 143.03 -0.28 M101.32 52.34 C114.18 36.81, 130.77 22.51, 148.8 -0.26 M101.4 52.46 C113.01 41.6, 122.6 28.84, 147.86 -0.31 M107.93 54.89 C125.51 33.21, 142.63 14.3, 154.05 0.21 M107.72 53.92 C120.18 39.93, 132.57 24.55, 153.48 -1.1 M114.39 51.7 C123.78 40.3, 134.54 24.78, 159.88 0.83 M113.06 53.67 C129.22 34.15, 144.92 15.04, 158.75 -0.7 M117.53 53.9 C130.51 39.17, 144.67 22.78, 166.18 1.44 M118.03 53.02 C133.92 34.07, 150.79 15.4, 164.81 -1.08 M122.47 53.83 C133.47 40.15, 148.5 26.07, 169.93 0.06 M122.77 52.12 C139.79 34.32, 157.71 14.11, 169.51 -0.22 M128.94 52.54 C143.72 34.01, 161.31 16.72, 176.06 -1.69 M129.41 53.85 C141.3 37.9, 153.8 23.99, 175.44 0.56 M134.09 53.16 C141.48 41.16, 152.76 31.75, 179.68 0.89 M134.05 52.51 C145.39 38.95, 158.94 24.58, 180.38 0.45 M138.78 52.4 C154.21 35.02, 168.04 18.23, 183.02 3.22 M139.2 53.67 C155.07 35.27, 170.39 17.1, 183.28 2.18 M146.42 53.94 C157.63 35.34, 173.27 17.92, 184.3 7.94 M143.8 52.89 C157.54 39.31, 170.37 25.16, 183.37 8.76 M149.29 51.92 C157.65 44.79, 164.35 36.35, 184.48 13.71 M149.65 53.56 C157.19 45.32, 163.79 36.49, 184.05 13.77 M155.32 52.3 C164.1 40.41, 175.29 27.61, 181.75 19.83 M155.38 53.63 C164.05 42.45, 172.8 32.31, 183.51 20.16 M158.4 52.38 C166.89 48.16, 167.88 43.27, 184.92 28.55 M160.94 53.44 C165.78 48.27, 171.37 41.46, 183.31 26.03 M165.26 54.18 C173.75 46.65, 177.02 38.05, 183.02 32.8 M165.54 52.44 C171.59 47.9, 175.86 43.2, 184.13 32.66 M169.75 51.98 C177.33 48.78, 178.78 43.89, 184.85 37.94 M170.21 53.05 C175.18 49.91, 177.98 45.46, 182.56 39.51 M175.96 53.15 C180.22 49.77, 181.22 46.77, 183.64 45.17 M177.11 53.12 C179.57 49.79, 181.73 47.68, 183.49 44.75" stroke="#ced4da" stroke-width="0.5" fill="none"></path><path d="M-1.75 0.91 C48.68 0.08, 99.16 -2.98, 180.68 0.23 M0.24 -0.68 C65.2 -1.44, 129.52 -1.1, 180.7 -0.59 M182.11 0.7 C181.08 12.81, 181.97 28.79, 182.11 51.09 M181.23 0.96 C180.93 15.55, 181.67 29.67, 180.13 51.54 M181.2 52.71 C136.46 52.67, 94.51 49.95, -0.01 50.36 M181.03 52.35 C121.95 50.54, 62.09 50.97, -0.78 52.38 M1.34 53.85 C-0.26 36.64, -1.97 24.13, 0.58 0.68 M0.21 51.13 C-0.4 34.65, -0.11 17.12, -0.57 0.36" stroke="#000000" stroke-width="1" fill="none"></path></g><g transform="translate(213.5 241) rotate(0 40 13)"><text x="40" y="19" font-family="Virgil, Segoe UI Emoji" font-size="20px" fill="#000000" text-anchor="middle" style="white-space: pre;" direction="ltr">cloe-oak</text></g><g stroke-linecap="round" transform="translate(10 134) rotate(0 90.5 26)"><path d="M0 0 C0 0, 0 0, 0 0 M0 0 C0 0, 0 0, 0 0 M-0.93 6.79 C0.88 4.1, 2.51 2.58, 5.64 1.11 M0.06 6.54 C1.56 4.81, 3.08 2.57, 4.62 0.6 M1.53 12.61 C2.78 8.59, 7.03 3.37, 9.61 -0.97 M0.25 11.91 C3.31 8.8, 4.96 5.67, 10.83 -0.7 M0.14 20.33 C6.57 9.39, 12.68 5.91, 14.11 2.01 M0.05 18.43 C3.02 13.9, 8.15 8.23, 14.83 1.12 M2.25 24.85 C6.76 17.52, 14.65 8.75, 20.99 0.12 M0.55 23.9 C5.65 16.94, 13.89 8.84, 21.37 -0.67 M0.95 32.09 C6.6 23.75, 13.42 14.63, 27.46 -0.7 M0.61 30.85 C8.51 19.98, 16.52 10.77, 26.58 0.24 M0.42 34.96 C6.43 29.94, 13.14 22.5, 31.16 1.06 M-0.48 37.38 C8.2 26.39, 16.7 16.42, 31.12 -0.82 M-0.15 43.27 C13.03 25.99, 26.74 10.52, 36.21 1.76 M-0.21 42.15 C8.14 33.59, 17.95 22.37, 36.7 0.06 M-0.89 47.36 C8.08 38.97, 20.72 26.61, 44 -2.05 M-1.1 48.47 C13.68 31.94, 28.26 17.29, 42.08 0.21 M2.13 54.81 C14.74 37.87, 32.95 19.49, 47.54 1.89 M1.92 52.26 C10.77 41.29, 21.75 29.51, 47.48 0.13 M7.3 53.88 C20.1 35.46, 34.28 21.31, 54.26 -1.05 M5.97 53.88 C21.35 38.07, 35.53 20.51, 52.61 0.27 M10.32 51.96 C27.33 34.38, 46.41 14.33, 56.32 -0.96 M12.31 53.91 C29.42 31.83, 46.83 11.34, 59.12 0.82 M17.09 55 C29.34 40.78, 39.84 27.88, 65.39 -1.92 M17.36 52.93 C28.6 40.93, 41.03 25.92, 64.53 0.51 M22.53 53.42 C32.35 39.76, 43.2 28.16, 67.04 1.4 M22.64 52.77 C38.08 36.17, 52.03 19.83, 68.75 0.35 M28.93 53.58 C44.14 32, 61.65 14.75, 75.47 1.19 M27.34 54.31 C40.8 39.49, 52.87 25.91, 74.04 0.43 M32.73 51.18 C44.51 40.3, 55.9 28.58, 79.88 -0.02 M34.19 52.26 C46.28 37.77, 59.66 22.69, 79.44 -0.26 M38.86 54.75 C50.02 37.51, 63.97 24.25, 83.25 0 M38.02 52.97 C50.6 40.13, 61.47 24.9, 84.78 -1.14 M43.53 51.06 C63.02 33.55, 77.84 13.03, 88.66 -1.32 M43.66 53.16 C54.13 40.37, 64.29 28.86, 89.15 -0.14 M48.57 52.53 C61.16 34.89, 77.25 21.15, 94.11 -1.96 M48.45 53.73 C57.69 41.94, 68.69 31.08, 94.82 -1.04 M56.21 54.73 C68.82 35.35, 80.94 22.49, 98.84 0.2 M54.18 52.55 C65.01 41.97, 74.33 30.02, 99.78 0.41 M59.42 51.76 C68.23 43.94, 77.5 31.33, 106.12 0.72 M59.58 54.21 C71.95 37.8, 85.56 24.12, 105.65 -0.8 M64.05 54.46 C75.71 40.55, 88.36 22.43, 109.58 0.11 M65.63 53.6 C79.53 36.6, 95.64 19.37, 112.17 0.9 M70.42 54.12 C81.84 37.5, 96.72 25.86, 115.34 2 M71.3 53.88 C84.52 36.06, 99.92 19.93, 116.51 1.14 M76.93 52.11 C87.61 40.68, 97.65 28.96, 123.64 0.82 M76.3 53.56 C94.59 31.94, 112.03 12.08, 121.04 -0.33 M80.22 52.14 C91.8 39.25, 107.67 24.92, 128.43 -0.52 M81.4 53.01 C97.33 34.17, 114.01 14.5, 126.04 -0.59 M87.46 53.63 C96.99 37.23, 111.47 22.21, 133.49 1.57 M85.92 53.25 C98.36 39.7, 111 24.64, 132.06 0.92 M93.16 51.2 C106.19 36.74, 115.74 23.85, 136.78 0.81 M90.63 53.71 C105.54 37.75, 119.81 20.38, 137.34 1.24 M95.52 52.07 C111.45 38.95, 124 23.26, 143.22 0.45 M97.3 53.07 C112.54 34.96, 128.75 15.98, 142.81 -0.36 M101.2 51.51 C115.62 38.37, 124.77 24.04, 149.05 -1.24 M101.62 52.94 C113.75 38.15, 127.8 23.49, 147.57 0.42 M105.67 54.31 C116.59 40.77, 127.43 30.1, 154.59 0.41 M106.68 52.75 C119.27 39.75, 132.7 24.62, 153.82 0.66 M113.98 54.15 C127.07 37.64, 136.51 25.46, 160.59 1.96 M111.94 53.46 C124.21 40.98, 133.29 29.67, 158.34 1.06 M117.12 55.1 C129.11 40.87, 140.34 28.03, 165.02 -0.77 M118.71 54.36 C134.9 34.26, 153.1 13.46, 163.49 -0.36 M124.8 55.01 C134.76 41.08, 143.66 30.46, 171.39 0.83 M123.09 52.87 C137.28 37.01, 152.54 19.8, 168.65 0.62 M129.75 55 C140.35 39.21, 149.22 28.26, 173.57 -0.47 M129.48 53.28 C139.6 40.57, 152.79 25.91, 175.19 0.08 M132.59 54.84 C152.8 33.76, 169.56 14.83, 180.1 1.7 M133.49 52.59 C142.88 42.41, 152.12 32.96, 179.95 0.87 M138.07 54.44 C155.13 31.95, 173.94 12.44, 185.01 1.03 M139.47 53.23 C150.02 40.69, 159.27 30.06, 184.22 2.55 M143.96 53.24 C155.95 41.39, 164.54 30.16, 182.8 8.98 M145.46 52.88 C155.44 39.12, 167.39 26.7, 183.87 9.22 M149.27 51.69 C160.63 43.47, 170.8 28.65, 185.16 13.61 M150.62 53.24 C159.8 42.9, 168.81 31.31, 184.22 14.74 M155.16 54.65 C162.47 43.32, 170.93 34.35, 185.4 22.15 M156.26 53.82 C165.28 42.16, 173.96 31.79, 183.64 20.59 M161.18 52.85 C163.73 47.57, 171.8 40.86, 181.93 25.36 M161.26 52.7 C166.61 47.12, 171.92 38.26, 183.17 26.58 M166.12 54.33 C170.85 45.69, 179.69 39.7, 181.79 31.25 M165.08 52.32 C172.72 44.1, 179.19 36.17, 183.23 31.95 M172.23 53.85 C174.38 50.51, 178.85 45.11, 182.38 40.68 M171.16 52.34 C174.7 49.35, 178.21 44.13, 183.43 39.33 M177.61 52.63 C178.19 49.38, 181.61 46.66, 184.63 45.33 M176.3 53.01 C178.59 50.34, 180.5 49.23, 183.82 44.47" stroke="#ced4da" stroke-width="0.5" fill="none"></path><path d="M-0.73 1.49 C42.75 -0.1, 88.77 2.69, 182.16 0.86 M182.51 1.04 C181.66 20.69, 181.34 40.76, 182.14 50.66 M179.44 50.13 C112.23 49.91, 44.92 49.78, 0.73 50.79 M-1.47 51.36 C1.33 41.05, -0.13 29.49, 1.01 0.99" stroke="#000000" stroke-width="1.5" fill="none" stroke-dasharray="8 9"></path></g><g transform="translate(83.5 148) rotate(0 18 13)"><text x="18" y="19" font-family="Virgil, Segoe UI Emoji" font-size="20px" fill="#000000" text-anchor="middle" style="white-space: pre;" direction="ltr">. . .</text></g><g stroke-linecap="round" transform="translate(165 325) rotate(0 90.5 26)"><path d="M0 0 C0 0, 0 0, 0 0 M0 0 C0 0, 0 0, 0 0 M-0.56 5.98 C0.43 5.06, 1.76 3.01, 5.57 0.24 M-0.51 6.43 C0.92 5.2, 2.06 3.79, 5.02 0.3 M0.15 13.49 C3.33 6.55, 8.12 3.5, 11.66 -0.56 M-0.45 11.4 C3.13 7.83, 7.61 3.49, 10.97 0.7 M1.29 19.67 C6.42 14.68, 8.84 6.85, 14.09 0.39 M0.45 18.99 C4.95 13.12, 11.07 5.91, 16.04 1.27 M0.33 25.71 C8.6 16.74, 14.25 5.44, 22.92 1.53 M1.03 23.8 C5.69 19.08, 10.49 12.84, 21.92 0.89 M0.65 31.43 C5.8 20.96, 14.83 11.14, 26.77 -0.47 M0.75 30.69 C7.58 22.48, 13.95 15.03, 25.48 0.71 M-0.93 35.12 C7.29 24.63, 17.75 16.47, 31.03 1.38 M-0.51 36.15 C10.38 26.64, 19.39 15.54, 31.42 -0.15 M1.35 41.74 C8.94 32.88, 19.66 20.83, 36.34 1.8 M-0.84 43.02 C6.86 34.43, 14.83 26.5, 35.9 -0.73 M-0.34 48.74 C14.73 32.93, 29.95 13.07, 41.27 -1.22 M0.55 48.57 C9.22 37.95, 19.48 26.29, 41.58 0.56 M-0.12 52.86 C12.99 38.94, 24.72 26.33, 48.51 -0.82 M0.98 52.36 C11.75 40.82, 21.17 30.31, 47.13 -0.4 M7.84 51.66 C19.07 38.79, 32.13 23.45, 51.54 -1.73 M5.87 54 C23.3 35.47, 38.56 15.97, 52.28 -0.72 M12.1 52.17 C23.26 42.34, 33.02 27.84, 56.83 1.3 M11.87 52.93 C28.87 35.6, 43.43 15.16, 57.32 -0.74 M16.66 52.38 C31.68 37.22, 47.45 19.18, 62.53 -0.94 M16.91 54.07 C35.36 32.36, 53.66 11.93, 64.19 0.65 M23.67 53.32 C39.25 31.33, 57.52 12.59, 68.68 1.45 M23.28 53.03 C41.66 32.37, 59.14 10.6, 67.95 -0.25 M27.69 52.62 C39.95 38.88, 53.53 24.39, 75.82 1.02 M27.16 53.87 C44.52 33.04, 62.54 12.49, 73.84 0.75 M34.29 52.06 C47.49 37.96, 62.07 20.74, 79.29 -1.43 M33.67 53.8 C51.25 32.84, 68.25 12.08, 78.82 -0.53 M38.3 55.17 C50.37 40.94, 64.51 25.87, 83.82 -1.32 M38.37 52.88 C55.99 34.18, 71.23 16.22, 84.58 0.08 M42.47 54.77 C57.99 39.07, 69.27 24.24, 89.75 -0.72 M44.32 52.79 C57.75 36.68, 72.56 20.63, 89.08 0.78 M47.68 54.53 C63.91 39.5, 76.57 22.58, 95.76 -0.79 M49.6 52.5 C59.67 40.94, 68.98 30.43, 95.58 0.56 M55.6 52.53 C68.37 38.56, 80.86 21.76, 100.98 -0.18 M54.34 53 C73.64 33.37, 90.86 12.77, 100.18 0.92 M58.89 54.83 C77.65 32.55, 94.19 11.29, 107.74 0.46 M60.26 53.04 C72.46 37.49, 85.77 22.91, 106.85 0.54 M63.23 51.78 C75.57 39.65, 88.55 28.42, 111.74 0.11 M65.03 54.57 C81.5 32.94, 100.75 13.96, 110.94 -0.93 M68.81 51.85 C80.62 39.6, 91.85 26.5, 116.05 1.66 M71.09 52.74 C84.96 36.42, 100.94 17.87, 115.57 0.54 M73.75 53.4 C84.9 43.22, 95.06 29.51, 120.64 1.72 M75.46 52.85 C89.45 39.68, 101.21 24.54, 122.45 -0.66 M82.17 55.04 C95.61 35.95, 111.7 19.04, 125.78 -1.54 M81.13 52.78 C98.09 33.29, 115.19 13.96, 127.7 1.22 M84.39 55.16 C98.23 39.73, 110.75 24.5, 132.13 1.88 M85.58 53.81 C98.72 40.68, 109.24 25.65, 133.18 -0.26 M93.57 53.51 C109.45 32.07, 127.17 12.76, 136.89 1.42 M90.79 52.23 C103.88 37.99, 116.34 24.99, 137.08 0.97 M97.92 54.74 C113.49 34.81, 126.38 17.58, 142.51 -0.52 M95.81 54.14 C109.79 38.42, 123.02 22.99, 143.9 -0.77 M101.4 54 C120.68 32.52, 137.02 10.68, 148.86 -1 M102.76 53.11 C117.13 37.44, 130.64 21.43, 149.02 -0.19 M107.92 52.48 C123.57 32.03, 143.57 13.37, 153.93 1.04 M107.4 52.94 C122.08 36.33, 136.44 18.88, 154.72 0.67 M113.95 54.95 C127.29 36.01, 144.28 16.53, 158 0.32 M113.1 53.34 C125.18 40.24, 137.06 26.73, 158.68 1.19 M116.82 53.37 C128.94 40.8, 140.05 27.7, 164.35 -1.23 M117.44 52.71 C132.13 37.23, 146 21.22, 164.06 -0.15 M123.32 52.41 C134.59 40.04, 143.51 28.79, 167.45 1.15 M124.18 53.78 C135.82 39.52, 148.55 24.63, 170.02 0.98 M129.92 53.05 C144 32.24, 161.92 15.13, 173.62 0.53 M127.84 52.4 C145.79 31.26, 165.62 12.14, 175.7 0.47 M135.47 54.11 C149.6 31.81, 168.97 11.69, 181.23 1.92 M133.7 53.19 C151.76 32.6, 171.52 11.3, 180.84 0.49 M137.34 51.84 C154.89 35.93, 167.05 18.94, 183.43 2.07 M138.33 54.35 C152.77 37.69, 167.3 21.28, 183.76 1.45 M144.18 53.45 C154.24 41.53, 163.65 32.52, 182.95 10.02 M145.67 53.28 C154.41 40.01, 165.84 28.42, 182.56 7.73 M148.04 52.7 C159.49 41.68, 170.29 29.07, 184.74 12.12 M149.49 53.36 C162.42 38.6, 175.17 23.12, 183.09 14.87 M157.1 51.45 C166.13 40.89, 173.41 29.33, 184.25 20.67 M155.47 53.66 C161.43 43.69, 170.44 37.02, 183.57 21.32 M159.84 55.23 C163.81 48.21, 168.9 43.16, 182.78 28.43 M159.71 53.63 C167.81 44.97, 175.87 35.09, 183.31 27.16 M165.71 54.81 C169.88 45.91, 176.53 41.03, 182.93 32.48 M166.77 52.86 C170.83 47.95, 174.24 41.79, 184.44 33.04 M169.46 53.7 C176.52 47.26, 178.98 47.02, 182.14 39.93 M170.25 53.75 C174.5 48.53, 176.77 45.26, 182.84 38.24 M175.94 53.42 C177.99 50.71, 179.41 48.98, 183.04 44.54 M176.62 53.13 C178.2 50.91, 181.07 47.65, 184.09 44.19" stroke="#ced4da" stroke-width="0.5" fill="none"></path><path d="M-1.12 -1.99 C47.7 -2.48, 97.91 -0.89, 180.98 -0.57 M180.44 -0.47 C180.08 9.37, 180.09 23.13, 182.66 51.12 M179.64 53.63 C120.51 51.69, 63.76 53.99, 1.46 51.48 M-0.29 53.52 C-1.06 36.68, -1.35 25.75, 0.17 -1.28" stroke="#000000" stroke-width="1.5" fill="none" stroke-dasharray="8 9"></path></g><g transform="translate(205 338) rotate(0 50.5 13)"><text x="50.5" y="19" font-family="Virgil, Segoe UI Emoji" font-size="20px" fill="#000000" text-anchor="middle" style="white-space: pre;" direction="ltr">oatpp</text></g><g stroke-linecap="round"><g transform="translate(243.1957336258514 79.00000000000006) rotate(0 -3.048901479612084 68.99999999999997)"><path d="M0 0 C-1.02 23, -5.08 115, -6.1 138 M0 0 C-1.02 23, -5.08 115, -6.1 138" stroke="#000000" stroke-width="1" fill="none"></path></g><g transform="translate(243.1957336258514 79.00000000000006) rotate(0 -3.048901479612084 68.99999999999997)"><path d="M-15.1 109.38 C-12.95 116.24, -10.79 123.09, -6.1 138 M-15.1 109.38 C-11.83 119.78, -8.56 130.18, -6.1 138" stroke="#000000" stroke-width="1" fill="none"></path></g><g transform="translate(243.1957336258514 79.00000000000006) rotate(0 -3.048901479612084 68.99999999999997)"><path d="M5.4 110.29 C2.64 116.93, -0.11 123.57, -6.1 138 M5.4 110.29 C1.22 120.36, -2.96 130.43, -6.1 138" stroke="#000000" stroke-width="1" fill="none"></path></g></g><g stroke-linecap="round"><g transform="translate(249.10258860312592 289) rotate(0 1.8316842842382925 12.5)"><path d="M0 0 C0.61 4.17, 3.05 20.83, 3.66 25 M0 0 C0.61 4.17, 3.05 20.83, 3.66 25" stroke="#000000" stroke-width="1" fill="none"></path></g><g transform="translate(249.10258860312592 289) rotate(0 1.8316842842382925 12.5)"><path d="M-2.33 13.88 C-1.1 16.16, 0.13 18.45, 3.66 25 M-2.33 13.88 C0.06 18.31, 2.44 22.74, 3.66 25" stroke="#000000" stroke-width="1" fill="none"></path></g><g transform="translate(249.10258860312592 289) rotate(0 1.8316842842382925 12.5)"><path d="M6.22 12.63 C5.69 15.17, 5.17 17.71, 3.66 25 M6.22 12.63 C5.2 17.56, 4.18 22.48, 3.66 25" stroke="#000000" stroke-width="1" fill="none"></path></g></g><g stroke-linecap="round"><g transform="translate(184.05975856785744 82) rotate(0 -27.43514684951367 22.50000000000003)"><path d="M0 0 C-9.15 7.5, -45.73 37.5, -54.87 45 M0 0 C-9.15 7.5, -45.73 37.5, -54.87 45" stroke="#000000" stroke-width="1" fill="none"></path></g><g transform="translate(184.05975856785744 82) rotate(0 -27.43514684951367 22.50000000000003)"><path d="M-39.58 19.19 C-45.24 28.74, -50.9 38.29, -54.87 45 M-39.58 19.19 C-43.4 25.64, -47.22 32.09, -54.87 45" stroke="#000000" stroke-width="1" fill="none"></path></g><g transform="translate(184.05975856785744 82) rotate(0 -27.43514684951367 22.50000000000003)"><path d="M-26.57 35.06 C-37.04 38.74, -47.52 42.42, -54.87 45 M-26.57 35.06 C-33.64 37.54, -40.71 40.03, -54.87 45" stroke="#000000" stroke-width="1" fill="none"></path></g></g><g stroke-linecap="round"><g transform="translate(308.7864265812708 79) rotate(0 33.0645379629097 22)"><path d="M0 0 C11.02 7.33, 55.11 36.67, 66.13 44 M0 0 C11.02 7.33, 55.11 36.67, 66.13 44" stroke="#000000" stroke-width="1" fill="none"></path></g><g transform="translate(308.7864265812708 79) rotate(0 33.0645379629097 22)"><path d="M36.97 36.93 C47.66 39.52, 58.35 42.11, 66.13 44 M36.97 36.93 C48.16 39.64, 59.35 42.36, 66.13 44" stroke="#000000" stroke-width="1" fill="none"></path></g><g transform="translate(308.7864265812708 79) rotate(0 33.0645379629097 22)"><path d="M48.34 19.84 C54.86 28.7, 61.38 37.55, 66.13 44 M48.34 19.84 C55.17 29.11, 61.99 38.38, 66.13 44" stroke="#000000" stroke-width="1" fill="none"></path></g></g><g stroke-linecap="round"><g transform="translate(445.5255263241711 197) rotate(0 -1.1536622180605036 11)"><path d="M0 0 C-0.38 3.67, -1.92 18.33, -2.31 22 M0 0 C-0.38 3.67, -1.92 18.33, -2.31 22" stroke="#000000" stroke-width="1" fill="none"></path></g><g transform="translate(445.5255263241711 197) rotate(0 -1.1536622180605036 11)"><path d="M-4.99 11.27 C-4.32 13.95, -3.65 16.63, -2.31 22 M-4.99 11.27 C-4.34 13.87, -3.69 16.47, -2.31 22" stroke="#000000" stroke-width="1" fill="none"></path></g><g transform="translate(445.5255263241711 197) rotate(0 -1.1536622180605036 11)"><path d="M2.54 12.06 C1.33 14.54, 0.12 17.03, -2.31 22 M2.54 12.06 C1.36 14.47, 0.19 16.88, -2.31 22" stroke="#000000" stroke-width="1" fill="none"></path></g></g><g stroke-linecap="round"><g transform="translate(861 45.36414805629602) rotate(0 -39.71234225216915 39.81792597185199)"><path d="M0 0 C-13.24 13.27, -66.19 66.36, -79.42 79.64 M0 0 C-13.24 13.27, -66.19 66.36, -79.42 79.64" stroke="#000000" stroke-width="1" fill="none"></path></g><g transform="translate(861 45.36414805629602) rotate(0 -39.71234225216915 39.81792597185199)"><path d="M-66.78 52.43 C-69.65 58.61, -72.52 64.78, -79.42 79.64 M-66.78 52.43 C-69.58 58.45, -72.38 64.47, -79.42 79.64" stroke="#000000" stroke-width="1" fill="none"></path></g><g transform="translate(861 45.36414805629602) rotate(0 -39.71234225216915 39.81792597185199)"><path d="M-52.25 66.92 C-58.42 69.81, -64.59 72.69, -79.42 79.64 M-52.25 66.92 C-58.27 69.74, -64.28 72.55, -79.42 79.64" stroke="#000000" stroke-width="1" fill="none"></path></g></g><g stroke-linecap="round"><g transform="translate(858 125.22449713390267) rotate(0 -34.5 13.237919489859905)"><path d="M0 0 C-11.5 4.41, -57.5 22.06, -69 26.48 M0 0 C-11.5 4.41, -57.5 22.06, -69 26.48" stroke="#000000" stroke-width="1" fill="none"></path></g><g transform="translate(858 125.22449713390267) rotate(0 -34.5 13.237919489859905)"><path d="M-46.36 6.8 C-51.65 11.4, -56.94 15.99, -69 26.48 M-46.36 6.8 C-52.11 11.79, -57.85 16.79, -69 26.48" stroke="#000000" stroke-width="1" fill="none"></path></g><g transform="translate(858 125.22449713390267) rotate(0 -34.5 13.237919489859905)"><path d="M-39 25.96 C-46.01 26.08, -53.02 26.2, -69 26.48 M-39 25.96 C-46.62 26.09, -54.24 26.22, -69 26.48" stroke="#000000" stroke-width="1" fill="none"></path></g></g><g stroke-linecap="round"><g transform="translate(851.0566857985971 176) rotate(0 -30.528342899298536 -1.2762330622408626)"><path d="M0 0 C-10.18 -0.43, -50.88 -2.13, -61.06 -2.55 M0 0 C-10.18 -0.43, -50.88 -2.13, -61.06 -2.55" stroke="#000000" stroke-width="1" fill="none"></path></g><g transform="translate(851.0566857985971 176) rotate(0 -30.528342899298536 -1.2762330622408626)"><path d="M-32.46 -11.63 C-42.82 -8.34, -53.19 -5.05, -61.06 -2.55 M-32.46 -11.63 C-42.9 -8.32, -53.33 -5, -61.06 -2.55" stroke="#000000" stroke-width="1" fill="none"></path></g><g transform="translate(851.0566857985971 176) rotate(0 -30.528342899298536 -1.2762330622408626)"><path d="M-33.32 8.88 C-43.37 4.74, -53.42 0.59, -61.06 -2.55 M-33.32 8.88 C-43.44 4.71, -53.56 0.54, -61.06 -2.55" stroke="#000000" stroke-width="1" fill="none"></path></g></g><g stroke-linecap="round"><g transform="translate(860 244.31894049974187) rotate(0 -41.162517421006214 -24.362827333489804)"><path d="M0 0 C-13.72 -8.12, -68.6 -40.6, -82.33 -48.73 M0 0 C-13.72 -8.12, -68.6 -40.6, -82.33 -48.73" stroke="#000000" stroke-width="1" fill="none"></path></g><g transform="translate(860 244.31894049974187) rotate(0 -41.162517421006214 -24.362827333489804)"><path d="M-52.84 -43.2 C-63.4 -45.18, -73.96 -47.16, -82.33 -48.73 M-52.84 -43.2 C-64.02 -45.29, -75.2 -47.39, -82.33 -48.73" stroke="#000000" stroke-width="1" fill="none"></path></g><g transform="translate(860 244.31894049974187) rotate(0 -41.162517421006214 -24.362827333489804)"><path d="M-63.29 -25.54 C-70.11 -33.84, -76.93 -42.15, -82.33 -48.73 M-63.29 -25.54 C-70.51 -34.33, -77.73 -43.12, -82.33 -48.73" stroke="#000000" stroke-width="1" fill="none"></path></g></g><g stroke-linecap="round"><g transform="translate(584 159.13190606765988) rotate(0 -14 0.3280946316139932)"><path d="M0 0 C-4.67 0.11, -23.33 0.55, -28 0.66 M0 0 C-4.67 0.11, -23.33 0.55, -28 0.66" stroke="#000000" stroke-width="1" fill="none"></path></g><g transform="translate(584 159.13190606765988) rotate(0 -14 0.3280946316139932)"><path d="M-14.96 -4.44 C-18.17 -3.18, -21.39 -1.93, -28 0.66 M-14.96 -4.44 C-18.87 -2.91, -22.79 -1.38, -28 0.66" stroke="#000000" stroke-width="1" fill="none"></path></g><g transform="translate(584 159.13190606765988) rotate(0 -14 0.3280946316139932)"><path d="M-14.73 5.14 C-18 4.03, -21.28 2.93, -28 0.66 M-14.73 5.14 C-18.72 3.79, -22.7 2.44, -28 0.66" stroke="#000000" stroke-width="1" fill="none"></path></g></g></svg>
