<svg version="1.1" xmlns="http://www.w3.org/2000/svg" viewBox="0 0 788 840" width="788" height="840">
  <!-- svg-source:excalidraw -->

  <defs>
    <style>
      @font-face {
        font-family: "Virgil";
        src: url("https://excalidraw.com/Virgil.woff2");
      }
      @font-face {
        font-family: "Cascadia";
        src: url("https://excalidraw.com/Cascadia.woff2");
      }
    </style>
  </defs>
  <g stroke-linecap="round" transform="translate(355 10) rotate(0 11.5 11.5)"><path d="M11.5 0 C13.84 -0.15, 17 1.11, 18.89 2.69 C20.78 4.27, 22.4 7.08, 22.83 9.5 C23.25 11.93, 22.69 15.12, 21.46 17.25 C20.23 19.38, 17.75 21.46, 15.43 22.31 C13.12 23.15, 9.88 23.15, 7.57 22.31 C5.25 21.46, 2.77 19.38, 1.54 17.25 C0.31 15.12, -0.25 11.93, 0.17 9.5 C0.6 7.08, 2.22 4.27, 4.11 2.69 C6 1.11, 10.27 0.41, 11.5 0 C12.73 -0.41, 11.5 0.04, 11.5 0.23 M11.5 0 C13.84 -0.15, 17 1.11, 18.89 2.69 C20.78 4.27, 22.4 7.08, 22.83 9.5 C23.25 11.93, 22.69 15.12, 21.46 17.25 C20.23 19.38, 17.75 21.46, 15.43 22.31 C13.12 23.15, 9.88 23.15, 7.57 22.31 C5.25 21.46, 2.77 19.38, 1.54 17.25 C0.31 15.12, -0.25 11.93, 0.17 9.5 C0.6 7.08, 2.22 4.27, 4.11 2.69 C6 1.11, 10.27 0.41, 11.5 0 C12.73 -0.41, 11.5 0.04, 11.5 0.23" stroke="none" stroke-width="0" fill="#868e96"></path><path d="M11.5 0 C13.84 -0.15, 17 1.11, 18.89 2.69 C20.78 4.27, 22.4 7.08, 22.83 9.5 C23.25 11.93, 22.69 15.12, 21.46 17.25 C20.23 19.38, 17.75 21.46, 15.43 22.31 C13.12 23.15, 9.88 23.15, 7.57 22.31 C5.25 21.46, 2.77 19.38, 1.54 17.25 C0.31 15.12, -0.25 11.93, 0.17 9.5 C0.6 7.08, 2.22 4.27, 4.11 2.69 C6 1.11, 10.27 0.41, 11.5 0 C12.73 -0.41, 11.5 0.04, 11.5 0.23 M11.5 0 C13.84 -0.15, 17 1.11, 18.89 2.69 C20.78 4.27, 22.4 7.08, 22.83 9.5 C23.25 11.93, 22.69 15.12, 21.46 17.25 C20.23 19.38, 17.75 21.46, 15.43 22.31 C13.12 23.15, 9.88 23.15, 7.57 22.31 C5.25 21.46, 2.77 19.38, 1.54 17.25 C0.31 15.12, -0.25 11.93, 0.17 9.5 C0.6 7.08, 2.22 4.27, 4.11 2.69 C6 1.11, 10.27 0.41, 11.5 0 C12.73 -0.41, 11.5 0.04, 11.5 0.23" stroke="#000000" stroke-width="1" fill="none"></path></g><g stroke-linecap="round" transform="translate(360 807) rotate(0 11.5 11.5)"><path d="M11.5 0 C13.84 -0.15, 17 1.11, 18.89 2.69 C20.78 4.27, 22.4 7.08, 22.83 9.5 C23.25 11.93, 22.69 15.12, 21.46 17.25 C20.23 19.38, 17.75 21.46, 15.43 22.31 C13.12 23.15, 9.88 23.15, 7.57 22.31 C5.25 21.46, 2.77 19.38, 1.54 17.25 C0.31 15.12, -0.25 11.93, 0.17 9.5 C0.6 7.08, 2.22 4.27, 4.11 2.69 C6 1.11, 10.27 0.41, 11.5 0 C12.73 -0.41, 11.5 0.04, 11.5 0.23 M11.5 0 C13.84 -0.15, 17 1.11, 18.89 2.69 C20.78 4.27, 22.4 7.08, 22.83 9.5 C23.25 11.93, 22.69 15.12, 21.46 17.25 C20.23 19.38, 17.75 21.46, 15.43 22.31 C13.12 23.15, 9.88 23.15, 7.57 22.31 C5.25 21.46, 2.77 19.38, 1.54 17.25 C0.31 15.12, -0.25 11.93, 0.17 9.5 C0.6 7.08, 2.22 4.27, 4.11 2.69 C6 1.11, 10.27 0.41, 11.5 0 C12.73 -0.41, 11.5 0.04, 11.5 0.23" stroke="none" stroke-width="0" fill="#868e96"></path><path d="M11.5 0 C13.84 -0.15, 17 1.11, 18.89 2.69 C20.78 4.27, 22.4 7.08, 22.83 9.5 C23.25 11.93, 22.69 15.12, 21.46 17.25 C20.23 19.38, 17.75 21.46, 15.43 22.31 C13.12 23.15, 9.88 23.15, 7.57 22.31 C5.25 21.46, 2.77 19.38, 1.54 17.25 C0.31 15.12, -0.25 11.93, 0.17 9.5 C0.6 7.08, 2.22 4.27, 4.11 2.69 C6 1.11, 10.27 0.41, 11.5 0 C12.73 -0.41, 11.5 0.04, 11.5 0.23 M11.5 0 C13.84 -0.15, 17 1.11, 18.89 2.69 C20.78 4.27, 22.4 7.08, 22.83 9.5 C23.25 11.93, 22.69 15.12, 21.46 17.25 C20.23 19.38, 17.75 21.46, 15.43 22.31 C13.12 23.15, 9.88 23.15, 7.57 22.31 C5.25 21.46, 2.77 19.38, 1.54 17.25 C0.31 15.12, -0.25 11.93, 0.17 9.5 C0.6 7.08, 2.22 4.27, 4.11 2.69 C6 1.11, 10.27 0.41, 11.5 0 C12.73 -0.41, 11.5 0.04, 11.5 0.23" stroke="#000000" stroke-width="1" fill="none"></path></g><g stroke-linecap="round" transform="translate(286 84) rotate(0 83 20)"><path d="M0 0 C0 0, 0 0, 0 0 M0 0 C0 0, 0 0, 0 0 M-0.26 6.4 C0.96 5, 2.18 3.59, 4.99 0.36 M-0.26 6.4 C1.62 4.23, 3.5 2.07, 4.99 0.36 M0.13 12.04 C4.23 7.33, 8.33 2.62, 10.63 -0.03 M0.13 12.04 C3.02 8.72, 5.9 5.4, 10.63 -0.03 M-0.13 18.44 C4.79 12.78, 9.71 7.12, 15.62 0.33 M-0.13 18.44 C4.28 13.36, 8.7 8.29, 15.62 0.33 M0.27 24.08 C6.1 17.37, 11.93 10.66, 21.26 -0.07 M0.27 24.08 C8.13 15.04, 15.99 5.99, 21.26 -0.07 M0 30.48 C6.17 23.38, 12.34 16.29, 26.25 0.29 M0 30.48 C10.01 18.97, 20.01 7.47, 26.25 0.29 M-0.26 36.88 C9.93 25.16, 20.12 13.44, 31.89 -0.1 M-0.26 36.88 C7.26 28.23, 14.77 19.59, 31.89 -0.1 M1.45 41.01 C13.9 26.69, 26.35 12.36, 36.88 0.26 M1.45 41.01 C10.81 30.25, 20.16 19.48, 36.88 0.26 M6.44 41.37 C19.97 25.81, 33.5 10.24, 42.52 -0.14 M6.44 41.37 C16.89 29.34, 27.35 17.32, 42.52 -0.14 M12.08 40.98 C24.29 26.93, 36.49 12.89, 47.51 0.22 M12.08 40.98 C22.74 28.71, 33.41 16.44, 47.51 0.22 M17.07 41.34 C26.1 30.94, 35.14 20.54, 53.15 -0.17 M17.07 41.34 C29.66 26.86, 42.24 12.37, 53.15 -0.17 M22.71 40.94 C30.81 31.63, 38.91 22.31, 58.14 0.19 M22.71 40.94 C30.94 31.47, 39.17 22, 58.14 0.19 M27.7 41.3 C37.55 29.96, 47.41 18.63, 63.78 -0.21 M27.7 41.3 C41.62 25.28, 55.55 9.26, 63.78 -0.21 M33.34 40.91 C45.7 26.69, 58.07 12.46, 68.77 0.15 M33.34 40.91 C46.35 25.94, 59.37 10.97, 68.77 0.15 M38.33 41.27 C49.3 28.65, 60.27 16.02, 74.41 -0.24 M38.33 41.27 C50.76 26.96, 63.2 12.66, 74.41 -0.24 M43.97 40.87 C57.51 25.29, 71.06 9.71, 79.4 0.12 M43.97 40.87 C57.58 25.22, 71.18 9.57, 79.4 0.12 M48.96 41.23 C61.07 27.3, 73.17 13.38, 85.04 -0.28 M48.96 41.23 C61.13 27.23, 73.3 13.23, 85.04 -0.28 M54.6 40.84 C66.52 27.12, 78.44 13.41, 90.03 0.08 M54.6 40.84 C66.27 27.42, 77.93 14, 90.03 0.08 M59.59 41.2 C70.09 29.12, 80.59 17.03, 95.67 -0.31 M59.59 41.2 C68.44 31.02, 77.28 20.84, 95.67 -0.31 M65.23 40.8 C77.66 26.51, 90.09 12.21, 100.66 0.05 M65.23 40.8 C72.97 31.9, 80.71 22.99, 100.66 0.05 M70.22 41.16 C78.35 31.81, 86.49 22.45, 106.3 -0.34 M70.22 41.16 C81.7 27.96, 93.18 14.75, 106.3 -0.34 M75.2 41.52 C85.87 29.26, 96.53 16.99, 111.29 0.02 M75.2 41.52 C83.72 31.73, 92.24 21.93, 111.29 0.02 M80.85 41.13 C92.35 27.89, 103.86 14.66, 116.27 0.38 M80.85 41.13 C94.13 25.86, 107.4 10.58, 116.27 0.38 M85.83 41.49 C99.27 26.03, 112.71 10.57, 121.92 -0.02 M85.83 41.49 C97.92 27.59, 110.01 13.68, 121.92 -0.02 M91.48 41.1 C102.33 28.62, 113.17 16.14, 126.91 0.34 M91.48 41.1 C98.65 32.84, 105.83 24.58, 126.91 0.34 M96.46 41.46 C107.81 28.41, 119.15 15.36, 132.55 -0.05 M96.46 41.46 C105.01 31.62, 113.56 21.79, 132.55 -0.05 M102.11 41.06 C109.84 32.16, 117.58 23.26, 137.54 0.31 M102.11 41.06 C114.78 26.49, 127.45 11.91, 137.54 0.31 M107.09 41.42 C121 25.42, 134.91 9.42, 143.18 -0.09 M107.09 41.42 C115.48 31.77, 123.87 22.12, 143.18 -0.09 M112.74 41.03 C121.28 31.2, 129.81 21.38, 148.17 0.27 M112.74 41.03 C125.66 26.16, 138.59 11.29, 148.17 0.27 M117.73 41.39 C131.48 25.57, 145.23 9.74, 153.81 -0.12 M117.73 41.39 C131.47 25.57, 145.22 9.75, 153.81 -0.12 M123.37 40.99 C133.47 29.37, 143.57 17.75, 158.8 0.24 M123.37 40.99 C134.63 28.04, 145.89 15.08, 158.8 0.24 M128.36 41.35 C136.59 31.88, 144.82 22.41, 164.44 -0.16 M128.36 41.35 C139.56 28.46, 150.76 15.58, 164.44 -0.16 M134 40.96 C147.41 25.53, 160.82 10.1, 168.11 1.71 M134 40.96 C143.52 30, 153.05 19.04, 168.11 1.71 M138.99 41.32 C150.08 28.56, 161.17 15.8, 167.85 8.11 M138.99 41.32 C145.27 34.09, 151.55 26.86, 167.85 8.11 M144.63 40.92 C152.62 31.73, 160.62 22.53, 168.25 13.75 M144.63 40.92 C151.24 33.32, 157.85 25.71, 168.25 13.75 M149.62 41.28 C154 36.24, 158.39 31.19, 167.98 20.15 M149.62 41.28 C154.54 35.62, 159.46 29.95, 167.98 20.15 M155.26 40.89 C158.08 37.65, 160.89 34.41, 167.72 26.55 M155.26 40.89 C159.25 36.3, 163.23 31.72, 167.72 26.55 M160.25 41.25 C162.7 38.42, 165.16 35.6, 168.12 32.19 M160.25 41.25 C163.36 37.66, 166.48 34.08, 168.12 32.19" stroke="#ced4da" stroke-width="0.5" fill="none"></path><path d="M0 0 C55.3 0, 110.6 0, 166 0 M0 0 C48.17 0, 96.33 0, 166 0 M166 0 C166 9.91, 166 19.82, 166 40 M166 0 C166 11.35, 166 22.69, 166 40 M166 40 C123.33 40, 80.66 40, 0 40 M166 40 C124.8 40, 83.59 40, 0 40 M0 40 C0 25.05, 0 10.11, 0 0 M0 40 C0 24.75, 0 9.49, 0 0" stroke="#000000" stroke-width="1" fill="none"></path></g><g transform="translate(330 90) rotate(0 37.5 13)"><text x="37.5" y="19" font-family="Virgil, Segoe UI Emoji" font-size="20px" fill="#000000" text-anchor="middle" style="white-space: pre;" direction="ltr">Connect</text></g><g stroke-linecap="round" transform="translate(286 168.57142857142856) rotate(0 83 20)"><path d="M0 0 C0 0, 0 0, 0 0 M0 0 C0 0, 0 0, 0 0 M-0.26 6.4 C1.18 4.73, 2.63 3.07, 4.99 0.36 M-0.26 6.4 C1.1 4.83, 2.47 3.26, 4.99 0.36 M0.13 12.04 C4.33 7.21, 8.52 2.39, 10.63 -0.03 M0.13 12.04 C3.77 7.85, 7.42 3.66, 10.63 -0.03 M-0.13 18.44 C3.76 13.97, 7.64 9.5, 15.62 0.33 M-0.13 18.44 C4.8 12.77, 9.73 7.09, 15.62 0.33 M0.27 24.08 C8.02 15.16, 15.78 6.23, 21.26 -0.07 M0.27 24.08 C5.9 17.6, 11.53 11.12, 21.26 -0.07 M0 30.48 C8.36 20.87, 16.71 11.26, 26.25 0.29 M0 30.48 C8.66 20.52, 17.32 10.56, 26.25 0.29 M-0.26 36.88 C10.33 24.7, 20.91 12.53, 31.89 -0.1 M-0.26 36.88 C10.55 24.45, 21.36 12.02, 31.89 -0.1 M1.45 41.01 C8.94 32.39, 16.44 23.77, 36.88 0.26 M1.45 41.01 C14.15 26.4, 26.86 11.78, 36.88 0.26 M6.44 41.37 C14.92 31.62, 23.39 21.86, 42.52 -0.14 M6.44 41.37 C14.17 32.47, 21.91 23.57, 42.52 -0.14 M12.08 40.98 C19.78 32.12, 27.47 23.27, 47.51 0.22 M12.08 40.98 C25.51 25.53, 38.93 10.09, 47.51 0.22 M17.07 41.34 C24.7 32.55, 32.34 23.77, 53.15 -0.17 M17.07 41.34 C27.84 28.95, 38.61 16.56, 53.15 -0.17 M22.71 40.94 C36.69 24.86, 50.67 8.78, 58.14 0.19 M22.71 40.94 C33.41 28.63, 44.12 16.31, 58.14 0.19 M27.7 41.3 C40.43 26.65, 53.16 12.01, 63.78 -0.21 M27.7 41.3 C39.07 28.22, 50.43 15.15, 63.78 -0.21 M33.34 40.91 C46.5 25.76, 59.67 10.62, 68.77 0.15 M33.34 40.91 C46.46 25.81, 59.59 10.72, 68.77 0.15 M38.33 41.27 C49.91 27.94, 61.5 14.61, 74.41 -0.24 M38.33 41.27 C49.95 27.9, 61.57 14.53, 74.41 -0.24 M43.97 40.87 C56.19 26.81, 68.42 12.75, 79.4 0.12 M43.97 40.87 C56.63 26.31, 69.28 11.75, 79.4 0.12 M48.96 41.23 C61.49 26.81, 74.03 12.39, 85.04 -0.28 M48.96 41.23 C60.1 28.42, 71.24 15.6, 85.04 -0.28 M54.6 40.84 C64.54 29.41, 74.48 17.98, 90.03 0.08 M54.6 40.84 C67.62 25.86, 80.64 10.89, 90.03 0.08 M59.59 41.2 C67.95 31.57, 76.32 21.95, 95.67 -0.31 M59.59 41.2 C73.85 24.79, 88.12 8.38, 95.67 -0.31 M65.23 40.8 C76.29 28.08, 87.35 15.35, 100.66 0.05 M65.23 40.8 C73.63 31.14, 82.03 21.48, 100.66 0.05 M70.22 41.16 C82.59 26.93, 94.97 12.69, 106.3 -0.34 M70.22 41.16 C78.65 31.47, 87.07 21.77, 106.3 -0.34 M75.2 41.52 C87.59 27.28, 99.98 13.03, 111.29 0.02 M75.2 41.52 C87.24 27.68, 99.27 13.84, 111.29 0.02 M80.85 41.13 C88.58 32.24, 96.3 23.35, 116.27 0.38 M80.85 41.13 C88.16 32.72, 95.47 24.31, 116.27 0.38 M85.83 41.49 C94.69 31.3, 103.54 21.12, 121.92 -0.02 M85.83 41.49 C98.65 26.75, 111.46 12.01, 121.92 -0.02 M91.48 41.1 C104.36 26.28, 117.24 11.46, 126.91 0.34 M91.48 41.1 C99.55 31.8, 107.63 22.51, 126.91 0.34 M96.46 41.46 C105.81 30.7, 115.16 19.95, 132.55 -0.05 M96.46 41.46 C108.43 27.69, 120.4 13.92, 132.55 -0.05 M102.11 41.06 C111.11 30.7, 120.11 20.35, 137.54 0.31 M102.11 41.06 C114.28 27.06, 126.46 13.05, 137.54 0.31 M107.09 41.42 C121.3 25.08, 135.51 8.74, 143.18 -0.09 M107.09 41.42 C115.19 32.11, 123.29 22.79, 143.18 -0.09 M112.74 41.03 C124.55 27.44, 136.37 13.85, 148.17 0.27 M112.74 41.03 C124.43 27.57, 136.13 14.12, 148.17 0.27 M117.73 41.39 C125.92 31.96, 134.12 22.53, 153.81 -0.12 M117.73 41.39 C129.47 27.88, 141.21 14.37, 153.81 -0.12 M123.37 40.99 C130.95 32.27, 138.53 23.55, 158.8 0.24 M123.37 40.99 C133.83 28.96, 144.29 16.92, 158.8 0.24 M128.36 41.35 C139.41 28.64, 150.46 15.92, 164.44 -0.16 M128.36 41.35 C137.68 30.63, 147 19.91, 164.44 -0.16 M134 40.96 C143.45 30.09, 152.9 19.22, 168.11 1.71 M134 40.96 C143.5 30.03, 152.99 19.11, 168.11 1.71 M138.99 41.32 C148.99 29.8, 159 18.29, 167.85 8.11 M138.99 41.32 C149.89 28.77, 160.8 16.22, 167.85 8.11 M144.63 40.92 C151.06 33.53, 157.48 26.14, 168.25 13.75 M144.63 40.92 C150.53 34.14, 156.42 27.35, 168.25 13.75 M149.62 41.28 C153.89 36.37, 158.16 31.45, 167.98 20.15 M149.62 41.28 C156.41 33.46, 163.21 25.64, 167.98 20.15 M155.26 40.89 C159.22 36.33, 163.19 31.76, 167.72 26.55 M155.26 40.89 C159.13 36.43, 163.01 31.97, 167.72 26.55 M160.25 41.25 C161.95 39.28, 163.66 37.32, 168.12 32.19 M160.25 41.25 C162.23 38.96, 164.22 36.68, 168.12 32.19" stroke="#ced4da" stroke-width="0.5" fill="none"></path><path d="M0 0 C66.25 0, 132.51 0, 166 0 M0 0 C64.28 0, 128.55 0, 166 0 M166 0 C166 15.59, 166 31.17, 166 40 M166 0 C166 12.23, 166 24.46, 166 40 M166 40 C124.71 40, 83.41 40, 0 40 M166 40 C109.18 40, 52.35 40, 0 40 M0 40 C0 29.95, 0 19.9, 0 0 M0 40 C0 29.89, 0 19.78, 0 0" stroke="#000000" stroke-width="1" fill="none"></path></g><g transform="translate(339 174.57142857142856) rotate(0 28.5 13)"><text x="28.5" y="19" font-family="Virgil, Segoe UI Emoji" font-size="20px" fill="#000000" text-anchor="middle" style="white-space: pre;" direction="ltr">Start</text></g><g stroke-linecap="round" transform="translate(286 253.1428571428571) rotate(0 83 20)"><path d="M0 0 C0 0, 0 0, 0 0 M0 0 C0 0, 0 0, 0 0 M-0.26 6.4 C1.5 4.37, 3.27 2.34, 4.99 0.36 M-0.26 6.4 C0.99 4.96, 2.24 3.53, 4.99 0.36 M0.13 12.04 C2.93 8.83, 5.72 5.61, 10.63 -0.03 M0.13 12.04 C4.02 7.57, 7.91 3.09, 10.63 -0.03 M-0.13 18.44 C5.57 11.88, 11.27 5.33, 15.62 0.33 M-0.13 18.44 C4.07 13.61, 8.26 8.78, 15.62 0.33 M0.27 24.08 C8.4 14.72, 16.54 5.36, 21.26 -0.07 M0.27 24.08 C7.93 15.27, 15.59 6.45, 21.26 -0.07 M0 30.48 C8.63 20.55, 17.26 10.63, 26.25 0.29 M0 30.48 C9.93 19.06, 19.86 7.64, 26.25 0.29 M-0.26 36.88 C9.5 25.65, 19.26 14.42, 31.89 -0.1 M-0.26 36.88 C11.94 22.85, 24.13 8.82, 31.89 -0.1 M1.45 41.01 C11.23 29.76, 21.01 18.51, 36.88 0.26 M1.45 41.01 C11.68 29.24, 21.91 17.47, 36.88 0.26 M6.44 41.37 C19.74 26.07, 33.04 10.77, 42.52 -0.14 M6.44 41.37 C19.55 26.29, 32.66 11.21, 42.52 -0.14 M12.08 40.98 C25.34 25.73, 38.59 10.48, 47.51 0.22 M12.08 40.98 C22.08 29.47, 32.08 17.97, 47.51 0.22 M17.07 41.34 C26.77 30.17, 36.48 19.01, 53.15 -0.17 M17.07 41.34 C25.57 31.55, 34.08 21.76, 53.15 -0.17 M22.71 40.94 C34.21 27.71, 45.72 14.47, 58.14 0.19 M22.71 40.94 C30.21 32.31, 37.72 23.68, 58.14 0.19 M27.7 41.3 C35.7 32.1, 43.7 22.9, 63.78 -0.21 M27.7 41.3 C37.95 29.51, 48.2 17.72, 63.78 -0.21 M33.34 40.91 C46.12 26.21, 58.89 11.51, 68.77 0.15 M33.34 40.91 C43.94 28.72, 54.53 16.53, 68.77 0.15 M38.33 41.27 C51.88 25.68, 65.42 10.1, 74.41 -0.24 M38.33 41.27 C51.47 26.15, 64.62 11.03, 74.41 -0.24 M43.97 40.87 C52.69 30.85, 61.4 20.82, 79.4 0.12 M43.97 40.87 C55.83 27.23, 67.69 13.59, 79.4 0.12 M48.96 41.23 C56.54 32.51, 64.12 23.79, 85.04 -0.28 M48.96 41.23 C59.83 28.72, 70.71 16.22, 85.04 -0.28 M54.6 40.84 C64.39 29.58, 74.18 18.32, 90.03 0.08 M54.6 40.84 C64.45 29.51, 74.3 18.18, 90.03 0.08 M59.59 41.2 C71.73 27.23, 83.87 13.26, 95.67 -0.31 M59.59 41.2 C70.01 29.2, 80.44 17.21, 95.67 -0.31 M65.23 40.8 C75.09 29.47, 84.94 18.13, 100.66 0.05 M65.23 40.8 C74.33 30.34, 83.43 19.87, 100.66 0.05 M70.22 41.16 C80.94 28.83, 91.65 16.5, 106.3 -0.34 M70.22 41.16 C80.66 29.15, 91.11 17.13, 106.3 -0.34 M75.2 41.52 C82.77 32.83, 90.33 24.13, 111.29 0.02 M75.2 41.52 C88.49 26.25, 101.77 10.97, 111.29 0.02 M80.85 41.13 C93.79 26.24, 106.73 11.36, 116.27 0.38 M80.85 41.13 C89.14 31.59, 97.43 22.05, 116.27 0.38 M85.83 41.49 C98.81 26.56, 111.78 11.64, 121.92 -0.02 M85.83 41.49 C95.84 29.98, 105.84 18.48, 121.92 -0.02 M91.48 41.1 C103.73 27, 115.99 12.9, 126.91 0.34 M91.48 41.1 C99.37 32.02, 107.25 22.95, 126.91 0.34 M96.46 41.46 C109.04 26.98, 121.62 12.51, 132.55 -0.05 M96.46 41.46 C104.35 32.38, 112.24 23.31, 132.55 -0.05 M102.11 41.06 C115.4 25.77, 128.68 10.49, 137.54 0.31 M102.11 41.06 C113.58 27.86, 125.05 14.66, 137.54 0.31 M107.09 41.42 C118.95 27.79, 130.8 14.16, 143.18 -0.09 M107.09 41.42 C121.36 25.02, 135.62 8.61, 143.18 -0.09 M112.74 41.03 C124.07 27.98, 135.41 14.94, 148.17 0.27 M112.74 41.03 C126.03 25.74, 139.31 10.45, 148.17 0.27 M117.73 41.39 C131.5 25.54, 145.28 9.69, 153.81 -0.12 M117.73 41.39 C131.4 25.66, 145.07 9.93, 153.81 -0.12 M123.37 40.99 C136.8 25.54, 150.24 10.08, 158.8 0.24 M123.37 40.99 C136.92 25.4, 150.47 9.82, 158.8 0.24 M128.36 41.35 C140.01 27.94, 151.67 14.53, 164.44 -0.16 M128.36 41.35 C139.54 28.48, 150.73 15.61, 164.44 -0.16 M134 40.96 C143.64 29.87, 153.27 18.78, 168.11 1.71 M134 40.96 C144.95 28.36, 155.9 15.76, 168.11 1.71 M138.99 41.32 C147.57 31.44, 156.16 21.56, 167.85 8.11 M138.99 41.32 C147.59 31.42, 156.19 21.53, 167.85 8.11 M144.63 40.92 C151.5 33.02, 158.37 25.11, 168.25 13.75 M144.63 40.92 C152.52 31.84, 160.42 22.76, 168.25 13.75 M149.62 41.28 C156.63 33.22, 163.64 25.15, 167.98 20.15 M149.62 41.28 C153.67 36.62, 157.73 31.95, 167.98 20.15 M155.26 40.89 C160.2 35.2, 165.15 29.51, 167.72 26.55 M155.26 40.89 C159.43 36.09, 163.6 31.29, 167.72 26.55 M160.25 41.25 C163.27 37.77, 166.29 34.3, 168.12 32.19 M160.25 41.25 C162.81 38.3, 165.37 35.36, 168.12 32.19" stroke="#ced4da" stroke-width="0.5" fill="none"></path><path d="M0 0 C47.93 0, 95.86 0, 166 0 M0 0 C56.21 0, 112.42 0, 166 0 M166 0 C166 8.31, 166 16.63, 166 40 M166 0 C166 8.47, 166 16.95, 166 40 M166 40 C125.61 40, 85.22 40, 0 40 M166 40 C118.62 40, 71.25 40, 0 40 M0 40 C0 26.25, 0 12.51, 0 0 M0 40 C0 26.17, 0 12.34, 0 0" stroke="#000000" stroke-width="1" fill="none"></path></g><g transform="translate(321 259.1428571428571) rotate(0 46.5 13)"><text x="46.5" y="19" font-family="Virgil, Segoe UI Emoji" font-size="20px" fill="#000000" text-anchor="middle" style="white-space: pre;" direction="ltr">StepBegin</text></g><g stroke-linecap="round" transform="translate(286 506.8571428571428) rotate(0 83 20)"><path d="M0 0 C0 0, 0 0, 0 0 M0 0 C0 0, 0 0, 0 0 M-0.26 6.4 C1.27 4.64, 2.79 2.88, 4.99 0.36 M-0.26 6.4 C0.82 5.15, 1.91 3.9, 4.99 0.36 M0.13 12.04 C3.95 7.65, 7.77 3.25, 10.63 -0.03 M0.13 12.04 C3.75 7.89, 7.36 3.73, 10.63 -0.03 M-0.13 18.44 C3.72 14.02, 7.56 9.59, 15.62 0.33 M-0.13 18.44 C5.69 11.75, 11.5 5.06, 15.62 0.33 M0.27 24.08 C5.16 18.45, 10.05 12.82, 21.26 -0.07 M0.27 24.08 C7.55 15.71, 14.83 7.33, 21.26 -0.07 M0 30.48 C8.6 20.59, 17.2 10.69, 26.25 0.29 M0 30.48 C8.93 20.22, 17.85 9.96, 26.25 0.29 M-0.26 36.88 C10.45 24.56, 21.15 12.25, 31.89 -0.1 M-0.26 36.88 C9.3 25.89, 18.85 14.9, 31.89 -0.1 M1.45 41.01 C14.73 25.74, 28 10.46, 36.88 0.26 M1.45 41.01 C13.5 27.14, 25.56 13.28, 36.88 0.26 M6.44 41.37 C14.09 32.57, 21.74 23.77, 42.52 -0.14 M6.44 41.37 C15.51 30.94, 24.58 20.5, 42.52 -0.14 M12.08 40.98 C24.46 26.73, 36.84 12.49, 47.51 0.22 M12.08 40.98 C24.86 26.27, 37.64 11.57, 47.51 0.22 M17.07 41.34 C29.7 26.81, 42.32 12.28, 53.15 -0.17 M17.07 41.34 C25.52 31.61, 33.98 21.88, 53.15 -0.17 M22.71 40.94 C35.01 26.79, 47.31 12.64, 58.14 0.19 M22.71 40.94 C35.49 26.24, 48.28 11.53, 58.14 0.19 M27.7 41.3 C40.61 26.45, 53.53 11.59, 63.78 -0.21 M27.7 41.3 C36.34 31.35, 44.99 21.41, 63.78 -0.21 M33.34 40.91 C47.32 24.82, 61.3 8.74, 68.77 0.15 M33.34 40.91 C42.85 29.97, 52.35 19.04, 68.77 0.15 M38.33 41.27 C51.97 25.57, 65.61 9.88, 74.41 -0.24 M38.33 41.27 C46.62 31.73, 54.91 22.19, 74.41 -0.24 M43.97 40.87 C52.82 30.7, 61.66 20.52, 79.4 0.12 M43.97 40.87 C57.44 25.38, 70.9 9.89, 79.4 0.12 M48.96 41.23 C59.21 29.44, 69.46 17.65, 85.04 -0.28 M48.96 41.23 C61.08 27.29, 73.19 13.35, 85.04 -0.28 M54.6 40.84 C61.74 32.63, 68.88 24.41, 90.03 0.08 M54.6 40.84 C67.41 26.1, 80.23 11.36, 90.03 0.08 M59.59 41.2 C69.71 29.55, 79.84 17.91, 95.67 -0.31 M59.59 41.2 C68.89 30.5, 78.19 19.8, 95.67 -0.31 M65.23 40.8 C74.81 29.78, 84.4 18.76, 100.66 0.05 M65.23 40.8 C73.99 30.72, 82.76 20.64, 100.66 0.05 M70.22 41.16 C81.18 28.56, 92.14 15.95, 106.3 -0.34 M70.22 41.16 C79.75 30.2, 89.28 19.23, 106.3 -0.34 M75.2 41.52 C82.72 32.88, 90.24 24.23, 111.29 0.02 M75.2 41.52 C83.87 31.56, 92.53 21.59, 111.29 0.02 M80.85 41.13 C88.67 32.13, 96.49 23.14, 116.27 0.38 M80.85 41.13 C94.75 25.13, 108.66 9.14, 116.27 0.38 M85.83 41.49 C96.59 29.12, 107.34 16.75, 121.92 -0.02 M85.83 41.49 C97.09 28.55, 108.34 15.61, 121.92 -0.02 M91.48 41.1 C99.63 31.71, 107.79 22.33, 126.91 0.34 M91.48 41.1 C100.3 30.95, 109.11 20.81, 126.91 0.34 M96.46 41.46 C109.22 26.78, 121.97 12.11, 132.55 -0.05 M96.46 41.46 C103.79 33.03, 111.11 24.61, 132.55 -0.05 M102.11 41.06 C111.39 30.39, 120.66 19.71, 137.54 0.31 M102.11 41.06 C109.49 32.57, 116.86 24.09, 137.54 0.31 M107.09 41.42 C118.65 28.12, 130.21 14.83, 143.18 -0.09 M107.09 41.42 C115.13 32.18, 123.16 22.94, 143.18 -0.09 M112.74 41.03 C126.09 25.67, 139.44 10.31, 148.17 0.27 M112.74 41.03 C120.33 32.3, 127.92 23.57, 148.17 0.27 M117.73 41.39 C127.65 29.97, 137.58 18.55, 153.81 -0.12 M117.73 41.39 C126.71 31.05, 135.7 20.7, 153.81 -0.12 M123.37 40.99 C136.38 26.02, 149.39 11.06, 158.8 0.24 M123.37 40.99 C136.8 25.54, 150.23 10.09, 158.8 0.24 M128.36 41.35 C136.5 31.98, 144.65 22.6, 164.44 -0.16 M128.36 41.35 C140.23 27.69, 152.11 14.03, 164.44 -0.16 M134 40.96 C146.17 26.96, 158.34 12.95, 168.11 1.71 M134 40.96 C147.11 25.88, 160.22 10.79, 168.11 1.71 M138.99 41.32 C147.98 30.97, 156.98 20.62, 167.85 8.11 M138.99 41.32 C147.01 32.08, 155.04 22.85, 167.85 8.11 M144.63 40.92 C149.36 35.48, 154.08 30.05, 168.25 13.75 M144.63 40.92 C151.23 33.33, 157.83 25.73, 168.25 13.75 M149.62 41.28 C153.34 37, 157.07 32.71, 167.98 20.15 M149.62 41.28 C154.77 35.36, 159.92 29.43, 167.98 20.15 M155.26 40.89 C158.79 36.82, 162.32 32.76, 167.72 26.55 M155.26 40.89 C158.79 36.82, 162.32 32.76, 167.72 26.55 M160.25 41.25 C162.62 38.52, 164.99 35.79, 168.12 32.19 M160.25 41.25 C162.52 38.63, 164.8 36.01, 168.12 32.19" stroke="#ced4da" stroke-width="0.5" fill="none"></path><path d="M0 0 C37.03 0, 74.07 0, 166 0 M0 0 C65.07 0, 130.13 0, 166 0 M166 0 C166 12.05, 166 24.11, 166 40 M166 0 C166 10.45, 166 20.9, 166 40 M166 40 C103.05 40, 40.09 40, 0 40 M166 40 C132.63 40, 99.27 40, 0 40 M0 40 C0 25.32, 0 10.64, 0 0 M0 40 C0 24.06, 0 8.12, 0 0" stroke="#000000" stroke-width="1" fill="none"></path></g><g transform="translate(328.5 512.8571428571428) rotate(0 39 13)"><text x="39" y="19" font-family="Virgil, Segoe UI Emoji" font-size="20px" fill="#000000" text-anchor="middle" style="white-space: pre;" direction="ltr">StepEnd</text></g><g stroke-linecap="round" transform="translate(10 506.8571428571428) rotate(0 83 20)"><path d="M0 0 C60.5 0, 120.99 0, 166 0 M0 0 C47.54 0, 95.07 0, 166 0 M166 0 C166 12.13, 166 24.26, 166 40 M166 0 C166 15.83, 166 31.66, 166 40 M166 40 C122.37 40, 78.75 40, 0 40 M166 40 C113.31 40, 60.63 40, 0 40 M0 40 C0 24.51, 0 9.02, 0 0 M0 40 C0 26.57, 0 13.14, 0 0" stroke="#495057" stroke-width="1" fill="none"></path></g><g transform="translate(64.5 512.8571428571428) rotate(0 27 13)"><text x="27" y="19" font-family="Virgil, Segoe UI Emoji" font-size="20px" fill="#495057" text-anchor="middle" style="white-space: pre;" direction="ltr">Abort</text></g><g stroke-linecap="round" transform="translate(570 506.8571428571428) rotate(0 83 20)"><path d="M0 0 C60.09 0, 120.18 0, 166 0 M0 0 C40.65 0, 81.31 0, 166 0 M166 0 C166 11.52, 166 23.05, 166 40 M166 0 C166 10.76, 166 21.52, 166 40 M166 40 C108.06 40, 50.13 40, 0 40 M166 40 C104.09 40, 42.17 40, 0 40 M0 40 C0 27.47, 0 14.94, 0 0 M0 40 C0 27.24, 0 14.48, 0 0" stroke="#495057" stroke-width="1" fill="none"></path></g><g transform="translate(623.5 512.8571428571428) rotate(0 30 13)"><text x="30" y="19" font-family="Virgil, Segoe UI Emoji" font-size="20px" fill="#495057" text-anchor="middle" style="white-space: pre;" direction="ltr">Pause</text></g><g stroke-linecap="round" transform="translate(570 631.4285714285713) rotate(0 83 20)"><path d="M0 0 C45.49 0, 90.98 0, 166 0 M0 0 C65.55 0, 131.11 0, 166 0 M166 0 C166 15.44, 166 30.88, 166 40 M166 0 C166 8.09, 166 16.18, 166 40 M166 40 C114.62 40, 63.25 40, 0 40 M166 40 C109.52 40, 53.05 40, 0 40 M0 40 C0 31.2, 0 22.41, 0 0 M0 40 C0 25.51, 0 11.02, 0 0" stroke="#495057" stroke-width="1" fill="none"></path></g><g transform="translate(622.5 637.4285714285713) rotate(0 29 13)"><text x="29" y="19" font-family="Virgil, Segoe UI Emoji" font-size="20px" fill="#495057" text-anchor="middle" style="white-space: pre;" direction="ltr">Reset</text></g><g stroke-linecap="round" transform="translate(286 337.71428571428567) rotate(0 83 20)"><path d="M0 0 C0 0, 0 0, 0 0 M0 0 C0 0, 0 0, 0 0 M-0.26 6.4 C1.6 4.25, 3.47 2.11, 4.99 0.36 M-0.26 6.4 C1.13 4.79, 2.53 3.19, 4.99 0.36 M0.13 12.04 C3.16 8.56, 6.19 5.08, 10.63 -0.03 M0.13 12.04 C3.16 8.55, 6.2 5.07, 10.63 -0.03 M-0.13 18.44 C3.42 14.36, 6.97 10.28, 15.62 0.33 M-0.13 18.44 C5.26 12.24, 10.65 6.04, 15.62 0.33 M0.27 24.08 C5.15 18.46, 10.04 12.83, 21.26 -0.07 M0.27 24.08 C4.78 18.89, 9.3 13.69, 21.26 -0.07 M0 30.48 C7.58 21.77, 15.15 13.06, 26.25 0.29 M0 30.48 C10.28 18.66, 20.55 6.84, 26.25 0.29 M-0.26 36.88 C11.57 23.27, 23.4 9.66, 31.89 -0.1 M-0.26 36.88 C11.45 23.41, 23.16 9.94, 31.89 -0.1 M1.45 41.01 C13.22 27.47, 25 13.93, 36.88 0.26 M1.45 41.01 C13.72 26.9, 25.99 12.78, 36.88 0.26 M6.44 41.37 C14.22 32.42, 22 23.47, 42.52 -0.14 M6.44 41.37 C20.31 25.41, 34.19 9.45, 42.52 -0.14 M12.08 40.98 C23.16 28.23, 34.24 15.49, 47.51 0.22 M12.08 40.98 C21.68 29.93, 31.28 18.89, 47.51 0.22 M17.07 41.34 C26.68 30.28, 36.28 19.23, 53.15 -0.17 M17.07 41.34 C26.31 30.71, 35.55 20.08, 53.15 -0.17 M22.71 40.94 C35.27 26.49, 47.84 12.04, 58.14 0.19 M22.71 40.94 C35.5 26.23, 48.28 11.53, 58.14 0.19 M27.7 41.3 C41.38 25.56, 55.06 9.82, 63.78 -0.21 M27.7 41.3 C38.15 29.27, 48.61 17.25, 63.78 -0.21 M33.34 40.91 C45.8 26.57, 58.27 12.23, 68.77 0.15 M33.34 40.91 C45.48 26.94, 57.62 12.98, 68.77 0.15 M38.33 41.27 C52.13 25.39, 65.93 9.52, 74.41 -0.24 M38.33 41.27 C50.16 27.66, 61.99 14.05, 74.41 -0.24 M43.97 40.87 C56.96 25.93, 69.94 11, 79.4 0.12 M43.97 40.87 C53.69 29.7, 63.4 18.52, 79.4 0.12 M48.96 41.23 C58.8 29.91, 68.64 18.59, 85.04 -0.28 M48.96 41.23 C61.37 26.95, 73.78 12.68, 85.04 -0.28 M54.6 40.84 C62.75 31.46, 70.9 22.09, 90.03 0.08 M54.6 40.84 C66.82 26.79, 79.03 12.73, 90.03 0.08 M59.59 41.2 C67.37 32.25, 75.15 23.29, 95.67 -0.31 M59.59 41.2 C68.35 31.12, 77.11 21.04, 95.67 -0.31 M65.23 40.8 C77.36 26.86, 89.48 12.91, 100.66 0.05 M65.23 40.8 C74.96 29.61, 84.7 18.41, 100.66 0.05 M70.22 41.16 C82.69 26.82, 95.15 12.48, 106.3 -0.34 M70.22 41.16 C79.62 30.35, 89.02 19.54, 106.3 -0.34 M75.2 41.52 C85.01 30.24, 94.82 18.96, 111.29 0.02 M75.2 41.52 C86.6 28.42, 97.99 15.32, 111.29 0.02 M80.85 41.13 C93.79 26.24, 106.73 11.36, 116.27 0.38 M80.85 41.13 C93.75 26.29, 106.65 11.44, 116.27 0.38 M85.83 41.49 C98.68 26.71, 111.52 11.94, 121.92 -0.02 M85.83 41.49 C94.88 31.09, 103.92 20.69, 121.92 -0.02 M91.48 41.1 C103.76 26.96, 116.05 12.83, 126.91 0.34 M91.48 41.1 C100.42 30.8, 109.37 20.51, 126.91 0.34 M96.46 41.46 C107.33 28.96, 118.19 16.46, 132.55 -0.05 M96.46 41.46 C110.67 25.12, 124.87 8.78, 132.55 -0.05 M102.11 41.06 C113.81 27.59, 125.52 14.13, 137.54 0.31 M102.11 41.06 C114.69 26.58, 127.28 12.1, 137.54 0.31 M107.09 41.42 C120.87 25.57, 134.65 9.72, 143.18 -0.09 M107.09 41.42 C121.17 25.23, 135.24 9.04, 143.18 -0.09 M112.74 41.03 C124.27 27.76, 135.81 14.49, 148.17 0.27 M112.74 41.03 C121.01 31.51, 129.28 22, 148.17 0.27 M117.73 41.39 C126.46 31.33, 135.2 21.28, 153.81 -0.12 M117.73 41.39 C125.55 32.39, 133.37 23.39, 153.81 -0.12 M123.37 40.99 C134.36 28.35, 145.35 15.7, 158.8 0.24 M123.37 40.99 C136.81 25.53, 150.25 10.07, 158.8 0.24 M128.36 41.35 C138.97 29.14, 149.59 16.92, 164.44 -0.16 M128.36 41.35 C142.12 25.52, 155.89 9.68, 164.44 -0.16 M134 40.96 C141.89 31.88, 149.78 22.8, 168.11 1.71 M134 40.96 C141.38 32.46, 148.77 23.96, 168.11 1.71 M138.99 41.32 C148.2 30.71, 157.42 20.11, 167.85 8.11 M138.99 41.32 C148.32 30.58, 157.66 19.83, 167.85 8.11 M144.63 40.92 C149.45 35.37, 154.27 29.83, 168.25 13.75 M144.63 40.92 C151.71 32.78, 158.79 24.64, 168.25 13.75 M149.62 41.28 C154.53 35.63, 159.44 29.99, 167.98 20.15 M149.62 41.28 C153.53 36.78, 157.45 32.27, 167.98 20.15 M155.26 40.89 C159.16 36.4, 163.07 31.91, 167.72 26.55 M155.26 40.89 C159.18 36.37, 163.11 31.86, 167.72 26.55 M160.25 41.25 C162.27 38.92, 164.29 36.6, 168.12 32.19 M160.25 41.25 C163.02 38.06, 165.79 34.87, 168.12 32.19" stroke="#ced4da" stroke-width="0.5" fill="none"></path><path d="M0 0 C51.92 0, 103.84 0, 166 0 M0 0 C54.8 0, 109.61 0, 166 0 M166 0 C166 11.53, 166 23.06, 166 40 M166 0 C166 14.23, 166 28.47, 166 40 M166 40 C111.51 40, 57.01 40, 0 40 M166 40 C105.12 40, 44.24 40, 0 40 M0 40 C0 29.62, 0 19.24, 0 0 M0 40 C0 25.58, 0 11.16, 0 0" stroke="#000000" stroke-width="1" fill="none"></path></g><g transform="translate(295 343.71428571428567) rotate(0 72.5 13)"><text x="72.5" y="19" font-family="Virgil, Segoe UI Emoji" font-size="20px" fill="#000000" text-anchor="middle" style="white-space: pre;" direction="ltr">StepSimulators</text></g><g stroke-linecap="round" transform="translate(286 631.4285714285713) rotate(0 83 20)"><path d="M0 0 C0 0, 0 0, 0 0 M0 0 C0 0, 0 0, 0 0 M-0.26 6.4 C1.67 4.18, 3.6 1.96, 4.99 0.36 M-0.26 6.4 C1.04 4.9, 2.35 3.39, 4.99 0.36 M0.13 12.04 C3.36 8.32, 6.59 4.61, 10.63 -0.03 M0.13 12.04 C2.45 9.38, 4.76 6.72, 10.63 -0.03 M-0.13 18.44 C4.81 12.76, 9.75 7.07, 15.62 0.33 M-0.13 18.44 C5.3 12.2, 10.73 5.95, 15.62 0.33 M0.27 24.08 C7.06 16.26, 13.86 8.44, 21.26 -0.07 M0.27 24.08 C7.22 16.09, 14.16 8.09, 21.26 -0.07 M0 30.48 C8.12 21.14, 16.24 11.8, 26.25 0.29 M0 30.48 C9.16 19.94, 18.32 9.41, 26.25 0.29 M-0.26 36.88 C12.21 22.54, 24.67 8.2, 31.89 -0.1 M-0.26 36.88 C9.92 25.17, 20.1 13.46, 31.89 -0.1 M1.45 41.01 C13.29 27.39, 25.14 13.76, 36.88 0.26 M1.45 41.01 C15.15 25.25, 28.86 9.48, 36.88 0.26 M6.44 41.37 C17.08 29.12, 27.73 16.87, 42.52 -0.14 M6.44 41.37 C14.96 31.56, 23.49 21.76, 42.52 -0.14 M12.08 40.98 C22.69 28.77, 33.3 16.57, 47.51 0.22 M12.08 40.98 C24.54 26.64, 37 12.31, 47.51 0.22 M17.07 41.34 C30.51 25.88, 43.94 10.42, 53.15 -0.17 M17.07 41.34 C28.55 28.13, 40.03 14.92, 53.15 -0.17 M22.71 40.94 C31.47 30.87, 40.23 20.79, 58.14 0.19 M22.71 40.94 C33.55 28.47, 44.4 15.99, 58.14 0.19 M27.7 41.3 C37.72 29.78, 47.74 18.25, 63.78 -0.21 M27.7 41.3 C40.65 26.4, 53.61 11.5, 63.78 -0.21 M33.34 40.91 C45.78 26.6, 58.21 12.3, 68.77 0.15 M33.34 40.91 C43.3 29.45, 53.26 18, 68.77 0.15 M38.33 41.27 C45.55 32.96, 52.76 24.66, 74.41 -0.24 M38.33 41.27 C50.03 27.8, 61.74 14.34, 74.41 -0.24 M43.97 40.87 C55.16 28, 66.34 15.14, 79.4 0.12 M43.97 40.87 C53.77 29.6, 63.57 18.33, 79.4 0.12 M48.96 41.23 C58.34 30.45, 67.71 19.66, 85.04 -0.28 M48.96 41.23 C61.53 26.77, 74.11 12.3, 85.04 -0.28 M54.6 40.84 C67.97 25.46, 81.34 10.08, 90.03 0.08 M54.6 40.84 C63.86 30.19, 73.12 19.54, 90.03 0.08 M59.59 41.2 C70.73 28.38, 81.88 15.55, 95.67 -0.31 M59.59 41.2 C71.65 27.32, 83.72 13.44, 95.67 -0.31 M65.23 40.8 C75.97 28.45, 86.72 16.09, 100.66 0.05 M65.23 40.8 C78.43 25.62, 91.63 10.43, 100.66 0.05 M70.22 41.16 C82.12 27.47, 94.03 13.77, 106.3 -0.34 M70.22 41.16 C82.99 26.47, 95.76 11.78, 106.3 -0.34 M75.2 41.52 C89.34 25.26, 103.48 9, 111.29 0.02 M75.2 41.52 C86.63 28.38, 98.06 15.23, 111.29 0.02 M80.85 41.13 C89.25 31.46, 97.66 21.79, 116.27 0.38 M80.85 41.13 C89.62 31.04, 98.38 20.96, 116.27 0.38 M85.83 41.49 C95.68 30.16, 105.53 18.83, 121.92 -0.02 M85.83 41.49 C99.13 26.2, 112.42 10.91, 121.92 -0.02 M91.48 41.1 C101.26 29.84, 111.05 18.58, 126.91 0.34 M91.48 41.1 C99.43 31.95, 107.38 22.8, 126.91 0.34 M96.46 41.46 C107.56 28.69, 118.66 15.92, 132.55 -0.05 M96.46 41.46 C109.87 26.04, 123.27 10.62, 132.55 -0.05 M102.11 41.06 C110.02 31.95, 117.94 22.85, 137.54 0.31 M102.11 41.06 C111.42 30.35, 120.73 19.64, 137.54 0.31 M107.09 41.42 C121.1 25.31, 135.1 9.2, 143.18 -0.09 M107.09 41.42 C119.29 27.39, 131.49 13.35, 143.18 -0.09 M112.74 41.03 C126.44 25.26, 140.15 9.49, 148.17 0.27 M112.74 41.03 C123.7 28.42, 134.66 15.81, 148.17 0.27 M117.73 41.39 C129.92 27.36, 142.12 13.32, 153.81 -0.12 M117.73 41.39 C126.73 31.02, 135.74 20.66, 153.81 -0.12 M123.37 40.99 C130.65 32.61, 137.94 24.23, 158.8 0.24 M123.37 40.99 C133.28 29.59, 143.18 18.2, 158.8 0.24 M128.36 41.35 C139.62 28.4, 150.88 15.44, 164.44 -0.16 M128.36 41.35 C137.59 30.73, 146.83 20.1, 164.44 -0.16 M134 40.96 C142.54 31.14, 151.07 21.32, 168.11 1.71 M134 40.96 C142.8 30.83, 151.6 20.71, 168.11 1.71 M138.99 41.32 C150.43 28.16, 161.87 14.99, 167.85 8.11 M138.99 41.32 C146.94 32.16, 154.9 23.01, 167.85 8.11 M144.63 40.92 C149.88 34.88, 155.13 28.85, 168.25 13.75 M144.63 40.92 C151.65 32.85, 158.67 24.77, 168.25 13.75 M149.62 41.28 C153.44 36.89, 157.26 32.49, 167.98 20.15 M149.62 41.28 C156.89 32.91, 164.17 24.54, 167.98 20.15 M155.26 40.89 C159.68 35.8, 164.1 30.72, 167.72 26.55 M155.26 40.89 C157.99 37.74, 160.72 34.6, 167.72 26.55 M160.25 41.25 C162.57 38.57, 164.9 35.89, 168.12 32.19 M160.25 41.25 C162.4 38.77, 164.55 36.29, 168.12 32.19" stroke="#ced4da" stroke-width="0.5" fill="none"></path><path d="M0 0 C60.09 0, 120.18 0, 166 0 M0 0 C45.83 0, 91.67 0, 166 0 M166 0 C166 14.43, 166 28.85, 166 40 M166 0 C166 13.07, 166 26.15, 166 40 M166 40 C117.17 40, 68.35 40, 0 40 M166 40 C127.77 40, 89.54 40, 0 40 M0 40 C0 31.11, 0 22.22, 0 0 M0 40 C0 27.79, 0 15.57, 0 0" stroke="#000000" stroke-width="1" fill="none"></path></g><g transform="translate(345.5 637.4285714285713) rotate(0 22 13)"><text x="22" y="19" font-family="Virgil, Segoe UI Emoji" font-size="20px" fill="#000000" text-anchor="middle" style="white-space: pre;" direction="ltr">Stop</text></g><g stroke-linecap="round" transform="translate(286 422.2857142857142) rotate(0 83 20)"><path d="M0 0 C0 0, 0 0, 0 0 M0 0 C0 0, 0 0, 0 0 M-0.26 6.4 C1.67 4.17, 3.61 1.94, 4.99 0.36 M-0.26 6.4 C0.81 5.16, 1.89 3.92, 4.99 0.36 M0.13 12.04 C4.22 7.34, 8.31 2.63, 10.63 -0.03 M0.13 12.04 C3.94 7.67, 7.74 3.29, 10.63 -0.03 M-0.13 18.44 C4.38 13.26, 8.88 8.08, 15.62 0.33 M-0.13 18.44 C3.03 14.81, 6.19 11.17, 15.62 0.33 M0.27 24.08 C8.63 14.46, 17 4.83, 21.26 -0.07 M0.27 24.08 C4.9 18.75, 9.54 13.42, 21.26 -0.07 M0 30.48 C5.59 24.05, 11.18 17.62, 26.25 0.29 M0 30.48 C7.14 22.27, 14.27 14.07, 26.25 0.29 M-0.26 36.88 C8.53 26.76, 17.32 16.65, 31.89 -0.1 M-0.26 36.88 C7.41 28.06, 15.07 19.24, 31.89 -0.1 M1.45 41.01 C11.9 28.99, 22.35 16.97, 36.88 0.26 M1.45 41.01 C13.07 27.64, 24.69 14.27, 36.88 0.26 M6.44 41.37 C16.37 29.94, 26.31 18.51, 42.52 -0.14 M6.44 41.37 C19.39 26.47, 32.34 11.58, 42.52 -0.14 M12.08 40.98 C19.47 32.47, 26.86 23.97, 47.51 0.22 M12.08 40.98 C20.84 30.9, 29.6 20.83, 47.51 0.22 M17.07 41.34 C31.38 24.87, 45.69 8.41, 53.15 -0.17 M17.07 41.34 C27.7 29.1, 38.33 16.87, 53.15 -0.17 M22.71 40.94 C35.53 26.19, 48.36 11.44, 58.14 0.19 M22.71 40.94 C32.49 29.69, 42.27 18.44, 58.14 0.19 M27.7 41.3 C40.71 26.33, 53.72 11.36, 63.78 -0.21 M27.7 41.3 C39.49 27.73, 51.29 14.17, 63.78 -0.21 M33.34 40.91 C43.76 28.92, 54.18 16.93, 68.77 0.15 M33.34 40.91 C41.5 31.52, 49.66 22.14, 68.77 0.15 M38.33 41.27 C46.35 32.04, 54.37 22.82, 74.41 -0.24 M38.33 41.27 C49.35 28.59, 60.36 15.92, 74.41 -0.24 M43.97 40.87 C53.73 29.64, 63.49 18.42, 79.4 0.12 M43.97 40.87 C54.39 28.89, 64.8 16.91, 79.4 0.12 M48.96 41.23 C62.22 25.98, 75.48 10.72, 85.04 -0.28 M48.96 41.23 C57.94 30.9, 66.91 20.58, 85.04 -0.28 M54.6 40.84 C65.5 28.3, 76.41 15.75, 90.03 0.08 M54.6 40.84 C62.41 31.86, 70.21 22.88, 90.03 0.08 M59.59 41.2 C70.91 28.18, 82.23 15.15, 95.67 -0.31 M59.59 41.2 C72.02 26.89, 84.46 12.58, 95.67 -0.31 M65.23 40.8 C76.7 27.61, 88.17 14.41, 100.66 0.05 M65.23 40.8 C76.96 27.31, 88.68 13.82, 100.66 0.05 M70.22 41.16 C81.38 28.32, 92.54 15.48, 106.3 -0.34 M70.22 41.16 C82.81 26.68, 95.41 12.19, 106.3 -0.34 M75.2 41.52 C89.2 25.43, 103.19 9.33, 111.29 0.02 M75.2 41.52 C86.63 28.38, 98.05 15.24, 111.29 0.02 M80.85 41.13 C92.69 27.51, 104.53 13.88, 116.27 0.38 M80.85 41.13 C94.55 25.36, 108.26 9.6, 116.27 0.38 M85.83 41.49 C96.48 29.24, 107.13 16.99, 121.92 -0.02 M85.83 41.49 C94.36 31.68, 102.88 21.88, 121.92 -0.02 M91.48 41.1 C102.09 28.89, 112.7 16.69, 126.91 0.34 M91.48 41.1 C103.94 26.76, 116.4 12.43, 126.91 0.34 M96.46 41.46 C109.9 26, 123.34 10.54, 132.55 -0.05 M96.46 41.46 C107.94 28.25, 119.42 15.04, 132.55 -0.05 M102.11 41.06 C110.87 30.99, 119.62 20.91, 137.54 0.31 M102.11 41.06 C112.95 28.59, 123.79 16.11, 137.54 0.31 M107.09 41.42 C117.12 29.89, 127.14 18.37, 143.18 -0.09 M107.09 41.42 C120.05 26.52, 133 11.62, 143.18 -0.09 M112.74 41.03 C125.17 26.72, 137.61 12.41, 148.17 0.27 M112.74 41.03 C122.7 29.57, 132.65 18.12, 148.17 0.27 M117.73 41.39 C124.94 33.08, 132.16 24.78, 153.81 -0.12 M117.73 41.39 C129.43 27.92, 141.13 14.46, 153.81 -0.12 M123.37 40.99 C134.55 28.12, 145.74 15.25, 158.8 0.24 M123.37 40.99 C133.17 29.72, 142.97 18.45, 158.8 0.24 M128.36 41.35 C137.73 30.56, 147.11 19.78, 164.44 -0.16 M128.36 41.35 C140.93 26.89, 153.5 12.42, 164.44 -0.16 M134 40.96 C146.87 26.15, 159.75 11.34, 168.11 1.71 M134 40.96 C142.91 30.7, 151.83 20.45, 168.11 1.71 M138.99 41.32 C147.9 31.06, 156.82 20.8, 167.85 8.11 M138.99 41.32 C148.64 30.21, 158.29 19.11, 167.85 8.11 M144.63 40.92 C151.79 32.68, 158.95 24.44, 168.25 13.75 M144.63 40.92 C153.43 30.8, 162.23 20.67, 168.25 13.75 M149.62 41.28 C155.68 34.31, 161.74 27.34, 167.98 20.15 M149.62 41.28 C156.12 33.8, 162.62 26.33, 167.98 20.15 M155.26 40.89 C160.14 35.27, 165.03 29.65, 167.72 26.55 M155.26 40.89 C159.21 36.35, 163.15 31.81, 167.72 26.55 M160.25 41.25 C162.11 39.1, 163.98 36.95, 168.12 32.19 M160.25 41.25 C162.19 39.01, 164.14 36.77, 168.12 32.19" stroke="#ced4da" stroke-width="0.5" fill="none"></path><path d="M0 0 C52.59 0, 105.18 0, 166 0 M0 0 C39.34 0, 78.68 0, 166 0 M166 0 C166 9.52, 166 19.03, 166 40 M166 0 C166 9.9, 166 19.8, 166 40 M166 40 C102.65 40, 39.31 40, 0 40 M166 40 C100.89 40, 35.78 40, 0 40 M0 40 C0 30.12, 0 20.23, 0 0 M0 40 C0 26.22, 0 12.44, 0 0" stroke="#000000" stroke-width="1" fill="none"></path></g><g transform="translate(293 428.2857142857142) rotate(0 74.5 13)"><text x="74.5" y="19" font-family="Virgil, Segoe UI Emoji" font-size="20px" fill="#000000" text-anchor="middle" style="white-space: pre;" direction="ltr">StepControllers</text></g><g stroke-linecap="round" transform="translate(570 253.1428571428571) rotate(0 83 20)"><path d="M0 0 C60.34 0, 120.67 0, 166 0 M0 0 C50.13 0, 100.26 0, 166 0 M166 0 C166 13.32, 166 26.64, 166 40 M166 0 C166 15.96, 166 31.91, 166 40 M166 40 C118.05 40, 70.1 40, 0 40 M166 40 C110.87 40, 55.73 40, 0 40 M0 40 C0 27.68, 0 15.36, 0 0 M0 40 C0 30.86, 0 21.72, 0 0" stroke="#495057" stroke-width="1" fill="none"></path></g><g transform="translate(616.5 259.1428571428571) rotate(0 35 13)"><text x="35" y="19" font-family="Virgil, Segoe UI Emoji" font-size="20px" fill="#495057" text-anchor="middle" style="white-space: pre;" direction="ltr">Resume</text></g><g stroke-linecap="round" transform="translate(286 716) rotate(0 83 20)"><path d="M0 0 C0 0, 0 0, 0 0 M0 0 C0 0, 0 0, 0 0 M-0.26 6.4 C0.85 5.12, 1.97 3.83, 4.99 0.36 M-0.26 6.4 C1.71 4.13, 3.69 1.86, 4.99 0.36 M0.13 12.04 C2.85 8.92, 5.56 5.79, 10.63 -0.03 M0.13 12.04 C4.21 7.35, 8.29 2.66, 10.63 -0.03 M-0.13 18.44 C6.02 11.37, 12.17 4.29, 15.62 0.33 M-0.13 18.44 C4.62 12.98, 9.37 7.51, 15.62 0.33 M0.27 24.08 C8.57 14.53, 16.87 4.98, 21.26 -0.07 M0.27 24.08 C5.64 17.9, 11.02 11.71, 21.26 -0.07 M0 30.48 C6.1 23.46, 12.2 16.45, 26.25 0.29 M0 30.48 C8.3 20.94, 16.59 11.4, 26.25 0.29 M-0.26 36.88 C10.77 24.19, 21.79 11.51, 31.89 -0.1 M-0.26 36.88 C11.17 23.73, 22.6 10.58, 31.89 -0.1 M1.45 41.01 C14.37 26.15, 27.29 11.29, 36.88 0.26 M1.45 41.01 C13.75 26.86, 26.06 12.7, 36.88 0.26 M6.44 41.37 C15.21 31.27, 23.99 21.18, 42.52 -0.14 M6.44 41.37 C15.43 31.03, 24.42 20.69, 42.52 -0.14 M12.08 40.98 C24.31 26.91, 36.54 12.84, 47.51 0.22 M12.08 40.98 C22.43 29.07, 32.79 17.16, 47.51 0.22 M17.07 41.34 C30.42 25.98, 43.77 10.62, 53.15 -0.17 M17.07 41.34 C26.74 30.21, 36.41 19.08, 53.15 -0.17 M22.71 40.94 C32.03 30.22, 41.35 19.5, 58.14 0.19 M22.71 40.94 C30.37 32.13, 38.04 23.31, 58.14 0.19 M27.7 41.3 C39.53 27.69, 51.36 14.08, 63.78 -0.21 M27.7 41.3 C38.96 28.34, 50.23 15.38, 63.78 -0.21 M33.34 40.91 C45.34 27.1, 57.34 13.3, 68.77 0.15 M33.34 40.91 C45.88 26.48, 58.42 12.06, 68.77 0.15 M38.33 41.27 C47.46 30.76, 56.59 20.26, 74.41 -0.24 M38.33 41.27 C47.36 30.88, 56.39 20.49, 74.41 -0.24 M43.97 40.87 C55.45 27.67, 66.92 14.47, 79.4 0.12 M43.97 40.87 C54.88 28.32, 65.79 15.77, 79.4 0.12 M48.96 41.23 C56.63 32.4, 64.31 23.58, 85.04 -0.28 M48.96 41.23 C60.49 27.97, 72.02 14.71, 85.04 -0.28 M54.6 40.84 C65.28 28.55, 75.96 16.27, 90.03 0.08 M54.6 40.84 C63.47 30.64, 72.33 20.44, 90.03 0.08 M59.59 41.2 C67 32.67, 74.41 24.15, 95.67 -0.31 M59.59 41.2 C71.36 27.66, 83.13 14.11, 95.67 -0.31 M65.23 40.8 C75.35 29.17, 85.46 17.53, 100.66 0.05 M65.23 40.8 C76.62 27.71, 88 14.61, 100.66 0.05 M70.22 41.16 C83.24 26.18, 96.27 11.2, 106.3 -0.34 M70.22 41.16 C79.07 30.98, 87.92 20.8, 106.3 -0.34 M75.2 41.52 C83.2 32.33, 91.19 23.13, 111.29 0.02 M75.2 41.52 C83.52 31.95, 91.84 22.38, 111.29 0.02 M80.85 41.13 C92.91 27.26, 104.96 13.39, 116.27 0.38 M80.85 41.13 C88.65 32.15, 96.46 23.17, 116.27 0.38 M85.83 41.49 C99.77 25.46, 113.7 9.43, 121.92 -0.02 M85.83 41.49 C95.07 30.87, 104.3 20.25, 121.92 -0.02 M91.48 41.1 C103.38 27.4, 115.28 13.71, 126.91 0.34 M91.48 41.1 C104.37 26.27, 117.25 11.44, 126.91 0.34 M96.46 41.46 C110.44 25.38, 124.42 9.3, 132.55 -0.05 M96.46 41.46 C105.27 31.33, 114.07 21.2, 132.55 -0.05 M102.11 41.06 C111.72 30.01, 121.33 18.95, 137.54 0.31 M102.11 41.06 C114.75 26.52, 127.39 11.98, 137.54 0.31 M107.09 41.42 C120.24 26.3, 133.38 11.19, 143.18 -0.09 M107.09 41.42 C114.69 32.68, 122.29 23.94, 143.18 -0.09 M112.74 41.03 C119.86 32.84, 126.98 24.65, 148.17 0.27 M112.74 41.03 C121.57 30.87, 130.39 20.72, 148.17 0.27 M117.73 41.39 C131.69 25.32, 145.66 9.25, 153.81 -0.12 M117.73 41.39 C129.98 27.28, 142.24 13.18, 153.81 -0.12 M123.37 40.99 C134.39 28.31, 145.42 15.62, 158.8 0.24 M123.37 40.99 C132.57 30.41, 141.77 19.82, 158.8 0.24 M128.36 41.35 C137.66 30.65, 146.96 19.95, 164.44 -0.16 M128.36 41.35 C142.23 25.39, 156.11 9.42, 164.44 -0.16 M134 40.96 C144.89 28.43, 155.78 15.9, 168.11 1.71 M134 40.96 C146.82 26.21, 159.63 11.47, 168.11 1.71 M138.99 41.32 C147.91 31.05, 156.83 20.79, 167.85 8.11 M138.99 41.32 C146.69 32.45, 154.4 23.58, 167.85 8.11 M144.63 40.92 C151.09 33.49, 157.56 26.05, 168.25 13.75 M144.63 40.92 C152.97 31.32, 161.32 21.72, 168.25 13.75 M149.62 41.28 C153.39 36.95, 157.16 32.61, 167.98 20.15 M149.62 41.28 C154.71 35.42, 159.81 29.56, 167.98 20.15 M155.26 40.89 C159.67 35.81, 164.09 30.73, 167.72 26.55 M155.26 40.89 C159.22 36.33, 163.18 31.78, 167.72 26.55 M160.25 41.25 C162.93 38.15, 165.62 35.06, 168.12 32.19 M160.25 41.25 C162.41 38.76, 164.58 36.26, 168.12 32.19" stroke="#ced4da" stroke-width="0.5" fill="none"></path><path d="M0 0 C42.77 0, 85.54 0, 166 0 M0 0 C47.04 0, 94.07 0, 166 0 M166 0 C166 15.85, 166 31.71, 166 40 M166 0 C166 12.92, 166 25.85, 166 40 M166 40 C115.55 40, 65.1 40, 0 40 M166 40 C109.12 40, 52.25 40, 0 40 M0 40 C0 31.91, 0 23.82, 0 0 M0 40 C0 24.8, 0 9.6, 0 0" stroke="#000000" stroke-width="1" fill="none"></path></g><g transform="translate(316 722) rotate(0 51.5 13)"><text x="51.5" y="19" font-family="Virgil, Segoe UI Emoji" font-size="20px" fill="#000000" text-anchor="middle" style="white-space: pre;" direction="ltr">Disconnect</text></g><g stroke-linecap="round"><g transform="translate(367.5 134) rotate(0 0 12.5)"><path d="M0 0 C0 5.09, 0 10.17, 0 25 M0 0 C0 7.43, 0 14.86, 0 25" stroke="#000000" stroke-width="1" fill="none"></path></g><g transform="translate(367.5 134) rotate(0 0 12.5)"><path d="M-4.28 13.25 C-3.41 15.64, -2.54 18.03, 0 25 M-4.28 13.25 C-3 16.75, -1.73 20.24, 0 25" stroke="#000000" stroke-width="1" fill="none"></path></g><g transform="translate(367.5 134) rotate(0 0 12.5)"><path d="M4.28 13.25 C3.41 15.64, 2.54 18.03, 0 25 M4.28 13.25 C3 16.75, 1.73 20.24, 0 25" stroke="#000000" stroke-width="1" fill="none"></path></g></g><g stroke-linecap="round"><g transform="translate(367.5 45) rotate(0 0 12.5)"><path d="M0 0 C0 9.69, 0 19.38, 0 25 M0 0 C0 8.19, 0 16.39, 0 25" stroke="#000000" stroke-width="1" fill="none"></path></g><g transform="translate(367.5 45) rotate(0 0 12.5)"><path d="M-4.28 13.25 C-2.62 17.81, -0.96 22.36, 0 25 M-4.28 13.25 C-2.87 17.1, -1.47 20.95, 0 25" stroke="#000000" stroke-width="1" fill="none"></path></g><g transform="translate(367.5 45) rotate(0 0 12.5)"><path d="M4.28 13.25 C2.62 17.81, 0.96 22.36, 0 25 M4.28 13.25 C2.87 17.1, 1.47 20.95, 0 25" stroke="#000000" stroke-width="1" fill="none"></path></g></g><g stroke-linecap="round"><g transform="translate(368 216) rotate(0 0 12.5)"><path d="M0 0 C0 7.65, 0 15.3, 0 25 M0 0 C0 6.94, 0 13.88, 0 25" stroke="#000000" stroke-width="1" fill="none"></path></g><g transform="translate(368 216) rotate(0 0 12.5)"><path d="M-4.28 13.25 C-2.97 16.85, -1.66 20.44, 0 25 M-4.28 13.25 C-3.09 16.52, -1.9 19.78, 0 25" stroke="#000000" stroke-width="1" fill="none"></path></g><g transform="translate(368 216) rotate(0 0 12.5)"><path d="M4.28 13.25 C2.97 16.85, 1.66 20.44, 0 25 M4.28 13.25 C3.09 16.52, 1.9 19.78, 0 25" stroke="#000000" stroke-width="1" fill="none"></path></g></g><g stroke-linecap="round"><g transform="translate(368.5 302) rotate(0 0 12.5)"><path d="M0 0 C0 6.88, 0 13.77, 0 25 M0 0 C0 8.93, 0 17.86, 0 25" stroke="#000000" stroke-width="1" fill="none"></path></g><g transform="translate(368.5 302) rotate(0 0 12.5)"><path d="M-4.28 13.25 C-3.1 16.49, -1.92 19.72, 0 25 M-4.28 13.25 C-2.75 17.45, -1.22 21.64, 0 25" stroke="#000000" stroke-width="1" fill="none"></path></g><g transform="translate(368.5 302) rotate(0 0 12.5)"><path d="M4.28 13.25 C3.1 16.49, 1.92 19.72, 0 25 M4.28 13.25 C2.75 17.45, 1.22 21.64, 0 25" stroke="#000000" stroke-width="1" fill="none"></path></g></g><g stroke-linecap="round"><g transform="translate(369 389) rotate(0 0 12.5)"><path d="M0 0 C0 7.1, 0 14.2, 0 25 M0 0 C0 8.4, 0 16.79, 0 25" stroke="#000000" stroke-width="1" fill="none"></path></g><g transform="translate(369 389) rotate(0 0 12.5)"><path d="M-4.28 13.25 C-3.06 16.59, -1.85 19.93, 0 25 M-4.28 13.25 C-2.84 17.2, -1.4 21.14, 0 25" stroke="#000000" stroke-width="1" fill="none"></path></g><g transform="translate(369 389) rotate(0 0 12.5)"><path d="M4.28 13.25 C3.06 16.59, 1.85 19.93, 0 25 M4.28 13.25 C2.84 17.2, 1.4 21.14, 0 25" stroke="#000000" stroke-width="1" fill="none"></path></g></g><g stroke-linecap="round"><g transform="translate(367 469) rotate(0 0 12.5)"><path d="M0 0 C0 5.53, 0 11.07, 0 25 M0 0 C0 6.73, 0 13.47, 0 25" stroke="#000000" stroke-width="1" fill="none"></path></g><g transform="translate(367 469) rotate(0 0 12.5)"><path d="M-4.28 13.25 C-3.33 15.85, -2.38 18.45, 0 25 M-4.28 13.25 C-3.12 16.42, -1.97 19.58, 0 25" stroke="#000000" stroke-width="1" fill="none"></path></g><g transform="translate(367 469) rotate(0 0 12.5)"><path d="M4.28 13.25 C3.33 15.85, 2.38 18.45, 0 25 M4.28 13.25 C3.12 16.42, 1.97 19.58, 0 25" stroke="#000000" stroke-width="1" fill="none"></path></g></g><g stroke-linecap="round"><g transform="translate(370 679) rotate(0 0 12.5)"><path d="M0 0 C0 6.47, 0 12.94, 0 25 M0 0 C0 5.56, 0 11.11, 0 25" stroke="#000000" stroke-width="1" fill="none"></path></g><g transform="translate(370 679) rotate(0 0 12.5)"><path d="M-4.28 13.25 C-3.17 16.29, -2.06 19.34, 0 25 M-4.28 13.25 C-3.33 15.86, -2.37 18.48, 0 25" stroke="#000000" stroke-width="1" fill="none"></path></g><g transform="translate(370 679) rotate(0 0 12.5)"><path d="M4.28 13.25 C3.17 16.29, 2.06 19.34, 0 25 M4.28 13.25 C3.33 15.86, 2.37 18.48, 0 25" stroke="#000000" stroke-width="1" fill="none"></path></g></g><g stroke-linecap="round"><g transform="translate(372 766) rotate(0 0 14)"><path d="M0 0 C0 7.79, 0 15.57, 0 28 M0 0 C0 5.6, 0 11.21, 0 28" stroke="#000000" stroke-width="1" fill="none"></path></g><g transform="translate(372 766) rotate(0 0 14)"><path d="M-4.79 14.84 C-3.46 18.5, -2.12 22.16, 0 28 M-4.79 14.84 C-3.83 17.48, -2.87 20.11, 0 28" stroke="#000000" stroke-width="1" fill="none"></path></g><g transform="translate(372 766) rotate(0 0 14)"><path d="M4.79 14.84 C3.46 18.5, 2.12 22.16, 0 28 M4.79 14.84 C3.83 17.48, 2.87 20.11, 0 28" stroke="#000000" stroke-width="1" fill="none"></path></g></g><g stroke-linecap="round"><g transform="translate(464 649) rotate(0 46 0)"><path d="M0 0 C20.66 0, 41.33 0, 73 0 M73 0 C78.26 0, 83.53 0, 92 0" stroke="#495057" stroke-width="1.5" fill="none" stroke-dasharray="8 9"></path></g><g transform="translate(464 649) rotate(0 46 0)"><path d="M83.07 3.25 C85.6 2.33, 88.13 1.41, 92 0" stroke="#495057" stroke-width="1.5" fill="none"></path></g><g transform="translate(464 649) rotate(0 46 0)"><path d="M83.07 -3.25 C85.6 -2.33, 88.13 -1.41, 92 0" stroke="#495057" stroke-width="1.5" fill="none"></path></g></g><g stroke-linecap="round"><g transform="translate(740.5862790609867 621.4302693539812) rotate(0 -120.08627906098673 -200.21513467699071)"><path d="M0 29 C13.91 24.46, 27.81 19.93, 37.41 16.8 M37.41 16.8 C36.4 -96.4, 35.38 -209.59, 33.41 -429.43 M33.41 -429.43 C-78.51 -429.43, -190.44 -429.43, -250.59 -429.43 M-250.59 -429.43 C-258.4 -429.43, -266.22 -429.43, -277.59 -429.43" stroke="#495057" stroke-width="1.5" fill="none" stroke-dasharray="8 9"></path></g><g transform="translate(740.5862790609867 621.4302693539812) rotate(0 -120.08627906098673 -200.21513467699071)"><path d="M-264.9 -434.05 C-269.62 -432.33, -274.33 -430.62, -277.59 -429.43" stroke="#495057" stroke-width="1.5" fill="none"></path></g><g transform="translate(740.5862790609867 621.4302693539812) rotate(0 -120.08627906098673 -200.21513467699071)"><path d="M-264.9 -424.81 C-269.62 -426.53, -274.33 -428.25, -277.59 -429.43" stroke="#495057" stroke-width="1.5" fill="none"></path></g></g><g stroke-linecap="round"><g transform="translate(368 557) rotate(0 0.5 32.5)"><path d="M0 0 C0.39 20.93, 0.79 41.87, 1 53 M0 0 C0.35 18.46, 0.7 36.91, 1 53 M1 53 C1 56.9, 1 60.79, 1 65 M1 53 C1 56.61, 1 60.21, 1 65" stroke="#000000" stroke-width="1" fill="none"></path></g><g transform="translate(368 557) rotate(0 0.5 32.5)"><path d="M-1.05 59.36 C-0.24 61.59, 0.57 63.82, 1 65 M-1.05 59.36 C-0.34 61.33, 0.38 63.29, 1 65" stroke="#000000" stroke-width="1" fill="none"></path></g><g transform="translate(368 557) rotate(0 0.5 32.5)"><path d="M3.05 59.36 C2.24 61.59, 1.43 63.82, 1 65 M3.05 59.36 C2.34 61.33, 1.62 63.29, 1 65" stroke="#000000" stroke-width="1" fill="none"></path></g></g><g transform="translate(290 576.5) rotate(0 84.5 13)"><text x="0" y="19" font-family="Virgil, Segoe UI Emoji" font-size="20px" fill="#000000" text-anchor="start" style="white-space: pre;" direction="ltr">failure / success</text></g><g stroke-linecap="round"><g transform="translate(464 523) rotate(0 23.5 -125.50000000000006)"><path d="M0 0 C17.55 0, 35.1 0, 48 0 M0 0 C16.24 0, 32.48 0, 48 0 M48 0 C46.95 -87.72, 45.9 -175.44, 45 -251 M48 0 C46.91 -91.23, 45.82 -182.46, 45 -251 M45 -251 C34.65 -251, 24.3 -251, 18 -251 M45 -251 C38.84 -251, 32.69 -251, 18 -251 M18 -251 C11.21 -251, 4.41 -251, -1 -251 M18 -251 C14.18 -251, 10.35 -251, -1 -251" stroke="#000000" stroke-width="1" fill="none"></path></g><g transform="translate(464 523) rotate(0 23.5 -125.50000000000006)"><path d="M7.93 -254.25 C4.66 -253.06, 1.4 -251.87, -1 -251 M7.93 -254.25 C4.91 -253.15, 1.89 -252.05, -1 -251" stroke="#000000" stroke-width="1" fill="none"></path></g><g transform="translate(464 523) rotate(0 23.5 -125.50000000000006)"><path d="M7.93 -247.75 C4.66 -248.94, 1.4 -250.13, -1 -251 M7.93 -247.75 C4.91 -248.85, 1.89 -249.95, -1 -251" stroke="#000000" stroke-width="1" fill="none"></path></g></g><g stroke-linecap="round"><g transform="translate(512 524) rotate(0 24 0)"><path d="M0 0 C8.74 0, 17.48 0, 25 0 M25 0 C32.8 0, 40.61 0, 48 0" stroke="#495057" stroke-width="1.5" fill="none" stroke-dasharray="8 9"></path></g><g transform="translate(512 524) rotate(0 24 0)"><path d="M37.19 3.93 C40.97 2.56, 44.75 1.18, 48 0" stroke="#495057" stroke-width="1.5" fill="none"></path></g><g transform="translate(512 524) rotate(0 24 0)"><path d="M37.19 -3.93 C40.97 -2.56, 44.75 -1.18, 48 0" stroke="#495057" stroke-width="1.5" fill="none"></path></g></g><g stroke-linecap="round"><g transform="translate(561 275) rotate(0 -25 -0.5)"><path d="M0 0 C-7.3 -0.32, -14.6 -0.63, -23 -1 M-23 -1 C-28.69 -1, -34.39 -1, -50 -1" stroke="#495057" stroke-width="1.5" fill="none" stroke-dasharray="8 9"></path></g><g transform="translate(561 275) rotate(0 -25 -0.5)"><path d="M-37.31 -5.62 C-41.34 -4.15, -45.37 -2.69, -50 -1" stroke="#495057" stroke-width="1.5" fill="none"></path></g><g transform="translate(561 275) rotate(0 -25 -0.5)"><path d="M-37.31 3.62 C-41.34 2.15, -45.37 0.69, -50 -1" stroke="#495057" stroke-width="1.5" fill="none"></path></g></g><g stroke-linecap="round"><g transform="translate(690 491) rotate(0 -2.5 -92)"><path d="M0 0 C-0.76 -42, -1.52 -84, -3 -166 M-3 -166 C-3.72 -172.44, -4.43 -178.87, -5 -184" stroke="#000000" stroke-width="1.5" fill="none" stroke-dasharray="8 9"></path></g><g transform="translate(690 491) rotate(0 -2.5 -92)"><path d="M-0.98 -175.88 C-2 -177.94, -3.02 -179.99, -5 -184" stroke="#000000" stroke-width="1.5" fill="none"></path></g><g transform="translate(690 491) rotate(0 -2.5 -92)"><path d="M-7.14 -175.2 C-6.6 -177.43, -6.06 -179.65, -5 -184" stroke="#000000" stroke-width="1.5" fill="none"></path></g></g><g stroke-linecap="round"><g transform="translate(265 103) rotate(0 -93.5 196.5)"><path d="M0 0 C-60.46 -0.32, -120.93 -0.65, -187 -1 M-187 -1 C-185.8 70.52, -184.6 142.03, -181 356 M-181 356 C-180.56 364.47, -180.12 372.95, -179.03 394" stroke="#495057" stroke-width="1.5" fill="none" stroke-dasharray="8 9"></path></g><g transform="translate(265 103) rotate(0 -93.5 196.5)"><path d="M-186.46 376.48 C-184.06 382.15, -181.66 387.81, -179.03 394" stroke="#495057" stroke-width="1.5" fill="none"></path></g><g transform="translate(265 103) rotate(0 -93.5 196.5)"><path d="M-173.46 375.81 C-175.26 381.69, -177.06 387.57, -179.03 394" stroke="#495057" stroke-width="1.5" fill="none"></path></g></g><g stroke-linecap="round"><g transform="translate(266 190) rotate(0 -93 0)"><path d="M0 0 C-59.91 0, -119.82 0, -186 0" stroke="#495057" stroke-width="1.5" fill="none" stroke-dasharray="8 9"></path></g></g><g stroke-linecap="round"><g transform="translate(266 274) rotate(0 -93 0)"><path d="M0 0 C-46.9 0, -93.81 0, -186 0" stroke="#495057" stroke-width="1.5" fill="none" stroke-dasharray="8 9"></path></g></g><g stroke-linecap="round"><g transform="translate(266 356) rotate(0 -93 0)"><path d="M0 0 C-51.89 0, -103.78 0, -186 0" stroke="#495057" stroke-width="1.5" fill="none" stroke-dasharray="8 9"></path></g></g><g stroke-linecap="round"><g transform="translate(266 443) rotate(0 -93 0)"><path d="M0 0 C-46.37 0, -92.74 0, -186 0" stroke="#495057" stroke-width="1.5" fill="none" stroke-dasharray="8 9"></path></g></g><g stroke-linecap="round"><g transform="translate(132 558) rotate(0 71.5 50)"><path d="M0 0 C0.72 35.4, 1.43 70.8, 2 99 M2 99 C34.15 99.29, 66.3 99.59, 111 100 M111 100 C118.17 100, 125.35 100, 143 100" stroke="#495057" stroke-width="1.5" fill="none" stroke-dasharray="8 9"></path></g><g transform="translate(132 558) rotate(0 71.5 50)"><path d="M127.96 105.47 C133.34 103.52, 138.72 101.56, 143 100" stroke="#495057" stroke-width="1.5" fill="none"></path></g><g transform="translate(132 558) rotate(0 71.5 50)"><path d="M127.96 94.53 C133.34 96.48, 138.72 98.44, 143 100" stroke="#495057" stroke-width="1.5" fill="none"></path></g></g><g stroke-linecap="round"><g transform="translate(65 559) rotate(0 104.5 89.5)"><path d="M0 0 C0.85 37.97, 1.71 75.94, 4 178.03 M4 178.03 C43.87 178.25, 83.75 178.47, 180 179 M180 179 C191.18 179, 202.35 179, 209 179" stroke="#495057" stroke-width="1.5" fill="none" stroke-dasharray="8 9"></path></g><g transform="translate(65 559) rotate(0 104.5 89.5)"><path d="M195.37 183.96 C198.28 182.9, 201.19 181.84, 209 179" stroke="#495057" stroke-width="1.5" fill="none"></path></g><g transform="translate(65 559) rotate(0 104.5 89.5)"><path d="M195.37 174.04 C198.28 175.1, 201.19 176.16, 209 179" stroke="#495057" stroke-width="1.5" fill="none"></path></g></g><g stroke-linecap="round"><g transform="translate(617 557) rotate(0 39 15)"><path d="M0 0 C0.39 11.65, 0.78 23.3, 1 30 M1 30 C19.47 29.76, 37.93 29.52, 78 29 M78 29 C77.75 22, 77.5 15, 77 1" stroke="#495057" stroke-width="1.5" fill="none" stroke-dasharray="8 9"></path></g><g transform="translate(617 557) rotate(0 39 15)"><path d="M82.26 13.98 C80.22 8.94, 78.17 3.9, 77 1" stroke="#495057" stroke-width="1.5" fill="none"></path></g><g transform="translate(617 557) rotate(0 39 15)"><path d="M72.68 14.33 C74.36 9.15, 76.04 3.98, 77 1" stroke="#495057" stroke-width="1.5" fill="none"></path></g></g></svg>
